<?xml version="1.0" encoding="UTF-8" standalone="no"?>
<svg
   xmlns:dc="http://purl.org/dc/elements/1.1/"
   xmlns:cc="http://creativecommons.org/ns#"
   xmlns:rdf="http://www.w3.org/1999/02/22-rdf-syntax-ns#"
   xmlns:svg="http://www.w3.org/2000/svg"
   xmlns="http://www.w3.org/2000/svg"
   xmlns:sodipodi="http://sodipodi.sourceforge.net/DTD/sodipodi-0.dtd"
   xmlns:inkscape="http://www.inkscape.org/namespaces/inkscape"
   id="svg"
   version="1.1"
   width="400"
   height="29.282576866764273"
   viewBox="0, 0, 400,29.282576866764273"
   sodipodi:docname="jsr_bgTop.svg"
   inkscape:version="0.92.5 (2060ec1f9f, 2020-04-08)">
  <metadata
     id="metadata12">
    <rdf:RDF>
      <cc:Work
         rdf:about="">
        <dc:format>image/svg+xml</dc:format>
        <dc:type
           rdf:resource="http://purl.org/dc/dcmitype/StillImage" />
        <dc:title></dc:title>
      </cc:Work>
    </rdf:RDF>
  </metadata>
  <defs
     id="defs10" />
  <sodipodi:namedview
     pagecolor="#ffffff"
     bordercolor="#666666"
     borderopacity="1"
     objecttolerance="10"
     gridtolerance="10"
     guidetolerance="10"
     inkscape:pageopacity="0"
     inkscape:pageshadow="2"
     inkscape:window-width="1920"
     inkscape:window-height="993"
     id="namedview8"
     showgrid="false"
     inkscape:zoom="5.6568543"
     inkscape:cx="-3.4118675"
     inkscape:cy="56.015328"
     inkscape:window-x="0"
     inkscape:window-y="24"
     inkscape:window-maximized="1"
     inkscape:current-layer="svg" />
  <path
     style="fill:#ecc605;fill-rule:evenodd;stroke:none"
     inkscape:connector-curvature="0"
     d="m 91.667,2.822 c 0,0.16 0.827,1.072 1.837,2.026 3.595,3.395 5.941,5.576 6.547,6.087 1.168,0.984 0.433,1.349 -1.83,0.908 C 97.779,11.757 96.554,11.565 95.5,11.417 92.805,11.037 89.76,10.576 88.75,10.397 88.475,10.348 87.8,10.242 87.25,10.161 80.753398,9.0174627 74.855436,8.3331444 68.5,7.16 65.724,6.571 62.484,6.363 61.634,6.718 c -0.609,0.255 -0.964,1.2 -0.97,2.586 -0.005,1.022 -0.761,4.995 -1.007,5.291 -0.36,0.434 -2.061,0.216 -4.574,-0.588 -1.837316,-0.559523 -3.781441,-1.021966 -5.5,-1.749 -1.102,-0.552 -5.477,-1.888 -11.5,-3.51 -1.466,-0.395 -2.877,-0.8 -3.136,-0.9 -0.937,-0.363 -1.353,-0.228 -2.911,0.944 -2.292,1.723 -5.794,4.396 -7.369,5.624 -1.931092,1.496799 -3.826894,2.899353 -5.75,4.42 -3.904,3.143 -3.86,2.666 0.333,-3.601 C 21.037,12.564 22.5,10.22 22.5,10.026 22.5,9.5 22.205,9.476 17,9.578 14.387,9.629 9.494,9.71 6.125,9.758 L 0,9.845 v 2.786 2.786 l 3.042,0.027 c 5.683,0.051 13.707,0.305 13.916,0.441 0.381,0.246 0.145,0.706 -2.624,5.115 -2.487,3.96 -2.587,4.167 -2.013,4.167 0.319,0 0.82,-0.25 4.179,-2.088 2.824,-1.546 5.344,-2.917 6.417,-3.493 0.55,-0.295 1.862,-1.009 2.916,-1.585 3.16,-1.729 5.294,-2.888 7.649,-4.151 l 2.231,-1.197 4.685,0.947 c 5.509,1.114 7.641,1.567 9.685,2.06 4.154313,0.962976 7.388867,1.467656 11.334,2.39 3.304881,0.548321 6.165423,1.005418 9.185,1.671 3.751,0.831 4.041,0.868 4.17,0.531 0.103,-0.268 -0.341,-1.662 -1.75,-5.489 -0.848,-2.303 -0.678,-2.805 0.759,-2.248 9.852275,1.140842 24.014932,2.89185 31.789,2.884 0.6,-0.23 0.165,-1.166 -1.152,-2.482 -1.14975,-1.269908 -1.9937,-2.579585 -3.007,-3.985 -2.188,-2.954 -2.32,-3.363 -1.074,-3.328 0.917,0.026 5.219,0.556 8.663,1.068 3.49281,0.4769049 6.03403,0.8411382 9.25,1.322 8.60681,1.1348111 17.12236,2.302964 24.833,3.339 1.324,0.176 3.159,0.436 4.75,0.672 2.49465,0.338763 4.41272,0.627671 6.834,0.933 2.14,0.239 1.799,0.699 -2.334,3.148 -3.829,2.269 -4.085,2.451 -3.951,2.802 0.121,0.313 38.942,0.438 39.434,0.126 0.436,-0.276 0.058,-0.604 -1.921,-1.666 -3.213,-1.725 -3.519,-2.052 -2.103,-2.247 0.435,-0.06 1.316,-0.185 1.958,-0.279 0.642,-0.093 1.748,-0.241 2.458,-0.329 2.306,-0.285 3.85,-0.479 5.125,-0.645 1.933,-0.25 5.449,-0.69 6.834,-0.855 1.916,-0.229 3.631,-0.459 4.916,-0.661 2.61,-0.409 6.606,-0.838 6.784,-0.728 0.242,0.15 0.142,0.344 -1.121,2.168 -3.895,5.626 -3.899,5.643 -1.111,4.758 2.055,-0.653 4.304,-1.315 4.948,-1.457 0.586,-0.129 3.296,-0.916 5.084,-1.477 0.687,-0.216 2.075,-0.631 3.083,-0.922 1.75,-0.506 8.387,-2.522 10.5,-3.19 0.55,-0.174 1.375,-0.418 1.833,-0.543 0.459,-0.125 1.658,-0.472 2.666,-0.77 2.156,-0.637 2.426,-0.625 5.424,0.233 2.986,0.854 5.902,1.673 9.244,2.597 0.916,0.253 2.857,0.81 4.311,1.237 1.455,0.427 3.742,1.065 5.084,1.419 1.341,0.354 4.95,1.359 8.021,2.234 3.071,0.875 7.121,2.015 9,2.535 1.879,0.519 4.242,1.193 5.25,1.497 4.293,1.295 6.584,1.794 6.584,1.436 0,-0.174 -1.663,-1.707 -2.829,-2.609 -4.789,-3.702 -5.083,-3.411 3.471,-3.437 3.726,-0.012 8.724,-0.045 11.108,-0.075 28.02,-0.35 26.298,-0.477 23.25,1.709 -1.69973,1.232684 -3.30548,2.540244 -4.957,3.82 -2.193,1.684 -1.864,1.828 2.457,1.073 11.91045,-2.009097 24.60377,-3.938243 35.449,-5.758 2.774,-0.491 3.105,-0.246 1.993,1.474 -2.454,3.794 -2.44,4.53 0.058,2.947 0.412,-0.261 4.406,-2.297 8.875,-4.524 8.913,-4.442 8.646,-4.258 7.605,-5.239 -0.82087,-0.831968 -1.45963,-1.702228 -2.188,-2.628 -0.77,-0.966 -1.046,-0.945 12.656,-0.945 H 400 V 6.064 2.961 l -0.458,0.11 c -11.05381,0.8337897 -24.17327,1.9270237 -35.125,3.09 -3.696,0.316 -3.759,0.049 1.277,5.423 2.526,2.696 2.537,3.005 0.114,3.278 -9.84492,1.392771 -19.71771,2.298057 -28.891,3.657 -3.116,0.462 -3.638,0.231 -2.472,-1.095 2.537,-2.887 3.796,-4.298 4.847,-5.432 0.664,-0.717 1.84802,-1.698994 1.55175,-1.98075 -12.63569,1.569898 -24.40272,3.66035 -35.51075,5.47475 -7.497,1.315 -7.493,1.316 -3.694,-1.586 0.948,-0.724 2.41,-1.842 3.25,-2.483 2.573,-1.966 3.236,-1.813 -8.472,-1.957 -20.289,-0.251 -27.009,-0.303 -27.375,-0.213 -0.896,0.221 -0.39,0.723 5.212,5.17 2.755,2.187 3.473,2.85 3.332,3.079 -0.187,0.302 -0.593,0.195 -5.336,-1.419 -2.567,-0.873 -7.104,-2.403 -10.083,-3.401 -2.979,-0.998 -9.193,-3.094 -13.808,-4.658 l -8.391,-2.843 -0.609,0.259 c -0.335,0.143 -1.396,0.583 -2.359,0.979 -0.963,0.395 -2.312,0.956 -3,1.246 -0.687,0.29 -1.963,0.817 -2.833,1.171 -0.871,0.353 -2.596,1.068 -3.834,1.587 -1.237,0.519 -2.962,1.232 -3.833,1.585 -0.871,0.353 -2.221,0.915 -3,1.249 -7.423,3.185 -9.833,4.111 -9.833,3.778 0,-0.294 2.787,-2.29 9.355,-6.701 5.773,-3.877 6.90707,-3.8490388 6.612,-4.796 -1.75465,-1.3692284 -3.68479,-0.6484553 -7.342,-1.029 -9.884,-1.03 -9.46463,-1.1904369 -7.85463,0.7305631 2.893,3.451 3.13463,3.7884369 1.72763,3.9634369 -0.503,0.063 -1.553,0.197 -2.332,0.298 -0.779,0.1 -2.054,0.252 -2.833,0.337 -0.779,0.084 -2.017,0.234 -2.75,0.333 -2.865,0.384 -5.092,0.651 -9,1.079 -1.375,0.151 -3.1,0.348 -3.833,0.437 -0.734,0.09 -1.971,0.234 -2.75,0.319 -0.78,0.085 -2.055,0.236 -2.834,0.334 -2.295,0.288 -3.765,0.457 -6.416,0.736 -1.375,0.145 -3.1,0.341 -3.834,0.435 -1.928,0.249 -3.808,0.482 -5.333,0.662 -0.733,0.086 -1.971,0.236 -2.75,0.333 -0.779,0.097 -2.017,0.244 -2.75,0.328 -0.733,0.083 -1.641,0.202 -2.018,0.264 -1.636,0.268 -1.699,-0.165 -0.399,-2.759 C 164.703,9.601 164.72,9.659 162.5,9.457 158.86678,9.1035055 154.76957,8.6753522 151.917,8.418 139.76786,7.0425551 129.50995,6.289191 118.833,5.16 116.68802,4.9336571 114.53023,4.7200184 112.417,4.501 108.704,4.116 107.62,4.01 104.667,3.745 101.11171,3.3896656 98.210159,3.1874577 94.833,2.763 93.475,2.5 91.70567,2.351699 91.70567,2.639699"
     id="path0"
     sodipodi:nodetypes="cccccccccccccccccccsccccccccsccccccccccccccccccccccccccccccccccccccccccccsccsccccccccccccscccccccccccccccccccscccccccscscccccccccccccccscccccccccc" />
  <path
     sodipodi:nodetypes="csccccccccccscccccccsccccccccccccccccccccccccccccccsccccccccccccccccscccccccccsccccccccccccccccccccccccsccscccccccccccscccccccscccccccccccscccccccccccccccccsssccccccccccccccccccsccsccccccccccccccccccccccccccscccsccccccccccccccccccccccssccccccccccccccccccccccsccccccccccccccsccsccccccccccccccccccccccccccccccccc"
     style="fill:#e20f47;fill-rule:evenodd;stroke:none"
     inkscape:connector-curvature="0"
     d="M 87.469301,0.01289321 C 87.215301,0.26689321 87.697,0.75 92.018,5.098 94.578,7.674 96.503,9.739 96.46,9.864 96.355,10.172 94.732,10.051 91.417,9.488 81.118503,8.001789 69.624112,6.1354018 61.861,4.976 60.336,4.748 60.014,4.833 59.822,5.512 c -0.213,0.754 -0.519,3.397 -0.597,5.155 -0.114,2.568 -0.086,2.5 -1.02,2.5 C 49.618798,11.171947 42.500947,8.9679999 34.224,6.65 32.825,6.258 32.337,6.381 31.026,7.454 29.227695,8.8528515 27.3131,10.326732 25.74,11.591 20.722,15.632 20.208,15.792 22.575,12.583 24.711,9.688 25,9.248 25,8.895 25,8.266 24.859,8.254 15.833,8.122 11.021,8.051 5.49,7.959 3.542,7.916 L 0,7.839 V 8.842 9.845 L 6.125,9.758 C 9.494,9.71 14.387,9.629 17,9.578 c 5.205,-0.102 5.5,-0.078 5.5,0.448 0,0.194 -1.463,2.538 -3.25,5.209 -4.193,6.267 -4.237,6.744 -0.333,3.601 0.641,-0.517 1.879,-1.474 2.75,-2.128 0.87,-0.653 2.22,-1.685 3,-2.292 1.575,-1.228 5.077,-3.901 7.369,-5.624 1.558,-1.172 1.974,-1.307 2.911,-0.944 0.259,0.1 1.67,0.505 3.136,0.9 6.023,1.622 10.398,2.958 11.5,3.51 3.177525,1.28229 9.160937,3.540359 10.074,2.337 0.246,-0.296 1.002,-4.269 1.007,-5.291 0.28725,-1.386 0.361,-2.331 0.97,-2.586 0.85,-0.355 4.09,-0.147 6.866,0.442 7.718313,1.40427 13.432198,2.1405337 20.25,3.237 1.01,0.179 4.055,0.64 6.75,1.02 1.054,0.148 2.279,0.34 2.721,0.426 2.263,0.441 2.998,0.076 1.83,-0.908 C 99.713,10.65 98.515,9.554 97.389,8.5 90.67,2.21 90.875,2.488 93.042,2.607 c 0.756,0.042 1.562,0.112 1.791,0.156 0.23,0.044 1.242,0.16 2.25,0.256 1.009,0.097 2.434,0.238 3.167,0.313 13.43511,1.3153905 25.05883,2.5683495 37.583,3.681 0.871,0.089 2.296,0.233 3.167,0.32 0.871,0.088 2.333,0.238 3.25,0.333 3.972,0.412 4.825,0.496 7.667,0.752 2.943,0.265 4.416,0.41 7.583,0.743 0.871,0.092 2.221,0.225 3,0.296 2.22,0.202 2.203,0.144 0.833,2.876 -1.3,2.594 -1.237,3.027 0.399,2.759 0.377,-0.062 1.285,-0.181 2.018,-0.264 0.733,-0.084 1.971,-0.231 2.75,-0.328 0.779,-0.097 2.017,-0.247 2.75,-0.333 1.525,-0.18 3.405,-0.413 5.333,-0.662 0.734,-0.094 2.459,-0.29 3.834,-0.435 2.651,-0.279 4.121,-0.448 6.416,-0.736 0.779,-0.098 2.054,-0.249 2.834,-0.334 0.779,-0.085 2.016,-0.229 2.75,-0.319 0.733,-0.089 2.458,-0.286 3.833,-0.437 3.908,-0.428 6.135,-0.695 9,-1.079 0.733,-0.099 1.971,-0.249 2.75,-0.333 0.779,-0.085 2.054,-0.237 2.833,-0.337 0.779,-0.101 1.829,-0.235 2.332,-0.298 1.407,-0.175 1.309,-0.413 -1.584,-3.864 -1.382,-1.649 -1.328,-1.716 1.183,-1.482 1.735,0.161 2.702,0.258 6.486,0.649 0.917,0.095 2.454,0.252 3.417,0.349 5.314,0.537 5.602,-0.059 -2.645,5.479 -6.568,4.411 -9.355,6.407 -9.355,6.701 0,0.245 0.33515,0.187146 2.82915,-0.809854 4.07377,-1.651945 6.15768,-2.655968 10.00385,-4.217146 0.871,-0.353 2.596,-1.066 3.833,-1.585 1.238,-0.519 2.963,-1.234 3.834,-1.587 0.87,-0.354 2.146,-0.881 2.833,-1.171 0.688,-0.29 2.037,-0.851 3,-1.246 0.963,-0.396 2.024,-0.836 2.359,-0.979 l 0.609,-0.259 8.391,2.843 c 4.615,1.564 10.829,3.66 13.808,4.658 2.979,0.998 7.516,2.528 10.083,3.401 6.82005,2.426485 6.909,2.234 2.004,-1.66 -5.602,-4.447 -6.108,-4.949 -5.212,-5.17 0.366,-0.09 7.086,-0.038 27.375,0.213 11.708,0.144 11.045,-0.009 8.472,1.957 -0.84,0.641 -2.302,1.759 -3.25,2.483 -2.507,1.53425 -2.94075,1.90175 -2.5345,2.55575 11.19408,-0.310394 28.70524,-4.712278 41.3955,-6.10075 -0.125,0.40175 -0.544,0.92 -1.208,1.637 -1.051,1.134 -2.31,2.545 -4.847,5.432 -1.166,1.326 -0.644,1.557 2.472,1.095 1.766,-0.263 3.345,-0.463 6.166,-0.784 3.515,-0.4 4.555,-0.531 5.834,-0.733 0.641,-0.102 1.766,-0.256 2.5,-0.343 2.026,-0.241 7.271,-0.895 9.333,-1.164 2.599,-0.339 4.06,-0.521 5.223,-0.651 2.238,-0.249 2.208,-0.606 -0.279,-3.26 -5.036,-5.374 -4.973,-5.107 -1.277,-5.423 1.008,-0.086 2.658,-0.234 3.666,-0.329 1.009,-0.095 2.696,-0.247 3.75,-0.338 2.253,-0.194 4.834,-0.421 7.5,-0.661 1.054,-0.094 2.742,-0.244 3.75,-0.332 1.009,-0.088 2.621,-0.234 3.584,-0.325 0.962,-0.09 3.325,-0.279 5.25,-0.42 C 400.275,3.144 400,3.193 400,2.292 V 1.623 l -0.708,0.121 c -0.39,0.066 -1.609,0.191 -2.709,0.278 -1.1,0.087 -2.825,0.229 -3.833,0.315 -4.2,0.362 -5.641,0.473 -8.333,0.641 -1.559,0.098 -3.209,0.224 -3.667,0.281 -0.803,0.099 -2.489,0.24 -6.917,0.575 -1.145,0.087 -2.946,0.234 -4,0.327 -3.946,0.347 -5.805,0.504 -7.75,0.655 -3.904,0.302 -3.908,0.213 0.17,4.212 4.232,4.151 4.265,4.226 1.958,4.509 -1.154,0.142 -2.498,0.32 -4.711,0.623 -0.687,0.094 -2.225,0.284 -3.417,0.423 -3.23,0.375 -4.587,0.566 -4.757,0.672 -0.084,0.051 -1.223,0.206 -2.531,0.343 -1.308,0.137 -2.903,0.324 -3.545,0.416 -4.122,0.588 -7.417,0.886 -7.615,0.687 -0.242,-0.241 0.029,-0.567 3.336,-4.018 4.835,-5.045 4.81,-5.207 -0.654,-4.193 -1.045,0.194 -2.275,0.422 -2.734,0.507 -0.934,0.173 -1.732,0.31 -5.333,0.916 -1.375,0.231 -2.875,0.501 -3.333,0.6 -0.459,0.098 -1.509,0.289 -2.334,0.423 -0.825,0.134 -1.931,0.315 -2.458,0.404 -0.527,0.088 -1.427,0.238 -2,0.333 -2.202,0.367 -2.8,0.468 -5.792,0.978 -1.696,0.29 -3.683,0.646 -4.416,0.793 -0.734,0.146 -1.746,0.327 -2.25,0.401 -0.505,0.074 -1.33,0.217 -1.834,0.317 -1.701,0.337 -3.386,0.415 -3.3,0.153 0.042,-0.127 1.452,-1.282 3.133,-2.565 3.029,-2.311 3.53,-2.776 3.273,-3.034 -0.252,-0.252 -43.759,-0.702 -45.064,-0.466 -0.866,0.157 -0.734,0.72 0.395,1.693 1.711,1.473 3.974,3.702 3.868,3.808 -0.174,0.174 -1.037,-0.099 -15.826,-5.011 -15.861,-5.268 -14.633,-4.958 -16.42,-4.141 -2.077,0.95 -4.029,1.822 -5.559,2.485 -1.653,0.717 -3.011,1.316 -6.333,2.794 -6.546,2.911 -6.413,2.655 1.667,-3.206 2.66,-1.93 2.73,-2.505 0.307,-2.505 -6.44824,-0.8379131 -13.08902,-1.7699048 -19.159,-2.423 -0.642,-0.121 -1.318,0.122 -1.311,0.47 0.003,0.112 0.868,1.36 1.924,2.774 1.055,1.414 1.896,2.689 1.868,2.833 -0.059,0.304 -0.177,0.324 -6.046,1.013 -13.14513,1.576864 -27.24871,3.209514 -39.178,4.606 -1.526,0.174 -1.674,-0.501 -0.501,-2.282 1.954,-2.966 1.837,-3.156 -2.154,-3.496 -15.60835,-1.4259789 -40.21203,-4.1615343 -46.5,-4.581 -3.023,-0.277 -4.54,-0.424 -7.75,-0.753 -0.963,-0.098 -2.425,-0.247 -3.25,-0.331 -0.825,-0.083 -2.663,-0.229 -4.084,-0.324 -1.421,-0.095 -2.996,-0.256 -3.5,-0.358 -0.504,-0.102 -1.591,-0.251 -2.416,-0.331 -0.825,-0.08 -2.175,-0.223 -3,-0.318 m 6.708,4.932 c -0.263,0.262 -0.172125,0.65975 0.63588,1.78775 1.44175,1.8830945 2.68497,3.955108 4.28512,5.69725 1.14,1.027 1.61,2.091 1.024,2.316 C 97.367969,15.07061 88.984843,13.547141 82.833,13.249 76.8095,12.582 74.65575,12.2075 73.49975,12.2025 71.853153,12.2926 72.174,12.46 73.022,14.763 c 1.409,3.827 1.853,5.221 1.75,5.489 -0.129,0.337 -0.419,0.3 -4.17,-0.531 -1.456,-0.322 -3.069,-0.65 -3.583,-0.728 C 57.947,17.472069 47.081014,14.849419 40.398,13.6 l -4.685,-0.947 -2.231,1.197 c -2.355,1.263 -4.489,2.422 -7.649,4.151 -1.054,0.576 -2.366,1.29 -2.916,1.585 -1.073,0.576 -3.593,1.947 -6.417,3.493 -5.543,3.032 -5.439,3.132 -2.166,-2.079 1.712062,-2.624938 2.817987,-4.632649 2.833,-4.806 0.04687,-0.54125 -0.597375,-0.471437 -5.401375,-0.581437 -2.7421875,-0.133313 -6.9726875,-0.171062 -8.5273125,-0.178375 -1.5775,-0.0625 -1.9834884,-0.03729 -2.704625,-0.04462 -0.77780857,-0.0079 -0.55225,-0.046 -0.53468749997,0.396563 -0.078125,0.289057 -0.56201562003,0.526452 2.88565629997,0.421718 1.9007968,0.09057 4.8032187,0.157276 8.8407187,0.223776 5.615,0.093 4.519625,-0.128625 2.991625,2.116375 -0.740815,1.05838 -1.360992,2.204554 -2.053,3.285 -0.089,0.085 -2.511,3.648 -3.037,4.467 -1.093,1.702 -0.229,1.824 2.123,0.302 8.410614,-4.12393 15.945601,-8.881501 23.454,-12.351 6.035834,0.842185 11.745769,1.48107 16.957612,2.947874 C 60.31678,18.447087 68.221153,21.783815 75.417,21.631 l 1.447573,-0.114291 C 77.03741,20.909623 75.815965,17.448324 74.732,15.74 73.54,13.468 73.557,13.458 78,13.992 c 9.472031,0.394657 19.673756,3.385633 28.223,2.18 l 0.944,-0.196 c 0.14298,-1.524961 -0.74622,-2.813591 -1.75,-3.716 -1.1866,-1.505517 -2.60602,-3.0747857 -3.48425,-4.59525 -0.484,-0.497 -0.47875,-0.71375 0.35925,-0.60775 0.435,0.056 1.504,0.15 2.375,0.211 10.63757,1.5409136 22.1403,2.987065 32.25,4.227 0.733,0.104 2.345,0.3 3.583,0.436 2.651,0.291 4.343,0.505 5.833,0.736 1.634,0.253 3.546,0.485 5.576,0.677 1.9,0.179 2.405,0.361 2.08,0.753 -1.94305,2.129203 -7.86658,4.279438 -7.619,5.596 0.20151,0.35268 44.797,0.178 44.797,-0.02 0,-0.287 -0.894,-0.996 -2.058,-1.632 -0.629,-0.343 -1.267,-0.699 -1.418,-0.791 -0.151,-0.092 -0.709,-0.418 -1.241,-0.725 -0.532,-0.308 -0.938,-0.645 -0.903,-0.75 0.069,-0.211 0.128,-0.221 5.703,-0.933 0.642,-0.082 2.254,-0.271 3.583,-0.42 1.329,-0.149 2.942,-0.34 3.584,-0.425 0.641,-0.085 1.804,-0.236 2.583,-0.335 1.376,-0.175 2.448,-0.314 5.125,-0.664 4.137,-0.542 4.515,-0.448 3.464,0.864 -0.88009,1.220348 -1.77294,2.549462 -2.608,3.661 -1.679,2.202 -1.64924,2.63966 0.34195,2.225388 5.15171,-1.15147 10.09005,-2.886107 14.59405,-4.080388 4.7412,-1.29402 8.48551,-2.327915 12.75,-3.503 0.412,-0.106 1.162,-0.306 1.666,-0.444 1.758,-0.482 1.921,-0.524 2.584,-0.65 0.366,-0.07 0.738,-0.109 0.826,-0.088 0.087,0.022 0.462,0.104 0.833,0.182 0.807,0.171 2.926,0.737 4.424,1.182 3.36861,0.93556 6.10633,1.690562 9.333,2.572 0.413,0.123 1.088,0.311 1.5,0.416 0.413,0.105 1.238,0.332 1.834,0.503 0.595,0.171 1.683,0.46 2.416,0.642 3.69075,1.028709 7.61982,2.058215 10.957,3.036 2.055,0.585918 3.84542,1.03923 5.71,1.54 0.825,0.227 2.1,0.573 2.833,0.768 0.734,0.195 1.671,0.459 2.084,0.587 0.412,0.128 1.087,0.319 1.5,0.425 0.412,0.106 1.237,0.332 1.833,0.503 0.596,0.171 1.833,0.509 2.75,0.751 1.29337,0.452159 2.70616,0.756586 3.957,1.129 0.91927,0.259707 1.67469,0.467664 2.54426,0.44934 -0.68897,-1.056285 -1.85091,-1.788351 -2.65526,-2.50134 -1.83828,-1.582976 -3.6318,-2.781448 -5.023,-4.65 0.081,-0.132 5.481,-0.184 19.109,-0.184 21.8,0 20.237,-0.127 17.952,1.468 -2.41199,1.853631 -6.07409,4.21024 -6.64225,5.149688 0.0832,0.366252 0.29443,0.457047 0.62119,0.419 2.95683,-0.39794 5.74313,-1.066288 8.55406,-1.306688 11.4848,-1.660462 22.16209,-3.281117 32.716,-5.034 1.257,-0.164 1.485,0.053 0.987,0.936 -0.95993,1.658816 -2.13857,3.072881 -2.86666,4.644835 -0.276,0.529 -0.0902,0.770635 0.42262,0.479169 1.5645,-0.4417 2.8498,-1.271882 4.00404,-1.839004 5.56861,-2.430479 9.82068,-4.88928 15.07,-7.088 0.505,-0.015 3.25,-1.578 3.306,-1.883 0.052,-0.279 -0.46,-0.909 -2.56,-3.147 -1.353,-1.441 -1.289,-1.449 7.587,-0.962 5.573,0.306 9.708,0.503 12.459,0.591 L 400,10.849 V 10.008 9.167 h -12.385 c -13.702,0 -13.426,-0.021 -12.656,0.945 0.207,0.259 0.667,0.846 1.023,1.305 0.355,0.458 0.88,1.053 1.165,1.323 1.041,0.981 1.308,0.797 -7.605,5.239 -4.469,2.227 -8.463,4.263 -8.875,4.524 -2.498,1.583 -2.512,0.847 -0.058,-2.947 1.112,-1.72 0.781,-1.965 -1.993,-1.474 -12.44901,2.078092 -24.91129,3.949019 -35.449,5.758 -4.321,0.755 -4.65,0.611 -2.457,-1.073 0.664,-0.51 1.769,-1.376 2.457,-1.925 0.687,-0.549 1.812,-1.402 2.5,-1.895 3.048,-2.186 4.77,-2.059 -23.25,-1.709 -2.384,0.03 -7.382,0.063 -11.108,0.075 -8.554,0.026 -8.26,-0.265 -3.471,3.437 1.166,0.902 2.829,2.435 2.829,2.609 0,0.358 -2.291,-0.141 -6.584,-1.436 -1.008,-0.304 -3.371,-0.978 -5.25,-1.497 -1.879,-0.52 -5.929,-1.66 -9,-2.535 -3.071,-0.875 -6.68,-1.88 -8.021,-2.234 -1.342,-0.354 -3.629,-0.992 -5.084,-1.419 -1.454,-0.427 -3.395,-0.984 -4.311,-1.237 -3.342,-0.924 -6.258,-1.743 -9.244,-2.597 -2.998,-0.858 -3.268,-0.87 -5.424,-0.233 -1.008,0.298 -2.207,0.645 -2.666,0.77 -0.458,0.125 -1.283,0.369 -1.833,0.543 -2.113,0.668 -8.75,2.684 -10.5,3.19 -1.008,0.291 -2.396,0.706 -3.083,0.922 -1.788,0.561 -4.498,1.348 -5.084,1.477 -0.644,0.142 -2.893,0.804 -4.948,1.457 -2.788,0.885 -2.784,0.868 1.111,-4.758 1.263,-1.824 1.363,-2.018 1.121,-2.168 -0.178,-0.11 -4.174,0.319 -6.784,0.728 -1.285,0.202 -3,0.432 -4.916,0.661 -1.385,0.165 -4.901,0.605 -6.834,0.855 -1.275,0.166 -2.819,0.36 -5.125,0.645 -0.71,0.088 -1.816,0.236 -2.458,0.329 -0.642,0.094 -1.523,0.219 -1.958,0.279 -1.416,0.195 -1.11,0.522 2.103,2.247 1.979,1.062 2.357,1.39 1.921,1.666 -0.492,0.312 -39.313,0.187 -39.434,-0.126 -0.134,-0.351 0.122,-0.533 3.951,-2.802 4.133,-2.449 4.474,-2.909 2.334,-3.148 -0.505,-0.056 -1.442,-0.18 -2.084,-0.276 -0.641,-0.095 -1.729,-0.246 -2.416,-0.334 -0.688,-0.089 -1.738,-0.234 -2.334,-0.323 -1.591,-0.236 -3.426,-0.496 -4.75,-0.672 -0.641,-0.085 -1.729,-0.233 -2.416,-0.33 C 130.05815,9.5303245 119.17473,8.104202 109,6.672 106.898,6.36 104.035,5.987 100.416,5.553 100.049,5.509 99.693,5.529 99.625,5.598"
     id="path1" />
  <path
     sodipodi:nodetypes="ccccscccccccccccscccccccccssccccccccccccsccccccccccccccccccccccccsccccc"
     style="fill:#54940c;fill-rule:evenodd;stroke:none"
     inkscape:connector-curvature="0"
     d="m 0,3.917 c 0,3.02 0.048,3.917 0.208,3.92 0.115,0.002 1.671,0.036 3.459,0.075 1.787,0.04 7.225,0.132 12.083,0.205 9.111,0.137 9.25,0.149 9.25,0.778 0,0.353 -0.289,0.793 -2.425,3.688 -2.367,3.209 -1.853,3.049 3.165,-0.992 1.729475,-1.420168 3.529583,-2.7542554 5.286,-4.137 1.311,-1.073 1.799,-1.196 3.198,-0.804 7.716035,2.0979556 15.459058,4.772886 23.981,6.517 0.934,0 0.906,0.068 1.02,-2.5 0.078,-1.758 0.384,-4.401 0.597,-5.155 0.192,-0.679 0.514,-0.764 2.039,-0.536 4.704642,0.8748861 35.197582,6.230759 34.849,5.10675 C 97.003,9.0515 94.569,7.665 91.998,5.078 88.848,1.909 87.44303,0.5654587 87.469301,0.01289321 87.002614,0.01726821 83.167,0 43.828,0 H 0 V 3.917 M 92.917,0.666 c 1.821223,0.19990572 3.606437,0.3593881 5.416,0.649 0.504,0.102 2.079,0.263 3.5,0.358 7.10653,0.6015966 12.73868,1.2677705 19.584,1.838 14.14631,1.3792641 28.95946,3.0147413 42,4.151 3.991,0.34 4.108,0.53 2.154,3.496 -1.173,1.781 -1.025,2.456 0.501,2.282 0.464,-0.053 1.445,-0.169 2.178,-0.258 0.733,-0.089 2.083,-0.241 3,-0.337 0.917,-0.096 1.854,-0.212 2.083,-0.258 11.34571,-1.211801 21.60932,-2.519702 31.917,-3.753 5.869,-0.689 5.987,-0.709 6.046,-1.013 0.028,-0.144 -0.813,-1.419 -1.868,-2.833 -1.056,-1.414 -1.921,-2.662 -1.924,-2.774 -0.007,-0.348 0.669,-0.591 1.311,-0.47 6.40806,0.8425795 13.29484,1.8405192 19.159,2.423 2.423,0 2.353,0.575 -0.307,2.505 -8.08,5.861 -8.213,6.117 -1.667,3.206 3.322,-1.478 4.68,-2.077 6.333,-2.794 1.53,-0.663 3.482,-1.535 5.559,-2.485 1.787,-0.817 0.559,-1.127 16.42,4.141 14.789,4.912 15.652,5.185 15.826,5.011 0.106,-0.106 -2.157,-2.335 -3.868,-3.808 -1.129,-0.973 -1.261,-1.536 -0.395,-1.693 1.305,-0.236 44.812,0.214 45.064,0.466 0.257,0.258 -0.244,0.723 -3.273,3.034 -1.681,1.283 -3.716,1.78175 -3.383,2.72125 2.64577,0.490338 5.14005,-0.558504 7.634,-1.02725 9.26391,-1.472627 19.79855,-3.380632 28.4,-4.954 5.464,-1.014 5.489,-0.852 0.654,4.193 -3.307,3.451 -3.578,3.777 -3.336,4.018 0.198,0.199 3.493,-0.099 7.615,-0.687 4.93401,-0.376243 9.4043,-1.223775 14.25,-1.854 2.213,-0.303 3.557,-0.481 4.711,-0.623 2.307,-0.283 2.274,-0.358 -1.958,-4.509 -4.078,-3.999 -4.074,-3.91 -0.17,-4.212 1.1,-0.086 2.825,-0.228 3.834,-0.317 3.852,-0.34 5.903,-0.512 7.916,-0.665 4.428,-0.335 6.114,-0.476 6.917,-0.575 0.458,-0.057 2.108,-0.183 3.667,-0.281 1.558,-0.097 3.62,-0.244 4.583,-0.325 4.767,-0.403 6.059,-0.51 7.75,-0.643 1.008,-0.078 2.152,-0.198 2.542,-0.265 L 400,1.623 V 0.811 0 H 244.133 C 150.733,0 87.374301,-0.07710679 87.469301,0.01289321 M 245.311,12.574 v 0 m 84.231,10.874 v 0"
     id="path2" />
  <path
     sodipodi:nodetypes="ccccccccccccccccccccccccccccccccccccccccccccccccccsccccccccccccccccccccccccccccccsscccccccccccccccccscccccc"
     style="fill:#040404;fill-rule:evenodd;stroke:none"
     inkscape:connector-curvature="0"
     d="m 101.4375,6.965 c -0.97911,0.47699 5.61945,5.992511 5.7295,9.011 l -0.944,0.196 c -7.048129,1.010092 -27.949718,-3.30408 -32.074097,-2.39068 -0.449456,0.234486 0.496514,1.936583 1.176514,3.113583 0.712329,2.055362 2.518813,4.590976 0.09158,4.736097 -1.1,0.026 -2.15,-0.02 -2.334,-0.102 -9.204952,-2.120314 -19.155407,-3.944237 -27.621806,-5.952388 -3.121082,-0.628849 -6.41326,-1.267166 -9.543301,-1.589 -7.228775,2.466073 -16.579621,8.312354 -24.297768,12.701138 -1.084937,0.651875 -2.2993125,1.164313 -2.4361875,0.671313 0.2780008,-0.810599 0.59487,-1.211105 1.0533745,-1.993251 0.210737,-0.29841 0.469441,-0.678392 0.705063,-0.965124 1.485467,-2.15318 2.866632,-4.384786 4.334,-6.5495 1.444562,-1.63675 0.990437,-1.375875 -4.226563,-1.479875 C 8.5058125,16.321313 4.973,16.278 3.208,16.209 L -0.001,16.083 0,16.688 c 0,0.804 -0.236,0.774 7.231,0.914 l 6.268,0.117 c -0.690226,2.28627 -5.8806724,7.26176 -6.183,10.989 3.005736,1.24531 5.16757,-1.107958 7.517,-2.287 6.344859,-2.615908 18.481976,-10.903836 23.004,-10.749 0.869,0.163 2.292,0.422 3.163,0.574 4.23,0.74 4.988,0.889 6.882,1.354 8.476368,1.975408 15.794665,2.996448 23.817,4.92 3.227,0.795 5.550117,0.135767 6.070117,-0.836233 0.399,-0.746 -0.165263,-1.49632 -1.719971,-4.774515 -1.789817,-5.639937 26.108144,2.731529 31.723854,0.224748 1.7351,-3.705509 -2.85068,-6.268814 -4.56275,-9.107625 3.98916,0.4231155 7.46942,1.3455553 9.94289,1.6167512 3.19852,0.4291718 6.18173,0.9092948 8.90776,1.2543888 4.56318,0.720889 19.70851,1.874897 28.33814,3.256572 2.07757,0.484552 -2.17895,2.574702 -3.21237,3.194156 -1.798,0.916 -1.7451,2.558204 -0.7551,3.200204 1.87202,-0.113209 45.20475,0.349966 45.12286,-0.689765 0.0703,-0.443936 -1.89756,-2.613596 -4.37618,-3.875557 7.3733,-0.63728 13.56968,-1.704038 21.52975,-2.410125 0,0.315 -1.97525,2.712375 -2.55075,3.5315 -1.08613,1.580625 -2.05525,3.98425 0.0957,3.97125 0.945,-0.006 5.793,-1.14875 8.747,-2.13575 5.04184,-1.338259 8.9773,-2.558044 13.519,-3.58 1.54366,-0.318536 10.18642,-3.648234 11.759,-2.88 2.262,0.548 3.474,0.901 3.783,1.104 0.332,0.216 2.952,0.921 9.879,2.658 2.26791,0.674564 4.94348,1.190494 6.871,1.866 2.97657,0.944917 5.90112,1.647155 8.852,2.468 0.415,0.134 1.841,0.519 3.17,0.856 4.76656,1.149379 8.55263,2.629363 13.334,3.67 0.23119,0.09906 2.00139,0.530269 5.338,1.395 3.087,0.803 3.995,0.571 3.995,-1.017 0,-0.762 -0.612,-1.452 -3.196,-3.609 -0.58,-0.484 -1.354,-1.138 -1.721,-1.454 l -1.4785,-1.2 c 6.94824,-0.13517 25.48314,-0.562263 33.55779,0.0097 -4.44586,3.437166 -8.87731,6.565615 -6.38398,7.243381 14.70261,-2.271878 29.73551,-4.266822 41.26369,-5.885058 0.434,-0.08 1.235,-0.25525 0.529,0.67675 -3.122,4.125 -3.15525,6.31675 1.652,3.90525 5.43296,-2.762851 17.42813,-8.659943 21.76625,-10.4015 0.779,-0.715 0.0158,-1.1155 -1.18225,-2.3635 l -1.027,-1.069 c 1.00133,-0.03168 2.0475,0.07866 2.961,0.173 1.178,0.152 5.836,0.338 15.051,0.599 L 400,12.182 v -0.674 -0.675 l -2.5502,-0.117743 c -6.72857,0.03092 -15.16479,-1.1793311 -20.35761,-0.9147098 -0.94903,0.00661 -0.53623,0.6298068 -0.10027,1.0898068 1.968,2.074 2.85631,3.107407 2.80931,3.352407 -8.10666,3.812303 -17.23819,8.5553 -21.90018,10.581078 -0.546,0.413 -1.19585,0.425485 -0.91985,-0.103515 0.97511,-1.825503 2.52347,-3.490069 3.27513,-5.601459 -0.09,-0.235388 -0.78458,-0.213249 -1.34958,-0.146252 -0.447,0.053 -1.19905,0.228388 -1.65705,0.281388 -10.48754,1.682715 -21.33113,3.439024 -30.833,4.691 -2.10262,0.288597 -4.24896,0.683825 -6.03713,0.964688 -1.33418,0.167375 -1.74438,0.300187 -2.48806,0.4175 -0.47395,0.07691 -0.55709,0.05331 -0.74631,-0.18075 1.90114,-2.803303 5.95065,-4.136388 7.91798,-6.454904 0.18782,-0.503039 -9.13792,-0.390408 -19.49592,-0.390408 -14.799,0 -18.1795,0.0327 -18.72351,0.03927 -0.89633,0.01083 4e-4,0.938893 1.08928,1.796213 1.78521,1.783102 4.86064,3.768286 6.23367,5.414389 -2.32995,-0.101403 -4.72394,-1.035219 -6.87657,-1.596417 -4.7527,-1.34261 -9.74608,-2.742246 -14.04043,-3.838583 -0.275,-0.041 -1.22405,-0.342291 -2.09405,-0.587291 -3.79456,-1.117128 -7.82313,-2.103357 -11.23895,-3.112709 -3.28884,-0.84653 -6.82334,-1.853333 -9.70137,-2.689087 -2.63372,-0.601487 -5.26561,-1.485697 -9.37851,-2.548913 -0.9651,-0.431667 -2.2516,-0.06725 -3.13299,0.15052 -1.43595,0.354818 -2.66703,0.726364 -4.01729,1.10604 -4.43277,1.149371 -10.61412,2.846266 -12.92484,3.553438 -4.71428,1.101845 -9.56949,2.936151 -13.84825,3.8325 -2.67334,0.533384 2.57213,-4.834111 3.40675,-7.1315 -0.165,-0.166 -1.57925,-0.138625 -2.4125,0.03238 -1.24609,0.341926 -23.44891,2.256416 -22.506,3.18025 0.19663,0.2035 1.46225,0.9125 1.92125,1.1795 1.32028,0.672918 2.78309,1.455849 3.57988,2.478375 0.106,0.275 -43.07308,0.08339 -44.29561,0.09606 -0.24014,0.0025 0.13211,-0.835369 0.76711,-1.165369 2.76982,-1.353027 6.93928,-4.157581 6.71475,-4.615 -0.071,-0.269 -0.80119,-0.475679 -2.27019,-0.547679 C 144.96,12.393369 137.13349,11.47014 129.9997,10.590999 126.48438,10.099686 124.61681,9.9667103 122.17236,9.6051825 116.29997,8.7289039 110.03046,7.982776 104.622,7.269"
     id="path3" />
</svg>
