<svg id="svg" version="1.1" xmlns="http://www.w3.org/2000/svg" xmlns:xlink="http://www.w3.org/1999/xlink" width="400" height="29.282576866764273" viewBox="0, 0, 400,29.282576866764273"><g id="svgg"><path id="path0" d="M86.808 0.125 C 86.700 0.658,86.808 0.868,87.610 1.669 C 87.717 1.776,87.991 2.050,88.220 2.280 C 88.450 2.509,88.712 2.771,88.804 2.863 C 88.895 2.955,89.170 3.229,89.414 3.473 C 89.658 3.717,89.908 3.967,89.970 4.028 C 94.024 8.024,95.568 9.559,95.434 9.458 C 95.170 9.261,94.968 9.313,95.105 9.542 C 95.191 9.683,95.140 9.677,94.949 9.521 C 94.794 9.395,94.666 9.358,94.664 9.438 C 94.663 9.518,94.593 9.475,94.510 9.343 C 94.350 9.091,92.893 8.827,91.722 8.840 C 91.341 8.844,90.987 8.780,90.936 8.698 C 90.885 8.616,90.342 8.535,89.729 8.518 C 89.116 8.501,88.532 8.435,88.432 8.371 C 88.332 8.308,87.800 8.205,87.250 8.143 C 85.649 7.964,84.774 7.818,84.417 7.670 C 84.233 7.594,83.296 7.451,82.333 7.353 C 79.574 7.071,78.945 6.996,78.500 6.900 C 77.663 6.720,76.222 6.484,75.083 6.342 C 74.442 6.261,73.467 6.115,72.917 6.015 C 72.367 5.916,71.565 5.835,71.135 5.834 C 70.705 5.834,70.309 5.762,70.255 5.674 C 70.201 5.587,69.824 5.550,69.418 5.592 C 68.879 5.647,68.497 5.573,68.005 5.316 C 67.553 5.081,67.117 4.986,66.680 5.027 C 66.321 5.062,66.059 5.040,66.096 4.979 C 66.134 4.918,66.055 4.826,65.921 4.775 C 65.787 4.723,65.631 4.757,65.574 4.849 C 65.510 4.951,65.396 4.957,65.277 4.864 C 64.994 4.641,64.229 4.489,63.000 4.410 C 62.404 4.372,61.412 4.277,60.794 4.200 C 59.354 4.021,59.279 4.079,59.207 5.447 C 59.174 6.072,59.080 6.733,58.997 6.917 C 58.836 7.274,58.707 8.489,58.565 10.958 L 58.477 12.500 57.709 12.500 C 57.286 12.500,56.710 12.430,56.428 12.344 C 55.794 12.150,54.429 11.837,53.707 11.719 C 53.408 11.670,53.122 11.563,53.072 11.482 C 53.022 11.400,52.801 11.333,52.582 11.333 C 52.363 11.333,52.123 11.240,52.050 11.125 C 51.821 10.768,50.494 10.167,49.934 10.167 C 49.640 10.167,49.329 10.097,49.242 10.011 C 49.155 9.926,48.757 9.824,48.358 9.784 C 47.958 9.745,47.583 9.644,47.524 9.560 C 47.465 9.476,47.210 9.413,46.958 9.420 C 46.706 9.427,46.500 9.360,46.500 9.272 C 46.500 9.183,46.458 9.153,46.408 9.203 C 46.357 9.254,46.038 9.160,45.699 8.994 C 45.353 8.825,45.058 8.764,45.025 8.855 C 44.992 8.946,44.799 8.906,44.582 8.765 C 44.371 8.626,43.928 8.494,43.599 8.472 C 43.269 8.450,43.000 8.360,43.000 8.271 C 43.000 8.183,42.957 8.154,42.904 8.207 C 42.851 8.260,42.570 8.230,42.279 8.141 C 41.988 8.051,41.675 7.961,41.583 7.939 C 41.492 7.918,41.263 7.816,41.075 7.712 C 40.887 7.609,40.269 7.472,39.700 7.407 C 39.132 7.343,38.667 7.241,38.667 7.181 C 38.667 7.122,38.460 7.056,38.208 7.035 C 37.956 7.014,37.725 6.922,37.694 6.831 C 37.663 6.739,37.580 6.700,37.509 6.744 C 37.439 6.788,37.126 6.745,36.815 6.649 C 33.093 5.501,31.769 5.602,30.399 7.136 C 30.114 7.455,29.800 7.665,29.700 7.604 C 29.528 7.498,28.667 8.277,28.667 8.540 C 28.667 8.610,28.484 8.667,28.260 8.667 C 28.036 8.667,27.799 8.753,27.734 8.859 C 27.653 8.990,27.690 9.006,27.849 8.908 C 27.978 8.829,27.866 9.024,27.600 9.341 C 27.334 9.658,27.020 9.896,26.902 9.870 C 26.785 9.845,26.477 10.088,26.219 10.412 C 25.961 10.735,25.641 11.000,25.507 11.000 C 25.373 11.000,24.986 11.271,24.647 11.602 C 23.715 12.513,23.513 12.220,24.358 11.183 C 24.757 10.694,25.216 10.096,25.378 9.855 C 25.540 9.614,25.756 9.439,25.857 9.465 C 25.971 9.495,26.010 9.351,25.961 9.090 C 25.916 8.857,25.953 8.667,26.044 8.667 C 26.134 8.667,26.114 8.554,26.000 8.417 C 25.886 8.279,25.848 8.167,25.917 8.167 C 25.985 8.167,25.949 8.057,25.838 7.922 C 25.726 7.787,25.586 7.687,25.526 7.698 C 25.466 7.710,25.304 7.676,25.167 7.624 C 25.029 7.571,19.310 7.485,12.458 7.432 L 0.000 7.335 0.000 8.590 L 0.000 9.845 6.208 9.753 C 20.180 9.547,22.574 9.560,22.629 9.843 C 22.656 9.986,21.229 12.274,19.457 14.927 C 15.267 21.199,15.387 21.000,15.793 21.000 C 16.142 21.000,16.768 20.571,18.471 19.165 C 19.083 18.660,19.921 18.000,20.333 17.697 C 20.746 17.395,21.571 16.776,22.167 16.322 C 22.762 15.868,23.726 15.141,24.309 14.706 C 24.891 14.272,25.728 13.617,26.169 13.250 C 26.610 12.883,27.244 12.396,27.578 12.167 C 28.289 11.680,29.278 10.929,30.333 10.078 C 33.560 7.471,33.683 7.416,35.121 7.917 C 35.508 8.052,36.821 8.420,38.038 8.735 C 39.254 9.050,40.662 9.431,41.167 9.583 C 42.177 9.886,43.592 10.301,45.500 10.852 C 48.412 11.694,49.395 12.036,49.824 12.353 C 50.293 12.700,51.026 12.934,52.333 13.154 C 52.746 13.224,53.271 13.364,53.500 13.465 C 54.585 13.945,57.527 14.735,58.471 14.801 C 59.738 14.889,59.856 14.796,60.033 13.584 C 60.106 13.079,60.243 12.235,60.335 11.708 C 60.428 11.181,60.576 10.112,60.664 9.333 C 60.935 6.924,60.959 6.861,61.644 6.669 C 62.447 6.445,66.478 6.635,67.667 6.953 C 69.153 7.351,69.853 7.500,71.000 7.663 C 71.596 7.747,72.571 7.896,73.167 7.995 C 73.762 8.093,75.075 8.291,76.083 8.436 C 79.518 8.927,79.917 8.987,80.917 9.158 C 81.467 9.252,82.404 9.406,83.000 9.500 C 83.596 9.594,84.533 9.745,85.083 9.836 C 85.633 9.926,86.571 10.073,87.167 10.161 C 87.763 10.250,88.700 10.399,89.250 10.494 C 90.347 10.681,91.625 10.870,94.417 11.256 C 97.535 11.687,100.289 12.100,100.657 12.191 C 101.203 12.326,100.990 11.678,100.312 11.142 C 99.924 10.835,98.646 9.683,97.473 8.583 C 91.122 2.629,90.853 2.337,91.850 2.470 C 92.070 2.499,93.000 2.597,93.917 2.686 C 95.530 2.843,96.944 2.988,100.083 3.320 C 100.908 3.407,103.008 3.601,104.750 3.751 C 108.246 4.052,109.165 4.143,115.667 4.836 C 116.446 4.919,117.871 5.066,118.833 5.163 C 119.796 5.261,121.258 5.412,122.083 5.499 C 128.767 6.207,129.651 6.294,133.167 6.587 C 136.330 6.850,137.367 6.949,141.000 7.334 C 141.962 7.436,143.462 7.591,144.333 7.678 C 145.204 7.766,146.592 7.909,147.417 7.996 C 148.242 8.084,150.304 8.274,152.000 8.418 C 153.696 8.563,155.721 8.750,156.500 8.834 C 159.730 9.182,161.490 9.351,162.750 9.433 C 164.717 9.560,164.717 9.562,163.282 12.441 C 161.703 15.609,161.231 15.419,168.417 14.506 C 169.150 14.412,170.387 14.262,171.167 14.171 C 171.946 14.080,173.165 13.929,173.875 13.836 C 174.585 13.743,175.710 13.596,176.375 13.510 C 177.040 13.423,178.521 13.275,179.667 13.179 C 180.813 13.083,181.975 12.964,182.250 12.914 C 182.525 12.864,183.425 12.746,184.250 12.652 C 185.075 12.558,186.313 12.409,187.000 12.321 C 187.688 12.233,188.887 12.087,189.667 11.996 C 190.446 11.905,191.646 11.761,192.333 11.676 C 193.021 11.591,194.746 11.401,196.167 11.253 C 199.049 10.954,201.011 10.728,202.750 10.495 C 204.696 10.235,206.336 10.028,208.000 9.833 C 208.871 9.732,210.146 9.575,210.833 9.485 C 211.521 9.395,212.571 9.280,213.167 9.230 C 214.561 9.114,214.649 9.003,213.967 8.226 C 213.657 7.873,213.294 7.423,213.160 7.228 C 213.026 7.032,212.333 6.213,211.619 5.409 C 210.905 4.604,210.384 3.883,210.460 3.807 C 210.589 3.677,212.639 3.808,216.250 4.177 C 219.983 4.557,221.188 4.681,222.667 4.838 C 223.537 4.930,224.844 5.060,225.570 5.127 C 227.251 5.283,227.300 5.471,225.896 6.366 C 225.277 6.761,224.091 7.554,223.260 8.129 C 221.815 9.129,217.725 11.903,212.771 15.241 C 211.499 16.098,210.266 16.992,210.031 17.226 L 209.605 17.653 210.395 17.415 C 210.830 17.284,211.650 16.979,212.218 16.738 C 212.785 16.496,213.550 16.182,213.917 16.039 C 214.283 15.897,215.446 15.409,216.500 14.955 C 217.554 14.500,218.942 13.907,219.583 13.637 C 220.225 13.366,221.162 12.967,221.667 12.749 C 222.171 12.532,223.146 12.129,223.833 11.855 C 224.521 11.581,226.096 10.933,227.333 10.414 C 229.471 9.519,230.124 9.251,231.958 8.516 C 232.394 8.342,233.387 7.926,234.167 7.593 C 234.946 7.259,236.071 6.794,236.667 6.559 C 237.262 6.324,238.237 5.913,238.833 5.645 L 239.917 5.158 244.167 6.595 C 246.504 7.385,252.767 9.499,258.083 11.294 C 263.400 13.088,269.925 15.290,272.583 16.187 C 278.926 18.328,279.170 18.281,275.668 15.583 C 274.795 14.911,274.438 14.619,269.204 10.303 C 268.629 9.829,268.222 9.378,268.299 9.301 C 268.547 9.053,306.943 9.501,306.863 9.750 C 306.805 9.930,305.968 10.624,304.303 11.872 C 303.724 12.306,302.725 13.075,302.083 13.581 C 301.442 14.086,300.376 14.894,299.716 15.375 C 298.561 16.217,298.271 16.645,298.935 16.527 C 299.449 16.436,300.970 16.199,302.750 15.933 C 303.667 15.796,304.867 15.604,305.417 15.507 C 305.967 15.409,306.942 15.255,307.583 15.164 C 308.225 15.072,309.162 14.926,309.667 14.838 C 310.171 14.750,311.071 14.595,311.667 14.494 C 312.262 14.392,313.125 14.242,313.583 14.160 C 314.443 14.007,315.900 13.757,317.500 13.488 C 318.004 13.404,319.242 13.221,320.250 13.083 C 322.064 12.834,323.428 12.621,325.125 12.321 C 325.606 12.236,326.394 12.097,326.875 12.012 C 328.696 11.691,329.974 11.491,331.750 11.250 C 332.758 11.113,333.996 10.929,334.500 10.841 C 341.149 9.674,340.667 9.728,340.667 10.147 C 340.667 10.352,340.084 11.131,339.253 12.039 C 338.475 12.889,337.256 14.243,336.544 15.049 C 335.832 15.855,334.843 16.963,334.346 17.511 C 333.031 18.960,333.232 19.037,336.917 18.495 C 338.742 18.226,340.216 18.043,342.917 17.751 C 345.562 17.465,347.015 17.285,348.917 17.006 C 349.558 16.912,350.683 16.758,351.417 16.663 C 352.150 16.569,353.275 16.424,353.917 16.341 C 354.558 16.258,356.133 16.068,357.417 15.919 C 358.700 15.769,360.238 15.581,360.833 15.501 C 364.163 15.053,364.854 14.966,365.917 14.859 C 368.440 14.605,368.395 14.301,365.377 11.173 C 363.584 9.315,361.333 6.798,361.333 6.651 C 361.333 6.506,362.222 6.374,364.667 6.156 C 365.721 6.062,367.296 5.916,368.167 5.833 C 369.692 5.686,371.972 5.484,375.667 5.168 C 376.629 5.086,378.279 4.935,379.333 4.833 C 380.387 4.731,382.037 4.578,383.000 4.493 C 383.962 4.407,385.537 4.265,386.500 4.177 C 387.462 4.089,389.938 3.897,392.000 3.751 C 400.359 3.158,400.000 3.235,400.000 2.049 L 400.000 1.136 399.042 1.217 C 398.515 1.261,397.333 1.340,396.417 1.391 C 395.500 1.443,393.813 1.566,392.667 1.665 C 391.521 1.764,389.796 1.885,388.833 1.933 C 387.871 1.981,387.012 2.091,386.925 2.177 C 386.838 2.263,385.924 2.333,384.893 2.333 C 383.863 2.333,382.980 2.398,382.931 2.477 C 382.882 2.556,381.246 2.676,379.296 2.743 C 377.346 2.811,375.632 2.929,375.488 3.007 C 375.343 3.084,374.406 3.160,373.404 3.176 C 372.403 3.191,371.506 3.266,371.412 3.342 C 371.317 3.418,370.417 3.494,369.412 3.510 C 368.406 3.527,367.543 3.604,367.494 3.681 C 367.444 3.759,366.563 3.832,365.534 3.845 C 364.506 3.858,363.621 3.940,363.567 4.027 C 363.513 4.115,362.810 4.172,362.005 4.154 C 361.200 4.136,360.475 4.157,360.395 4.200 C 360.315 4.243,359.875 4.297,359.417 4.321 C 358.958 4.344,358.490 4.440,358.375 4.535 C 358.227 4.657,358.167 4.646,358.167 4.495 C 358.167 4.343,358.081 4.359,357.869 4.551 C 357.385 4.989,357.643 6.167,358.224 6.167 C 358.324 6.167,359.913 7.667,361.754 9.500 L 365.102 12.833 364.093 12.853 C 363.538 12.864,363.027 12.864,362.958 12.853 C 362.890 12.842,362.833 12.908,362.833 13.000 C 362.833 13.095,362.344 13.167,361.700 13.167 C 361.077 13.167,360.495 13.234,360.408 13.317 C 360.321 13.400,359.390 13.519,358.338 13.581 C 357.287 13.643,356.298 13.763,356.141 13.847 C 355.984 13.931,355.415 14.000,354.878 14.000 C 354.340 14.000,353.815 14.085,353.711 14.189 C 353.607 14.293,353.109 14.368,352.604 14.357 C 352.098 14.345,351.639 14.410,351.583 14.501 C 351.526 14.592,351.335 14.667,351.157 14.667 C 350.979 14.667,350.833 14.750,350.833 14.851 C 350.833 14.974,350.479 15.010,349.760 14.958 C 349.169 14.915,348.626 14.941,348.552 15.014 C 348.477 15.088,347.835 15.163,347.125 15.182 C 346.415 15.200,345.833 15.261,345.833 15.316 C 345.833 15.371,345.515 15.425,345.125 15.436 C 344.735 15.446,343.704 15.539,342.833 15.642 C 339.924 15.987,338.833 16.087,338.833 16.011 C 338.833 15.970,339.133 15.656,339.500 15.314 C 339.867 14.972,340.167 14.614,340.167 14.518 C 340.167 14.422,340.291 14.392,340.444 14.450 C 340.645 14.527,340.684 14.496,340.585 14.336 C 340.499 14.196,340.561 14.034,340.756 13.891 C 340.925 13.768,341.018 13.667,340.962 13.667 C 340.907 13.667,341.717 12.829,342.764 11.805 C 343.810 10.782,344.667 9.862,344.667 9.761 C 344.667 9.660,344.967 9.214,345.333 8.770 C 346.008 7.954,346.067 7.793,345.863 7.320 C 345.747 7.050,344.333 6.909,344.333 7.167 C 344.333 7.237,343.546 7.347,342.583 7.413 C 341.621 7.478,340.833 7.600,340.833 7.683 C 340.833 7.766,340.613 7.833,340.344 7.833 C 340.075 7.833,339.668 7.904,339.440 7.991 C 339.211 8.078,338.644 8.166,338.179 8.188 C 337.714 8.209,337.333 8.288,337.333 8.363 C 337.333 8.438,336.925 8.500,336.427 8.500 C 335.928 8.500,335.470 8.580,335.410 8.678 C 335.349 8.776,334.985 8.837,334.601 8.813 C 334.217 8.790,333.824 8.820,333.727 8.879 C 333.630 8.939,333.240 9.010,332.859 9.036 C 332.479 9.062,332.167 9.140,332.167 9.208 C 332.167 9.277,331.867 9.333,331.500 9.333 C 331.133 9.333,330.833 9.408,330.833 9.500 C 330.833 9.592,330.716 9.667,330.573 9.667 C 330.420 9.667,330.357 9.581,330.419 9.458 C 330.477 9.344,330.412 9.388,330.275 9.557 C 330.099 9.773,329.915 9.829,329.655 9.746 C 329.268 9.623,328.000 9.959,328.000 10.184 C 328.000 10.255,327.606 10.311,327.125 10.306 C 326.644 10.302,325.537 10.420,324.667 10.568 C 323.796 10.716,322.596 10.914,322.000 11.008 C 320.238 11.287,319.271 11.460,318.917 11.561 C 318.438 11.697,317.476 11.839,315.667 12.043 C 314.796 12.141,314.045 12.278,313.999 12.346 C 313.953 12.415,313.503 12.492,312.999 12.518 C 312.495 12.543,311.896 12.619,311.667 12.685 C 311.438 12.751,310.987 12.882,310.667 12.975 C 310.346 13.069,309.783 13.164,309.417 13.187 C 309.050 13.210,308.642 13.309,308.510 13.406 C 308.320 13.546,308.300 13.531,308.417 13.333 C 308.536 13.132,308.518 13.121,308.324 13.277 C 308.191 13.383,307.719 13.507,307.273 13.554 L 306.463 13.637 307.014 13.069 C 307.317 12.756,307.713 12.500,307.894 12.500 C 308.074 12.500,308.175 12.453,308.117 12.395 C 307.999 12.276,308.711 11.667,308.967 11.667 C 309.057 11.667,309.364 11.449,309.649 11.183 C 309.934 10.917,310.167 10.726,310.167 10.759 C 310.167 10.792,310.345 10.653,310.562 10.451 C 310.780 10.249,311.228 9.896,311.559 9.667 C 312.174 9.241,312.385 8.275,311.931 7.967 C 311.836 7.903,308.084 7.845,303.592 7.838 C 298.533 7.830,295.363 7.763,295.262 7.662 C 295.042 7.442,264.922 7.441,264.511 7.661 C 264.302 7.773,264.220 7.989,264.243 8.369 C 264.283 9.026,264.485 9.529,264.665 9.418 C 264.737 9.373,264.898 9.463,265.023 9.617 C 265.196 9.830,265.198 9.866,265.033 9.767 C 264.914 9.695,265.141 9.971,265.538 10.379 C 265.934 10.787,266.430 11.175,266.640 11.242 C 267.095 11.386,268.167 12.296,268.167 12.538 C 268.167 12.636,268.062 12.620,267.917 12.500 C 267.779 12.386,267.667 12.348,267.667 12.417 C 267.667 12.485,267.567 12.458,267.445 12.357 C 267.323 12.256,267.080 12.147,266.904 12.115 C 266.325 12.009,265.090 11.656,264.750 11.499 C 264.567 11.415,264.004 11.224,263.500 11.074 C 262.996 10.925,262.396 10.739,262.167 10.662 C 261.832 10.549,261.134 10.377,260.500 10.252 C 260.454 10.243,260.173 10.106,259.875 9.947 C 259.577 9.788,259.332 9.716,259.331 9.787 C 259.329 9.858,259.266 9.818,259.189 9.698 C 259.113 9.577,258.802 9.440,258.497 9.392 C 258.193 9.344,257.754 9.180,257.520 9.027 C 257.281 8.871,257.152 8.841,257.225 8.958 C 257.422 9.278,257.095 9.206,256.606 8.821 C 256.364 8.631,256.167 8.521,256.167 8.576 C 256.167 8.630,255.942 8.559,255.667 8.417 C 255.392 8.274,255.167 8.199,255.167 8.250 C 255.167 8.301,254.942 8.226,254.667 8.083 C 254.392 7.941,254.167 7.866,254.167 7.917 C 254.167 7.967,253.935 7.889,253.651 7.742 C 253.368 7.595,253.102 7.509,253.061 7.550 C 253.019 7.592,252.258 7.366,251.368 7.049 C 249.230 6.288,248.176 5.978,246.880 5.733 C 246.585 5.677,246.174 5.485,245.967 5.305 C 245.734 5.102,245.567 5.049,245.529 5.164 C 245.487 5.288,245.326 5.258,245.047 5.075 C 244.816 4.923,244.432 4.778,244.195 4.752 C 243.957 4.726,243.736 4.625,243.704 4.528 C 243.672 4.431,243.537 4.393,243.406 4.444 C 243.274 4.494,243.167 4.448,243.167 4.341 C 243.167 4.234,243.105 4.185,243.030 4.232 C 242.954 4.278,242.683 4.208,242.427 4.075 C 242.171 3.942,241.820 3.833,241.648 3.833 C 241.475 3.833,241.333 3.775,241.333 3.703 C 241.333 3.631,241.131 3.556,240.884 3.536 C 240.637 3.515,240.394 3.442,240.343 3.374 C 240.086 3.030,239.225 3.198,237.904 3.849 C 237.127 4.232,236.443 4.498,236.384 4.440 C 236.278 4.334,234.830 5.102,234.661 5.354 C 234.549 5.521,233.333 6.036,233.333 5.917 C 233.333 5.869,232.810 6.093,232.171 6.415 C 231.531 6.737,230.856 7.000,230.671 7.000 C 230.485 7.000,230.333 7.088,230.333 7.194 C 230.333 7.301,230.284 7.340,230.224 7.279 C 230.163 7.219,230.021 7.247,229.907 7.341 C 229.794 7.435,229.542 7.543,229.347 7.581 C 229.153 7.618,228.878 7.765,228.735 7.908 C 228.593 8.050,228.367 8.167,228.233 8.167 C 228.099 8.167,227.635 8.344,227.203 8.560 C 226.770 8.776,226.323 8.920,226.208 8.879 C 226.094 8.839,226.000 8.879,226.000 8.968 C 226.000 9.058,225.887 9.174,225.750 9.227 C 225.599 9.285,225.500 9.228,225.500 9.081 C 225.500 8.948,225.688 8.793,225.917 8.735 C 226.146 8.678,226.333 8.526,226.333 8.399 C 226.333 8.191,226.533 8.096,226.865 8.144 C 226.929 8.153,227.229 7.930,227.532 7.649 C 228.510 6.742,228.608 6.667,228.806 6.667 C 228.913 6.667,229.001 6.610,229.002 6.542 C 229.003 6.473,229.445 6.162,229.985 5.852 C 230.933 5.306,230.966 5.264,230.931 4.646 C 230.899 4.075,230.667 3.485,230.667 3.974 C 230.667 4.109,230.577 4.121,230.375 4.012 C 229.848 3.728,229.098 3.559,228.171 3.515 C 227.669 3.491,227.144 3.417,227.004 3.350 C 226.864 3.284,226.225 3.208,225.583 3.182 C 224.942 3.156,224.392 3.067,224.361 2.984 C 224.331 2.901,223.881 2.829,223.361 2.823 C 222.842 2.817,221.854 2.739,221.167 2.649 C 218.637 2.317,217.224 2.154,216.167 2.072 C 215.571 2.025,214.933 1.920,214.750 1.838 C 214.567 1.756,213.817 1.639,213.083 1.577 C 212.350 1.516,211.338 1.427,210.833 1.380 C 207.881 1.105,207.033 1.128,206.840 1.488 C 206.738 1.678,206.698 1.833,206.750 1.833 C 206.802 1.833,206.765 1.983,206.667 2.167 C 206.569 2.350,206.557 2.500,206.641 2.500 C 206.823 2.500,207.633 3.532,207.702 3.851 C 207.728 3.974,207.919 4.214,208.125 4.383 C 208.331 4.552,208.500 4.804,208.500 4.942 C 208.500 5.079,208.719 5.412,208.987 5.679 C 209.255 5.947,209.438 6.167,209.393 6.167 C 209.349 6.167,209.578 6.448,209.904 6.792 L 210.495 7.417 209.623 7.547 C 209.143 7.618,208.262 7.732,207.667 7.798 C 207.071 7.865,206.505 7.970,206.410 8.031 C 206.315 8.093,205.640 8.159,204.910 8.179 C 204.180 8.199,203.545 8.274,203.498 8.345 C 203.451 8.416,202.827 8.496,202.111 8.523 C 201.395 8.550,200.770 8.634,200.723 8.711 C 200.675 8.787,200.137 8.851,199.527 8.852 C 197.843 8.856,196.333 9.012,196.333 9.181 C 196.333 9.265,196.198 9.333,196.033 9.333 C 195.868 9.333,195.632 9.427,195.509 9.542 C 195.328 9.709,195.309 9.707,195.410 9.528 C 195.511 9.351,195.288 9.318,194.284 9.362 C 193.596 9.392,193.067 9.473,193.109 9.542 C 193.199 9.688,193.032 9.706,191.949 9.669 C 191.509 9.653,191.041 9.730,190.910 9.839 C 190.778 9.948,190.564 9.996,190.433 9.946 C 190.302 9.896,190.149 9.972,190.094 10.116 C 190.012 10.331,189.823 10.358,189.060 10.269 C 188.547 10.209,187.893 10.232,187.606 10.321 C 187.318 10.409,186.108 10.565,184.917 10.667 C 183.725 10.768,182.075 10.924,181.250 11.013 C 180.425 11.102,179.225 11.216,178.583 11.267 C 177.942 11.318,177.345 11.428,177.258 11.513 C 177.171 11.598,176.595 11.667,175.978 11.667 C 175.360 11.667,174.677 11.734,174.459 11.817 C 174.241 11.900,173.055 12.018,171.823 12.080 C 170.591 12.141,169.358 12.258,169.083 12.340 C 168.808 12.422,168.186 12.505,167.700 12.524 C 167.213 12.544,166.778 12.622,166.731 12.697 C 166.685 12.772,166.387 12.833,166.070 12.833 L 165.493 12.833 165.852 12.125 C 166.050 11.735,166.266 11.379,166.332 11.333 C 166.512 11.210,167.016 10.186,167.092 9.788 C 167.129 9.597,167.242 9.390,167.344 9.327 C 167.445 9.264,167.531 9.146,167.534 9.065 C 167.537 8.983,167.610 8.732,167.696 8.507 C 168.047 7.584,167.806 7.384,166.305 7.347 C 165.553 7.329,164.858 7.262,164.761 7.199 C 164.587 7.086,162.746 6.914,159.752 6.732 C 158.927 6.682,158.176 6.577,158.081 6.498 C 157.986 6.419,157.198 6.340,156.329 6.322 C 155.461 6.304,154.591 6.230,154.397 6.157 C 154.203 6.084,152.796 5.971,151.272 5.905 C 149.747 5.839,148.500 5.740,148.500 5.684 C 148.500 5.629,147.873 5.608,147.107 5.637 C 145.938 5.682,145.666 5.643,145.412 5.388 C 145.178 5.154,144.812 5.078,143.803 5.051 C 143.084 5.033,142.410 4.964,142.306 4.900 C 142.181 4.823,142.157 4.863,142.237 5.016 C 142.303 5.145,142.240 5.104,142.096 4.926 C 141.932 4.725,141.833 4.685,141.833 4.822 C 141.833 4.993,141.781 4.998,141.594 4.842 C 141.448 4.721,140.917 4.659,140.246 4.683 C 139.625 4.706,139.089 4.648,139.027 4.552 C 138.966 4.458,138.262 4.376,137.463 4.370 C 136.663 4.363,135.950 4.325,135.879 4.285 C 135.808 4.245,135.188 4.197,134.502 4.177 C 133.816 4.158,133.178 4.082,133.085 4.008 C 132.993 3.935,132.285 3.861,131.513 3.845 C 130.741 3.828,129.991 3.754,129.847 3.680 C 129.702 3.605,128.984 3.529,128.253 3.510 C 127.521 3.491,126.846 3.416,126.753 3.343 C 126.659 3.269,125.950 3.195,125.176 3.177 C 124.402 3.159,123.652 3.081,123.509 3.005 C 123.367 2.929,121.917 2.812,120.288 2.744 C 118.658 2.677,117.285 2.557,117.236 2.478 C 117.187 2.398,116.491 2.333,115.690 2.333 C 114.889 2.333,114.162 2.264,114.075 2.178 C 113.988 2.093,113.279 1.983,112.500 1.935 C 110.405 1.803,107.665 1.553,107.000 1.432 C 106.180 1.283,100.974 0.978,99.647 1.001 C 98.864 1.015,98.471 0.947,98.292 0.768 C 98.153 0.629,97.995 0.560,97.941 0.615 C 97.886 0.670,97.726 0.618,97.585 0.502 C 97.409 0.355,96.974 0.314,96.187 0.371 C 95.414 0.426,94.916 0.381,94.647 0.232 C 94.210 -0.010,86.856 -0.111,86.808 0.125 M99.250 5.666 C 99.183 5.774,99.310 6.057,99.536 6.305 C 99.760 6.550,100.216 7.162,100.550 7.667 C 100.885 8.171,101.535 9.108,101.996 9.750 C 102.456 10.392,103.136 11.348,103.506 11.875 C 103.877 12.403,104.365 12.956,104.592 13.104 C 105.054 13.407,106.000 14.730,106.000 15.074 C 106.000 15.650,100.930 15.726,99.833 15.167 C 99.326 14.908,98.851 14.833,97.707 14.833 C 96.750 14.833,96.160 14.760,96.026 14.625 C 95.910 14.509,95.140 14.366,94.284 14.303 C 93.440 14.240,92.300 14.107,91.750 14.008 C 89.821 13.659,87.873 13.492,82.833 13.246 C 76.596 12.941,74.641 12.782,73.651 12.498 C 72.162 12.070,72.097 12.284,72.992 14.667 C 73.284 15.446,73.772 16.796,74.075 17.667 C 74.378 18.537,74.720 19.451,74.835 19.698 C 75.143 20.358,74.960 20.688,74.383 20.513 C 74.126 20.436,73.392 20.282,72.750 20.172 C 72.108 20.062,70.833 19.790,69.917 19.567 C 69.000 19.345,67.725 19.086,67.083 18.993 C 65.971 18.831,65.105 18.685,63.250 18.347 C 62.792 18.263,61.956 18.121,61.392 18.029 C 60.829 17.938,60.215 17.782,60.028 17.682 C 59.841 17.582,59.520 17.500,59.314 17.500 C 59.109 17.500,58.710 17.432,58.428 17.348 C 57.147 16.967,56.157 16.766,55.000 16.654 C 54.313 16.587,53.413 16.446,53.000 16.341 C 52.587 16.236,51.913 16.081,51.500 15.996 C 51.087 15.912,50.262 15.726,49.667 15.582 C 49.071 15.439,48.208 15.242,47.750 15.146 C 46.083 14.795,45.569 14.681,44.833 14.499 C 44.421 14.396,43.746 14.246,43.333 14.165 C 42.921 14.084,42.171 13.932,41.667 13.827 C 39.681 13.416,39.380 13.357,38.333 13.179 C 37.737 13.077,36.912 12.913,36.500 12.814 C 35.681 12.618,35.385 12.753,29.333 16.092 C 28.279 16.674,26.704 17.534,25.833 18.003 C 24.962 18.472,23.650 19.187,22.917 19.591 C 22.183 19.995,20.871 20.706,20.000 21.171 C 19.129 21.636,17.554 22.495,16.500 23.080 C 10.766 26.259,10.949 26.308,13.518 22.286 C 16.376 17.808,17.410 16.010,17.231 15.831 C 17.098 15.698,11.850 15.557,3.252 15.454 C 0.385 15.420,0.083 15.443,0.033 15.701 C -0.028 16.018,1.044 16.073,10.916 16.258 C 13.574 16.307,15.813 16.413,15.891 16.491 C 16.021 16.621,15.518 17.455,12.917 21.422 C 12.458 22.121,11.783 23.158,11.417 23.727 C 11.050 24.296,10.395 25.268,9.960 25.886 C 8.346 28.184,8.901 28.289,12.167 26.305 C 12.487 26.110,13.475 25.582,14.362 25.133 C 15.249 24.683,16.064 24.207,16.174 24.075 C 16.283 23.943,16.908 23.580,17.562 23.268 C 21.605 21.342,23.300 20.452,25.913 18.881 C 26.098 18.770,27.337 18.142,28.667 17.486 C 29.996 16.830,31.196 16.230,31.333 16.152 C 35.667 13.702,36.022 13.655,41.417 14.833 C 43.213 15.226,44.505 15.477,46.874 15.894 C 47.676 16.035,48.576 16.263,48.874 16.400 C 49.173 16.537,49.942 16.679,50.583 16.716 C 51.879 16.791,53.608 17.235,54.013 17.598 C 54.180 17.747,54.654 17.833,55.307 17.833 C 55.874 17.833,56.468 17.902,56.627 17.986 C 56.786 18.070,57.592 18.264,58.417 18.417 C 59.242 18.570,60.067 18.758,60.250 18.835 C 60.788 19.061,61.497 19.192,62.917 19.327 C 63.650 19.396,64.550 19.544,64.917 19.655 C 65.283 19.766,65.814 19.926,66.095 20.012 C 66.377 20.097,66.870 20.167,67.192 20.167 C 67.514 20.167,67.834 20.223,67.902 20.291 C 67.971 20.360,68.602 20.507,69.305 20.619 C 70.008 20.730,70.902 20.899,71.292 20.994 C 73.083 21.430,73.538 21.486,75.375 21.493 C 77.785 21.502,77.765 21.874,75.583 17.516 C 74.621 15.593,73.833 13.933,73.833 13.827 C 73.833 13.622,75.446 13.680,78.083 13.981 C 78.817 14.064,79.904 14.188,80.500 14.255 C 81.096 14.322,81.679 14.453,81.795 14.546 C 81.912 14.638,83.412 14.770,85.129 14.839 C 86.845 14.908,88.587 15.057,89.000 15.170 C 89.412 15.284,90.837 15.406,92.167 15.443 C 93.496 15.480,94.733 15.578,94.917 15.661 C 95.822 16.073,104.636 16.397,106.458 16.086 L 107.167 15.965 107.167 15.190 C 107.167 14.538,107.073 14.309,106.574 13.749 C 105.355 12.379,103.833 10.476,103.833 10.321 C 103.833 10.233,103.285 9.543,102.615 8.788 C 100.889 6.844,100.887 6.818,102.465 6.930 C 103.172 6.980,103.900 7.062,104.083 7.114 C 104.267 7.165,104.942 7.274,105.583 7.356 C 106.225 7.439,107.275 7.582,107.917 7.674 C 109.298 7.872,111.105 8.114,112.833 8.331 C 113.521 8.417,114.608 8.565,115.250 8.660 C 117.170 8.943,118.821 9.148,120.583 9.322 C 121.500 9.413,122.475 9.530,122.750 9.582 C 123.025 9.634,123.850 9.752,124.583 9.844 C 125.317 9.935,126.479 10.080,127.167 10.166 C 127.854 10.251,128.942 10.401,129.583 10.498 C 130.838 10.688,131.979 10.834,135.500 11.254 C 139.049 11.677,140.161 11.814,141.500 11.994 C 142.188 12.086,143.313 12.235,144.000 12.325 C 144.688 12.416,145.775 12.569,146.417 12.667 C 148.204 12.938,149.749 13.129,151.641 13.313 C 155.047 13.644,155.050 13.593,151.485 15.879 C 150.880 16.266,150.243 16.675,150.068 16.788 C 149.893 16.900,149.017 17.457,148.121 18.025 C 146.368 19.138,146.079 19.389,146.245 19.659 C 146.385 19.885,191.103 19.905,191.242 19.680 C 191.343 19.516,190.303 18.761,189.025 18.070 C 188.599 17.839,187.838 17.397,187.333 17.087 C 186.829 16.777,186.098 16.372,185.708 16.187 C 184.726 15.722,184.819 15.554,186.125 15.435 C 187.222 15.335,188.588 15.169,191.042 14.836 C 193.264 14.535,194.732 14.357,197.250 14.085 C 199.611 13.829,200.331 13.742,203.458 13.330 C 204.169 13.236,205.313 13.096,206.000 13.018 C 206.688 12.940,207.400 12.834,207.583 12.782 C 207.767 12.729,208.460 12.649,209.125 12.603 C 210.573 12.503,210.622 12.605,209.686 13.789 C 209.331 14.239,208.917 14.827,208.768 15.095 C 208.409 15.739,208.104 16.230,207.998 16.333 C 207.735 16.589,206.408 18.256,206.066 18.759 C 205.124 20.148,205.420 20.147,210.417 18.752 C 211.608 18.419,212.846 18.082,213.167 18.003 C 213.487 17.925,214.125 17.738,214.583 17.588 C 215.758 17.204,217.136 16.822,217.917 16.662 C 218.283 16.588,219.558 16.253,220.750 15.920 C 222.864 15.328,223.379 15.190,224.750 14.850 C 225.117 14.759,226.392 14.415,227.583 14.085 C 229.908 13.442,230.644 13.248,231.625 13.023 C 231.969 12.944,232.550 12.764,232.917 12.623 C 233.283 12.482,233.958 12.280,234.417 12.173 C 234.875 12.067,235.737 11.837,236.333 11.662 C 239.165 10.831,239.527 10.792,240.862 11.172 C 242.215 11.558,242.922 11.743,243.917 11.971 C 244.283 12.055,244.921 12.235,245.333 12.371 C 246.048 12.607,246.614 12.767,248.208 13.186 C 248.598 13.288,249.104 13.431,249.333 13.502 C 249.744 13.631,252.452 14.365,253.750 14.699 C 254.117 14.794,254.567 14.932,254.750 15.006 C 254.933 15.081,255.308 15.188,255.583 15.245 C 257.079 15.554,260.242 16.367,260.539 16.519 C 260.699 16.600,260.975 16.667,261.155 16.667 C 261.334 16.667,261.527 16.742,261.583 16.833 C 261.640 16.925,261.851 17.001,262.052 17.002 C 262.252 17.004,262.754 17.125,263.167 17.272 C 263.579 17.418,264.442 17.669,265.083 17.829 C 265.725 17.990,266.662 18.242,267.167 18.391 C 267.671 18.540,268.646 18.805,269.333 18.981 C 271.546 19.547,272.576 19.834,272.917 19.982 C 273.100 20.061,273.775 20.247,274.417 20.395 C 275.855 20.727,277.709 21.220,279.250 21.680 C 280.589 22.079,282.246 22.550,283.333 22.841 C 283.746 22.951,284.421 23.138,284.833 23.257 C 285.246 23.376,285.996 23.565,286.500 23.678 C 287.004 23.791,287.754 23.993,288.167 24.127 C 288.883 24.360,291.432 25.037,292.667 25.323 C 292.987 25.397,293.374 25.510,293.525 25.574 C 294.087 25.810,294.004 25.305,293.388 24.736 C 292.658 24.063,290.936 22.598,289.582 21.500 C 288.392 20.535,286.266 18.628,286.194 18.462 C 286.164 18.391,294.883 18.333,305.569 18.333 C 326.789 18.333,325.810 18.286,324.375 19.249 C 324.031 19.480,323.412 19.930,323.000 20.250 C 322.587 20.570,321.987 21.011,321.667 21.229 C 321.346 21.448,320.902 21.823,320.679 22.063 C 320.457 22.304,320.205 22.500,320.119 22.500 C 319.945 22.500,319.227 23.055,318.017 24.125 C 317.576 24.515,317.132 24.833,317.030 24.833 C 316.928 24.833,316.767 24.978,316.673 25.156 C 316.443 25.585,316.455 25.715,316.708 25.552 C 316.823 25.479,317.442 25.374,318.083 25.321 C 319.262 25.222,320.674 24.917,321.206 24.647 C 321.365 24.566,321.868 24.500,322.323 24.500 C 322.778 24.500,323.323 24.426,323.534 24.336 C 323.744 24.246,324.667 24.096,325.583 24.002 C 326.500 23.909,327.700 23.754,328.250 23.659 C 328.800 23.563,329.737 23.417,330.333 23.335 C 330.929 23.252,331.904 23.102,332.500 23.002 C 333.096 22.901,334.446 22.707,335.500 22.570 C 336.554 22.433,337.867 22.251,338.417 22.164 C 338.967 22.078,340.317 21.891,341.417 21.748 C 342.517 21.606,343.904 21.415,344.500 21.324 C 346.378 21.036,347.705 20.849,349.167 20.664 C 349.946 20.566,351.071 20.374,351.667 20.238 C 352.262 20.102,353.288 19.926,353.947 19.846 C 354.605 19.766,355.220 19.653,355.315 19.595 C 355.482 19.491,356.557 19.314,358.914 19.000 C 360.707 18.762,360.676 18.945,358.334 22.417 C 357.499 23.654,357.000 24.548,357.000 24.808 C 357.000 25.246,358.304 24.694,366.583 20.749 C 367.592 20.268,368.867 19.670,369.417 19.418 C 369.967 19.167,371.770 18.295,373.425 17.481 C 375.079 16.666,376.542 15.996,376.675 15.992 C 377.157 15.976,379.751 14.552,379.805 14.274 C 379.838 14.100,379.172 13.255,378.070 12.072 C 376.864 10.779,376.335 10.099,376.448 9.985 C 376.627 9.806,379.228 9.862,385.000 10.168 C 386.787 10.263,389.675 10.380,391.416 10.427 C 393.157 10.475,394.653 10.586,394.741 10.674 C 394.828 10.762,396.048 10.833,397.450 10.833 L 400.000 10.833 400.000 10.000 L 400.000 9.167 387.328 9.167 C 372.968 9.167,373.843 9.072,375.227 10.477 C 375.652 10.908,376.000 11.332,376.000 11.418 C 376.000 11.504,376.454 12.033,377.009 12.593 C 378.266 13.860,379.211 13.185,369.039 18.283 C 364.388 20.613,360.157 22.757,359.635 23.048 C 358.277 23.804,358.207 23.340,359.404 21.500 C 360.616 19.635,361.500 18.126,361.500 17.919 C 361.500 17.688,360.390 17.697,359.417 17.936 C 359.233 17.981,358.596 18.094,358.000 18.189 C 357.404 18.283,356.504 18.431,356.000 18.519 C 355.496 18.606,354.671 18.747,354.167 18.832 C 353.662 18.917,352.762 19.070,352.167 19.172 C 349.784 19.580,349.345 19.650,347.500 19.908 C 345.504 20.187,344.028 20.416,342.542 20.679 C 340.423 21.053,339.684 21.177,338.667 21.327 C 337.624 21.480,336.350 21.692,334.583 22.005 C 334.125 22.086,332.962 22.270,332.000 22.413 C 331.037 22.557,329.800 22.750,329.250 22.844 C 328.700 22.937,327.762 23.085,327.167 23.173 C 326.571 23.261,325.633 23.411,325.083 23.506 C 323.233 23.825,322.255 23.985,321.225 24.140 C 320.661 24.224,320.117 24.344,320.015 24.407 C 319.745 24.574,319.167 24.349,319.167 24.078 C 319.167 23.950,319.335 23.756,319.542 23.648 C 319.914 23.452,320.254 23.194,321.820 21.917 C 322.269 21.550,322.913 21.063,323.250 20.833 C 323.587 20.604,324.227 20.117,324.673 19.750 C 325.118 19.383,325.793 18.858,326.173 18.583 C 327.288 17.776,327.724 17.324,327.551 17.151 C 327.455 17.055,323.494 17.028,317.322 17.080 C 311.783 17.127,302.056 17.204,295.708 17.252 C 283.046 17.349,283.579 17.296,284.792 18.325 C 286.479 19.756,288.127 21.082,288.510 21.319 C 289.096 21.682,291.000 23.378,291.000 23.537 C 291.000 23.733,290.504 23.694,289.495 23.417 C 288.412 23.120,284.960 22.187,284.250 22.000 C 283.975 21.927,283.375 21.751,282.917 21.607 C 282.458 21.464,281.521 21.187,280.833 20.992 C 280.146 20.797,279.096 20.499,278.500 20.329 C 277.120 19.937,275.603 19.524,274.750 19.309 C 274.025 19.126,272.192 18.608,271.000 18.250 C 270.587 18.126,269.650 17.861,268.917 17.662 C 268.183 17.463,267.133 17.163,266.583 16.996 C 265.178 16.570,263.369 16.056,262.583 15.860 C 261.266 15.531,259.732 15.114,258.750 14.820 C 258.200 14.655,257.206 14.367,256.540 14.182 C 255.875 13.996,254.787 13.690,254.123 13.503 C 253.460 13.315,252.542 13.056,252.083 12.927 C 251.625 12.798,250.838 12.568,250.333 12.416 C 249.829 12.264,248.742 11.958,247.917 11.737 C 247.092 11.516,246.042 11.230,245.583 11.101 C 239.417 9.361,240.050 9.482,238.919 9.822 C 238.368 9.988,237.204 10.331,236.333 10.585 C 233.491 11.415,231.448 12.028,229.667 12.585 C 227.620 13.225,225.252 13.942,222.917 14.628 C 217.421 16.244,215.070 16.952,214.167 17.265 C 213.466 17.508,212.615 17.782,209.499 18.770 C 207.007 19.560,206.896 19.384,208.458 17.112 C 209.077 16.212,210.033 14.814,210.583 14.005 C 211.133 13.196,211.724 12.379,211.895 12.190 C 212.273 11.773,212.142 11.238,211.707 11.421 C 211.547 11.488,210.779 11.613,210.000 11.698 C 208.222 11.894,206.584 12.106,205.083 12.333 C 203.447 12.582,201.960 12.770,199.167 13.082 C 197.838 13.230,196.262 13.422,195.667 13.508 C 195.071 13.594,193.983 13.742,193.250 13.837 C 192.517 13.931,191.354 14.083,190.667 14.175 C 189.979 14.266,188.854 14.410,188.167 14.496 C 187.479 14.582,186.354 14.735,185.667 14.837 C 184.979 14.939,184.004 15.074,183.500 15.136 C 182.191 15.299,182.307 15.419,185.337 17.039 C 187.964 18.444,188.406 18.748,188.229 19.034 C 188.118 19.214,148.210 19.204,148.098 19.024 C 147.994 18.856,148.575 18.297,149.167 17.996 C 149.396 17.880,149.921 17.568,150.333 17.304 C 150.746 17.040,151.736 16.433,152.533 15.954 C 157.161 13.175,157.087 13.274,154.773 12.965 C 154.119 12.878,153.096 12.735,152.500 12.648 C 151.904 12.561,150.892 12.419,150.250 12.333 C 149.608 12.247,148.596 12.105,148.000 12.017 C 145.809 11.693,144.222 11.470,143.083 11.325 C 142.442 11.244,141.429 11.106,140.833 11.019 C 140.237 10.932,138.700 10.737,137.417 10.585 C 136.133 10.433,134.596 10.237,134.000 10.150 C 133.404 10.063,132.429 9.920,131.833 9.833 C 131.237 9.746,130.225 9.596,129.583 9.499 C 128.942 9.402,127.892 9.256,127.250 9.175 C 125.705 8.979,123.705 8.693,123.083 8.579 C 122.808 8.529,121.871 8.417,121.000 8.331 C 119.514 8.184,118.299 8.024,115.917 7.660 C 114.013 7.369,112.744 7.186,111.333 7.000 C 109.733 6.789,108.484 6.612,106.667 6.339 C 105.540 6.170,102.486 5.802,100.227 5.562 C 99.664 5.502,99.330 5.538,99.250 5.666 M103.500 21.917 C 103.614 22.054,103.848 22.167,104.020 22.167 C 104.193 22.167,104.333 22.054,104.333 21.917 C 104.333 21.748,104.164 21.667,103.813 21.667 C 103.369 21.667,103.323 21.704,103.500 21.917 M109.200 21.867 C 108.890 22.177,108.963 22.362,109.373 22.303 C 109.579 22.274,109.772 22.119,109.802 21.958 C 109.866 21.624,109.499 21.568,109.200 21.867 " stroke="none" fill="#e70c48" fill-rule="evenodd"></path><path id="path1" d="M95.788 0.287 C 96.084 0.324,96.609 0.324,96.955 0.288 C 97.300 0.252,97.058 0.222,96.417 0.221 C 95.775 0.221,95.492 0.250,95.788 0.287 M100.526 0.647 C 100.365 0.749,100.435 0.814,100.776 0.880 C 101.329 0.986,101.512 0.882,101.162 0.660 C 100.861 0.470,100.808 0.469,100.526 0.647 M118.121 2.620 C 118.417 2.657,118.942 2.658,119.288 2.622 C 119.634 2.586,119.392 2.555,118.750 2.555 C 118.108 2.554,117.825 2.583,118.121 2.620 M206.667 2.718 C 206.667 2.851,206.779 3.053,206.917 3.167 C 207.106 3.324,207.167 3.326,207.167 3.175 C 207.167 3.066,207.054 2.864,206.917 2.726 C 206.702 2.512,206.667 2.511,206.667 2.718 M220.460 2.618 C 220.668 2.658,220.968 2.656,221.127 2.615 C 221.286 2.573,221.117 2.540,220.750 2.542 C 220.383 2.544,220.253 2.578,220.460 2.618 M380.380 2.623 C 380.818 2.657,381.493 2.657,381.880 2.622 C 382.267 2.587,381.908 2.559,381.083 2.559 C 380.258 2.560,379.942 2.588,380.380 2.623 M130.542 3.788 C 130.885 3.824,131.448 3.824,131.792 3.788 C 132.135 3.752,131.854 3.723,131.167 3.723 C 130.479 3.723,130.198 3.752,130.542 3.788 M365.042 3.789 C 365.477 3.824,366.190 3.824,366.625 3.789 C 367.060 3.755,366.704 3.727,365.833 3.727 C 364.962 3.727,364.606 3.755,365.042 3.789 M66.250 4.918 C 66.639 5.053,67.667 5.089,67.667 4.967 C 67.667 4.893,67.310 4.839,66.875 4.846 C 66.440 4.854,66.158 4.886,66.250 4.918 M142.955 4.954 C 143.250 4.990,143.775 4.991,144.121 4.955 C 144.467 4.919,144.225 4.889,143.583 4.888 C 142.942 4.887,142.659 4.917,142.955 4.954 M228.686 6.732 C 228.467 6.853,228.363 6.999,228.455 7.056 C 228.547 7.112,228.756 7.011,228.920 6.829 C 229.267 6.446,229.229 6.431,228.686 6.732 M101.288 7.128 C 101.348 7.287,101.946 8.034,102.615 8.788 C 103.285 9.543,103.833 10.233,103.833 10.321 C 103.833 10.476,105.355 12.379,106.574 13.749 C 107.073 14.309,107.167 14.538,107.167 15.190 L 107.167 15.965 106.458 16.086 C 104.636 16.397,95.822 16.073,94.917 15.661 C 94.733 15.578,93.496 15.480,92.167 15.443 C 90.837 15.406,89.412 15.284,89.000 15.170 C 88.587 15.057,86.845 14.908,85.129 14.839 C 83.412 14.770,81.912 14.638,81.795 14.546 C 81.679 14.453,81.096 14.322,80.500 14.255 C 79.904 14.188,78.817 14.064,78.083 13.981 C 75.446 13.680,73.833 13.622,73.833 13.827 C 73.833 13.933,74.621 15.593,75.583 17.516 C 77.765 21.874,77.785 21.502,75.375 21.493 C 73.538 21.486,73.083 21.430,71.292 20.994 C 70.902 20.899,70.008 20.730,69.305 20.619 C 68.602 20.507,67.971 20.360,67.902 20.291 C 67.834 20.223,67.514 20.167,67.192 20.167 C 66.870 20.167,66.377 20.097,66.095 20.012 C 65.814 19.926,65.283 19.766,64.917 19.655 C 64.550 19.544,63.650 19.396,62.917 19.327 C 61.497 19.192,60.788 19.061,60.250 18.835 C 60.067 18.758,59.242 18.570,58.417 18.417 C 57.592 18.264,56.786 18.070,56.627 17.986 C 56.468 17.902,55.874 17.833,55.307 17.833 C 54.654 17.833,54.180 17.747,54.013 17.598 C 53.608 17.235,51.879 16.791,50.583 16.716 C 49.942 16.679,49.173 16.537,48.874 16.400 C 48.576 16.263,47.676 16.035,46.874 15.894 C 44.750 15.520,43.028 15.185,41.417 14.833 C 36.022 13.655,35.667 13.702,31.333 16.152 C 31.196 16.230,29.996 16.830,28.667 17.486 C 27.337 18.142,26.098 18.770,25.913 18.881 C 23.300 20.452,21.605 21.342,17.562 23.268 C 16.908 23.580,16.283 23.943,16.174 24.075 C 16.064 24.207,15.249 24.683,14.362 25.133 C 13.475 25.582,12.487 26.110,12.167 26.305 C 8.901 28.289,8.346 28.184,9.960 25.886 C 10.395 25.268,11.050 24.296,11.417 23.727 C 11.783 23.158,12.458 22.121,12.917 21.422 C 15.518 17.455,16.021 16.621,15.891 16.491 C 15.813 16.413,13.574 16.307,10.916 16.258 C 8.258 16.208,4.715 16.127,3.042 16.076 L 0.000 15.985 0.000 16.485 L 0.000 16.985 2.958 17.075 C 4.585 17.125,7.773 17.207,10.042 17.258 C 12.310 17.308,14.167 17.411,14.167 17.486 C 14.167 17.560,14.017 17.812,13.833 18.045 C 13.650 18.279,13.500 18.540,13.500 18.625 C 13.500 18.711,13.350 18.917,13.167 19.083 C 12.983 19.249,12.833 19.513,12.833 19.669 C 12.833 19.826,12.646 20.230,12.417 20.567 C 12.188 20.905,12.000 21.206,12.000 21.236 C 12.000 21.267,11.692 21.619,11.316 22.021 C 10.940 22.422,10.447 23.125,10.220 23.583 C 9.993 24.042,9.477 24.867,9.072 25.417 C 8.668 25.967,8.266 26.578,8.179 26.775 C 8.092 26.973,7.941 27.183,7.844 27.244 C 7.275 27.595,7.854 29.167,8.553 29.167 C 9.286 29.167,13.000 27.344,13.000 26.984 C 13.000 26.906,13.759 26.462,14.686 25.998 C 15.613 25.535,16.495 25.022,16.644 24.859 C 16.794 24.696,17.404 24.350,18.000 24.091 C 20.202 23.131,21.590 22.466,21.833 22.253 C 21.971 22.132,22.758 21.687,23.583 21.263 C 24.408 20.838,25.232 20.399,25.413 20.287 C 27.365 19.078,28.466 18.500,28.817 18.500 C 28.918 18.500,29.000 18.421,29.000 18.323 C 29.000 18.226,29.075 18.193,29.167 18.250 C 29.258 18.307,29.333 18.269,29.333 18.167 C 29.333 18.064,29.408 18.027,29.500 18.083 C 29.592 18.140,29.667 18.094,29.667 17.982 C 29.667 17.870,29.714 17.825,29.771 17.882 C 29.828 17.939,30.221 17.802,30.644 17.576 C 31.068 17.351,31.476 17.167,31.551 17.167 C 31.627 17.167,31.928 16.994,32.219 16.784 C 32.511 16.573,33.237 16.189,33.833 15.929 C 34.429 15.670,35.123 15.350,35.376 15.219 C 35.868 14.963,38.086 15.067,38.264 15.355 C 38.313 15.435,38.784 15.500,39.310 15.500 C 39.836 15.500,40.338 15.567,40.425 15.650 C 40.587 15.803,40.864 15.853,43.333 16.180 C 44.112 16.283,44.900 16.429,45.083 16.506 C 45.267 16.582,45.642 16.683,45.917 16.730 C 47.279 16.965,48.127 17.155,48.553 17.319 C 48.811 17.419,49.537 17.500,50.168 17.500 C 50.798 17.500,51.360 17.575,51.417 17.667 C 51.473 17.758,51.698 17.833,51.917 17.833 C 52.135 17.833,52.360 17.908,52.417 18.000 C 52.473 18.092,52.731 18.167,52.989 18.167 C 53.248 18.167,53.548 18.273,53.656 18.403 C 53.776 18.548,54.286 18.669,54.968 18.714 C 55.581 18.754,56.383 18.878,56.750 18.989 C 57.411 19.190,57.817 19.281,59.750 19.661 C 60.300 19.769,60.880 19.927,61.039 20.012 C 61.199 20.097,61.800 20.167,62.375 20.167 C 63.013 20.167,63.778 20.298,64.336 20.504 C 64.839 20.690,65.700 20.883,66.250 20.934 C 66.800 20.985,67.400 21.091,67.583 21.169 C 67.767 21.248,68.179 21.351,68.500 21.397 C 69.145 21.490,69.994 21.675,71.750 22.103 C 75.544 23.028,79.582 22.298,78.361 20.908 C 78.284 20.821,78.096 20.408,77.943 19.991 C 77.789 19.573,77.137 18.195,76.494 16.929 C 75.340 14.656,75.330 14.628,75.787 14.743 C 76.042 14.808,77.150 14.927,78.250 15.009 C 80.466 15.172,80.871 15.226,82.083 15.511 C 82.542 15.619,84.079 15.755,85.500 15.812 C 86.921 15.870,88.196 15.992,88.333 16.083 C 88.471 16.175,89.896 16.298,91.500 16.356 C 93.104 16.415,94.792 16.555,95.250 16.668 C 98.281 17.413,107.039 17.366,107.805 16.600 C 108.429 15.976,108.190 14.164,107.359 13.231 C 106.670 12.456,106.476 12.224,105.326 10.811 C 105.055 10.478,104.833 10.095,104.833 9.959 C 104.833 9.823,104.605 9.458,104.327 9.148 C 103.352 8.061,103.360 8.042,104.799 8.128 C 105.719 8.184,106.178 8.291,106.417 8.506 C 106.634 8.701,107.128 8.837,107.833 8.897 C 109.840 9.065,113.741 9.491,114.917 9.669 C 116.728 9.943,118.405 10.140,120.583 10.336 C 121.683 10.435,122.733 10.585,122.917 10.669 C 123.100 10.753,123.775 10.859,124.417 10.905 C 125.058 10.951,126.183 11.065,126.917 11.158 C 127.650 11.252,129.188 11.428,130.333 11.549 C 131.479 11.670,132.529 11.818,132.667 11.877 C 132.804 11.937,133.442 12.021,134.083 12.065 C 134.725 12.109,135.737 12.226,136.333 12.324 C 136.929 12.423,138.475 12.597,139.768 12.710 C 141.360 12.850,142.216 12.997,142.418 13.167 C 142.588 13.309,143.261 13.467,143.983 13.534 C 146.769 13.793,147.673 13.954,148.001 14.251 C 148.294 14.516,148.538 14.538,150.095 14.443 L 151.857 14.335 151.363 14.751 C 151.091 14.980,150.831 15.167,150.786 15.167 C 150.675 15.167,147.983 16.913,147.662 17.194 C 147.521 17.316,147.184 17.525,146.912 17.658 C 146.019 18.092,144.667 19.521,144.667 20.030 C 144.667 20.787,144.969 20.833,149.956 20.833 C 153.398 20.833,154.653 20.886,154.804 21.037 C 154.965 21.199,155.077 21.199,155.335 21.037 C 155.588 20.880,159.761 20.833,173.725 20.833 C 193.976 20.833,192.667 20.913,192.667 19.680 C 192.667 19.013,192.405 18.807,189.435 17.136 C 188.895 16.832,188.303 16.496,188.121 16.390 C 187.837 16.225,187.943 16.184,188.853 16.104 C 189.438 16.052,190.554 15.931,191.333 15.834 C 192.112 15.737,193.200 15.619,193.750 15.572 C 194.300 15.525,194.900 15.421,195.083 15.342 C 195.267 15.263,196.467 15.113,197.750 15.009 C 199.033 14.905,200.683 14.746,201.417 14.656 C 202.150 14.565,203.200 14.453,203.750 14.405 C 204.300 14.358,204.900 14.253,205.083 14.172 C 205.267 14.091,206.061 13.990,206.848 13.949 L 208.279 13.874 207.783 14.812 C 207.511 15.328,206.861 16.200,206.339 16.750 C 203.299 19.956,203.678 21.579,207.250 20.649 C 207.983 20.458,208.808 20.262,209.083 20.213 C 209.358 20.165,209.658 20.068,209.750 19.998 C 209.842 19.928,210.302 19.819,210.772 19.756 C 211.653 19.637,212.740 19.316,212.941 19.114 C 213.004 19.051,213.253 19.000,213.494 19.000 C 213.736 19.000,214.005 18.935,214.092 18.855 C 214.179 18.775,214.700 18.575,215.250 18.411 C 215.800 18.246,216.325 18.059,216.417 17.994 C 216.508 17.928,216.808 17.832,217.083 17.779 C 217.358 17.727,217.979 17.609,218.462 17.518 C 218.945 17.427,219.583 17.278,219.879 17.187 C 220.175 17.097,220.754 16.932,221.167 16.821 C 221.579 16.710,222.238 16.517,222.631 16.393 C 223.024 16.268,223.506 16.167,223.702 16.167 C 223.899 16.167,224.290 16.097,224.572 16.011 C 224.853 15.926,225.421 15.762,225.833 15.648 C 226.246 15.534,226.658 15.386,226.750 15.319 C 226.842 15.253,227.357 15.144,227.895 15.078 C 228.433 15.011,229.257 14.816,229.726 14.645 C 230.195 14.474,230.744 14.333,230.946 14.333 C 231.148 14.333,231.360 14.258,231.417 14.167 C 231.473 14.075,231.705 14.000,231.932 14.000 C 232.159 14.000,232.714 13.813,233.167 13.583 C 233.619 13.354,234.166 13.167,234.383 13.167 C 234.600 13.167,234.833 13.112,234.900 13.044 C 234.967 12.977,235.449 12.824,235.970 12.705 C 236.490 12.586,237.254 12.409,237.667 12.312 C 239.195 11.951,240.423 11.951,241.450 12.313 C 241.982 12.501,242.754 12.704,243.167 12.766 C 243.579 12.827,244.029 12.975,244.167 13.093 C 244.469 13.355,245.618 13.749,246.750 13.981 C 247.208 14.075,247.808 14.198,248.083 14.255 C 248.358 14.312,248.733 14.422,248.917 14.500 C 249.100 14.578,249.438 14.683,249.667 14.733 C 250.542 14.924,251.927 15.280,252.167 15.374 C 252.304 15.429,252.604 15.511,252.833 15.558 C 253.063 15.605,253.550 15.729,253.917 15.834 C 254.283 15.939,254.996 16.099,255.500 16.190 C 256.004 16.280,256.567 16.420,256.750 16.500 C 257.264 16.723,258.124 16.955,259.583 17.264 C 260.317 17.419,261.036 17.649,261.183 17.776 C 261.464 18.019,262.826 18.440,263.879 18.610 C 264.225 18.666,264.548 18.777,264.597 18.856 C 264.646 18.935,264.852 19.000,265.054 19.000 C 265.256 19.000,265.800 19.139,266.264 19.308 C 266.727 19.477,267.513 19.668,268.011 19.732 C 268.509 19.796,269.367 19.997,269.917 20.178 C 271.669 20.755,271.899 20.815,272.795 20.931 C 273.279 20.993,273.714 21.109,273.764 21.189 C 273.813 21.268,274.017 21.333,274.218 21.333 C 274.419 21.333,274.968 21.480,275.438 21.658 C 275.908 21.837,276.675 22.034,277.143 22.096 C 277.611 22.158,278.076 22.308,278.177 22.429 C 278.402 22.700,279.652 23.104,280.704 23.246 C 281.138 23.305,281.536 23.423,281.589 23.510 C 281.643 23.596,281.845 23.667,282.040 23.667 C 282.397 23.667,282.743 23.756,284.250 24.236 C 284.708 24.382,285.266 24.501,285.488 24.501 C 285.892 24.500,286.037 24.539,287.917 25.153 C 288.467 25.332,289.292 25.531,289.750 25.594 C 290.208 25.657,290.658 25.765,290.750 25.833 C 290.842 25.902,291.142 25.999,291.417 26.049 C 291.692 26.098,292.217 26.227,292.583 26.335 C 295.235 27.114,296.061 25.866,294.083 24.068 C 291.540 21.757,291.047 21.333,290.896 21.333 C 290.808 21.333,290.405 20.996,290.000 20.583 C 289.595 20.171,289.175 19.833,289.066 19.833 C 288.958 19.833,288.826 19.721,288.773 19.583 C 288.688 19.362,290.626 19.333,305.604 19.333 L 322.532 19.333 321.807 19.910 C 321.409 20.227,320.763 20.734,320.371 21.035 C 319.979 21.337,319.406 21.790,319.099 22.042 C 318.791 22.294,318.482 22.500,318.412 22.500 C 318.342 22.500,317.927 22.819,317.490 23.208 C 317.053 23.598,316.496 24.067,316.251 24.250 C 316.007 24.433,315.700 24.682,315.570 24.804 C 314.927 25.402,315.762 26.805,316.635 26.592 C 316.882 26.532,317.496 26.446,318.000 26.402 C 318.960 26.317,320.126 26.032,320.427 25.809 C 320.524 25.737,321.236 25.603,322.010 25.511 C 322.784 25.418,323.867 25.261,324.417 25.160 C 324.967 25.060,325.867 24.942,326.417 24.899 C 326.967 24.855,327.567 24.751,327.750 24.668 C 327.933 24.584,328.871 24.440,329.833 24.348 C 330.796 24.255,332.033 24.097,332.583 23.995 C 333.133 23.894,334.033 23.776,334.583 23.732 C 335.133 23.688,335.733 23.585,335.917 23.503 C 336.210 23.370,337.400 23.218,340.667 22.895 C 341.171 22.845,341.655 22.736,341.742 22.652 C 341.829 22.568,342.323 22.500,342.839 22.500 C 343.355 22.500,343.833 22.444,343.901 22.375 C 343.969 22.306,344.863 22.162,345.887 22.053 C 346.912 21.945,348.125 21.769,348.583 21.662 C 349.042 21.554,349.942 21.434,350.583 21.394 C 351.225 21.354,351.900 21.253,352.083 21.169 C 352.267 21.086,353.017 20.946,353.750 20.857 C 354.483 20.769,355.383 20.606,355.750 20.496 C 356.117 20.385,356.792 20.258,357.250 20.213 C 357.708 20.169,358.174 20.059,358.284 19.969 C 359.025 19.365,358.636 20.626,357.761 21.667 C 356.795 22.814,355.833 24.630,355.833 25.305 C 355.833 26.196,356.840 26.638,357.417 26.000 C 357.583 25.817,357.913 25.666,358.151 25.666 C 358.389 25.666,359.175 25.366,359.899 24.999 C 360.623 24.633,361.282 24.333,361.364 24.333 C 361.509 24.333,364.342 23.019,365.167 22.569 C 365.908 22.165,368.381 20.984,369.750 20.382 C 371.427 19.643,372.640 19.044,374.750 17.913 C 375.667 17.421,376.580 17.014,376.779 17.009 C 377.237 16.998,380.125 15.579,380.625 15.119 C 381.286 14.513,381.132 13.869,380.076 12.828 C 379.568 12.327,379.005 11.668,378.825 11.363 L 378.497 10.810 380.040 10.909 C 380.889 10.963,382.971 11.062,384.667 11.129 C 386.363 11.195,387.825 11.297,387.917 11.355 C 388.008 11.412,390.765 11.514,394.042 11.580 L 400.000 11.700 400.000 11.267 L 400.000 10.833 397.450 10.833 C 396.048 10.833,394.828 10.762,394.741 10.674 C 394.653 10.586,393.157 10.475,391.416 10.427 C 389.675 10.380,386.787 10.263,385.000 10.168 C 379.228 9.862,376.627 9.806,376.448 9.985 C 376.335 10.099,376.864 10.779,378.070 12.072 C 379.172 13.255,379.838 14.100,379.805 14.274 C 379.751 14.552,377.157 15.976,376.675 15.992 C 376.542 15.996,375.079 16.666,373.425 17.481 C 371.770 18.295,369.967 19.167,369.417 19.418 C 368.867 19.670,367.592 20.268,366.583 20.749 C 358.304 24.694,357.000 25.246,357.000 24.808 C 357.000 24.548,357.499 23.654,358.334 22.417 C 360.676 18.945,360.707 18.762,358.914 19.000 C 356.557 19.314,355.482 19.491,355.315 19.595 C 355.220 19.653,354.605 19.766,353.947 19.846 C 353.288 19.926,352.262 20.102,351.667 20.238 C 351.071 20.374,349.946 20.566,349.167 20.664 C 347.705 20.849,346.378 21.036,344.500 21.324 C 343.904 21.415,342.517 21.606,341.417 21.748 C 340.317 21.891,338.967 22.078,338.417 22.164 C 337.867 22.251,336.554 22.433,335.500 22.570 C 334.446 22.707,333.096 22.901,332.500 23.002 C 331.904 23.102,330.929 23.252,330.333 23.335 C 329.737 23.417,328.800 23.563,328.250 23.659 C 327.700 23.754,326.500 23.909,325.583 24.002 C 324.667 24.096,323.744 24.246,323.534 24.336 C 323.323 24.426,322.778 24.500,322.323 24.500 C 321.868 24.500,321.365 24.566,321.206 24.647 C 320.674 24.917,319.262 25.222,318.083 25.321 C 317.442 25.374,316.823 25.479,316.708 25.552 C 316.455 25.715,316.443 25.585,316.673 25.156 C 316.767 24.978,316.928 24.833,317.030 24.833 C 317.132 24.833,317.576 24.515,318.017 24.125 C 319.227 23.055,319.945 22.500,320.119 22.500 C 320.205 22.500,320.457 22.304,320.679 22.063 C 320.902 21.823,321.346 21.448,321.667 21.229 C 321.987 21.011,322.587 20.570,323.000 20.250 C 323.412 19.930,324.031 19.480,324.375 19.249 C 325.810 18.286,326.789 18.333,305.569 18.333 C 294.883 18.333,286.164 18.391,286.194 18.462 C 286.266 18.628,288.392 20.535,289.582 21.500 C 290.936 22.598,292.658 24.063,293.388 24.736 C 294.004 25.305,294.087 25.810,293.525 25.574 C 293.374 25.510,292.987 25.397,292.667 25.323 C 291.432 25.037,288.883 24.360,288.167 24.127 C 287.754 23.993,287.004 23.791,286.500 23.678 C 285.996 23.565,285.246 23.376,284.833 23.257 C 284.421 23.138,283.746 22.951,283.333 22.841 C 282.246 22.550,280.589 22.079,279.250 21.680 C 277.709 21.220,275.855 20.727,274.417 20.395 C 273.775 20.247,273.100 20.061,272.917 19.982 C 272.576 19.834,271.546 19.547,269.333 18.981 C 268.646 18.805,267.671 18.540,267.167 18.391 C 266.662 18.242,265.725 17.990,265.083 17.829 C 264.442 17.669,263.579 17.418,263.167 17.272 C 262.754 17.125,262.252 17.004,262.052 17.002 C 261.851 17.001,261.640 16.925,261.583 16.833 C 261.527 16.742,261.334 16.667,261.155 16.667 C 260.975 16.667,260.699 16.600,260.539 16.519 C 260.242 16.367,257.079 15.554,255.583 15.245 C 255.308 15.188,254.933 15.081,254.750 15.006 C 254.567 14.932,254.117 14.794,253.750 14.699 C 252.452 14.365,249.744 13.631,249.333 13.502 C 249.104 13.431,248.598 13.288,248.208 13.186 C 246.614 12.767,246.048 12.607,245.333 12.371 C 244.921 12.235,244.321 12.062,244.000 11.986 C 242.717 11.683,242.030 11.505,240.862 11.172 C 239.527 10.792,239.165 10.831,236.333 11.662 C 235.737 11.837,234.875 12.067,234.417 12.173 C 233.958 12.280,233.283 12.482,232.917 12.623 C 232.550 12.764,231.969 12.944,231.625 13.023 C 230.644 13.248,229.908 13.442,227.583 14.085 C 225.379 14.695,224.769 14.857,223.583 15.149 C 223.217 15.239,221.942 15.586,220.750 15.920 C 219.558 16.253,218.283 16.588,217.917 16.662 C 217.136 16.822,215.758 17.204,214.583 17.588 C 214.125 17.738,213.487 17.925,213.167 18.003 C 212.846 18.082,211.608 18.419,210.417 18.752 C 205.420 20.147,205.124 20.148,206.066 18.759 C 206.408 18.256,207.735 16.589,207.998 16.333 C 208.104 16.230,208.409 15.739,208.768 15.095 C 208.917 14.827,209.331 14.239,209.686 13.789 C 210.622 12.605,210.573 12.503,209.125 12.603 C 208.460 12.649,207.767 12.729,207.583 12.782 C 207.400 12.834,206.688 12.940,206.000 13.018 C 205.313 13.096,204.169 13.236,203.458 13.330 C 200.331 13.742,199.611 13.829,197.250 14.085 C 194.839 14.345,193.763 14.476,191.083 14.833 C 188.346 15.198,187.202 15.337,186.125 15.435 C 184.819 15.554,184.726 15.722,185.708 16.187 C 186.098 16.372,186.829 16.777,187.333 17.087 C 187.838 17.397,188.599 17.839,189.025 18.070 C 190.303 18.761,191.343 19.516,191.242 19.680 C 191.103 19.905,146.385 19.885,146.245 19.659 C 146.079 19.389,146.368 19.138,148.121 18.025 C 149.017 17.457,149.893 16.900,150.068 16.788 C 150.243 16.675,150.880 16.266,151.485 15.879 C 155.050 13.593,155.047 13.644,151.641 13.313 C 149.749 13.129,148.204 12.938,146.417 12.667 C 143.886 12.283,141.099 11.922,135.500 11.254 C 131.979 10.834,130.838 10.688,129.583 10.498 C 128.942 10.401,127.854 10.251,127.167 10.166 C 126.479 10.080,125.317 9.935,124.583 9.844 C 123.850 9.752,123.025 9.634,122.750 9.582 C 122.475 9.530,121.500 9.413,120.583 9.322 C 118.821 9.148,117.170 8.943,115.250 8.660 C 114.608 8.565,113.521 8.417,112.833 8.331 C 111.206 8.126,109.382 7.883,107.875 7.671 C 107.210 7.577,106.160 7.434,105.542 7.353 C 104.923 7.273,104.267 7.165,104.083 7.114 C 103.063 6.829,101.179 6.838,101.288 7.128 M2.125 7.291 C 3.156 7.320,4.844 7.320,5.875 7.291 C 6.906 7.262,6.063 7.238,4.000 7.238 C 1.938 7.238,1.094 7.262,2.125 7.291 M165.288 7.287 C 165.584 7.324,166.109 7.324,166.455 7.288 C 166.800 7.252,166.558 7.222,165.917 7.221 C 165.275 7.221,164.992 7.250,165.288 7.287 M343.375 7.282 C 343.535 7.323,343.798 7.323,343.958 7.282 C 344.119 7.240,343.988 7.205,343.667 7.205 C 343.346 7.205,343.215 7.240,343.375 7.282 M89.044 8.453 C 89.297 8.491,89.672 8.490,89.877 8.451 C 90.082 8.411,89.875 8.380,89.417 8.381 C 88.958 8.382,88.791 8.415,89.044 8.453 M201.961 8.454 C 202.261 8.491,202.711 8.490,202.961 8.452 C 203.212 8.414,202.967 8.384,202.417 8.385 C 201.867 8.386,201.662 8.417,201.961 8.454 M336.125 8.451 C 336.331 8.491,336.669 8.491,336.875 8.451 C 337.081 8.411,336.912 8.379,336.500 8.379 C 336.087 8.379,335.919 8.411,336.125 8.451 M190.776 9.625 C 190.733 9.694,191.085 9.728,191.557 9.702 C 192.978 9.622,193.151 9.547,191.968 9.523 C 191.355 9.510,190.818 9.556,190.776 9.625 M329.042 9.615 C 329.202 9.657,329.465 9.657,329.625 9.615 C 329.785 9.573,329.654 9.539,329.333 9.539 C 329.012 9.539,328.881 9.573,329.042 9.615 M25.914 10.336 C 25.557 10.701,25.341 11.000,25.433 11.000 C 25.649 11.000,26.754 9.865,26.644 9.756 C 26.599 9.710,26.270 9.971,25.914 10.336 M24.363 11.514 C 24.249 11.697,24.072 11.794,23.969 11.731 C 23.850 11.657,23.829 11.691,23.911 11.824 C 24.008 11.982,24.126 11.948,24.386 11.688 C 24.576 11.498,24.695 11.306,24.651 11.262 C 24.607 11.218,24.477 11.331,24.363 11.514 M172.877 11.953 C 173.131 11.991,173.506 11.990,173.711 11.951 C 173.916 11.911,173.708 11.880,173.250 11.881 C 172.792 11.882,172.624 11.915,172.877 11.953 M316.375 11.948 C 316.535 11.990,316.798 11.990,316.958 11.948 C 317.119 11.906,316.987 11.872,316.667 11.872 C 316.346 11.872,316.215 11.906,316.375 11.948 M309.294 13.118 C 309.501 13.158,309.801 13.156,309.960 13.115 C 310.120 13.073,309.950 13.040,309.583 13.042 C 309.217 13.044,309.086 13.078,309.294 13.118 M361.375 13.119 C 361.627 13.158,362.040 13.158,362.292 13.119 C 362.544 13.081,362.337 13.050,361.833 13.050 C 361.329 13.050,361.123 13.081,361.375 13.119 M351.958 14.284 C 352.165 14.324,352.502 14.324,352.708 14.284 C 352.915 14.245,352.746 14.212,352.333 14.212 C 351.921 14.212,351.752 14.245,351.958 14.284 M106.611 20.611 C 106.358 20.864,106.524 21.167,106.917 21.167 C 107.222 21.167,107.333 21.078,107.333 20.833 C 107.333 20.508,106.860 20.362,106.611 20.611 M288.502 26.415 C 288.210 26.767,288.418 27.167,288.894 27.167 C 289.358 27.167,289.595 26.733,289.316 26.396 C 289.069 26.098,288.759 26.105,288.502 26.415 M283.958 27.347 C 283.351 27.701,283.726 28.500,284.500 28.500 C 285.293 28.500,285.652 27.683,285.011 27.339 C 284.612 27.125,284.335 27.127,283.958 27.347 M342.667 27.995 C 342.667 28.232,342.743 28.293,342.944 28.216 C 343.130 28.145,343.182 28.174,343.101 28.305 C 343.029 28.422,343.084 28.500,343.240 28.500 C 343.565 28.500,343.575 28.218,343.262 27.905 C 342.927 27.570,342.667 27.609,342.667 27.995 " stroke="none" fill="#0a0906" fill-rule="evenodd"></path><path id="path2" d="M94.901 0.204 C 94.925 0.321,95.078 0.443,95.242 0.474 C 95.427 0.510,95.496 0.462,95.425 0.347 C 95.362 0.245,95.247 0.200,95.169 0.248 C 95.092 0.296,94.990 0.258,94.943 0.164 C 94.897 0.069,94.878 0.087,94.901 0.204 M98.167 0.649 C 98.167 1.060,100.046 1.144,100.440 0.750 C 100.663 0.528,100.550 0.500,99.429 0.500 C 98.735 0.500,98.167 0.567,98.167 0.649 M206.500 1.861 C 206.500 2.060,206.552 2.170,206.616 2.106 C 206.796 1.926,206.821 1.500,206.652 1.500 C 206.568 1.500,206.500 1.662,206.500 1.861 M91.411 2.508 C 91.329 2.641,91.961 3.360,93.218 4.565 C 96.404 7.617,99.566 10.548,100.314 11.142 C 100.990 11.679,101.202 12.325,100.657 12.191 C 100.289 12.100,97.535 11.687,94.417 11.256 C 91.625 10.870,90.347 10.681,89.250 10.494 C 88.700 10.399,87.763 10.250,87.167 10.161 C 86.571 10.073,85.633 9.926,85.083 9.836 C 84.533 9.745,83.596 9.594,83.000 9.500 C 82.404 9.406,81.467 9.252,80.917 9.158 C 79.917 8.987,79.518 8.927,76.083 8.436 C 75.075 8.291,73.762 8.093,73.167 7.995 C 72.571 7.896,71.596 7.747,71.000 7.663 C 69.853 7.500,69.153 7.351,67.667 6.953 C 66.478 6.635,62.447 6.445,61.644 6.669 C 60.959 6.861,60.935 6.924,60.664 9.333 C 60.576 10.112,60.428 11.181,60.335 11.708 C 60.243 12.235,60.106 13.079,60.033 13.584 C 59.856 14.796,59.738 14.889,58.471 14.801 C 57.527 14.735,54.585 13.945,53.500 13.465 C 53.271 13.364,52.746 13.224,52.333 13.154 C 51.026 12.934,50.293 12.700,49.824 12.353 C 49.395 12.036,48.412 11.694,45.500 10.852 C 43.592 10.301,42.177 9.886,41.167 9.583 C 40.662 9.431,39.254 9.050,38.038 8.735 C 36.821 8.420,35.508 8.052,35.121 7.917 C 33.683 7.416,33.560 7.471,30.333 10.078 C 29.278 10.929,28.289 11.680,27.578 12.167 C 27.244 12.396,26.610 12.883,26.169 13.250 C 25.728 13.617,24.891 14.272,24.309 14.706 C 23.726 15.141,22.762 15.868,22.167 16.322 C 21.571 16.776,20.746 17.395,20.333 17.697 C 19.921 18.000,19.083 18.660,18.471 19.165 C 16.768 20.571,16.142 21.000,15.793 21.000 C 15.387 21.000,15.267 21.199,19.457 14.927 C 21.229 12.274,22.656 9.986,22.629 9.843 C 22.574 9.560,20.180 9.547,6.208 9.753 L -0.000 9.845 -0.000 12.631 L 0.000 15.417 3.208 15.453 C 11.503 15.546,17.096 15.697,17.231 15.831 C 17.410 16.010,16.376 17.808,13.518 22.286 C 10.949 26.308,10.766 26.259,16.500 23.080 C 17.554 22.495,19.129 21.636,20.000 21.171 C 20.871 20.706,22.183 19.995,22.917 19.591 C 23.650 19.187,24.962 18.472,25.833 18.003 C 26.704 17.534,28.279 16.674,29.333 16.092 C 35.385 12.753,35.681 12.618,36.500 12.814 C 36.912 12.913,37.737 13.077,38.333 13.178 C 39.435 13.365,40.485 13.569,41.833 13.856 C 42.246 13.943,42.921 14.082,43.333 14.164 C 43.746 14.246,44.421 14.396,44.833 14.498 C 45.246 14.600,45.958 14.761,46.417 14.856 C 47.773 15.138,48.520 15.304,49.667 15.581 C 50.262 15.725,51.087 15.912,51.500 15.996 C 51.913 16.081,52.587 16.236,53.000 16.341 C 53.413 16.446,54.313 16.587,55.000 16.654 C 56.157 16.766,57.147 16.967,58.428 17.348 C 58.710 17.432,59.109 17.500,59.314 17.500 C 59.520 17.500,59.841 17.582,60.028 17.682 C 60.215 17.782,60.829 17.938,61.392 18.029 C 61.956 18.121,62.792 18.263,63.250 18.347 C 65.105 18.685,65.971 18.831,67.083 18.993 C 67.725 19.086,69.000 19.345,69.917 19.567 C 70.833 19.790,72.108 20.062,72.750 20.172 C 73.392 20.282,74.126 20.436,74.383 20.513 C 74.960 20.688,75.143 20.358,74.835 19.698 C 74.720 19.451,74.378 18.537,74.075 17.667 C 73.772 16.796,73.284 15.446,72.992 14.667 C 72.097 12.284,72.162 12.070,73.651 12.498 C 74.641 12.782,76.596 12.941,82.833 13.246 C 87.873 13.492,89.821 13.659,91.750 14.008 C 92.300 14.107,93.440 14.240,94.284 14.303 C 95.140 14.366,95.910 14.509,96.026 14.625 C 96.160 14.760,96.750 14.833,97.707 14.833 C 98.851 14.833,99.326 14.908,99.833 15.167 C 100.930 15.726,106.000 15.650,106.000 15.074 C 106.000 14.730,105.054 13.407,104.592 13.104 C 104.365 12.956,103.877 12.403,103.506 11.875 C 103.136 11.348,102.456 10.392,101.996 9.750 C 101.535 9.108,100.885 8.171,100.550 7.667 C 100.216 7.162,99.753 6.543,99.522 6.291 C 98.959 5.675,99.207 5.435,100.276 5.560 C 100.720 5.612,102.058 5.767,103.250 5.903 C 104.442 6.040,105.979 6.236,106.667 6.339 C 108.484 6.612,109.733 6.789,111.333 7.000 C 112.112 7.103,113.200 7.255,113.750 7.338 C 114.300 7.422,115.313 7.572,116.000 7.672 C 116.688 7.772,117.737 7.926,118.333 8.013 C 118.929 8.100,120.129 8.243,121.000 8.330 C 121.871 8.416,122.808 8.529,123.083 8.579 C 123.705 8.693,125.705 8.979,127.250 9.175 C 127.892 9.256,128.942 9.402,129.583 9.499 C 130.225 9.596,131.237 9.746,131.833 9.833 C 132.429 9.920,133.404 10.063,134.000 10.150 C 134.596 10.237,136.133 10.433,137.417 10.585 C 138.700 10.737,140.237 10.932,140.833 11.019 C 141.429 11.106,142.442 11.244,143.083 11.325 C 144.222 11.470,145.809 11.693,148.000 12.017 C 148.596 12.105,149.608 12.247,150.250 12.333 C 150.892 12.419,151.904 12.561,152.500 12.648 C 153.096 12.735,154.119 12.878,154.773 12.965 C 157.087 13.274,157.161 13.175,152.533 15.954 C 151.736 16.433,150.746 17.040,150.333 17.304 C 149.921 17.568,149.396 17.880,149.167 17.996 C 148.575 18.297,147.994 18.856,148.098 19.024 C 148.210 19.204,188.118 19.214,188.229 19.034 C 188.406 18.748,187.964 18.444,185.337 17.039 C 182.307 15.419,182.191 15.299,183.500 15.136 C 184.004 15.074,184.979 14.939,185.667 14.837 C 186.354 14.735,187.479 14.582,188.167 14.496 C 188.854 14.410,189.979 14.266,190.667 14.175 C 191.354 14.083,192.517 13.931,193.250 13.837 C 193.983 13.742,195.071 13.594,195.667 13.508 C 196.262 13.422,197.838 13.230,199.167 13.082 C 201.960 12.770,203.447 12.582,205.083 12.333 C 206.584 12.106,208.222 11.894,210.000 11.698 C 210.779 11.613,211.547 11.488,211.707 11.421 C 212.142 11.238,212.273 11.773,211.895 12.190 C 211.724 12.379,211.133 13.196,210.583 14.005 C 210.033 14.814,209.077 16.212,208.458 17.112 C 206.896 19.384,207.007 19.560,209.499 18.770 C 212.615 17.782,213.466 17.508,214.167 17.265 C 215.070 16.952,217.421 16.244,222.917 14.628 C 225.252 13.942,227.620 13.225,229.667 12.585 C 231.448 12.028,233.491 11.415,236.333 10.585 C 237.204 10.331,238.368 9.988,238.919 9.822 C 240.050 9.482,239.417 9.361,245.583 11.101 C 246.042 11.230,247.092 11.516,247.917 11.737 C 248.742 11.958,249.829 12.264,250.333 12.416 C 250.838 12.568,251.625 12.798,252.083 12.927 C 252.542 13.056,253.442 13.310,254.083 13.490 C 254.725 13.671,255.813 13.976,256.500 14.169 C 257.188 14.362,258.200 14.655,258.750 14.820 C 259.732 15.114,261.266 15.531,262.583 15.860 C 263.369 16.056,265.178 16.570,266.583 16.996 C 267.133 17.163,268.183 17.463,268.917 17.662 C 269.650 17.861,270.587 18.126,271.000 18.250 C 272.192 18.608,274.025 19.126,274.750 19.309 C 275.603 19.524,277.120 19.937,278.500 20.329 C 279.096 20.499,280.146 20.797,280.833 20.992 C 281.521 21.187,282.458 21.464,282.917 21.607 C 283.375 21.751,283.975 21.927,284.250 22.000 C 284.960 22.187,288.412 23.120,289.495 23.417 C 290.504 23.694,291.000 23.733,291.000 23.537 C 291.000 23.378,289.096 21.682,288.510 21.319 C 288.127 21.082,286.479 19.756,284.792 18.325 C 283.579 17.296,283.046 17.349,295.708 17.252 C 302.056 17.204,311.783 17.127,317.322 17.080 C 323.494 17.028,327.455 17.055,327.551 17.151 C 327.724 17.324,327.288 17.776,326.173 18.583 C 325.793 18.858,325.118 19.383,324.673 19.750 C 324.227 20.117,323.587 20.604,323.250 20.833 C 322.913 21.063,322.269 21.550,321.820 21.917 C 320.254 23.194,319.914 23.452,319.542 23.648 C 319.335 23.756,319.167 23.950,319.167 24.078 C 319.167 24.349,319.745 24.574,320.015 24.407 C 320.117 24.344,320.661 24.224,321.225 24.140 C 322.255 23.985,323.233 23.825,325.083 23.506 C 325.633 23.411,326.571 23.261,327.167 23.173 C 327.762 23.085,328.700 22.937,329.250 22.844 C 329.800 22.750,331.037 22.557,332.000 22.414 C 333.627 22.173,334.232 22.074,336.667 21.649 C 337.171 21.561,338.071 21.417,338.667 21.328 C 339.262 21.239,340.162 21.094,340.667 21.006 C 341.707 20.823,343.354 20.542,344.583 20.336 C 345.042 20.260,346.279 20.077,347.333 19.929 C 349.268 19.659,350.654 19.442,352.333 19.149 C 352.837 19.061,353.662 18.919,354.167 18.833 C 354.671 18.748,355.496 18.606,356.000 18.519 C 356.504 18.431,357.404 18.283,358.000 18.189 C 358.596 18.094,359.233 17.981,359.417 17.936 C 360.390 17.697,361.500 17.688,361.500 17.919 C 361.500 18.126,360.616 19.635,359.404 21.500 C 358.207 23.340,358.277 23.804,359.635 23.048 C 360.157 22.757,364.388 20.613,369.039 18.283 C 379.211 13.185,378.266 13.860,377.009 12.593 C 376.454 12.033,376.000 11.504,376.000 11.418 C 376.000 11.332,375.652 10.908,375.227 10.477 C 373.843 9.072,372.968 9.167,387.328 9.167 L 400.000 9.167 400.000 6.064 L 400.000 2.962 399.458 3.079 C 398.752 3.231,396.617 3.423,392.000 3.751 C 389.938 3.897,387.462 4.089,386.500 4.177 C 385.537 4.265,383.962 4.407,383.000 4.493 C 382.037 4.578,380.387 4.731,379.333 4.833 C 378.279 4.935,376.629 5.086,375.667 5.168 C 371.972 5.484,369.692 5.686,368.167 5.833 C 367.296 5.916,365.721 6.062,364.667 6.156 C 362.222 6.374,361.333 6.506,361.333 6.651 C 361.333 6.798,363.584 9.315,365.377 11.173 C 368.395 14.301,368.440 14.605,365.917 14.859 C 364.854 14.966,364.163 15.053,360.833 15.501 C 360.238 15.581,358.700 15.769,357.417 15.919 C 356.133 16.068,354.558 16.258,353.917 16.341 C 353.275 16.424,352.150 16.569,351.417 16.663 C 350.683 16.758,349.558 16.912,348.917 17.006 C 347.015 17.285,345.562 17.465,342.917 17.751 C 340.216 18.043,338.742 18.226,336.917 18.495 C 333.232 19.037,333.031 18.960,334.346 17.511 C 334.843 16.963,335.832 15.855,336.544 15.049 C 337.256 14.243,338.475 12.889,339.253 12.039 C 340.084 11.131,340.667 10.352,340.667 10.147 C 340.667 9.728,341.149 9.674,334.500 10.841 C 333.996 10.929,332.758 11.113,331.750 11.250 C 329.966 11.492,328.622 11.702,326.917 12.006 C 325.969 12.175,324.347 12.453,323.000 12.676 C 322.496 12.760,321.258 12.942,320.250 13.080 C 318.457 13.326,317.093 13.541,315.417 13.840 C 314.958 13.921,314.096 14.071,313.500 14.173 C 312.904 14.274,312.023 14.427,311.542 14.512 C 309.473 14.877,308.683 15.008,307.583 15.164 C 306.942 15.255,305.967 15.409,305.417 15.507 C 304.867 15.604,303.667 15.796,302.750 15.933 C 300.970 16.199,299.449 16.436,298.935 16.527 C 298.271 16.645,298.561 16.217,299.716 15.375 C 300.376 14.894,301.442 14.086,302.083 13.581 C 302.725 13.075,303.724 12.306,304.303 11.872 C 305.970 10.622,306.863 9.883,306.891 9.727 C 306.932 9.498,268.527 9.073,268.299 9.301 C 268.222 9.378,268.629 9.829,269.204 10.303 C 274.438 14.619,274.795 14.911,275.668 15.583 C 279.170 18.281,278.926 18.328,272.583 16.187 C 269.925 15.290,263.400 13.088,258.083 11.294 C 252.767 9.499,246.504 7.385,244.167 6.595 L 239.917 5.158 238.833 5.645 C 238.237 5.913,237.262 6.324,236.667 6.559 C 236.071 6.794,234.946 7.259,234.167 7.593 C 233.387 7.926,232.394 8.342,231.958 8.516 C 230.124 9.251,229.471 9.519,227.333 10.414 C 226.096 10.933,224.521 11.581,223.833 11.855 C 223.146 12.129,222.171 12.532,221.667 12.749 C 221.162 12.967,220.225 13.366,219.583 13.637 C 218.942 13.907,217.554 14.500,216.500 14.955 C 215.446 15.409,214.283 15.897,213.917 16.039 C 213.550 16.182,212.785 16.496,212.218 16.738 C 211.650 16.979,210.830 17.284,210.395 17.415 L 209.605 17.653 210.031 17.226 C 210.266 16.992,211.499 16.098,212.771 15.241 C 217.725 11.903,221.815 9.129,223.260 8.129 C 224.091 7.554,225.277 6.761,225.896 6.366 C 227.300 5.471,227.251 5.283,225.570 5.127 C 224.308 5.010,222.897 4.866,219.417 4.500 C 213.247 3.851,210.620 3.647,210.460 3.807 C 210.384 3.883,210.905 4.604,211.619 5.409 C 212.333 6.213,213.026 7.032,213.160 7.228 C 213.294 7.423,213.657 7.873,213.967 8.226 C 214.649 9.003,214.561 9.114,213.167 9.230 C 212.571 9.280,211.521 9.395,210.833 9.485 C 210.146 9.575,208.871 9.732,208.000 9.833 C 206.336 10.028,204.696 10.235,202.750 10.495 C 201.011 10.728,199.049 10.954,196.167 11.253 C 194.746 11.401,193.021 11.591,192.333 11.676 C 191.646 11.761,190.446 11.905,189.667 11.996 C 188.887 12.087,187.688 12.233,187.000 12.321 C 186.313 12.409,185.075 12.558,184.250 12.652 C 183.425 12.746,182.525 12.864,182.250 12.914 C 181.975 12.964,180.813 13.083,179.667 13.179 C 178.521 13.275,177.040 13.423,176.375 13.510 C 175.710 13.596,174.585 13.743,173.875 13.836 C 173.165 13.929,171.946 14.080,171.167 14.171 C 170.387 14.262,169.150 14.412,168.417 14.506 C 161.231 15.419,161.703 15.609,163.282 12.441 C 164.717 9.562,164.717 9.560,162.750 9.433 C 161.490 9.351,159.730 9.182,156.500 8.834 C 155.721 8.750,153.696 8.563,152.000 8.418 C 150.304 8.274,148.204 8.082,147.333 7.992 C 144.260 7.676,142.731 7.517,141.000 7.334 C 137.367 6.949,136.330 6.850,133.167 6.587 C 129.651 6.294,128.767 6.207,122.083 5.499 C 121.258 5.412,119.796 5.261,118.833 5.163 C 117.871 5.066,116.446 4.919,115.667 4.836 C 109.165 4.143,108.246 4.052,104.750 3.751 C 103.008 3.601,100.946 3.410,100.167 3.325 C 98.100 3.102,95.464 2.838,93.750 2.683 C 92.925 2.608,92.090 2.492,91.894 2.426 C 91.673 2.350,91.490 2.382,91.411 2.508 M59.917 4.083 C 60.347 4.228,61.667 4.276,61.667 4.146 C 61.667 4.066,61.235 4.006,60.708 4.013 C 60.181 4.020,59.825 4.052,59.917 4.083 M133.500 4.102 C 134.497 4.228,135.667 4.240,135.667 4.125 C 135.667 4.056,135.085 4.011,134.375 4.025 C 133.665 4.039,133.271 4.074,133.500 4.102 M361.380 4.123 C 361.818 4.157,362.493 4.157,362.880 4.122 C 363.267 4.087,362.908 4.059,362.083 4.059 C 361.258 4.060,360.942 4.088,361.380 4.123 M243.667 4.482 C 243.667 4.564,243.785 4.677,243.930 4.732 C 244.289 4.870,244.333 4.861,244.333 4.657 C 244.333 4.560,244.258 4.527,244.167 4.583 C 244.075 4.640,244.000 4.607,244.000 4.510 C 244.000 4.413,243.925 4.333,243.833 4.333 C 243.742 4.333,243.667 4.400,243.667 4.482 M244.833 4.833 C 244.833 4.918,244.982 5.068,245.163 5.165 C 245.427 5.306,245.474 5.293,245.400 5.100 C 245.292 4.820,244.833 4.603,244.833 4.833 M68.042 5.179 C 68.294 5.279,68.500 5.430,68.500 5.514 C 68.500 5.755,68.998 5.692,69.274 5.417 C 69.496 5.194,69.462 5.166,68.970 5.164 C 68.666 5.163,68.229 5.125,68.000 5.079 C 67.616 5.003,67.620 5.011,68.042 5.179 M245.984 5.313 C 246.204 5.507,246.479 5.667,246.595 5.667 C 246.711 5.667,246.943 5.710,247.111 5.764 C 247.397 5.854,247.396 5.844,247.100 5.602 C 246.927 5.460,246.727 5.380,246.656 5.423 C 246.586 5.467,246.503 5.437,246.473 5.356 C 246.442 5.276,246.229 5.154,246.000 5.085 L 245.583 4.959 245.984 5.313 M145.507 5.425 C 145.668 5.620,146.010 5.675,146.902 5.651 C 149.141 5.590,148.894 5.199,146.605 5.178 C 145.438 5.168,145.316 5.195,145.507 5.425 M93.253 7.350 C 94.363 8.473,94.936 9.157,94.709 9.089 C 94.411 9.001,94.356 9.032,94.438 9.246 C 94.495 9.394,94.581 9.474,94.630 9.425 C 94.679 9.376,94.822 9.421,94.947 9.525 C 95.129 9.677,95.152 9.652,95.059 9.399 C 94.948 9.095,94.959 9.096,95.347 9.410 C 95.569 9.589,94.814 8.783,93.669 7.618 C 92.525 6.453,91.551 5.500,91.505 5.500 C 91.460 5.500,92.246 6.333,93.253 7.350 M229.417 6.178 C 229.142 6.354,229.002 6.499,229.107 6.499 C 229.211 6.500,229.473 6.352,229.690 6.172 C 230.185 5.759,230.066 5.762,229.417 6.178 M361.618 9.495 C 363.471 11.369,365.008 12.868,365.035 12.826 C 365.062 12.784,363.546 11.251,361.667 9.419 L 358.250 6.087 361.618 9.495 M345.927 7.521 C 346.003 7.859,345.901 8.106,345.479 8.604 L 344.932 9.250 345.464 8.762 C 346.094 8.185,346.253 7.782,346.008 7.378 C 345.859 7.133,345.845 7.158,345.927 7.521 M28.616 8.255 C 28.359 8.482,28.246 8.664,28.366 8.661 C 28.485 8.659,28.718 8.471,28.883 8.245 C 29.255 7.733,29.208 7.735,28.616 8.255 M226.276 8.535 C 226.233 8.699,226.278 8.882,226.375 8.942 C 226.475 9.004,226.503 8.973,226.440 8.870 C 226.378 8.771,226.490 8.576,226.689 8.437 C 227.048 8.185,227.048 8.184,226.702 8.210 C 226.511 8.224,226.319 8.370,226.276 8.535 M334.667 8.667 L 333.917 8.783 334.615 8.808 C 334.999 8.822,335.360 8.758,335.417 8.667 C 335.473 8.575,335.496 8.511,335.468 8.525 C 335.440 8.539,335.079 8.603,334.667 8.667 M91.294 8.785 C 91.501 8.824,91.801 8.823,91.960 8.781 C 92.120 8.739,91.950 8.707,91.583 8.709 C 91.217 8.711,91.086 8.745,91.294 8.785 M199.125 8.787 C 199.423 8.824,199.910 8.824,200.208 8.787 C 200.506 8.750,200.262 8.720,199.667 8.720 C 199.071 8.720,198.827 8.750,199.125 8.787 M225.750 8.794 C 225.495 8.981,225.475 9.333,225.724 9.237 C 225.880 9.177,226.074 8.643,225.931 8.669 C 225.923 8.671,225.842 8.727,225.750 8.794 M256.740 8.922 C 257.130 9.217,257.276 9.228,257.433 8.974 C 257.504 8.859,257.479 8.827,257.371 8.894 C 257.271 8.955,257.143 8.929,257.085 8.836 C 257.027 8.743,256.854 8.669,256.698 8.672 C 256.452 8.677,256.457 8.708,256.740 8.922 M27.273 9.315 C 26.869 9.636,26.740 9.826,26.888 9.882 C 27.010 9.929,27.313 9.713,27.562 9.400 C 28.114 8.708,28.058 8.691,27.273 9.315 M195.595 9.262 C 195.451 9.406,195.333 9.571,195.333 9.629 C 195.333 9.686,195.423 9.643,195.533 9.533 C 195.643 9.423,195.873 9.333,196.043 9.333 C 196.214 9.333,196.307 9.258,196.250 9.167 C 196.104 8.930,195.897 8.960,195.595 9.262 M47.500 9.476 C 47.500 9.648,48.005 9.884,48.121 9.767 C 48.162 9.727,48.039 9.610,47.848 9.508 C 47.656 9.405,47.500 9.391,47.500 9.476 M330.271 9.535 C 330.386 9.719,330.833 9.700,330.833 9.510 C 330.833 9.424,330.689 9.365,330.512 9.378 C 330.335 9.392,330.226 9.462,330.271 9.535 M259.833 9.867 C 260.063 9.981,260.287 10.114,260.333 10.162 C 260.379 10.210,260.529 10.274,260.667 10.303 C 260.889 10.350,260.889 10.328,260.667 10.105 C 260.529 9.968,260.192 9.811,259.917 9.758 C 259.420 9.660,259.420 9.661,259.833 9.867 M327.706 9.789 C 327.087 9.844,327.027 9.884,327.236 10.093 C 327.494 10.351,328.000 10.421,328.000 10.199 C 328.000 10.125,328.206 9.983,328.458 9.883 C 328.938 9.694,328.866 9.684,327.706 9.789 M188.667 10.083 C 188.781 10.221,189.119 10.333,189.419 10.333 C 189.750 10.333,190.002 10.235,190.060 10.083 C 190.138 9.881,189.993 9.833,189.308 9.833 C 188.572 9.833,188.487 9.867,188.667 10.083 M24.103 11.500 C 23.559 12.322,23.883 12.409,24.594 11.631 C 24.863 11.337,24.941 11.205,24.768 11.338 C 24.476 11.562,24.461 11.552,24.571 11.207 C 24.745 10.658,24.600 10.749,24.103 11.500 M266.906 11.482 C 266.968 11.583,267.173 11.748,267.363 11.849 C 267.609 11.981,267.675 11.982,267.594 11.851 C 267.532 11.751,267.327 11.586,267.137 11.484 C 266.891 11.352,266.825 11.352,266.906 11.482 M307.101 12.982 C 306.556 13.550,306.675 13.678,307.583 13.501 L 308.250 13.372 307.596 13.352 L 306.942 13.333 307.333 12.917 C 307.549 12.688,307.688 12.500,307.644 12.500 C 307.599 12.500,307.355 12.717,307.101 12.982 M358.500 13.463 C 358.500 13.534,358.819 13.567,359.208 13.537 C 360.376 13.447,360.476 13.373,359.458 13.353 C 358.931 13.342,358.500 13.392,358.500 13.463 M340.890 13.623 C 340.949 13.720,340.886 13.841,340.749 13.894 C 340.474 14.000,340.407 14.333,340.661 14.333 C 340.937 14.333,341.195 13.704,340.975 13.568 C 340.862 13.498,340.827 13.521,340.890 13.623 M353.077 14.234 C 352.777 14.453,352.786 14.463,353.214 14.381 C 353.466 14.333,353.712 14.227,353.762 14.147 C 353.905 13.915,353.430 13.976,353.077 14.234 M350.037 14.494 C 349.164 14.574,348.743 14.693,348.537 14.919 C 348.271 15.209,348.271 15.216,348.534 15.018 C 348.691 14.901,348.905 14.858,349.011 14.924 C 349.117 14.989,349.269 14.939,349.349 14.813 C 349.455 14.647,349.496 14.641,349.497 14.792 C 349.499 14.923,349.746 15.000,350.167 15.000 C 350.533 15.000,350.833 14.925,350.833 14.833 C 350.833 14.742,350.979 14.667,351.157 14.667 C 351.335 14.667,351.527 14.592,351.583 14.500 C 351.640 14.408,351.588 14.344,351.468 14.358 C 351.348 14.371,350.704 14.432,350.037 14.494 M342.500 28.369 C 342.500 28.553,342.960 28.533,343.077 28.343 C 343.130 28.257,343.022 28.198,342.837 28.212 C 342.652 28.226,342.500 28.297,342.500 28.369 " stroke="none" fill="#ecca04" fill-rule="evenodd"></path></g></svg>