<?xml version="1.0" encoding="UTF-8"?>
<svg width="400" height="29.283" version="1.1" viewBox="0 0 400 29.28257687" xmlns="http://www.w3.org/2000/svg" xmlns:cc="http://creativecommons.org/ns#" xmlns:dc="http://purl.org/dc/elements/1.1/" xmlns:rdf="http://www.w3.org/1999/02/22-rdf-syntax-ns#">
<path d="m-0.004492 0.0021485 0.0065193 16.685c0 0.804-0.19303 0.774 7.274 0.914l6.268 0.117c-0.69022 2.2863-5.8807 7.2618-6.183 10.989 3.0057 1.2453 5.1676-1.108 7.517-2.287 6.3449-2.6159 18.482-10.904 23.004-10.749 0.869 0.163 2.292 0.422 3.163 0.574 4.23 0.74 4.988 0.889 6.882 1.354 4.7699 0.87359 28.149 6.8989 29.887 4.0838 0.399-0.746-0.61629-3.4937-2.171-6.7719 0.68012-0.74303 26.903 3.0752 32.561 1.7711 0.44644-3.6411-3.2373-5.8178-4.9494-8.6566 3.9892 0.42312 7.4694 1.3456 9.9429 1.6168 3.1985 0.42917 6.1817 0.9093 8.9078 1.2544 4.5632 0.72089 19.709 1.8749 28.338 3.2566 2.0776 0.48455-2.179 2.5747-3.2124 3.1942-1.798 0.916-1.7451 2.5582-0.7551 3.2002 1.872-0.11321 45.205 0.34997 45.123-0.68976 0.0703-0.44394-1.8976-2.6136-4.3762-3.8756 7.3733-0.63728 13.57-1.704 21.53-2.4101 0 0.315-1.9752 2.7124-2.5508 3.5315-1.0861 1.5806-2.0552 3.9842 0.0957 3.9712 0.945-6e-3 5.793-1.1488 8.747-2.1358 5.0418-1.3383 8.9773-2.558 13.519-3.58 1.5437-0.31854 10.186-3.6482 11.759-2.88 2.262 0.548 3.474 0.901 3.783 1.104 0.332 0.216 2.952 0.921 9.879 2.658 2.2679 0.67456 4.9435 1.1905 6.871 1.866 2.9766 0.94492 5.9011 1.6472 8.852 2.468 0.415 0.134 1.841 0.519 3.17 0.856 4.7666 1.1494 8.5526 2.6294 13.334 3.67 0.23119 0.09906 2.0014 0.53027 5.338 1.395 3.087 0.803 3.995 0.571 3.995-1.017 0-0.762-0.612-1.452-3.196-3.609-0.58-0.484-1.354-1.138-1.721-1.454l-1.4785-1.2c6.9482-0.13517 25.483-0.56226 33.558 0.0097-4.4459 3.4372-8.8773 6.5656-6.384 7.2434 14.703-2.2719 29.736-4.2668 41.264-5.8851 0.434-0.08 1.235-0.25525 0.529 0.67675-3.122 4.125-3.1552 6.3168 1.652 3.9052 5.433-2.7629 17.428-8.6599 21.766-10.402 0.779-0.715 0.0158-1.1155-1.1822-2.3635l-1.027-1.069c1.0013-0.03168 2.0475 0.07866 2.961 0.173 1.178 0.152 5.836 0.338 15.051 0.599l2.708 0.07698v-0.674l-0.0298-11.463" fill="#040404"/>
<path d="m-0.004492 0.0021485c0.0070644 0.70916 0.0074906 15.633 0.0094256 16.076 0.55216 0.05366 0.24456 0.05225 2.8797 0.12976 1.9008 0.09057 4.8032 0.15728 8.8407 0.22378 5.615 0.093 4.5291-0.12216 2.9916 2.1164-0.7314 1.0649-1.3387 2.2191-2.053 3.285-0.0685 0.10224-2.511 3.648-3.037 4.467-1.093 1.702-0.229 1.824 2.123 0.302 8.4106-4.1239 15.946-8.8815 23.454-12.351 6.0358 0.84218 11.746 1.4811 16.958 2.9479 10.183 2.4394 11.135 2.3786 21.739 3.9312 4.1161 1.0906 1.4428-3.7247 0.83135-5.3901-1.192-2.272-1.175-2.282 3.268-1.748 9.472 0.39466 19.674 2.4406 28.223 2.18l0.944-0.196c0.14298-1.525-0.74622-2.8136-1.75-3.716-1.1866-1.5055-2.606-3.0748-3.4842-4.5952-0.484-0.497-0.47875-0.71375 0.35925-0.60775 0.435 0.056 1.504 0.15 2.375 0.211 10.638 1.5409 22.14 2.9871 32.25 4.227 0.733 0.104 2.345 0.3 3.583 0.436 2.651 0.291 4.343 0.505 5.833 0.736 1.634 0.253 3.546 0.485 5.576 0.677 1.9 0.179 2.405 0.361 2.08 0.753-1.943 2.1292-7.8666 4.2794-7.619 5.596 0.20151 0.35268 44.797 0.178 44.797-0.02 0-0.287-0.894-0.996-2.058-1.632-0.629-0.343-1.267-0.699-1.418-0.791s-0.709-0.418-1.241-0.725c-0.532-0.308-0.938-0.645-0.903-0.75 0.069-0.211 0.128-0.221 5.703-0.933 0.642-0.082 2.254-0.271 3.583-0.42s2.942-0.34 3.584-0.425c0.641-0.085 1.804-0.236 2.583-0.335 1.376-0.175 2.448-0.314 5.125-0.664 4.137-0.542 4.515-0.448 3.464 0.864-0.88009 1.2203-1.7729 2.5495-2.608 3.661-1.679 2.202-1.6492 2.6397 0.34195 2.2254 5.1517-1.1515 10.09-2.8861 14.594-4.0804 4.7412-1.294 8.4855-2.3279 12.75-3.503 0.412-0.106 1.162-0.306 1.666-0.444 1.758-0.482 1.921-0.524 2.584-0.65 0.366-0.07 0.738-0.109 0.826-0.088 0.087 0.022 0.462 0.104 0.833 0.182 0.807 0.171 2.926 0.737 4.424 1.182 3.3686 0.93556 6.1063 1.6906 9.333 2.572 0.413 0.123 1.088 0.311 1.5 0.416 0.413 0.105 1.238 0.332 1.834 0.503 0.595 0.171 1.683 0.46 2.416 0.642 3.6908 1.0287 7.6198 2.0582 10.957 3.036 2.055 0.58592 3.8454 1.0392 5.71 1.54 0.825 0.227 2.1 0.573 2.833 0.768 0.734 0.195 1.671 0.459 2.084 0.587 0.412 0.128 1.087 0.319 1.5 0.425 0.412 0.106 1.237 0.332 1.833 0.503s1.833 0.509 2.75 0.751c1.2934 0.45216 2.7062 0.75659 3.957 1.129 0.91927 0.25971 1.6747 0.46766 2.5443 0.44934-0.68897-1.0563-1.8509-1.7884-2.6553-2.5013-1.8383-1.583-3.6318-2.7814-5.023-4.65 0.081-0.132 5.481-0.184 19.109-0.184 21.8 0 20.237-0.127 17.952 1.468-2.412 1.8536-6.0741 4.2102-6.6422 5.1497 0.0832 0.36625 0.29443 0.45705 0.62119 0.419 2.9568-0.39794 5.7431-1.0663 8.5541-1.3067 11.485-1.6605 22.162-3.2811 32.716-5.034 1.257-0.164 1.485 0.053 0.987 0.936-0.95993 1.6588-2.1386 3.0729-2.8667 4.6448-0.276 0.529-0.0902 0.77064 0.42262 0.47917 1.5645-0.4417 2.8498-1.2719 4.004-1.839 5.5686-2.4305 9.8207-4.8893 15.07-7.088 0.505-0.015 3.25-1.578 3.306-1.883 0.052-0.279-0.46-0.909-2.56-3.147-1.353-1.441 22.634-0.43544 22.768-0.94062 0.27613-1.9128-2.6714-10.173 1e-3 -10.148" fill="#e20f47"/>
<path d="m-0.004492 0.0021485c0.015544 5.132 0.0045021 10.283 0.0045021 15.415l3.042 0.027c5.683 0.051 13.707 0.305 13.916 0.441 0.381 0.246 0.145 0.706-2.624 5.115-2.487 3.96-2.587 4.167-2.013 4.167 0.319 0 0.82-0.25 4.179-2.088 2.824-1.546 5.344-2.917 6.417-3.493 0.55-0.295 1.862-1.009 2.916-1.585 3.16-1.729 5.294-2.888 7.649-4.151l2.231-1.197 4.685 0.947c5.509 1.114 7.641 1.567 9.685 2.06 4.1543 0.96298 7.3889 1.4677 11.334 2.39 3.3049 0.54832 6.1654 1.0054 9.185 1.671 3.751 0.831 4.041 0.868 4.17 0.531 0.103-0.268-0.341-1.662-1.75-5.489-0.848-2.303-1.0216-2.6761 0.88787-2.5057 10.067 0.96902 23.886 3.1496 31.66 3.1417 0.6-0.23 0.165-1.166-1.152-2.482-1.1498-1.2699-1.9937-2.5796-3.007-3.985-2.188-2.954-2.32-3.363-1.074-3.328 0.917 0.026 5.219 0.556 8.663 1.068 3.4928 0.4769 6.034 0.84114 9.25 1.322 8.6068 1.1348 17.122 2.303 24.833 3.339 1.324 0.176 3.159 0.436 4.75 0.672 2.4946 0.33876 4.4127 0.62767 6.834 0.933 2.14 0.239 1.799 0.699-2.334 3.148-3.829 2.269-4.085 2.451-3.951 2.802 0.121 0.313 38.942 0.438 39.434 0.126 0.436-0.276 0.058-0.604-1.921-1.666-3.213-1.725-3.519-2.052-2.103-2.247 0.435-0.06 1.316-0.185 1.958-0.279 0.642-0.093 1.748-0.241 2.458-0.329 2.306-0.285 3.85-0.479 5.125-0.645 1.933-0.25 5.449-0.69 6.834-0.855 1.916-0.229 3.631-0.459 4.916-0.661 2.61-0.409 6.606-0.838 6.784-0.728 0.242 0.15 0.142 0.344-1.121 2.168-3.895 5.626-3.899 5.643-1.111 4.758 2.055-0.653 4.304-1.315 4.948-1.457 0.586-0.129 3.296-0.916 5.084-1.477 0.687-0.216 2.075-0.631 3.083-0.922 1.75-0.506 8.387-2.522 10.5-3.19 0.55-0.174 1.375-0.418 1.833-0.543 0.459-0.125 1.658-0.472 2.666-0.77 2.156-0.637 2.426-0.625 5.424 0.233 2.986 0.854 5.902 1.673 9.244 2.597 0.916 0.253 2.857 0.81 4.311 1.237 1.455 0.427 3.742 1.065 5.084 1.419 1.341 0.354 4.95 1.359 8.021 2.234s7.121 2.015 9 2.535c1.879 0.519 4.242 1.193 5.25 1.497 4.293 1.295 6.584 1.794 6.584 1.436 0-0.174-1.663-1.707-2.829-2.609-4.789-3.702-5.083-3.411 3.471-3.437 3.726-0.012 8.724-0.045 11.108-0.075 28.02-0.35 26.298-0.477 23.25 1.709-1.6997 1.2327-3.3055 2.5402-4.957 3.82-2.193 1.684-1.864 1.828 2.457 1.073 11.91-2.0091 24.604-3.9382 35.449-5.758 2.774-0.491 3.105-0.246 1.993 1.474-2.454 3.794-2.44 4.53 0.058 2.947 0.412-0.261 4.406-2.297 8.875-4.524 8.913-4.442 8.646-4.258 7.605-5.239-0.82087-0.83197-1.4596-1.7022-2.188-2.628-0.77-0.966-1.046-0.945 12.656-0.945h12.385c-0.0169-3.923-0.0238-2.5918 0.0152-9.1234" fill="#ecc605"/>
<path d="m-0.004492 0.0021485 0.004492 8.8399v1.003l6.125-0.087c3.369-0.048 8.262-0.129 10.875-0.18 5.205-0.102 5.5-0.078 5.5 0.448 0 0.194-1.463 2.538-3.25 5.209-4.193 6.267-4.237 6.744-0.333 3.601 0.641-0.517 1.879-1.474 2.75-2.128 0.87-0.653 2.22-1.685 3-2.292 1.575-1.228 5.077-3.901 7.369-5.624 1.558-1.172 1.974-1.307 2.911-0.944 0.259 0.1 1.67 0.505 3.136 0.9 6.023 1.622 10.398 2.958 11.5 3.51 3.1775 1.2823 9.1609 3.5404 10.074 2.337 0.246-0.296 1.002-4.269 1.007-5.291 0.28725-1.386 0.361-2.331 0.97-2.586 0.85-0.355 4.09-0.147 6.866 0.442 7.7183 1.4043 13.432 2.1405 20.25 3.237 1.01 0.179 4.055 0.64 6.75 1.02 1.054 0.148 2.279 0.34 2.721 0.426 2.263 0.441 2.998 0.076 1.83-0.908-0.338-0.285-1.536-1.381-2.662-2.435-6.719-6.29-6.514-6.012-4.347-5.893 0.756 0.042 1.562 0.112 1.791 0.156 0.23 0.044 1.242 0.16 2.25 0.256 1.009 0.097 2.434 0.238 3.167 0.313 13.435 1.3154 25.059 2.5683 37.583 3.681 0.871 0.089 2.296 0.233 3.167 0.32 0.871 0.088 2.333 0.238 3.25 0.333 3.972 0.412 4.825 0.496 7.667 0.752 2.943 0.265 4.416 0.41 7.583 0.743 0.871 0.092 2.221 0.225 3 0.296 2.22 0.202 2.203 0.144 0.833 2.876-1.3 2.594-1.237 3.027 0.399 2.759 0.377-0.062 1.285-0.181 2.018-0.264 0.733-0.084 1.971-0.231 2.75-0.328s2.017-0.247 2.75-0.333c1.525-0.18 3.405-0.413 5.333-0.662 0.734-0.094 2.459-0.29 3.834-0.435 2.651-0.279 4.121-0.448 6.416-0.736 0.779-0.098 2.054-0.249 2.834-0.334 0.779-0.085 2.016-0.229 2.75-0.319 0.733-0.089 2.458-0.286 3.833-0.437 3.908-0.428 6.135-0.695 9-1.079 0.733-0.099 1.971-0.249 2.75-0.333 0.779-0.085 2.054-0.237 2.833-0.337 0.779-0.101 1.829-0.235 2.332-0.298 1.407-0.175 1.309-0.413-1.584-3.864-1.382-1.649-1.328-1.716 1.183-1.482 1.735 0.161 2.702 0.258 6.486 0.649 0.917 0.095 2.454 0.252 3.417 0.349 5.314 0.537 5.602-0.059-2.645 5.479-6.568 4.411-9.355 6.407-9.355 6.701 0 0.245 0.33515 0.18715 2.8292-0.80985 4.0738-1.6519 6.1577-2.656 10.004-4.2171 0.871-0.353 2.596-1.066 3.833-1.585 1.238-0.519 2.963-1.234 3.834-1.587 0.87-0.354 2.146-0.881 2.833-1.171 0.688-0.29 2.037-0.851 3-1.246 0.963-0.396 2.024-0.836 2.359-0.979l0.609-0.259 8.391 2.843c4.615 1.564 10.829 3.66 13.808 4.658s7.516 2.528 10.083 3.401c6.82 2.4265 6.909 2.234 2.004-1.66-5.602-4.447-6.108-4.949-5.212-5.17 0.366-0.09 7.086-0.038 27.375 0.213 11.708 0.144 11.045-9e-3 8.472 1.957-0.84 0.641-2.302 1.759-3.25 2.483-2.507 1.5342-2.9408 1.9018-2.5345 2.5558 11.194-0.31039 28.705-4.7123 41.396-6.1008-0.125 0.40175-0.544 0.92-1.208 1.637-1.051 1.134-2.31 2.545-4.847 5.432-1.166 1.326-0.644 1.557 2.472 1.095 1.766-0.263 3.345-0.463 6.166-0.784 3.515-0.4 4.555-0.531 5.834-0.733 0.641-0.102 1.766-0.256 2.5-0.343 2.026-0.241 7.271-0.895 9.333-1.164 2.599-0.339 4.06-0.521 5.223-0.651 2.238-0.249 2.208-0.606-0.279-3.26-5.036-5.374-4.973-5.107-1.277-5.423 1.008-0.086 2.658-0.234 3.666-0.329 1.009-0.095 2.696-0.247 3.75-0.338 2.253-0.194 4.834-0.421 7.5-0.661 1.054-0.094 2.742-0.244 3.75-0.332 1.009-0.088 2.621-0.234 3.584-0.325 0.962-0.09 3.325-0.279 5.25-0.42 8.358-0.612 8.083-0.563 8.083-1.464l0.0152-2.2484" fill="#e20f47"/>
<path d="m0.03457 3.9074c0.030176 3.0198-0.088683 3.8942 0.071317 3.8972 0.115 2e-3 1.8077 0.058781 3.5957 0.09778 1.787 0.04 7.225 0.132 12.083 0.205 9.111 0.137 9.25 0.149 9.25 0.778 0 0.353-0.289 0.793-2.425 3.688-2.367 3.209-1.853 3.049 3.165-0.992 1.7295-1.4202 3.5296-2.7543 5.286-4.137 1.311-1.073 1.799-1.196 3.198-0.804 7.716 2.098 15.459 4.7729 23.981 6.517 0.934 0 0.906 0.068 1.02-2.5 0.078-1.758 0.384-4.401 0.597-5.155 0.192-0.679 0.514-0.764 2.039-0.536 4.7046 0.87489 35.198 6.2308 34.849 5.1067 0.293-1.0312-2.141-2.4177-4.712-5.0047-3.15-3.169-4.555-4.5125-4.5287-5.0651-0.46668 0.00438-4.3023-0.012893-43.641-0.012893l-43.867 0.0078125zm92.917-3.251c1.8212 0.19991 3.6064 0.35939 5.416 0.649 0.504 0.102 2.079 0.263 3.5 0.358 7.1065 0.6016 12.739 1.2678 19.584 1.838 14.146 1.3793 28.959 3.0147 42 4.151 3.991 0.34 4.108 0.53 2.154 3.496-1.173 1.781-1.025 2.456 0.501 2.282 0.464-0.053 1.445-0.169 2.178-0.258s2.083-0.241 3-0.337 1.854-0.212 2.083-0.258c11.346-1.2118 21.609-2.5197 31.917-3.753 5.869-0.689 5.987-0.709 6.046-1.013 0.028-0.144-0.813-1.419-1.868-2.833-1.056-1.414-1.921-2.662-1.924-2.774-7e-3 -0.348 0.669-0.591 1.311-0.47 6.4081 0.84258 13.295 1.8405 19.159 2.423 2.423 0 2.353 0.575-0.307 2.505-8.08 5.861-8.213 6.117-1.667 3.206 3.322-1.478 4.68-2.077 6.333-2.794 1.53-0.663 3.482-1.535 5.559-2.485 1.787-0.817 0.559-1.127 16.42 4.141 14.789 4.912 15.652 5.185 15.826 5.011 0.106-0.106-2.157-2.335-3.868-3.808-1.129-0.973-1.261-1.536-0.395-1.693 1.305-0.236 44.812 0.214 45.064 0.466 0.257 0.258-0.244 0.723-3.273 3.034-1.681 1.283-3.716 1.7818-3.383 2.7212 2.6458 0.49034 5.14-0.5585 7.634-1.0272 9.2639-1.4726 19.799-3.3806 28.4-4.954 5.464-1.014 5.489-0.852 0.654 4.193-3.307 3.451-3.578 3.777-3.336 4.018 0.198 0.199 3.493-0.099 7.615-0.687 4.934-0.37624 9.4043-1.2238 14.25-1.854 2.213-0.303 3.557-0.481 4.711-0.623 2.307-0.283 2.274-0.358-1.958-4.509-4.078-3.999-4.074-3.91-0.17-4.212 1.1-0.086 2.825-0.228 3.834-0.317 3.852-0.34 5.903-0.512 7.916-0.665 4.428-0.335 6.114-0.476 6.917-0.575 0.458-0.057 2.108-0.183 3.667-0.281 1.558-0.097 3.62-0.244 4.583-0.325 4.767-0.403 6.059-0.51 7.75-0.643 1.008-0.078 2.152-0.198 2.542-0.265l0.708-0.122v-1.623h-155.87c-93.4 0-156.76-0.077107-156.66 0.012893" fill="#54940c"/>
</svg>

