<?xml version="1.0" encoding="UTF-8" standalone="no"?>
<svg
   xmlns:dc="http://purl.org/dc/elements/1.1/"
   xmlns:cc="http://creativecommons.org/ns#"
   xmlns:rdf="http://www.w3.org/1999/02/22-rdf-syntax-ns#"
   xmlns:svg="http://www.w3.org/2000/svg"
   xmlns="http://www.w3.org/2000/svg"
   xmlns:sodipodi="http://sodipodi.sourceforge.net/DTD/sodipodi-0.dtd"
   xmlns:inkscape="http://www.inkscape.org/namespaces/inkscape"
   height="29.282577"
   viewBox="0 0 400 29.28257687"
   width="400"
   version="1.1"
   id="svg12"
   sodipodi:docname="topmin.svg"
   inkscape:version="0.92.5 (2060ec1f9f, 2020-04-08)">
  <metadata
     id="metadata18">
    <rdf:RDF>
      <cc:Work
         rdf:about="">
        <dc:format>image/svg+xml</dc:format>
        <dc:type
           rdf:resource="http://purl.org/dc/dcmitype/StillImage" />
        <dc:title></dc:title>
      </cc:Work>
    </rdf:RDF>
  </metadata>
  <defs
     id="defs16" />
  <sodipodi:namedview
     pagecolor="#ffffff"
     bordercolor="#666666"
     borderopacity="1"
     objecttolerance="10"
     gridtolerance="10"
     guidetolerance="10"
     inkscape:pageopacity="0"
     inkscape:pageshadow="2"
     inkscape:window-width="1920"
     inkscape:window-height="993"
     id="namedview14"
     showgrid="false"
     inkscape:zoom="32"
     inkscape:cx="395.04071"
     inkscape:cy="19.923347"
     inkscape:window-x="0"
     inkscape:window-y="24"
     inkscape:window-maximized="1"
     inkscape:current-layer="layer4" />
  <g
     fill-rule="evenodd"
     id="g10" />
  <g
     inkscape:groupmode="layer"
     id="layer4"
     inkscape:label="black"
     style="display:inline">
    <path
       d="m -0.00449205,0.0021485 0.0065193,16.6848485 c 0,0.804 -0.19303125,0.774 7.27396875,0.914 l 6.268,0.117 c -0.69022,2.28627 -5.88067,7.26176 -6.183,10.989 3.00574,1.24531 5.16757,-1.107958 7.517,-2.287 6.34486,-2.615908 18.48198,-10.903836 23.004,-10.749 0.869,0.163 2.292,0.422 3.163,0.574 4.23,0.74 4.988,0.889 6.882,1.354 4.769853,0.873587 28.149015,6.8989 29.887121,4.083767 0.399,-0.746 -0.616294,-3.493743 -2.171002,-6.771938 0.680115,-0.74303 26.902815,3.075172 32.561485,1.77114 0.44644,-3.641076 -3.23728,-5.817783 -4.94935,-8.656594 3.98916,0.423116 7.46942,1.345556 9.94289,1.616751 3.19852,0.429172 6.18173,0.909295 8.90776,1.254389 4.56318,0.720889 19.70851,1.874897 28.33814,3.256572 2.07757,0.484552 -2.17895,2.574702 -3.21237,3.194156 -1.798,0.916 -1.7451,2.558204 -0.7551,3.200204 1.87202,-0.113209 45.20475,0.349966 45.12286,-0.689765 0.0703,-0.443936 -1.89756,-2.613596 -4.37618,-3.875557 7.3733,-0.63728 13.56968,-1.704038 21.52975,-2.410125 0,0.315 -1.97525,2.712375 -2.55075,3.5315 -1.08613,1.580625 -2.05525,3.98425 0.0957,3.97125 0.945,-0.006 5.793,-1.14875 8.747,-2.13575 5.04184,-1.338259 8.9773,-2.558044 13.519,-3.58 1.54366,-0.318536 10.18642,-3.648234 11.759,-2.88 2.262,0.548 3.474,0.901 3.783,1.104 0.332,0.216 2.952,0.921 9.879,2.658 2.26791,0.674564 4.94348,1.190494 6.871,1.866 2.97657,0.944917 5.90112,1.647155 8.852,2.468 0.415,0.134 1.841,0.519 3.17,0.856 4.76656,1.149379 8.55263,2.629363 13.334,3.67 0.23119,0.09906 2.00139,0.530269 5.338,1.395 3.087,0.803 3.995,0.571 3.995,-1.017 0,-0.762 -0.612,-1.452 -3.196,-3.609 -0.58,-0.484 -1.354,-1.138 -1.721,-1.454 l -1.4785,-1.2 c 6.94824,-0.13517 25.48314,-0.562263 33.55779,0.0097 -4.44586,3.437166 -8.87731,6.565615 -6.38398,7.243381 14.70261,-2.271878 29.73551,-4.266822 41.26369,-5.885058 0.434,-0.08 1.235,-0.25525 0.529,0.67675 -3.122,4.125 -3.15525,6.31675 1.652,3.90525 5.43296,-2.762851 17.42813,-8.659943 21.76625,-10.4015 0.779,-0.715 0.0158,-1.1155 -1.18225,-2.3635 l -1.027,-1.069 c 1.00133,-0.03168 2.0475,0.07866 2.961,0.173 1.178,0.152 5.836,0.338 15.051,0.599 L 400.045,12.181 v -0.674 l -0.0298,-11.46344814"
       id="path8"
       inkscape:connector-curvature="0"
       style="fill:#040404"
       sodipodi:nodetypes="cccccccccccccccccccccccccccccccccscccccccccccccccc" />
  </g>
  <g
     style="display:inline"
     inkscape:label="red 2"
     id="g3831"
     inkscape:groupmode="layer"
     sodipodi:insensitive="true">
    <path
       sodipodi:nodetypes="ccccsscccccccccccccccccccscscccsccccccccccccccccccccccscccccscccccccccccccc"
       style="fill:#e20f47"
       inkscape:connector-curvature="0"
       id="path3829"
       d="M -0.00449205,0.0021485 C 0.00257231,0.71130714 0.0029985,15.635528 0.0049335,16.078091 c 0.55216056,0.05366 0.24456107,0.05225 2.8797265,0.129758 1.90079,0.09057 4.80322,0.157276 8.84072,0.223776 5.615,0.093 4.52908,-0.122157 2.99162,2.116375 -0.7314,1.06491 -1.33873,2.219141 -2.053,3.285 -0.0685,0.102236 -2.511,3.648 -3.037,4.467 -1.093,1.702 -0.229,1.824 2.123,0.302 8.41061,-4.12393 15.9456,-8.881501 23.454,-12.351 6.03583,0.842185 11.74577,1.48107 16.95761,2.947874 10.182606,2.439395 11.134828,2.37856 21.739043,3.931235 C 78.016743,22.220704 75.343461,17.405369 74.732,15.74 73.54,13.468 73.557,13.458 78,13.992 c 9.47203,0.394657 19.67376,2.440616 28.223,2.18 l 0.944,-0.196 c 0.14298,-1.524961 -0.74622,-2.813591 -1.75,-3.716 -1.1866,-1.505517 -2.60602,-3.074786 -3.48425,-4.59525 -0.484,-0.497 -0.47875,-0.71375 0.35925,-0.60775 0.435,0.056 1.504,0.15 2.375,0.211 10.63757,1.540913 22.1403,2.987065 32.25,4.227 0.733,0.104 2.345,0.3 3.583,0.436 2.651,0.291 4.343,0.505 5.833,0.736 1.634,0.253 3.546,0.485 5.576,0.677 1.9,0.179 2.405,0.361 2.08,0.753 -1.94305,2.129203 -7.86658,4.279438 -7.619,5.596 0.20151,0.35268 44.797,0.178 44.797,-0.02 0,-0.287 -0.894,-0.996 -2.058,-1.632 -0.629,-0.343 -1.267,-0.699 -1.418,-0.791 -0.151,-0.092 -0.709,-0.418 -1.241,-0.725 -0.532,-0.308 -0.938,-0.645 -0.903,-0.75 0.069,-0.211 0.128,-0.221 5.703,-0.933 0.642,-0.082 2.254,-0.271 3.583,-0.42 1.329,-0.149 2.942,-0.34 3.584,-0.425 0.641,-0.085 1.804,-0.236 2.583,-0.335 1.376,-0.175 2.448,-0.314 5.125,-0.664 4.137,-0.542 4.515,-0.448 3.464,0.864 -0.88009,1.220348 -1.77294,2.549462 -2.608,3.661 -1.679,2.202 -1.64924,2.63966 0.34195,2.225388 5.15171,-1.15147 10.09005,-2.886107 14.59405,-4.080388 4.7412,-1.29402 8.48551,-2.327915 12.75,-3.503 0.412,-0.106 1.162,-0.306 1.666,-0.444 1.758,-0.482 1.921,-0.524 2.584,-0.65 0.366,-0.07 0.738,-0.109 0.826,-0.088 0.087,0.022 0.462,0.104 0.833,0.182 0.807,0.171 2.926,0.737 4.424,1.182 3.36861,0.93556 6.10633,1.690562 9.333,2.572 0.413,0.123 1.088,0.311 1.5,0.416 0.413,0.105 1.238,0.332 1.834,0.503 0.595,0.171 1.683,0.46 2.416,0.642 3.69075,1.028709 7.61982,2.058215 10.957,3.036 2.055,0.585918 3.84542,1.03923 5.71,1.54 0.825,0.227 2.1,0.573 2.833,0.768 0.734,0.195 1.671,0.459 2.084,0.587 0.412,0.128 1.087,0.319 1.5,0.425 0.412,0.106 1.237,0.332 1.833,0.503 0.596,0.171 1.833,0.509 2.75,0.751 1.29337,0.452159 2.70616,0.756586 3.957,1.129 0.91927,0.259707 1.67469,0.467664 2.54426,0.44934 -0.68897,-1.056285 -1.85091,-1.788351 -2.65526,-2.50134 -1.83828,-1.582976 -3.6318,-2.781448 -5.023,-4.65 0.081,-0.132 5.481,-0.184 19.109,-0.184 21.8,0 20.237,-0.127 17.952,1.468 -2.41199,1.853631 -6.07409,4.21024 -6.64225,5.149688 0.0832,0.366252 0.29443,0.457047 0.62119,0.419 2.95683,-0.39794 5.74313,-1.066288 8.55406,-1.306688 11.4848,-1.660462 22.16209,-3.281117 32.716,-5.034 1.257,-0.164 1.485,0.053 0.987,0.936 -0.95993,1.658816 -2.13857,3.072881 -2.86666,4.644835 -0.276,0.529 -0.0902,0.770635 0.42262,0.479169 1.5645,-0.4417 2.8498,-1.271882 4.00404,-1.839004 5.56861,-2.430479 9.82068,-4.88928 15.07,-7.088 0.505,-0.015 3.25,-1.578 3.306,-1.883 0.052,-0.279 -0.46,-0.909 -2.56,-3.147 -1.353,-1.441 22.63394,-0.435438 22.76775,-0.940625 0.27613,-1.91275 -2.67142,-10.17332314 10e-4,-10.14782314" />
  </g>
  <g
     inkscape:groupmode="layer"
     id="layer3"
     inkscape:label="yellow"
     style="display:inline"
     sodipodi:insensitive="true">
    <path
       inkscape:connector-curvature="0"
       style="fill:#ecc605"
       d="M -0.00449205,0.0021485 C 0.01105191,5.1341095 1.006e-5,10.285013 1.006e-5,15.417001 l 3.04199004,0.027 c 5.683,0.051 13.7069999,0.305 13.9159999,0.441 0.381,0.246 0.145,0.706 -2.624,5.115 -2.487,3.96 -2.587,4.167 -2.013,4.167 0.319,0 0.82,-0.25 4.179,-2.088 2.824,-1.546 5.344,-2.917 6.417,-3.493 0.55,-0.295 1.862,-1.009 2.916,-1.585 3.16,-1.729 5.294,-2.888 7.649,-4.151 l 2.231,-1.197001 4.684999,0.947001 c 5.509,1.114 7.641,1.567 9.685,2.06 4.15432,0.962976 7.38887,1.467656 11.334,2.39 3.30489,0.548321 6.16543,1.005418 9.185,1.671 3.751,0.831 4.041,0.868 4.17,0.531 0.103,-0.268 -0.341,-1.662 -1.75,-5.489 -0.848,-2.302999 -1.021643,-2.676133 0.887866,-2.505732 10.067057,0.969021 23.886074,3.149582 31.660145,3.141732 0.6,-0.23 0.165,-1.166 -1.152,-2.482001 -1.14975,-1.269907 -1.9937,-2.579584 -3.007,-3.9849985 -2.188011,-2.954 -2.320011,-3.363 -1.074,-3.328 0.917,0.026 5.219,0.556 8.663,1.068 3.49281,0.476905 6.03403,0.841138 9.25,1.322 8.60681,1.134811 17.12236,2.3029635 24.833,3.3389995 1.324,0.176 3.159,0.436 4.75,0.672001 2.49465,0.338763 4.41272,0.62767 6.834,0.932999 2.14,0.239 1.799,0.699 -2.334,3.148 -3.829,2.269 -4.085,2.451 -3.951,2.802 0.121,0.313 38.942,0.438 39.434,0.126 0.436,-0.276 0.058,-0.604 -1.921,-1.666 -3.213,-1.725 -3.519,-2.052 -2.103,-2.247 0.435,-0.06 1.316,-0.185 1.958,-0.279 0.642,-0.093 1.748,-0.241 2.458,-0.329 2.306,-0.285 3.85,-0.479 5.125,-0.645 1.933,-0.25 5.449,-0.69 6.834,-0.855 1.916,-0.229 3.631,-0.459 4.916,-0.661 2.61,-0.409 6.606,-0.837999 6.784,-0.727999 0.242,0.15 0.142,0.343999 -1.121,2.167999 -3.895,5.626 -3.899,5.643 -1.111,4.758 2.055,-0.653 4.304,-1.315 4.948,-1.457 0.586,-0.129 3.296,-0.916 5.084,-1.477 0.687,-0.216 2.075,-0.631 3.083,-0.922 1.75,-0.506 8.387,-2.521999 10.5,-3.189999 0.55,-0.174 1.375,-0.418 1.833,-0.543 0.459,-0.125 1.658,-0.472 2.666,-0.77 2.156,-0.637 2.426,-0.625 5.424,0.233 2.986,0.854 5.902,1.673 9.244,2.596999 0.916,0.253 2.857,0.81 4.311,1.237 1.455,0.427 3.742,1.065 5.084,1.419 1.341,0.354 4.95,1.359 8.021,2.234 3.071,0.875 7.121,2.015 9,2.535 1.879,0.519 4.242,1.193 5.25,1.497 4.293,1.295 6.584,1.794 6.584,1.436 0,-0.174 -1.663,-1.707 -2.829,-2.609 -4.789,-3.702 -5.083,-3.411 3.471,-3.437 3.726,-0.012 8.724,-0.045 11.108,-0.075 28.02,-0.35 26.298,-0.477 23.25,1.709 -1.69973,1.232684 -3.30548,2.540244 -4.957,3.82 -2.193,1.684 -1.864,1.828 2.457,1.073 11.91045,-2.009097 24.60377,-3.938243 35.449,-5.758 2.774,-0.491 3.105,-0.246 1.993,1.474 -2.454,3.794 -2.44,4.53 0.058,2.947 0.412,-0.261 4.406,-2.297 8.875,-4.524 8.913,-4.442 8.646,-4.258 7.605,-5.239 -0.82087,-0.831967 -1.45963,-1.702227 -2.188,-2.627999 -0.77,-0.9660005 -1.046,-0.9450005 12.656,-0.9450005 h 12.385 c -0.0169,-3.9229722 -0.0238,-2.5917893 0.0152,-9.12344964"
       id="path2"
       sodipodi:nodetypes="cccccsccccccccccccccccccccccccccccccccccccccccccccsccsccccccccccccscc" />
  </g>
  <g
     inkscape:groupmode="layer"
     id="layer2"
     inkscape:label="red"
     style="display:inline"
     sodipodi:insensitive="true">
    <path
       d="M -0.00449205,0.0021485 0,8.842 V 9.845 L 6.125,9.758 C 9.494,9.71 14.387,9.629 17,9.578 c 5.205,-0.102 5.5,-0.078 5.5,0.448 0,0.194 -1.463,2.538 -3.25,5.209 -4.193,6.267 -4.237,6.744 -0.333,3.601 0.641,-0.517 1.879,-1.474 2.75,-2.128 0.87,-0.653 2.22,-1.685 3,-2.292 1.575,-1.228 5.077,-3.901 7.369,-5.624 1.558,-1.172 1.974,-1.307 2.911,-0.944 0.259,0.1 1.67,0.505 3.136,0.9 6.023,1.622 10.398,2.958 11.5,3.51 3.17753,1.28229 9.16094,3.540359 10.074,2.337 0.246,-0.296 1.002,-4.269 1.007,-5.291 0.28725,-1.386 0.361,-2.331 0.97,-2.586 0.85,-0.355 4.09,-0.147 6.866,0.442 7.71831,1.40427 13.4322,2.140533 20.25,3.237 1.01,0.179 4.055,0.64 6.75,1.02 1.054,0.148 2.279,0.34 2.721,0.426 2.263,0.441 2.998,0.076 1.83,-0.908 C 99.713,10.65 98.515,9.554 97.389,8.5 90.67,2.21 90.875,2.488 93.042,2.607 c 0.756,0.042 1.562,0.112 1.791,0.156 0.23,0.044 1.242,0.16 2.25,0.256 1.009,0.097 2.434,0.238 3.167,0.313 13.43511,1.31539 25.05883,2.568349 37.583,3.681 0.871,0.089 2.296,0.233 3.167,0.32 0.871,0.088 2.333,0.238 3.25,0.333 3.972,0.412 4.825,0.496 7.667,0.752 2.943,0.265 4.416,0.41 7.583,0.743 0.871,0.092 2.221,0.225 3,0.296 2.22,0.202 2.203,0.144 0.833,2.876 -1.3,2.594 -1.237,3.027 0.399,2.759 0.377,-0.062 1.285,-0.181 2.018,-0.264 0.733,-0.084 1.971,-0.231 2.75,-0.328 0.779,-0.097 2.017,-0.247 2.75,-0.333 1.525,-0.18 3.405,-0.413 5.333,-0.662 0.734,-0.094 2.459,-0.29 3.834,-0.435 2.651,-0.279 4.121,-0.448 6.416,-0.736 0.779,-0.098 2.054,-0.249 2.834,-0.334 0.779,-0.085 2.016,-0.229 2.75,-0.319 0.733,-0.089 2.458,-0.286 3.833,-0.437 3.908,-0.428 6.135,-0.695 9,-1.079 0.733,-0.099 1.971,-0.249 2.75,-0.333 0.779,-0.085 2.054,-0.237 2.833,-0.337 0.779,-0.101 1.829,-0.235 2.332,-0.298 1.407,-0.175 1.309,-0.413 -1.584,-3.864 -1.382,-1.649 -1.328,-1.716 1.183,-1.482 1.735,0.161 2.702,0.258 6.486,0.649 0.917,0.095 2.454,0.252 3.417,0.349 5.314,0.537 5.602,-0.059 -2.645,5.479 -6.568,4.411 -9.355,6.407 -9.355,6.701 0,0.245 0.33515,0.187146 2.82915,-0.809854 4.07377,-1.651945 6.15768,-2.655968 10.00385,-4.217146 0.871,-0.353 2.596,-1.066 3.833,-1.585 1.238,-0.519 2.963,-1.234 3.834,-1.587 0.87,-0.354 2.146,-0.881 2.833,-1.171 0.688,-0.29 2.037,-0.851 3,-1.246 0.963,-0.396 2.024,-0.836 2.359,-0.979 l 0.609,-0.259 8.391,2.843 c 4.615,1.564 10.829,3.66 13.808,4.658 2.979,0.998 7.516,2.528 10.083,3.401 6.82005,2.426485 6.909,2.234 2.004,-1.66 -5.602,-4.447 -6.108,-4.949 -5.212,-5.17 0.366,-0.09 7.086,-0.038 27.375,0.213 11.708,0.144 11.045,-0.009 8.472,1.957 -0.84,0.641 -2.302,1.759 -3.25,2.483 -2.507,1.53425 -2.94075,1.90175 -2.5345,2.55575 11.19408,-0.310394 28.70524,-4.712278 41.3955,-6.10075 -0.125,0.40175 -0.544,0.92 -1.208,1.637 -1.051,1.134 -2.31,2.545 -4.847,5.432 -1.166,1.326 -0.644,1.557 2.472,1.095 1.766,-0.263 3.345,-0.463 6.166,-0.784 3.515,-0.4 4.555,-0.531 5.834,-0.733 0.641,-0.102 1.766,-0.256 2.5,-0.343 2.026,-0.241 7.271,-0.895 9.333,-1.164 2.599,-0.339 4.06,-0.521 5.223,-0.651 2.238,-0.249 2.208,-0.606 -0.279,-3.26 -5.036,-5.374 -4.973,-5.107 -1.277,-5.423 1.008,-0.086 2.658,-0.234 3.666,-0.329 1.009,-0.095 2.696,-0.247 3.75,-0.338 2.253,-0.194 4.834,-0.421 7.5,-0.661 1.054,-0.094 2.742,-0.244 3.75,-0.332 1.009,-0.088 2.621,-0.234 3.584,-0.325 0.962,-0.09 3.325,-0.279 5.25,-0.42 C 400.275,3.144 400,3.193 400,2.292 l 0.0152,-2.24844814"
       id="path4"
       inkscape:connector-curvature="0"
       style="fill:#e20f47"
       sodipodi:nodetypes="cccccsccccccccccccccccccccccccccccccsccccccccccccccccscccccccccsccccccccccccccccccccccccsc" />
  </g>
  <g
     inkscape:groupmode="layer"
     id="layer1"
     inkscape:label="green"
     style="display:inline"
     sodipodi:insensitive="true">
    <path
       inkscape:connector-curvature="0"
       style="fill:#54940c"
       d="m 0.03457045,3.9074296 c 0.0301758,3.0198492 -0.08868301,3.8942195 0.07131699,3.8972195 0.115,0.002 1.80768296,0.058781 3.59568296,0.09778 1.787,0.04 7.2249996,0.132 12.0829996,0.205 9.111,0.137 9.25,0.149 9.25,0.778 0,0.353 -0.289,0.793 -2.425,3.6880009 -2.367,3.208999 -1.853,3.048999 3.165,-0.992001 1.72948,-1.420168 3.52959,-2.7542549 5.286,-4.1369999 1.311,-1.073 1.799,-1.196 3.198,-0.804 7.71604,2.097956 15.45906,4.7728869 23.981,6.5169999 0.934,0 0.906,0.068 1.02,-2.5 0.078,-1.7579999 0.384,-4.4009999 0.597,-5.1549999 0.192,-0.679 0.514,-0.764 2.039,-0.536 4.70464,0.874886 35.19758,6.2307589 34.849,5.1067499 0.293,-1.0312499 -2.141,-2.4177499 -4.712,-5.0047499 -3.15,-3.169 -4.55497,-4.51254135 -4.5287,-5.06510685 -0.46668,0.00438 -4.3023,-0.012893 -43.6413,-0.012893 l -43.86706205,0.0078125 z M 92.95157,0.65642955 c 1.82123,0.1999057 3.60644,0.35938815 5.416,0.64900005 0.504,0.102 2.079,0.263 3.5,0.358 7.10653,0.6015966 12.73868,1.2677705 19.584,1.838 14.14631,1.379264 28.95946,3.014741 42,4.151 3.991,0.34 4.108,0.53 2.154,3.4960004 -1.173,1.781 -1.025,2.456 0.501,2.282 0.464,-0.053 1.445,-0.169 2.178,-0.258 0.733,-0.089 2.083,-0.241 3,-0.337 0.917,-0.096 1.854,-0.212 2.083,-0.258 11.34571,-1.211801 21.60932,-2.519702 31.917,-3.7530004 5.869,-0.689 5.987,-0.709 6.046,-1.013 0.028,-0.144 -0.813,-1.419 -1.868,-2.833 -1.056,-1.414 -1.921,-2.662 -1.924,-2.774 -0.007,-0.348 0.669,-0.591 1.311,-0.47 6.40806,0.8425795 13.29484,1.8405192 19.159,2.423 2.423,0 2.353,0.575 -0.307,2.505 -8.08,5.8610004 -8.213,6.1170004 -1.667,3.206 3.322,-1.478 4.68,-2.077 6.333,-2.794 1.53,-0.663 3.482,-1.535 5.559,-2.485 1.787,-0.817 0.559,-1.127 16.42,4.141 14.789,4.9120004 15.652,5.1850004 15.826,5.0110004 0.106,-0.106 -2.157,-2.335 -3.868,-3.8080004 -1.129,-0.973 -1.261,-1.536 -0.395,-1.693 1.305,-0.236 44.812,0.214 45.064,0.466 0.257,0.258 -0.244,0.723 -3.273,3.0340004 -1.681,1.283 -3.716,1.78175 -3.383,2.72125 2.64577,0.490338 5.14005,-0.558504 7.634,-1.02725 9.26391,-1.472627 19.79855,-3.380632 28.4,-4.9540004 5.464,-1.014 5.489,-0.852 0.654,4.1930004 -3.307,3.451 -3.578,3.777 -3.336,4.018 0.198,0.199 3.493,-0.099 7.615,-0.687 4.93401,-0.376243 9.4043,-1.223775 14.25,-1.854 2.213,-0.303 3.557,-0.481 4.711,-0.623 2.307,-0.283 2.274,-0.358 -1.958,-4.5090004 -4.078,-3.999 -4.074,-3.91 -0.17,-4.212 1.1,-0.086 2.825,-0.228 3.834,-0.317 3.852,-0.34 5.903,-0.512 7.916,-0.665 4.428,-0.335 6.114,-0.476 6.917,-0.575 0.458,-0.057 2.108,-0.183 3.667,-0.281 1.558,-0.097 3.62,-0.244 4.583,-0.325 4.767,-0.403 6.059,-0.51 7.75,-0.643 1.008,-0.078 2.152,-0.198 2.542,-0.265 l 0.708,-0.122 v -0.81200005 -0.811 h -155.867 c -93.4,0 -156.7587,-0.077107 -156.6637,0.012893"
       id="path6"
       sodipodi:nodetypes="scccscccccccccccscscccccccssccccccccccccsccccccccccccccccccccccccsc" />
  </g>
</svg>
