<svg id="svg" version="1.1" xmlns="http://www.w3.org/2000/svg" xmlns:xlink="http://www.w3.org/1999/xlink" width="400" height="224.89019033674964" viewBox="0, 0, 400,224.89019033674964"><g id="svgg"><path id="path0" d="M302.700 22.058 C 294.281 23.081,281.685 24.578,276.490 25.173 C 270.441 25.867,260.618 27.026,259.168 27.218 C 258.240 27.341,254.342 27.805,250.506 28.249 C 238.007 29.696,235.470 30.035,235.393 30.266 C 235.351 30.391,237.722 31.751,240.662 33.287 C 246.791 36.490,247.760 37.057,247.585 37.340 C 247.423 37.602,246.698 37.690,240.157 38.249 C 237.188 38.503,232.582 38.907,229.921 39.147 C 227.261 39.387,221.642 39.888,217.435 40.260 C 213.228 40.632,209.116 40.998,208.298 41.073 L 206.809 41.210 205.598 40.158 C 203.911 38.694,202.227 37.171,196.400 31.845 C 193.616 29.301,190.701 26.646,189.921 25.947 L 188.503 24.675 187.446 24.932 C 186.865 25.073,185.478 25.433,184.364 25.732 C 181.934 26.384,173.945 28.492,170.191 29.471 C 168.706 29.858,163.088 31.340,157.705 32.764 C 139.222 37.654,135.237 38.695,134.998 38.695 C 134.485 38.695,134.822 37.710,136.474 34.387 C 140.660 25.962,141.229 24.592,140.439 24.840 C 140.222 24.909,139.539 25.063,138.920 25.183 C 138.301 25.304,134.201 26.168,129.809 27.105 C 125.416 28.041,119.646 29.268,116.985 29.831 C 114.325 30.395,111.288 31.039,110.236 31.263 C 107.231 31.904,93.291 34.862,90.551 35.440 C 81.168 37.420,81.218 37.404,81.212 38.329 C 81.210 38.592,80.900 39.668,80.522 40.720 C 80.145 41.772,79.608 43.341,79.328 44.207 C 79.049 45.073,78.559 46.440,78.240 47.244 C 77.922 48.048,77.593 49.162,77.509 49.719 C 77.370 50.646,76.607 52.892,76.248 53.431 C 76.166 53.555,75.976 54.213,75.827 54.893 C 75.677 55.574,75.402 56.687,75.217 57.368 C 75.031 58.048,74.771 59.111,74.641 59.730 C 74.510 60.349,74.214 61.390,73.984 62.044 C 73.754 62.699,73.567 63.458,73.569 63.732 C 73.573 64.261,72.812 66.917,72.326 68.073 C 72.165 68.455,71.258 71.543,70.309 74.935 C 67.725 84.176,67.088 86.322,66.710 87.052 C 65.869 88.680,66.420 90.664,67.714 90.664 C 68.067 90.664,68.642 90.806,68.992 90.979 C 69.738 91.349,71.540 91.789,72.312 91.789 C 73.026 91.789,77.516 92.835,78.515 93.234 C 78.948 93.408,79.782 93.672,80.367 93.822 C 81.889 94.211,82.054 94.491,81.598 95.911 C 81.392 96.551,80.961 98.422,80.641 100.069 C 80.320 101.715,79.755 103.942,79.384 105.018 C 79.013 106.094,78.455 107.784,78.143 108.774 C 77.831 109.764,77.343 111.130,77.059 111.811 C 76.499 113.150,74.120 122.737,73.926 124.440 C 73.860 125.013,73.653 125.924,73.464 126.464 C 73.276 127.005,73.121 128.025,73.119 128.732 C 73.117 129.439,72.920 130.552,72.680 131.206 C 71.734 133.787,71.424 135.286,70.666 140.952 C 70.566 141.699,70.359 142.543,70.206 142.829 C 69.719 143.740,68.394 147.452,68.389 147.919 C 68.384 148.454,67.650 150.873,67.424 151.098 C 67.338 151.185,67.267 151.485,67.267 151.764 C 67.267 152.043,67.027 152.558,66.735 152.907 C 66.443 153.257,66.139 153.771,66.060 154.049 C 65.981 154.328,65.859 154.758,65.789 155.006 C 65.540 155.882,67.388 155.267,68.316 154.164 C 68.713 153.691,69.146 153.530,70.678 153.287 C 72.062 153.067,73.142 152.701,74.803 151.889 C 76.040 151.284,77.407 150.716,77.840 150.627 C 79.137 150.361,81.681 149.400,82.348 148.925 C 84.017 147.737,85.641 148.803,84.704 150.471 C 84.230 151.315,83.533 153.259,80.897 161.080 C 79.625 164.854,76.381 174.421,73.688 182.340 C 70.994 190.259,68.317 198.155,67.737 199.888 C 67.157 201.620,66.523 203.290,66.328 203.600 C 66.133 203.909,65.656 205.225,65.268 206.524 C 64.880 207.823,64.107 210.253,63.549 211.924 C 62.992 213.594,62.537 215.152,62.539 215.385 C 62.543 215.886,62.115 215.915,72.216 214.736 C 75.866 214.310,81.940 213.606,85.714 213.170 C 89.488 212.735,93.386 212.278,94.376 212.155 C 96.103 211.939,102.144 211.269,106.637 210.795 C 107.812 210.671,109.552 210.570,110.503 210.572 C 111.454 210.573,112.504 210.470,112.837 210.343 C 113.171 210.217,114.792 210.023,116.440 209.914 C 118.089 209.804,119.569 209.633,119.729 209.534 C 120.034 209.346,121.489 209.081,123.397 208.867 C 124.016 208.798,124.802 208.634,125.143 208.504 C 125.596 208.331,126.041 208.344,126.784 208.552 C 127.620 208.786,127.912 208.784,128.412 208.536 C 129.031 208.230,133.127 207.675,135.996 207.510 C 136.862 207.460,138.481 207.330,139.595 207.222 C 140.709 207.113,143.075 206.909,144.854 206.769 C 148.460 206.484,149.829 206.234,150.620 205.715 C 151.027 205.448,151.451 205.401,152.379 205.517 C 153.135 205.611,153.778 205.575,154.065 205.421 C 154.319 205.285,156.635 205.067,159.210 204.938 C 161.785 204.808,164.145 204.592,164.454 204.457 C 165.456 204.020,166.785 203.765,168.279 203.724 C 170.385 203.666,172.711 202.997,173.185 202.313 C 173.394 202.010,173.971 201.275,174.466 200.680 C 174.961 200.085,176.250 198.499,177.331 197.155 C 181.284 192.245,182.942 190.208,183.200 189.945 C 183.346 189.798,189.691 188.465,197.300 186.984 C 239.132 178.841,235.321 179.522,235.321 180.189 C 235.321 180.591,231.276 189.104,225.855 200.112 C 224.636 202.587,223.220 205.246,222.708 206.021 C 221.516 207.826,221.614 208.213,223.212 208.024 C 223.899 207.942,224.699 207.657,225.188 207.318 C 225.639 207.005,226.168 206.749,226.364 206.749 C 226.560 206.749,227.516 206.355,228.489 205.873 C 229.462 205.392,231.069 204.723,232.058 204.386 C 233.808 203.792,236.544 202.354,237.461 201.545 C 237.710 201.326,239.937 200.221,242.410 199.091 C 259.894 191.100,274.046 184.702,274.238 184.702 C 274.826 184.702,274.147 185.521,269.854 189.986 C 265.464 194.552,264.876 195.270,265.523 195.280 C 265.678 195.282,266.715 195.387,267.829 195.512 C 270.744 195.842,277.437 196.528,282.902 197.058 C 285.501 197.310,288.436 197.616,289.426 197.739 C 290.416 197.862,292.340 198.067,293.701 198.195 C 295.062 198.324,297.036 198.530,298.088 198.654 C 299.139 198.778,301.569 199.036,303.487 199.227 C 305.405 199.419,309.404 199.828,312.373 200.137 C 315.343 200.446,319.139 200.791,320.810 200.904 C 324.551 201.157,326.975 201.460,328.009 201.804 C 328.442 201.948,330.315 202.101,332.171 202.145 L 335.546 202.223 336.333 201.188 C 337.188 200.063,337.517 199.515,339.149 196.489 C 339.743 195.389,340.668 193.691,341.205 192.717 C 341.743 191.743,342.182 190.918,342.182 190.884 C 342.182 190.849,343.245 188.873,344.544 186.491 C 347.355 181.339,347.276 182.430,345.134 178.318 C 344.160 176.447,342.426 173.093,341.282 170.866 C 340.138 168.639,338.467 165.399,337.569 163.667 C 336.670 161.935,335.127 158.948,334.140 157.030 C 329.052 147.151,328.091 145.373,327.399 144.553 C 326.461 143.441,324.064 138.518,323.853 137.269 C 323.767 136.757,323.451 135.977,323.151 135.535 C 322.851 135.094,322.402 134.333,322.153 133.845 C 321.904 133.357,321.607 132.958,321.492 132.958 C 321.220 132.958,320.220 134.959,319.636 136.670 C 319.382 137.413,318.783 138.787,318.305 139.725 C 317.827 140.662,317.435 141.532,317.435 141.658 C 317.435 141.784,317.019 142.532,316.509 143.321 L 315.583 144.754 315.159 144.230 C 314.898 143.908,314.735 143.349,314.733 142.776 C 314.732 142.264,314.567 141.288,314.368 140.607 C 314.169 139.927,313.924 138.459,313.823 137.345 C 313.722 136.232,313.480 134.465,313.285 133.419 C 312.975 131.760,312.972 131.476,313.256 131.192 C 313.435 131.014,318.511 129.623,324.538 128.103 C 336.537 125.075,335.823 125.337,336.226 123.807 C 336.492 122.801,337.254 119.963,339.145 112.936 C 344.091 94.559,346.007 87.397,346.007 87.281 C 346.007 87.113,344.000 84.474,341.975 81.978 C 336.032 74.656,332.739 70.388,332.736 70.007 C 332.734 69.843,333.914 67.464,335.358 64.720 C 338.616 58.526,341.909 52.244,344.263 47.733 L 346.062 44.285 345.918 42.446 C 345.838 41.435,345.672 39.747,345.549 38.695 C 345.425 37.643,345.121 34.454,344.872 31.609 C 344.192 23.844,344.556 24.677,341.732 24.415 C 334.523 23.745,329.831 23.321,325.534 22.948 C 322.750 22.707,318.245 22.309,315.523 22.063 C 312.801 21.817,309.966 21.574,309.224 21.523 C 308.481 21.471,305.546 21.712,302.700 22.058 M315.523 26.769 C 318.864 27.131,322.660 27.537,323.960 27.671 C 325.259 27.804,327.182 28.008,328.234 28.123 C 329.286 28.239,331.665 28.496,333.521 28.695 C 335.377 28.894,336.974 29.133,337.070 29.225 C 337.660 29.792,340.836 47.710,340.474 48.425 C 340.270 48.827,338.863 51.333,337.347 53.993 C 326.470 73.083,327.628 70.287,329.441 73.075 C 329.978 73.902,331.765 76.704,333.411 79.303 C 335.058 81.901,337.097 85.118,337.944 86.452 C 338.790 87.785,339.483 89.023,339.483 89.204 C 339.483 89.384,337.472 94.215,335.015 99.940 C 332.558 105.665,329.161 113.588,327.465 117.548 C 325.770 121.507,324.250 124.951,324.088 125.200 C 323.845 125.575,323.195 125.747,320.333 126.196 C 318.430 126.495,316.441 126.929,315.913 127.162 C 315.337 127.415,313.987 127.667,312.538 127.792 C 305.587 128.392,303.712 128.699,303.712 129.238 C 303.712 129.403,304.227 130.636,304.857 131.979 C 305.486 133.322,306.195 134.933,306.432 135.559 C 306.668 136.185,307.212 137.278,307.639 137.988 C 308.415 139.276,309.378 141.299,312.049 147.244 C 313.847 151.246,315.587 154.822,315.878 155.113 C 316.197 155.432,316.334 155.166,317.911 151.181 C 320.263 145.237,320.810 143.736,320.810 143.220 C 320.810 142.632,321.203 142.182,321.717 142.182 C 322.249 142.182,323.259 143.884,324.856 147.469 C 325.627 149.201,327.168 152.643,328.280 155.118 C 329.393 157.593,330.689 160.478,331.161 161.530 C 331.633 162.582,332.474 164.454,333.030 165.692 C 333.587 166.929,335.225 170.574,336.671 173.791 C 338.117 177.008,339.698 180.516,340.185 181.587 C 341.035 183.457,341.058 183.568,340.763 184.399 C 339.136 188.984,335.331 198.800,335.129 198.937 C 334.825 199.142,334.209 199.090,325.025 198.080 C 323.322 197.892,320.943 197.643,319.738 197.526 C 318.534 197.409,313.245 196.857,307.987 196.300 C 302.728 195.742,294.528 194.877,289.764 194.375 C 273.499 192.665,274.886 193.246,278.744 189.752 C 281.045 187.668,289.732 179.695,293.138 176.543 C 293.695 176.027,294.834 175.015,295.669 174.294 C 297.702 172.538,297.840 172.857,292.465 166.888 C 285.968 159.671,285.684 159.340,284.717 157.869 C 284.248 157.155,283.696 156.446,283.490 156.294 C 283.284 156.142,282.730 155.487,282.258 154.837 C 281.787 154.187,281.320 153.656,281.220 153.656 C 281.120 153.656,280.532 153.200,279.913 152.643 C 278.324 151.215,278.254 151.247,277.958 153.543 C 277.879 154.162,277.673 155.427,277.502 156.355 C 277.330 157.283,276.926 159.764,276.603 161.867 C 276.281 163.971,275.873 166.502,275.698 167.492 C 275.522 168.481,274.964 171.924,274.458 175.141 C 273.345 182.218,273.500 181.798,271.729 182.520 C 270.945 182.840,269.190 183.569,267.829 184.142 C 266.468 184.715,264.291 185.623,262.992 186.161 C 256.859 188.698,238.628 196.297,237.345 196.850 C 234.956 197.881,231.570 199.276,231.102 199.422 C 230.263 199.685,230.445 199.112,233.204 192.801 C 234.637 189.522,236.248 185.827,236.783 184.589 C 238.296 181.093,240.726 175.502,242.489 171.461 C 244.638 166.538,244.691 166.693,241.242 167.842 L 239.176 168.531 236.441 172.213 C 234.936 174.238,233.576 175.945,233.418 176.006 C 233.056 176.145,229.836 176.627,223.510 177.490 C 211.741 179.095,206.672 179.793,203.825 180.202 C 202.154 180.441,198.510 180.946,195.726 181.324 C 192.942 181.701,189.651 182.157,188.414 182.336 C 187.177 182.515,184.241 182.921,181.890 183.238 C 179.539 183.555,176.603 183.959,175.366 184.135 C 174.128 184.311,170.787 184.770,167.942 185.155 C 158.168 186.477,159.413 185.874,157.492 190.214 C 156.348 192.798,153.616 198.630,153.287 199.192 C 153.067 199.568,152.482 199.671,148.565 200.018 C 146.106 200.236,142.981 200.526,141.620 200.663 C 140.259 200.800,138.145 201.012,136.922 201.135 C 135.700 201.258,134.088 201.559,133.342 201.804 C 132.208 202.176,131.350 202.251,128.141 202.258 C 124.290 202.266,120.644 202.628,119.795 203.088 C 119.546 203.223,117.311 203.446,114.828 203.583 C 112.346 203.721,109.969 203.932,109.548 204.053 C 109.126 204.174,107.059 204.334,104.953 204.409 C 102.624 204.492,100.296 204.712,99.008 204.972 C 97.844 205.207,96.376 205.401,95.746 205.402 C 95.116 205.403,94.044 205.567,93.363 205.766 C 92.621 205.982,91.091 206.148,89.539 206.180 C 86.211 206.249,79.083 206.703,77.053 206.974 C 68.908 208.064,68.300 207.836,70.112 204.378 C 70.563 203.517,71.011 202.508,71.108 202.137 C 71.205 201.766,71.704 200.349,72.218 198.988 C 72.731 197.627,74.448 192.666,76.034 187.964 C 87.069 155.238,86.004 158.231,86.682 158.036 C 86.954 157.959,89.303 157.209,91.901 156.371 C 94.499 155.533,98.903 154.112,101.687 153.215 C 114.342 149.135,114.736 148.998,114.736 148.672 C 114.736 148.350,112.228 148.691,111.792 149.072 C 111.547 149.286,111.128 149.342,110.443 149.251 C 109.544 149.132,107.946 149.312,98.200 150.632 C 88.129 151.996,87.739 152.030,87.739 151.538 C 87.739 151.135,89.669 146.158,90.233 145.107 C 90.465 144.674,90.919 143.611,91.242 142.745 C 93.150 137.632,92.844 136.172,89.989 136.767 C 89.432 136.883,87.949 137.190,86.693 137.450 C 85.436 137.710,83.177 138.324,81.671 138.815 C 80.165 139.306,78.622 139.708,78.244 139.708 C 77.865 139.708,77.163 139.825,76.684 139.969 C 75.508 140.321,75.496 140.281,76.053 137.904 C 76.375 136.536,76.506 135.399,76.438 134.577 C 76.381 133.891,76.419 133.069,76.523 132.750 C 77.067 131.077,77.694 128.125,77.865 126.434 C 78.196 123.146,80.275 113.209,81.183 110.574 C 81.311 110.202,81.536 109.291,81.683 108.549 C 82.285 105.505,84.655 96.577,85.487 94.214 C 86.187 92.228,86.319 91.626,86.103 91.422 C 85.659 91.004,82.439 90.396,79.640 90.202 C 72.659 89.716,72.494 89.657,72.852 87.807 C 72.991 87.089,73.357 85.135,73.665 83.465 C 73.973 81.794,74.472 79.111,74.773 77.503 C 75.865 71.663,76.660 66.502,77.153 62.053 C 77.388 59.933,78.062 56.852,78.720 54.893 C 78.948 54.213,79.311 52.846,79.527 51.856 C 79.742 50.866,80.072 49.449,80.259 48.706 C 80.446 47.964,80.731 46.800,80.891 46.119 C 81.828 42.141,83.251 40.285,85.787 39.735 C 86.799 39.516,88.436 39.145,89.426 38.910 C 90.416 38.675,93.706 37.919,96.738 37.229 C 103.970 35.583,110.989 33.975,115.861 32.849 C 118.026 32.348,121.772 31.487,124.184 30.936 C 126.597 30.385,129.683 29.678,131.042 29.365 C 135.047 28.443,134.980 28.235,132.020 32.421 C 124.909 42.478,123.292 44.867,123.473 45.048 C 123.689 45.263,124.044 45.183,137.057 41.970 C 141.794 40.801,148.808 39.076,152.643 38.138 C 156.479 37.200,162.341 35.762,165.670 34.943 C 170.054 33.864,171.821 33.516,172.081 33.678 C 172.467 33.918,174.410 36.469,180.272 44.432 C 182.551 47.527,182.785 47.679,184.878 47.433 C 186.350 47.259,200.003 45.913,214.061 44.555 C 217.897 44.184,221.946 43.781,223.060 43.660 C 224.173 43.538,226.198 43.331,227.559 43.199 C 228.920 43.068,230.996 42.859,232.171 42.735 C 233.346 42.611,235.877 42.361,237.795 42.179 C 239.713 41.996,242.345 41.742,243.645 41.613 C 244.944 41.484,249.094 41.078,252.868 40.710 C 256.642 40.342,261.107 39.890,262.789 39.705 C 264.471 39.521,266.161 39.370,266.544 39.370 C 267.310 39.370,267.719 38.975,267.251 38.686 C 267.088 38.585,264.822 37.773,262.217 36.881 C 255.495 34.582,251.969 33.261,251.969 33.043 C 251.969 32.771,252.316 32.714,259.393 31.826 C 262.919 31.384,267.778 30.769,270.191 30.460 C 272.604 30.151,275.742 29.755,277.165 29.580 C 278.588 29.405,281.727 29.001,284.139 28.682 C 286.552 28.363,290.096 27.912,292.013 27.679 C 297.796 26.977,304.478 26.099,304.837 25.993 C 305.442 25.816,309.332 26.098,315.523 26.769 M300.787 35.333 C 298.622 35.680,295.787 36.121,294.488 36.313 C 293.189 36.505,290.506 36.916,288.526 37.225 C 286.547 37.535,283.523 37.997,281.808 38.251 C 277.796 38.845,277.103 38.994,277.007 39.283 C 276.963 39.414,278.702 40.920,280.871 42.630 C 284.914 45.819,285.097 46.003,284.421 46.209 C 284.092 46.309,231.805 52.885,206.524 56.006 C 198.202 57.033,195.950 57.353,195.574 57.560 C 195.060 57.843,190.101 65.825,190.101 66.370 C 190.101 66.828,188.537 70.148,187.805 71.244 C 187.459 71.761,187.177 72.289,187.177 72.417 C 187.177 72.545,186.848 73.024,186.445 73.480 C 185.562 74.482,184.913 75.518,184.136 77.165 C 183.815 77.846,183.319 78.656,183.033 78.965 C 182.748 79.274,182.121 80.263,181.640 81.162 C 180.461 83.365,182.270 83.204,157.952 83.270 L 136.713 83.328 136.538 82.856 C 136.110 81.698,137.091 80.736,140.945 78.536 C 142.306 77.759,143.622 76.947,143.870 76.731 C 144.117 76.515,144.719 76.099,145.207 75.806 C 145.696 75.514,146.404 75.006,146.782 74.678 C 147.437 74.109,151.549 71.441,155.056 69.309 C 155.956 68.762,157.540 67.757,158.575 67.077 C 159.611 66.397,161.635 65.266,163.075 64.563 C 164.514 63.861,165.831 63.119,166.001 62.914 C 166.170 62.710,166.436 62.542,166.592 62.542 C 166.747 62.542,166.995 62.396,167.143 62.218 C 167.291 62.040,168.088 61.579,168.914 61.194 C 170.595 60.411,171.653 59.737,173.418 58.328 C 174.079 57.800,174.787 57.365,174.993 57.361 C 175.468 57.352,175.942 56.968,176.437 56.195 C 176.963 55.373,176.947 55.285,176.040 54.023 C 175.607 53.420,175.253 52.852,175.253 52.761 C 175.253 52.669,174.722 52.062,174.072 51.412 C 173.422 50.762,171.980 48.984,170.866 47.462 C 169.753 45.939,168.524 44.335,168.135 43.896 L 167.429 43.099 158.124 45.305 C 153.006 46.518,146.744 47.998,144.207 48.594 C 138.985 49.820,137.222 50.240,131.496 51.627 C 129.269 52.166,126.637 52.764,125.647 52.955 C 123.917 53.289,123.246 53.476,119.010 54.803 C 117.958 55.132,115.681 55.783,113.948 56.248 C 112.216 56.713,109.432 57.555,107.762 58.118 C 106.091 58.682,104.218 59.249,103.600 59.380 C 102.981 59.510,101.793 59.940,100.960 60.334 C 99.248 61.144,98.832 61.052,99.773 60.070 C 100.124 59.703,100.623 59.052,100.881 58.624 C 101.805 57.089,103.484 54.771,104.057 54.237 C 104.619 53.713,104.687 52.847,104.202 52.386 C 104.118 52.306,100.845 52.199,96.928 52.148 L 89.806 52.055 89.447 52.807 C 89.250 53.220,89.089 53.798,89.089 54.090 C 89.089 54.621,88.269 56.714,87.042 59.312 C 86.683 60.072,86.389 60.852,86.389 61.046 C 86.389 61.239,86.129 62.085,85.812 62.926 C 85.183 64.591,84.715 66.226,84.488 67.553 C 84.408 68.019,84.039 68.747,83.668 69.169 C 83.297 69.591,82.699 70.728,82.339 71.695 C 81.979 72.662,81.012 75.225,80.192 77.390 C 79.371 79.556,78.647 81.553,78.582 81.829 C 78.426 82.493,78.777 82.612,82.677 83.212 C 84.409 83.478,86.485 83.800,87.289 83.927 C 88.724 84.154,93.172 85.165,95.613 85.819 C 97.055 86.205,101.219 87.248,102.362 87.510 C 112.746 89.888,113.158 90.324,111.012 96.673 C 110.586 97.936,110.236 99.129,110.236 99.324 C 110.236 99.518,109.997 100.155,109.704 100.739 C 109.411 101.322,108.796 102.755,108.337 103.923 C 107.392 106.326,106.137 108.718,104.611 111.024 C 104.038 111.890,102.933 113.807,102.155 115.284 C 98.429 122.361,97.534 123.149,95.455 121.185 C 94.537 120.318,94.403 120.064,94.245 118.897 C 94.147 118.175,93.875 117.323,93.640 117.004 C 93.405 116.684,93.148 116.162,93.069 115.844 C 92.989 115.526,92.657 114.870,92.329 114.387 C 92.001 113.904,91.502 112.747,91.219 111.816 C 90.105 108.146,89.231 106.178,88.874 106.539 C 88.649 106.767,81.440 130.991,81.440 131.520 C 81.440 131.697,81.187 132.566,80.877 133.452 C 79.940 136.135,79.876 136.114,83.974 134.446 C 85.612 133.780,88.875 132.451,91.226 131.494 C 93.577 130.537,97.114 128.946,99.087 127.959 C 102.893 126.054,103.709 125.909,104.600 126.982 C 104.747 127.159,106.530 128.118,108.564 129.114 C 110.796 130.207,112.261 131.054,112.261 131.249 C 112.261 131.428,109.679 134.527,106.524 138.137 C 100.158 145.420,100.322 145.174,101.969 144.991 C 104.548 144.704,107.325 144.126,110.225 143.271 C 111.024 143.036,112.441 142.785,113.375 142.713 C 114.309 142.642,115.478 142.452,115.973 142.292 C 116.468 142.133,118.796 141.887,121.147 141.746 C 123.498 141.605,125.827 141.380,126.322 141.247 C 126.817 141.113,128.285 140.930,129.584 140.839 C 130.883 140.747,132.452 140.507,133.071 140.305 C 133.690 140.103,134.499 139.933,134.871 139.928 C 135.242 139.922,136.102 139.722,136.783 139.483 C 137.463 139.243,138.476 139.043,139.033 139.037 C 139.589 139.031,140.501 138.866,141.057 138.669 C 141.614 138.473,142.424 138.278,142.857 138.236 C 143.290 138.194,144.404 138.053,145.332 137.923 C 146.260 137.794,147.880 137.625,148.931 137.548 C 149.983 137.472,151.856 137.158,153.093 136.851 C 154.331 136.544,155.799 136.206,156.355 136.101 C 162.751 134.889,163.547 134.720,164.342 134.407 C 164.713 134.261,165.877 134.017,166.929 133.865 C 167.981 133.713,170.157 133.147,171.766 132.607 C 174.080 131.831,174.887 131.653,175.629 131.757 C 176.226 131.840,176.957 131.755,177.638 131.523 C 178.226 131.323,179.354 131.159,180.143 131.159 C 180.932 131.159,182.003 131.060,182.521 130.940 C 183.040 130.820,185.236 130.413,187.402 130.035 C 189.567 129.658,193.616 128.941,196.400 128.443 C 199.184 127.945,202.880 127.287,204.612 126.980 C 206.344 126.674,208.825 126.230,210.124 125.995 C 211.423 125.760,213.650 125.362,215.073 125.110 C 216.496 124.859,219.128 124.394,220.922 124.077 C 222.717 123.760,224.986 123.348,225.966 123.161 C 227.086 122.947,227.827 122.900,227.961 123.034 C 228.095 123.168,226.482 126.532,223.618 132.096 C 216.680 145.572,215.975 146.877,215.565 146.993 C 215.356 147.052,214.224 147.321,213.048 147.590 C 211.873 147.859,209.949 148.323,208.774 148.620 C 207.598 148.917,205.371 149.417,203.825 149.731 C 202.278 150.045,199.848 150.543,198.425 150.837 C 197.002 151.132,194.927 151.543,193.813 151.751 C 192.700 151.960,191.508 152.274,191.166 152.451 C 190.823 152.627,187.685 153.429,184.192 154.233 C 180.698 155.037,176.298 156.050,174.413 156.484 C 172.529 156.917,170.567 157.421,170.054 157.601 C 169.542 157.782,168.866 157.930,168.552 157.930 C 168.238 157.930,167.466 158.077,166.836 158.256 C 166.207 158.436,164.477 158.838,162.992 159.150 C 161.507 159.463,158.116 160.228,155.456 160.851 C 152.795 161.474,148.847 162.388,146.682 162.882 C 144.516 163.375,140.771 164.229,138.358 164.779 C 135.945 165.329,131.997 166.241,129.584 166.805 C 127.171 167.370,123.425 168.234,121.260 168.726 C 119.094 169.218,115.399 170.069,113.048 170.618 C 110.697 171.167,107.572 171.886,106.104 172.215 C 104.636 172.544,103.295 172.866,103.125 172.931 C 102.232 173.274,102.785 171.943,105.818 166.441 C 109.651 159.489,109.540 159.730,108.904 159.730 C 108.449 159.730,98.352 162.723,97.638 163.069 C 97.276 163.245,95.891 165.932,91.129 175.703 C 89.470 179.106,86.460 185.270,84.439 189.401 C 80.956 196.521,80.615 197.301,80.872 197.558 C 80.978 197.663,83.878 197.332,91.001 196.401 C 94.818 195.902,96.667 195.665,109.336 194.050 C 113.729 193.490,118.841 192.828,120.697 192.580 C 122.553 192.331,125.439 191.963,127.109 191.761 C 130.936 191.299,130.265 191.889,133.481 186.157 L 136.252 181.220 137.249 181.061 C 137.797 180.974,139.460 180.800,140.945 180.674 C 145.074 180.323,150.817 179.790,153.318 179.525 C 154.556 179.394,157.795 179.093,160.517 178.856 C 171.049 177.939,173.412 177.724,175.478 177.498 C 177.918 177.231,182.265 176.834,191.451 176.039 C 194.978 175.734,198.217 175.432,198.650 175.369 C 199.083 175.305,201.159 175.103,203.262 174.919 C 208.289 174.480,216.385 173.742,219.348 173.453 C 220.647 173.326,223.481 173.068,225.647 172.880 C 227.812 172.691,229.747 172.488,229.946 172.428 C 230.308 172.318,232.286 170.039,234.236 167.484 C 235.568 165.739,234.992 166.009,248.481 160.807 C 249.471 160.426,251.234 159.723,252.398 159.247 C 254.309 158.464,255.343 158.197,255.343 158.485 C 255.343 158.542,254.520 160.289,253.515 162.366 C 252.509 164.442,251.004 167.559,250.171 169.291 C 249.337 171.024,247.730 174.335,246.600 176.651 C 243.978 182.022,243.980 181.979,246.369 180.908 C 247.160 180.553,249.477 179.531,251.519 178.637 C 266.549 172.054,264.800 173.090,265.704 170.237 C 266.104 168.974,267.061 166.220,267.830 164.117 C 269.893 158.480,271.313 154.340,273.000 149.044 C 274.611 143.984,274.796 143.622,275.652 143.836 C 275.972 143.917,279.135 146.983,283.263 151.216 C 287.148 155.199,290.720 158.820,291.202 159.263 C 294.110 161.937,311.136 179.009,311.136 179.252 C 311.136 179.531,309.948 180.139,306.637 181.555 C 301.989 183.541,296.842 185.858,296.651 186.049 C 296.220 186.480,294.957 186.309,316.535 188.748 C 320.804 189.231,325.328 189.746,326.587 189.893 C 329.444 190.227,329.266 190.313,330.693 187.931 C 332.123 185.543,332.121 185.615,330.867 182.790 C 330.318 181.552,328.934 178.414,327.793 175.816 C 326.651 173.217,325.509 170.636,325.256 170.079 C 325.003 169.522,323.893 167.001,322.790 164.476 C 319.702 157.410,319.768 157.507,319.116 159.111 C 318.903 159.637,318.057 161.730,317.238 163.763 C 316.418 165.796,315.636 167.495,315.500 167.539 C 315.284 167.609,313.997 166.097,312.936 164.529 C 311.791 162.836,304.486 153.411,303.830 152.781 C 303.394 152.361,303.037 151.884,303.037 151.721 C 303.037 151.261,297.521 144.032,296.046 142.559 C 295.325 141.838,294.360 140.674,293.902 139.972 C 293.445 139.270,292.892 138.493,292.674 138.245 C 292.456 137.998,292.036 137.340,291.741 136.783 C 290.862 135.123,286.732 129.668,284.911 127.761 C 282.420 125.152,282.716 124.762,287.964 123.752 C 289.263 123.502,291.895 122.993,293.813 122.622 C 295.731 122.251,298.995 121.799,301.067 121.618 C 303.138 121.437,304.931 121.228,305.051 121.154 C 305.170 121.080,305.905 120.928,306.684 120.816 C 309.682 120.383,310.458 120.119,310.826 119.407 C 311.015 119.041,311.776 117.916,312.516 116.908 C 313.256 115.899,314.286 114.485,314.805 113.766 C 315.324 113.047,316.212 111.833,316.779 111.067 C 317.346 110.301,318.908 108.155,320.251 106.299 C 321.593 104.443,323.131 102.317,323.668 101.575 C 324.205 100.832,325.174 99.503,325.821 98.622 C 328.082 95.538,330.304 92.383,330.413 92.099 C 330.473 91.942,329.921 90.871,329.187 89.720 C 328.452 88.568,326.610 85.678,325.095 83.296 C 321.841 78.183,322.741 78.475,317.037 80.686 C 314.596 81.632,312.143 82.580,311.586 82.793 C 299.029 87.586,296.181 88.718,295.639 89.131 C 295.344 89.355,294.983 89.539,294.837 89.539 C 294.692 89.539,293.668 90.004,292.562 90.573 C 291.456 91.142,290.045 91.759,289.426 91.946 C 288.808 92.132,287.795 92.522,287.177 92.812 C 286.558 93.102,285.090 93.606,283.915 93.931 C 282.739 94.256,281.208 94.768,280.512 95.068 C 279.816 95.368,278.905 95.678,278.487 95.758 C 278.069 95.838,277.373 96.080,276.939 96.297 C 276.505 96.514,275.695 96.812,275.139 96.959 C 274.583 97.106,271.344 98.296,267.942 99.603 C 264.539 100.910,260.358 102.512,258.652 103.163 C 256.945 103.815,255.403 104.469,255.225 104.617 C 254.868 104.913,251.965 106.341,249.128 107.615 C 245.303 109.334,244.189 108.348,246.661 105.432 C 247.306 104.672,248.434 103.058,249.170 101.846 C 249.905 100.635,250.794 99.172,251.145 98.595 C 251.496 98.018,251.981 97.020,252.222 96.375 C 252.463 95.731,252.809 95.080,252.992 94.929 C 253.484 94.521,255.243 91.802,255.649 90.823 C 255.843 90.355,256.347 89.545,256.768 89.024 C 259.206 86.008,261.680 80.985,260.575 81.295 C 260.358 81.355,258.054 81.964,255.456 82.647 C 250.635 83.915,235.375 87.963,221.800 91.576 C 213.530 93.777,213.723 93.738,213.723 93.245 C 213.723 92.958,221.590 77.379,224.853 71.204 C 225.376 70.214,226.943 67.155,228.336 64.406 C 229.855 61.407,231.025 59.358,231.260 59.284 C 231.604 59.175,243.019 60.109,249.044 60.739 C 250.219 60.862,252.092 60.943,253.206 60.920 C 254.547 60.892,255.775 61.016,256.846 61.287 C 257.877 61.548,258.771 61.642,259.320 61.547 C 261.085 61.243,269.765 61.548,271.654 61.981 C 274.241 62.573,276.616 62.965,278.493 63.109 C 279.532 63.189,280.600 63.337,280.866 63.438 C 281.132 63.539,281.997 63.693,282.790 63.780 C 284.508 63.968,285.230 64.216,285.407 64.677 C 285.645 65.297,285.268 66.128,284.591 66.478 C 283.897 66.837,283.107 67.955,281.316 71.112 L 280.257 72.977 280.881 73.513 C 281.526 74.068,282.895 74.078,284.323 73.538 C 284.609 73.429,285.385 73.341,286.046 73.341 C 286.708 73.341,289.713 72.940,292.725 72.449 C 298.512 71.507,300.983 71.113,305.451 70.418 C 306.964 70.183,308.786 69.885,309.500 69.756 C 310.214 69.627,313.076 69.163,315.861 68.723 C 322.112 67.738,321.468 67.974,322.426 66.310 C 324.650 62.446,331.594 50.188,331.927 49.537 C 332.283 48.843,330.657 38.579,330.032 37.567 C 329.872 37.309,328.533 37.133,319.798 36.226 C 311.723 35.388,309.265 35.125,306.995 34.856 C 306.016 34.740,305.105 34.658,304.970 34.674 C 304.835 34.690,302.953 34.986,300.787 35.333 " stroke="none" fill="#6cb36c" fill-rule="evenodd"></path><path id="path1" d="M304.049 21.603 C 302.193 21.824,298.903 22.216,296.738 22.473 C 294.573 22.730,290.675 23.194,288.076 23.504 C 281.167 24.327,274.206 25.149,269.854 25.657 C 264.831 26.242,259.038 26.923,254.443 27.467 C 252.402 27.710,249.061 28.103,247.019 28.341 C 233.625 29.905,234.796 29.716,234.914 30.302 C 234.952 30.488,237.607 32.025,240.815 33.716 C 244.023 35.407,246.683 36.901,246.728 37.034 C 246.807 37.271,243.121 37.718,236.783 38.239 C 234.010 38.467,228.254 38.975,224.072 39.361 C 222.773 39.481,220.495 39.683,219.010 39.811 C 217.525 39.938,214.539 40.195,212.373 40.381 C 210.208 40.567,208.118 40.773,207.729 40.838 C 206.873 40.981,206.574 40.744,199.647 34.421 C 187.096 22.964,188.979 24.125,184.814 25.279 C 183.577 25.622,181.654 26.140,180.540 26.430 C 177.277 27.281,157.075 32.609,155.231 33.105 C 154.303 33.355,152.075 33.943,150.281 34.412 C 148.487 34.881,144.478 35.935,141.371 36.755 C 135.237 38.374,135.208 38.379,135.208 37.959 C 135.208 37.802,136.575 34.867,138.245 31.437 C 139.916 28.008,141.282 25.049,141.282 24.862 C 141.282 24.361,141.005 24.400,134.052 25.884 C 126.630 27.468,114.727 29.996,112.936 30.369 C 112.255 30.511,110.787 30.827,109.674 31.071 C 108.560 31.316,105.472 31.975,102.812 32.537 C 100.152 33.098,96.811 33.806,95.388 34.110 C 93.965 34.414,91.890 34.854,90.776 35.087 C 80.989 37.141,80.990 37.141,80.990 38.037 C 80.990 38.263,80.680 39.339,80.302 40.428 C 79.924 41.517,79.355 43.217,79.040 44.207 C 78.724 45.197,78.272 46.385,78.037 46.848 C 77.801 47.311,77.466 48.424,77.292 49.323 C 76.996 50.846,76.697 51.746,75.926 53.440 C 75.754 53.816,75.509 54.778,75.381 55.577 C 75.253 56.376,74.944 57.610,74.694 58.318 C 74.445 59.027,74.241 59.837,74.241 60.118 C 74.241 60.400,74.038 61.163,73.791 61.813 C 73.543 62.464,73.341 63.247,73.341 63.552 C 73.341 64.123,72.623 66.631,72.117 67.829 C 71.812 68.550,71.194 70.663,68.527 80.096 C 67.599 83.379,66.634 86.517,66.383 87.070 C 65.587 88.824,65.862 90.544,66.977 90.789 C 67.322 90.864,68.060 91.061,68.616 91.227 C 71.234 92.005,72.193 92.239,72.798 92.249 C 73.711 92.264,77.606 93.211,79.696 93.926 C 81.533 94.554,81.815 94.942,81.231 96.033 C 81.116 96.248,80.861 97.279,80.664 98.325 C 80.467 99.370,80.200 100.782,80.070 101.462 C 79.823 102.758,78.905 105.819,78.417 106.974 C 78.260 107.345,77.902 108.408,77.621 109.336 C 77.340 110.264,76.952 111.327,76.759 111.699 C 76.566 112.070,76.238 113.133,76.031 114.061 C 75.824 114.989,75.196 117.520,74.637 119.685 C 74.077 121.850,73.558 124.190,73.482 124.884 C 73.406 125.578,73.192 126.511,73.005 126.958 C 72.819 127.404,72.666 128.378,72.666 129.122 C 72.666 129.866,72.516 130.856,72.332 131.323 C 71.667 133.010,70.851 136.655,70.537 139.334 C 70.325 141.142,70.034 142.489,69.678 143.307 C 69.112 144.608,68.501 146.417,67.743 149.044 C 67.106 151.249,66.606 152.586,66.269 152.981 C 65.538 153.837,65.216 155.906,65.813 155.906 C 66.330 155.906,67.971 155.034,68.648 154.400 C 69.251 153.835,70.455 153.446,71.629 153.436 C 71.986 153.433,73.428 152.874,74.833 152.193 C 76.238 151.513,77.534 150.956,77.715 150.956 C 78.420 150.956,81.597 149.812,82.384 149.275 C 84.212 148.026,85.187 148.741,84.305 150.685 C 83.447 152.578,83.377 152.779,78.126 168.279 C 67.746 198.917,66.489 202.583,66.051 203.483 C 65.461 204.697,64.574 207.174,64.339 208.268 C 64.212 208.855,63.632 210.777,63.051 212.538 C 61.738 216.510,61.516 216.289,66.257 215.733 C 68.359 215.486,71.344 215.139,72.891 214.961 C 76.526 214.543,84.066 213.665,90.326 212.932 C 101.023 211.679,102.952 211.474,104.044 211.474 C 104.667 211.474,105.531 211.369,105.963 211.241 C 106.395 211.112,108.369 210.914,110.349 210.799 C 112.328 210.684,114.302 210.485,114.734 210.357 C 115.166 210.229,116.128 210.122,116.871 210.120 C 118.435 210.115,121.738 209.607,122.722 209.219 C 123.102 209.069,124.554 208.950,126.045 208.947 C 127.502 208.943,128.748 208.852,128.814 208.745 C 128.881 208.637,129.411 208.549,129.992 208.549 C 130.574 208.549,131.389 208.451,131.805 208.332 C 132.221 208.213,134.296 208.007,136.416 207.875 C 138.536 207.743,141.080 207.492,142.070 207.318 C 143.060 207.143,145.034 206.934,146.457 206.853 C 148.134 206.756,149.439 206.554,150.169 206.277 C 150.793 206.040,151.895 205.843,152.643 205.836 C 153.386 205.829,154.499 205.724,155.118 205.604 C 155.737 205.484,158.015 205.284,160.180 205.160 C 162.654 205.018,164.410 204.811,164.904 204.603 C 165.337 204.422,166.825 204.176,168.210 204.059 C 171.826 203.751,173.123 203.331,173.674 202.289 C 173.915 201.834,174.445 201.089,174.851 200.633 C 175.258 200.177,176.474 198.710,177.554 197.371 C 178.633 196.033,180.416 193.825,181.515 192.463 L 183.514 189.989 186.076 189.477 C 188.647 188.965,195.918 187.555,207.874 185.251 C 211.400 184.571,215.247 183.821,216.423 183.584 C 217.598 183.348,221.294 182.633,224.634 181.997 C 227.975 181.360,231.620 180.651,232.733 180.420 C 233.847 180.189,234.839 180.080,234.937 180.179 C 235.100 180.342,230.279 190.525,225.502 200.112 C 223.589 203.951,223.110 204.830,222.128 206.311 C 221.432 207.361,221.425 208.232,222.112 208.404 C 222.816 208.581,224.825 208.022,225.557 207.446 C 225.887 207.187,226.324 206.974,226.527 206.974 C 226.730 206.974,227.653 206.611,228.578 206.167 C 230.322 205.330,231.500 204.861,232.846 204.466 C 233.726 204.208,236.985 202.394,237.686 201.773 C 238.134 201.375,240.330 200.349,254.331 193.993 C 258.290 192.195,263.251 189.937,265.354 188.974 C 272.154 185.860,273.374 185.335,273.503 185.464 C 273.615 185.576,267.719 191.880,265.600 193.914 C 263.985 195.463,263.966 195.455,270.979 196.174 C 273.454 196.428,276.339 196.733,277.390 196.851 C 278.442 196.970,280.872 197.214,282.790 197.394 C 286.334 197.726,290.588 198.166,296.063 198.766 C 297.733 198.950,300.260 199.205,301.677 199.333 C 303.094 199.462,304.562 199.607,304.939 199.657 C 306.975 199.922,307.991 200.028,311.572 200.349 C 313.730 200.542,315.566 200.744,315.653 200.798 C 315.740 200.852,317.568 200.992,319.716 201.111 C 321.864 201.229,324.128 201.428,324.747 201.553 C 328.043 202.220,330.202 202.499,332.767 202.588 L 335.613 202.687 336.490 201.512 C 337.492 200.170,337.916 199.449,340.098 195.388 C 343.149 189.708,343.500 189.057,345.307 185.731 C 346.311 183.884,347.132 182.186,347.132 181.958 C 347.132 181.608,341.253 169.949,338.022 163.892 C 337.494 162.902,336.075 160.169,334.869 157.818 C 329.373 147.107,328.329 145.163,327.624 144.328 C 327.210 143.838,326.609 142.876,326.288 142.191 C 325.967 141.505,325.432 140.388,325.099 139.708 C 324.766 139.027,324.358 137.964,324.192 137.345 C 323.932 136.374,323.479 135.478,322.003 133.015 C 321.505 132.184,321.161 132.422,320.380 134.139 C 319.972 135.037,319.497 136.057,319.324 136.407 C 319.152 136.758,319.010 137.180,319.010 137.346 C 319.010 137.782,316.103 143.715,315.794 143.909 C 315.360 144.181,315.017 143.416,314.888 141.888 C 314.811 140.983,314.594 139.873,314.405 139.420 C 314.216 138.968,314.061 138.062,314.062 137.409 C 314.063 136.755,313.889 135.185,313.676 133.918 C 313.403 132.301,313.359 131.546,313.526 131.378 C 313.657 131.248,317.551 130.187,322.180 129.022 C 334.847 125.832,335.738 125.588,336.006 125.220 C 336.143 125.033,336.739 123.079,337.330 120.877 C 337.922 118.675,338.642 116.012,338.930 114.961 C 339.218 113.909,340.129 110.517,340.954 107.424 C 341.779 104.331,342.686 100.939,342.969 99.888 C 344.115 95.631,344.914 92.676,345.554 90.326 C 346.530 86.747,346.917 87.731,342.186 81.777 C 337.627 76.040,336.521 74.649,334.801 72.490 C 333.788 71.217,332.958 70.118,332.958 70.048 C 332.958 69.922,333.714 68.468,338.025 60.292 C 346.297 44.608,346.232 44.741,346.232 43.457 C 346.232 42.817,346.032 40.295,345.789 37.851 C 345.545 35.408,345.181 31.593,344.980 29.374 C 344.583 24.991,344.425 24.299,343.819 24.293 C 343.599 24.291,342.508 24.195,341.395 24.079 C 340.281 23.963,338.155 23.764,336.670 23.635 C 335.186 23.507,332.876 23.297,331.538 23.168 C 330.200 23.040,327.315 22.789,325.126 22.611 C 320.712 22.251,314.889 21.722,311.522 21.375 C 308.764 21.090,308.200 21.107,304.049 21.603 M315.523 22.063 C 318.245 22.309,322.750 22.707,325.534 22.948 C 329.831 23.321,334.523 23.745,341.732 24.415 C 344.556 24.677,344.192 23.844,344.872 31.609 C 345.121 34.454,345.425 37.643,345.549 38.695 C 345.672 39.747,345.838 41.435,345.918 42.446 L 346.062 44.285 344.263 47.733 C 341.909 52.244,338.616 58.526,335.358 64.720 C 333.914 67.464,332.734 69.843,332.736 70.007 C 332.739 70.388,336.032 74.656,341.975 81.978 C 344.000 84.474,346.007 87.113,346.007 87.281 C 346.007 87.397,344.091 94.559,339.145 112.936 C 337.254 119.963,336.492 122.801,336.226 123.807 C 335.823 125.337,336.537 125.075,324.538 128.103 C 318.511 129.623,313.435 131.014,313.256 131.192 C 312.972 131.476,312.975 131.760,313.285 133.419 C 313.480 134.465,313.722 136.232,313.823 137.345 C 313.924 138.459,314.169 139.927,314.368 140.607 C 314.567 141.288,314.732 142.264,314.733 142.776 C 314.735 143.349,314.898 143.908,315.159 144.230 L 315.583 144.754 316.509 143.321 C 317.019 142.532,317.435 141.784,317.435 141.658 C 317.435 141.532,317.827 140.662,318.305 139.725 C 318.783 138.787,319.382 137.413,319.636 136.670 C 320.220 134.959,321.220 132.958,321.492 132.958 C 321.607 132.958,321.904 133.357,322.153 133.845 C 322.402 134.333,322.851 135.094,323.151 135.535 C 323.451 135.977,323.767 136.757,323.853 137.269 C 324.064 138.518,326.461 143.441,327.399 144.553 C 328.091 145.373,329.052 147.151,334.140 157.030 C 335.127 158.948,336.670 161.935,337.569 163.667 C 338.467 165.399,340.138 168.639,341.282 170.866 C 342.426 173.093,344.160 176.447,345.134 178.318 C 347.276 182.430,347.355 181.339,344.544 186.491 C 343.245 188.873,342.182 190.849,342.182 190.884 C 342.182 190.918,341.743 191.743,341.205 192.717 C 340.668 193.691,339.743 195.389,339.149 196.489 C 337.517 199.515,337.188 200.063,336.333 201.188 L 335.546 202.223 332.171 202.145 C 330.315 202.101,328.442 201.948,328.009 201.804 C 326.975 201.460,324.551 201.157,320.810 200.904 C 319.139 200.791,315.343 200.446,312.373 200.137 C 309.404 199.828,305.405 199.419,303.487 199.227 C 301.569 199.036,299.139 198.778,298.088 198.654 C 297.036 198.530,295.062 198.324,293.701 198.195 C 292.340 198.067,290.416 197.862,289.426 197.739 C 288.436 197.616,285.501 197.310,282.902 197.058 C 277.437 196.528,270.744 195.842,267.829 195.512 C 266.715 195.387,265.678 195.282,265.523 195.280 C 264.876 195.270,265.464 194.552,269.854 189.986 C 274.147 185.521,274.826 184.702,274.238 184.702 C 274.046 184.702,259.894 191.100,242.410 199.091 C 239.937 200.221,237.710 201.326,237.461 201.545 C 236.544 202.354,233.808 203.792,232.058 204.386 C 231.069 204.723,229.462 205.392,228.489 205.873 C 227.516 206.355,226.560 206.749,226.364 206.749 C 226.168 206.749,225.639 207.005,225.188 207.318 C 224.699 207.657,223.899 207.942,223.212 208.024 C 221.614 208.213,221.516 207.826,222.708 206.021 C 223.220 205.246,224.636 202.587,225.855 200.112 C 231.276 189.104,235.321 180.591,235.321 180.189 C 235.321 179.522,239.132 178.841,197.300 186.984 C 189.691 188.465,183.346 189.798,183.200 189.945 C 182.942 190.208,181.284 192.245,177.331 197.155 C 176.250 198.499,174.961 200.085,174.466 200.680 C 173.971 201.275,173.394 202.010,173.185 202.313 C 172.711 202.997,170.385 203.666,168.279 203.724 C 166.785 203.765,165.456 204.020,164.454 204.457 C 164.145 204.592,161.785 204.808,159.210 204.938 C 156.635 205.067,154.319 205.285,154.065 205.421 C 153.778 205.575,153.135 205.611,152.379 205.517 C 151.451 205.401,151.027 205.448,150.620 205.715 C 149.829 206.234,148.460 206.484,144.854 206.769 C 143.075 206.909,140.709 207.113,139.595 207.222 C 138.481 207.330,136.862 207.460,135.996 207.510 C 133.127 207.675,129.031 208.230,128.412 208.536 C 127.912 208.784,127.620 208.786,126.784 208.552 C 126.041 208.344,125.596 208.331,125.143 208.504 C 124.802 208.634,124.016 208.798,123.397 208.867 C 121.489 209.081,120.034 209.346,119.729 209.534 C 119.569 209.633,118.089 209.804,116.440 209.914 C 114.792 210.023,113.171 210.217,112.837 210.343 C 112.504 210.470,111.454 210.573,110.503 210.572 C 109.552 210.570,107.812 210.671,106.637 210.795 C 102.144 211.269,96.103 211.939,94.376 212.155 C 93.386 212.278,89.488 212.735,85.714 213.170 C 81.940 213.606,75.866 214.310,72.216 214.736 C 62.115 215.915,62.543 215.886,62.539 215.385 C 62.537 215.152,62.992 213.594,63.549 211.924 C 64.107 210.253,64.880 207.823,65.268 206.524 C 65.656 205.225,66.133 203.909,66.328 203.600 C 66.523 203.290,67.157 201.620,67.737 199.888 C 68.317 198.155,70.994 190.259,73.688 182.340 C 76.381 174.421,79.625 164.854,80.897 161.080 C 83.533 153.259,84.230 151.315,84.704 150.471 C 85.641 148.803,84.017 147.737,82.348 148.925 C 81.681 149.400,79.137 150.361,77.840 150.627 C 77.407 150.716,76.040 151.284,74.803 151.889 C 73.142 152.701,72.062 153.067,70.678 153.287 C 69.146 153.530,68.713 153.691,68.316 154.164 C 67.388 155.267,65.540 155.882,65.789 155.006 C 65.859 154.758,65.981 154.328,66.060 154.049 C 66.139 153.771,66.443 153.257,66.735 152.907 C 67.027 152.558,67.267 152.043,67.267 151.764 C 67.267 151.485,67.338 151.185,67.424 151.098 C 67.650 150.873,68.384 148.454,68.389 147.919 C 68.394 147.452,69.719 143.740,70.206 142.829 C 70.359 142.543,70.566 141.699,70.666 140.952 C 71.424 135.286,71.734 133.787,72.680 131.206 C 72.920 130.552,73.117 129.439,73.119 128.732 C 73.121 128.025,73.276 127.005,73.464 126.464 C 73.653 125.924,73.860 125.013,73.926 124.440 C 74.120 122.737,76.499 113.150,77.059 111.811 C 77.343 111.130,77.831 109.764,78.143 108.774 C 78.455 107.784,79.013 106.094,79.384 105.018 C 79.755 103.942,80.320 101.715,80.641 100.069 C 80.961 98.422,81.392 96.551,81.598 95.911 C 82.054 94.491,81.889 94.211,80.367 93.822 C 79.782 93.672,78.948 93.408,78.515 93.234 C 77.516 92.835,73.026 91.789,72.312 91.789 C 71.540 91.789,69.738 91.349,68.992 90.979 C 68.642 90.806,68.067 90.664,67.714 90.664 C 66.420 90.664,65.869 88.680,66.710 87.052 C 67.088 86.322,67.725 84.176,70.309 74.935 C 71.258 71.543,72.165 68.455,72.326 68.073 C 72.812 66.917,73.573 64.261,73.569 63.732 C 73.567 63.458,73.754 62.699,73.984 62.044 C 74.214 61.390,74.510 60.349,74.641 59.730 C 74.771 59.111,75.031 58.048,75.217 57.368 C 75.402 56.687,75.677 55.574,75.827 54.893 C 75.976 54.213,76.166 53.555,76.248 53.431 C 76.607 52.892,77.370 50.646,77.509 49.719 C 77.593 49.162,77.922 48.048,78.240 47.244 C 78.559 46.440,79.049 45.073,79.328 44.207 C 79.608 43.341,80.145 41.772,80.522 40.720 C 80.900 39.668,81.210 38.592,81.212 38.329 C 81.218 37.404,81.168 37.420,90.551 35.440 C 93.291 34.862,107.231 31.904,110.236 31.263 C 111.288 31.039,114.325 30.395,116.985 29.831 C 119.646 29.268,125.416 28.041,129.809 27.105 C 134.201 26.168,138.301 25.304,138.920 25.183 C 139.539 25.063,140.222 24.909,140.439 24.840 C 141.229 24.592,140.660 25.962,136.474 34.387 C 134.822 37.710,134.485 38.695,134.998 38.695 C 135.237 38.695,139.222 37.654,157.705 32.764 C 163.088 31.340,168.706 29.858,170.191 29.471 C 173.945 28.492,181.934 26.384,184.364 25.732 C 185.478 25.433,186.865 25.073,187.446 24.932 L 188.503 24.675 189.921 25.947 C 190.701 26.646,193.616 29.301,196.400 31.845 C 202.227 37.171,203.911 38.694,205.598 40.158 L 206.809 41.210 208.298 41.073 C 209.116 40.998,213.228 40.632,217.435 40.260 C 221.642 39.888,227.261 39.387,229.921 39.147 C 232.582 38.907,237.188 38.503,240.157 38.249 C 246.698 37.690,247.423 37.602,247.585 37.340 C 247.760 37.057,246.791 36.490,240.662 33.287 C 237.722 31.751,235.351 30.391,235.393 30.266 C 235.470 30.035,238.007 29.696,250.506 28.249 C 254.342 27.805,258.240 27.341,259.168 27.218 C 260.618 27.026,270.441 25.867,276.490 25.173 C 281.685 24.578,294.281 23.081,302.700 22.058 C 305.546 21.712,308.481 21.471,309.224 21.523 C 309.966 21.574,312.801 21.817,315.523 22.063 M304.837 25.993 C 304.478 26.099,297.796 26.977,292.013 27.679 C 290.096 27.912,286.552 28.363,284.139 28.682 C 281.727 29.001,278.588 29.405,277.165 29.580 C 275.742 29.755,272.604 30.151,270.191 30.460 C 267.778 30.769,262.919 31.384,259.393 31.826 C 252.316 32.714,251.969 32.771,251.969 33.043 C 251.969 33.261,255.495 34.582,262.217 36.881 C 264.822 37.773,267.088 38.585,267.251 38.686 C 267.719 38.975,267.310 39.370,266.544 39.370 C 266.161 39.370,264.471 39.521,262.789 39.705 C 261.107 39.890,256.642 40.342,252.868 40.710 C 249.094 41.078,244.944 41.484,243.645 41.613 C 242.345 41.742,239.713 41.996,237.795 42.179 C 235.877 42.361,233.346 42.611,232.171 42.735 C 230.996 42.859,228.920 43.068,227.559 43.199 C 226.198 43.331,224.173 43.538,223.060 43.660 C 221.946 43.781,217.897 44.184,214.061 44.555 C 200.003 45.913,186.350 47.259,184.878 47.433 C 182.785 47.679,182.551 47.527,180.272 44.432 C 174.410 36.469,172.467 33.918,172.081 33.678 C 171.821 33.516,170.054 33.864,165.670 34.943 C 162.341 35.762,156.479 37.200,152.643 38.138 C 148.808 39.076,141.794 40.801,137.057 41.970 C 124.044 45.183,123.689 45.263,123.473 45.048 C 123.292 44.867,124.909 42.478,132.020 32.421 C 134.980 28.235,135.047 28.443,131.042 29.365 C 129.683 29.678,126.597 30.385,124.184 30.936 C 121.772 31.487,118.026 32.348,115.861 32.849 C 110.989 33.975,103.970 35.583,96.738 37.229 C 93.706 37.919,90.416 38.675,89.426 38.910 C 88.436 39.145,86.799 39.516,85.787 39.735 C 83.251 40.285,81.828 42.141,80.891 46.119 C 80.731 46.800,80.446 47.964,80.259 48.706 C 80.072 49.449,79.742 50.866,79.527 51.856 C 79.311 52.846,78.948 54.213,78.720 54.893 C 78.062 56.852,77.388 59.933,77.153 62.053 C 76.660 66.502,75.865 71.663,74.773 77.503 C 74.472 79.111,73.973 81.794,73.665 83.465 C 73.357 85.135,72.991 87.089,72.852 87.807 C 72.494 89.657,72.659 89.716,79.640 90.202 C 82.439 90.396,85.659 91.004,86.103 91.422 C 86.319 91.626,86.187 92.228,85.487 94.214 C 84.655 96.577,82.285 105.505,81.683 108.549 C 81.536 109.291,81.311 110.202,81.183 110.574 C 80.275 113.209,78.196 123.146,77.865 126.434 C 77.694 128.125,77.067 131.077,76.523 132.750 C 76.419 133.069,76.381 133.891,76.438 134.577 C 76.506 135.399,76.375 136.536,76.053 137.904 C 75.496 140.281,75.508 140.321,76.684 139.969 C 77.163 139.825,77.865 139.708,78.244 139.708 C 78.622 139.708,80.165 139.306,81.671 138.815 C 83.177 138.324,85.436 137.710,86.693 137.450 C 87.949 137.190,89.432 136.883,89.989 136.767 C 92.844 136.172,93.150 137.632,91.242 142.745 C 90.919 143.611,90.465 144.674,90.233 145.107 C 89.669 146.158,87.739 151.135,87.739 151.538 C 87.739 152.030,88.129 151.996,98.200 150.632 C 107.946 149.312,109.544 149.132,110.443 149.251 C 111.128 149.342,111.547 149.286,111.792 149.072 C 112.228 148.691,114.736 148.350,114.736 148.672 C 114.736 148.998,114.342 149.135,101.687 153.215 C 98.903 154.112,94.499 155.533,91.901 156.371 C 89.303 157.209,86.954 157.959,86.682 158.036 C 86.070 158.212,86.059 158.239,82.066 170.079 C 80.334 175.214,77.619 183.262,76.034 187.964 C 74.448 192.666,72.731 197.627,72.218 198.988 C 71.704 200.349,71.205 201.766,71.108 202.137 C 71.011 202.508,70.563 203.517,70.112 204.378 C 68.300 207.836,68.908 208.064,77.053 206.974 C 79.083 206.703,86.211 206.249,89.539 206.180 C 91.091 206.148,92.621 205.982,93.363 205.766 C 94.044 205.567,95.116 205.403,95.746 205.402 C 96.376 205.401,97.844 205.207,99.008 204.972 C 100.296 204.712,102.624 204.492,104.953 204.409 C 107.059 204.334,109.126 204.174,109.548 204.053 C 109.969 203.932,112.346 203.721,114.828 203.583 C 117.311 203.446,119.546 203.223,119.795 203.088 C 120.644 202.628,124.290 202.266,128.141 202.258 C 131.350 202.251,132.208 202.176,133.342 201.804 C 134.088 201.559,135.700 201.258,136.922 201.135 C 138.145 201.012,140.259 200.800,141.620 200.663 C 142.981 200.526,146.106 200.236,148.565 200.018 C 152.482 199.671,153.067 199.568,153.287 199.192 C 153.616 198.630,156.348 192.798,157.492 190.214 C 159.413 185.874,158.168 186.477,167.942 185.155 C 170.787 184.770,174.128 184.311,175.366 184.135 C 176.603 183.959,179.539 183.555,181.890 183.238 C 184.241 182.921,187.177 182.515,188.414 182.336 C 189.651 182.157,192.942 181.701,195.726 181.324 C 198.510 180.946,202.154 180.441,203.825 180.202 C 206.672 179.793,211.741 179.095,223.510 177.490 C 229.836 176.627,233.056 176.145,233.418 176.006 C 233.576 175.945,234.936 174.238,236.441 172.213 L 239.176 168.531 241.242 167.842 C 244.691 166.693,244.638 166.538,242.489 171.461 C 240.726 175.502,238.296 181.093,236.783 184.589 C 236.248 185.827,234.637 189.522,233.204 192.801 C 230.445 199.112,230.263 199.685,231.102 199.422 C 231.570 199.276,234.956 197.881,237.345 196.850 C 238.628 196.297,256.859 188.698,262.992 186.161 C 264.291 185.623,266.468 184.715,267.829 184.142 C 269.190 183.569,270.945 182.840,271.729 182.520 C 273.500 181.798,273.345 182.218,274.458 175.141 C 274.964 171.924,275.522 168.481,275.698 167.492 C 275.873 166.502,276.281 163.971,276.603 161.867 C 276.926 159.764,277.330 157.283,277.502 156.355 C 277.673 155.427,277.879 154.162,277.958 153.543 C 278.254 151.247,278.324 151.215,279.913 152.643 C 280.532 153.200,281.120 153.656,281.220 153.656 C 281.320 153.656,281.787 154.187,282.258 154.837 C 282.730 155.487,283.284 156.142,283.490 156.294 C 283.696 156.446,284.248 157.155,284.717 157.869 C 285.684 159.340,285.968 159.671,292.465 166.888 C 297.840 172.857,297.702 172.538,295.669 174.294 C 294.834 175.015,293.695 176.027,293.138 176.543 C 289.732 179.695,281.045 187.668,278.744 189.752 C 274.886 193.246,273.499 192.665,289.764 194.375 C 294.528 194.877,302.728 195.742,307.987 196.300 C 313.245 196.857,318.534 197.409,319.738 197.526 C 320.943 197.643,323.322 197.892,325.025 198.080 C 334.209 199.090,334.825 199.142,335.129 198.937 C 335.331 198.800,339.136 188.984,340.763 184.399 C 341.058 183.568,341.035 183.457,340.185 181.587 C 339.698 180.516,338.117 177.008,336.671 173.791 C 335.225 170.574,333.587 166.929,333.030 165.692 C 332.474 164.454,331.633 162.582,331.161 161.530 C 330.689 160.478,329.393 157.593,328.280 155.118 C 327.168 152.643,325.627 149.201,324.856 147.469 C 323.259 143.884,322.249 142.182,321.717 142.182 C 321.203 142.182,320.810 142.632,320.810 143.220 C 320.810 144.594,316.281 155.516,315.878 155.113 C 315.587 154.822,313.847 151.246,312.049 147.244 C 309.378 141.299,308.415 139.276,307.639 137.988 C 307.212 137.278,306.668 136.185,306.432 135.559 C 306.195 134.933,305.486 133.322,304.857 131.979 C 304.227 130.636,303.712 129.403,303.712 129.238 C 303.712 128.699,305.587 128.392,312.538 127.792 C 313.987 127.667,315.337 127.415,315.913 127.162 C 316.441 126.929,318.430 126.495,320.333 126.196 C 323.195 125.747,323.845 125.575,324.088 125.200 C 324.250 124.951,325.770 121.507,327.465 117.548 C 329.161 113.588,332.558 105.665,335.015 99.940 C 337.472 94.215,339.483 89.384,339.483 89.204 C 339.483 89.023,338.790 87.785,337.944 86.452 C 337.097 85.118,335.058 81.901,333.411 79.303 C 331.765 76.704,329.978 73.902,329.441 73.075 C 327.628 70.287,326.470 73.083,337.347 53.993 C 338.863 51.333,340.270 48.827,340.474 48.425 C 340.836 47.710,337.660 29.792,337.070 29.225 C 336.974 29.133,335.377 28.894,333.521 28.695 C 331.665 28.496,329.286 28.239,328.234 28.123 C 327.182 28.008,325.259 27.804,323.960 27.671 C 322.660 27.537,318.864 27.131,315.523 26.769 C 309.332 26.098,305.442 25.816,304.837 25.993 M306.995 34.856 C 309.265 35.125,311.723 35.388,319.798 36.226 C 328.533 37.133,329.872 37.309,330.032 37.567 C 330.657 38.579,332.283 48.843,331.927 49.537 C 331.594 50.188,324.650 62.446,322.426 66.310 C 321.468 67.974,322.112 67.738,315.861 68.723 C 313.076 69.163,310.214 69.627,309.500 69.756 C 308.786 69.885,306.964 70.183,305.451 70.418 C 300.983 71.113,298.512 71.507,292.725 72.449 C 289.713 72.940,286.708 73.341,286.046 73.341 C 285.385 73.341,284.609 73.429,284.323 73.538 C 282.895 74.078,281.526 74.068,280.881 73.513 L 280.257 72.977 281.316 71.112 C 283.107 67.955,283.897 66.837,284.591 66.478 C 285.268 66.128,285.645 65.297,285.407 64.677 C 285.230 64.216,284.508 63.968,282.790 63.780 C 281.997 63.693,281.132 63.539,280.866 63.438 C 280.600 63.337,279.532 63.189,278.493 63.109 C 276.616 62.965,274.241 62.573,271.654 61.981 C 269.765 61.548,261.085 61.243,259.320 61.547 C 258.771 61.642,257.877 61.548,256.846 61.287 C 255.775 61.016,254.547 60.892,253.206 60.920 C 252.092 60.943,250.219 60.862,249.044 60.739 C 243.019 60.109,231.604 59.175,231.260 59.284 C 231.025 59.358,229.855 61.407,228.336 64.406 C 226.943 67.155,225.376 70.214,224.853 71.204 C 221.590 77.379,213.723 92.958,213.723 93.245 C 213.723 93.738,213.530 93.777,221.800 91.576 C 235.375 87.963,250.635 83.915,255.456 82.647 C 258.054 81.964,260.358 81.355,260.575 81.295 C 261.680 80.985,259.206 86.008,256.768 89.024 C 256.347 89.545,255.843 90.355,255.649 90.823 C 255.243 91.802,253.484 94.521,252.992 94.929 C 252.809 95.080,252.463 95.731,252.222 96.375 C 251.981 97.020,251.496 98.018,251.145 98.595 C 250.794 99.172,249.905 100.635,249.170 101.846 C 248.434 103.058,247.306 104.672,246.661 105.432 C 244.189 108.348,245.303 109.334,249.128 107.615 C 251.965 106.341,254.868 104.913,255.225 104.617 C 255.403 104.469,256.945 103.815,258.652 103.163 C 260.358 102.512,264.539 100.910,267.942 99.603 C 271.344 98.296,274.583 97.106,275.139 96.959 C 275.695 96.812,276.505 96.514,276.939 96.297 C 277.373 96.080,278.069 95.838,278.487 95.758 C 278.905 95.678,279.816 95.368,280.512 95.068 C 281.208 94.768,282.739 94.256,283.915 93.931 C 285.090 93.606,286.558 93.102,287.177 92.812 C 287.795 92.522,288.808 92.132,289.426 91.946 C 290.045 91.759,291.456 91.142,292.562 90.573 C 293.668 90.004,294.692 89.539,294.837 89.539 C 294.983 89.539,295.344 89.355,295.639 89.131 C 296.181 88.718,299.029 87.586,311.586 82.793 C 312.143 82.580,314.596 81.632,317.037 80.686 C 322.741 78.475,321.841 78.183,325.095 83.296 C 326.610 85.678,328.452 88.568,329.187 89.720 C 329.921 90.871,330.473 91.942,330.413 92.099 C 330.304 92.383,328.082 95.538,325.821 98.622 C 325.174 99.503,324.205 100.832,323.668 101.575 C 323.131 102.317,321.593 104.443,320.251 106.299 C 318.908 108.155,317.346 110.301,316.779 111.067 C 316.212 111.833,315.324 113.047,314.805 113.766 C 314.286 114.485,313.256 115.899,312.516 116.908 C 311.776 117.916,311.015 119.041,310.826 119.407 C 310.458 120.119,309.682 120.383,306.684 120.816 C 305.905 120.928,305.170 121.080,305.051 121.154 C 304.931 121.228,303.138 121.437,301.067 121.618 C 298.995 121.799,295.731 122.251,293.813 122.622 C 291.895 122.993,289.263 123.502,287.964 123.752 C 282.716 124.762,282.420 125.152,284.911 127.761 C 286.732 129.668,290.862 135.123,291.741 136.783 C 292.036 137.340,292.456 137.998,292.674 138.245 C 292.892 138.493,293.445 139.270,293.902 139.972 C 294.360 140.674,295.325 141.838,296.046 142.559 C 297.521 144.032,303.037 151.261,303.037 151.721 C 303.037 151.884,303.394 152.361,303.830 152.781 C 304.486 153.411,311.791 162.836,312.936 164.529 C 313.997 166.097,315.284 167.609,315.500 167.539 C 315.636 167.495,316.418 165.796,317.238 163.763 C 318.057 161.730,318.903 159.637,319.116 159.111 C 319.768 157.507,319.702 157.410,322.790 164.476 C 323.893 167.001,325.003 169.522,325.256 170.079 C 325.509 170.636,326.651 173.217,327.793 175.816 C 328.934 178.414,330.318 181.552,330.867 182.790 C 332.121 185.615,332.123 185.543,330.693 187.931 C 329.266 190.313,329.444 190.227,326.587 189.893 C 325.328 189.746,320.804 189.231,316.535 188.748 C 294.957 186.309,296.220 186.480,296.651 186.049 C 296.842 185.858,301.989 183.541,306.637 181.555 C 309.948 180.139,311.136 179.531,311.136 179.252 C 311.136 179.009,294.110 161.937,291.202 159.263 C 290.720 158.820,287.148 155.199,283.263 151.216 C 279.135 146.983,275.972 143.917,275.652 143.836 C 274.796 143.622,274.611 143.984,273.000 149.044 C 271.313 154.340,269.893 158.480,267.830 164.117 C 267.061 166.220,266.104 168.974,265.704 170.237 C 264.800 173.090,266.549 172.054,251.519 178.637 C 249.477 179.531,247.160 180.553,246.369 180.908 C 243.980 181.979,243.978 182.022,246.600 176.651 C 247.730 174.335,249.337 171.024,250.171 169.291 C 251.004 167.559,252.509 164.442,253.515 162.366 C 254.520 160.289,255.343 158.542,255.343 158.485 C 255.343 158.197,254.309 158.464,252.398 159.247 C 251.234 159.723,249.471 160.426,248.481 160.807 C 234.992 166.009,235.568 165.739,234.236 167.484 C 232.286 170.039,230.308 172.318,229.946 172.428 C 229.747 172.488,227.812 172.691,225.647 172.880 C 223.481 173.068,220.647 173.326,219.348 173.453 C 216.385 173.742,208.289 174.480,203.262 174.919 C 201.159 175.103,199.083 175.305,198.650 175.369 C 198.217 175.432,194.978 175.734,191.451 176.039 C 182.265 176.834,177.918 177.231,175.478 177.498 C 173.412 177.724,171.049 177.939,160.517 178.856 C 157.795 179.093,154.556 179.394,153.318 179.525 C 150.817 179.790,145.074 180.323,140.945 180.674 C 139.460 180.800,137.797 180.974,137.249 181.061 L 136.252 181.220 133.481 186.157 C 130.265 191.889,130.936 191.299,127.109 191.761 C 125.439 191.963,122.553 192.331,120.697 192.580 C 118.841 192.828,113.729 193.490,109.336 194.050 C 96.667 195.665,94.818 195.902,91.001 196.401 C 83.878 197.332,80.978 197.663,80.872 197.558 C 80.615 197.301,80.956 196.521,84.439 189.401 C 86.460 185.270,89.470 179.106,91.129 175.703 C 95.891 165.932,97.276 163.245,97.638 163.069 C 98.352 162.723,108.449 159.730,108.904 159.730 C 109.540 159.730,109.651 159.489,105.818 166.441 C 102.785 171.943,102.232 173.274,103.125 172.931 C 103.295 172.866,104.636 172.544,106.104 172.215 C 107.572 171.886,110.697 171.167,113.048 170.618 C 115.399 170.069,119.094 169.218,121.260 168.726 C 123.425 168.234,127.171 167.370,129.584 166.805 C 131.997 166.241,135.945 165.329,138.358 164.779 C 140.771 164.229,144.516 163.375,146.682 162.882 C 148.847 162.388,152.795 161.474,155.456 160.851 C 158.116 160.228,161.507 159.463,162.992 159.150 C 164.477 158.838,166.207 158.436,166.836 158.256 C 167.466 158.077,168.238 157.930,168.552 157.930 C 168.866 157.930,169.542 157.782,170.054 157.601 C 170.567 157.421,172.529 156.917,174.413 156.484 C 176.298 156.050,180.698 155.037,184.192 154.233 C 187.685 153.429,190.823 152.627,191.166 152.451 C 191.508 152.274,192.700 151.960,193.813 151.751 C 194.927 151.543,197.002 151.132,198.425 150.837 C 199.848 150.543,202.278 150.045,203.825 149.731 C 205.371 149.417,207.598 148.917,208.774 148.620 C 209.949 148.323,211.873 147.859,213.048 147.590 C 214.224 147.321,215.356 147.052,215.565 146.993 C 215.975 146.877,216.680 145.572,223.618 132.096 C 226.482 126.532,228.095 123.168,227.961 123.034 C 227.827 122.900,227.086 122.947,225.966 123.161 C 224.986 123.348,222.717 123.760,220.922 124.077 C 219.128 124.394,216.496 124.859,215.073 125.110 C 213.650 125.362,211.423 125.760,210.124 125.995 C 208.825 126.230,206.344 126.674,204.612 126.980 C 202.880 127.287,199.184 127.945,196.400 128.443 C 193.616 128.941,189.567 129.658,187.402 130.035 C 185.236 130.413,183.040 130.820,182.521 130.940 C 182.003 131.060,180.932 131.159,180.143 131.159 C 179.354 131.159,178.226 131.323,177.638 131.523 C 176.957 131.755,176.226 131.840,175.629 131.757 C 174.887 131.653,174.080 131.831,171.766 132.607 C 170.157 133.147,167.981 133.713,166.929 133.865 C 165.877 134.017,164.713 134.261,164.342 134.407 C 163.547 134.720,162.751 134.889,156.355 136.101 C 155.799 136.206,154.331 136.544,153.093 136.851 C 151.856 137.158,149.983 137.472,148.931 137.548 C 147.880 137.625,146.260 137.794,145.332 137.923 C 144.404 138.053,143.290 138.194,142.857 138.236 C 142.424 138.278,141.614 138.473,141.057 138.669 C 140.501 138.866,139.589 139.031,139.033 139.037 C 138.476 139.043,137.463 139.243,136.783 139.483 C 136.102 139.722,135.242 139.922,134.871 139.928 C 134.499 139.933,133.690 140.103,133.071 140.305 C 132.452 140.507,130.883 140.747,129.584 140.839 C 128.285 140.930,126.817 141.113,126.322 141.247 C 125.827 141.380,123.498 141.605,121.147 141.746 C 118.796 141.887,116.468 142.133,115.973 142.292 C 115.478 142.452,114.309 142.642,113.375 142.713 C 112.441 142.785,111.024 143.036,110.225 143.271 C 107.325 144.126,104.548 144.704,101.969 144.991 C 100.322 145.174,100.158 145.420,106.524 138.137 C 109.679 134.527,112.261 131.428,112.261 131.249 C 112.261 131.054,110.796 130.207,108.564 129.114 C 106.530 128.118,104.747 127.159,104.600 126.982 C 103.709 125.909,102.893 126.054,99.087 127.959 C 97.114 128.946,93.577 130.537,91.226 131.494 C 78.596 136.637,79.847 136.400,80.877 133.452 C 81.187 132.566,81.440 131.697,81.440 131.520 C 81.440 130.991,88.649 106.767,88.874 106.539 C 89.231 106.178,90.105 108.146,91.219 111.816 C 91.502 112.747,92.001 113.904,92.329 114.387 C 92.657 114.870,92.989 115.526,93.069 115.844 C 93.148 116.162,93.405 116.684,93.640 117.004 C 93.875 117.323,94.147 118.175,94.245 118.897 C 94.403 120.064,94.537 120.318,95.455 121.185 C 97.534 123.149,98.429 122.361,102.155 115.284 C 102.933 113.807,104.038 111.890,104.611 111.024 C 106.137 108.718,107.392 106.326,108.337 103.923 C 108.796 102.755,109.411 101.322,109.704 100.739 C 109.997 100.155,110.236 99.518,110.236 99.324 C 110.236 99.129,110.586 97.936,111.012 96.673 C 113.158 90.324,112.746 89.888,102.362 87.510 C 101.219 87.248,97.055 86.205,95.613 85.819 C 93.172 85.165,88.724 84.154,87.289 83.927 C 86.485 83.800,84.409 83.478,82.677 83.212 C 78.777 82.612,78.426 82.493,78.582 81.829 C 78.647 81.553,79.371 79.556,80.192 77.390 C 81.012 75.225,81.979 72.662,82.339 71.695 C 82.699 70.728,83.297 69.591,83.668 69.169 C 84.039 68.747,84.408 68.019,84.488 67.553 C 84.715 66.226,85.183 64.591,85.812 62.926 C 86.129 62.085,86.389 61.239,86.389 61.046 C 86.389 60.852,86.683 60.072,87.042 59.312 C 88.269 56.714,89.089 54.621,89.089 54.090 C 89.089 53.798,89.250 53.220,89.447 52.807 L 89.806 52.055 96.928 52.148 C 100.845 52.199,104.118 52.306,104.202 52.386 C 104.687 52.847,104.619 53.713,104.057 54.237 C 103.484 54.771,101.805 57.089,100.881 58.624 C 100.623 59.052,100.124 59.703,99.773 60.070 C 98.832 61.052,99.248 61.144,100.960 60.334 C 101.793 59.940,102.981 59.510,103.600 59.380 C 104.218 59.249,106.091 58.682,107.762 58.118 C 109.432 57.555,112.216 56.713,113.948 56.248 C 115.681 55.783,117.958 55.132,119.010 54.803 C 123.246 53.476,123.917 53.289,125.647 52.955 C 126.637 52.764,129.269 52.166,131.496 51.627 C 137.222 50.240,138.985 49.820,144.207 48.594 C 146.744 47.998,153.006 46.518,158.124 45.305 L 167.429 43.099 168.135 43.896 C 168.524 44.335,169.753 45.939,170.866 47.462 C 171.980 48.984,173.422 50.762,174.072 51.412 C 174.722 52.062,175.253 52.669,175.253 52.761 C 175.253 52.852,175.607 53.420,176.040 54.023 C 176.947 55.285,176.963 55.373,176.437 56.195 C 175.942 56.968,175.468 57.352,174.993 57.361 C 174.787 57.365,174.079 57.800,173.418 58.328 C 171.653 59.737,170.595 60.411,168.914 61.194 C 168.088 61.579,167.291 62.040,167.143 62.218 C 166.995 62.396,166.747 62.542,166.592 62.542 C 166.436 62.542,166.170 62.710,166.001 62.914 C 165.831 63.119,164.514 63.861,163.075 64.563 C 161.635 65.266,159.611 66.397,158.575 67.077 C 157.540 67.757,155.956 68.762,155.056 69.309 C 151.549 71.441,147.437 74.109,146.782 74.678 C 146.404 75.006,145.696 75.514,145.207 75.806 C 144.719 76.099,144.117 76.515,143.870 76.731 C 143.622 76.947,142.306 77.759,140.945 78.536 C 137.091 80.736,136.110 81.698,136.538 82.856 L 136.713 83.328 157.952 83.270 C 182.270 83.204,180.461 83.365,181.640 81.162 C 182.121 80.263,182.748 79.274,183.033 78.965 C 183.319 78.656,183.815 77.846,184.136 77.165 C 184.913 75.518,185.562 74.482,186.445 73.480 C 186.848 73.024,187.177 72.545,187.177 72.417 C 187.177 72.289,187.459 71.761,187.805 71.244 C 188.537 70.148,190.101 66.828,190.101 66.370 C 190.101 65.825,195.060 57.843,195.574 57.560 C 195.950 57.353,198.202 57.033,206.524 56.006 C 231.805 52.885,284.092 46.309,284.421 46.209 C 285.097 46.003,284.914 45.819,280.871 42.630 C 278.702 40.920,276.963 39.414,277.007 39.283 C 277.103 38.994,277.796 38.845,281.808 38.251 C 283.523 37.997,286.547 37.535,288.526 37.225 C 290.506 36.916,293.189 36.505,294.488 36.313 C 295.787 36.121,298.622 35.680,300.787 35.333 C 302.953 34.986,304.835 34.690,304.970 34.674 C 305.105 34.658,306.016 34.740,306.995 34.856 M347.807 71.162 C 347.807 71.200,348.136 71.529,348.538 71.893 L 349.269 72.553 348.608 71.822 C 347.992 71.141,347.807 70.988,347.807 71.162 M63.918 129.978 C 63.904 130.132,63.700 130.259,63.466 130.259 C 62.906 130.259,62.717 130.802,63.034 131.499 C 63.328 132.143,63.709 132.210,64.213 131.705 C 64.597 131.322,64.696 130.484,64.358 130.484 C 64.244 130.484,64.104 130.307,64.047 130.090 C 63.991 129.873,63.932 129.823,63.918 129.978 M332.962 141.951 C 332.684 142.470,332.993 142.570,333.392 142.090 C 333.562 141.885,333.575 141.723,333.431 141.634 C 333.307 141.557,333.096 141.700,332.962 141.951 " stroke="none" fill="#547b2b" fill-rule="evenodd"></path><path id="path2" d="M310.686 14.848 C 310.377 14.947,309.558 15.038,308.868 15.051 C 308.177 15.063,307.557 15.128,307.489 15.195 C 307.422 15.263,306.481 15.366,305.398 15.425 C 304.315 15.484,303.316 15.605,303.177 15.693 C 303.038 15.781,301.305 16.029,299.325 16.244 C 297.345 16.459,294.966 16.745,294.038 16.879 C 293.110 17.013,292.053 17.124,291.688 17.124 C 291.324 17.125,290.945 17.175,290.847 17.236 C 290.748 17.297,289.976 17.383,289.131 17.428 C 288.286 17.472,287.197 17.612,286.711 17.738 C 286.225 17.864,284.966 18.030,283.915 18.108 C 282.863 18.186,281.294 18.353,280.427 18.479 C 276.969 18.984,275.854 19.118,274.128 19.236 C 273.138 19.304,272.075 19.449,271.766 19.560 C 271.230 19.751,270.077 19.891,266.817 20.161 C 266.012 20.227,264.747 20.375,264.004 20.488 C 263.262 20.601,261.136 20.848,259.280 21.036 C 257.424 21.224,255.551 21.477,255.118 21.598 C 254.254 21.838,253.020 21.984,250.281 22.167 C 249.291 22.234,248.228 22.377,247.919 22.487 C 247.380 22.677,246.062 22.824,242.632 23.078 C 241.766 23.142,240.855 23.281,240.607 23.388 C 240.360 23.494,238.133 23.789,235.658 24.043 C 229.218 24.705,224.238 25.311,223.847 25.482 C 223.661 25.563,223.155 25.659,222.722 25.694 C 221.795 25.771,221.387 27.069,222.193 27.378 C 222.413 27.462,223.230 27.968,224.009 28.501 C 224.789 29.035,225.471 29.471,225.527 29.471 C 225.582 29.471,225.998 29.723,226.451 30.031 C 226.904 30.338,227.389 30.524,227.529 30.444 C 227.669 30.364,227.708 30.383,227.616 30.485 C 227.467 30.649,228.452 31.333,230.363 32.396 C 230.697 32.582,231.266 32.958,231.627 33.232 L 232.283 33.732 231.496 33.755 C 231.063 33.767,229.899 33.874,228.909 33.992 C 224.672 34.498,223.388 34.626,221.276 34.759 C 220.047 34.835,218.883 34.979,218.688 35.079 C 218.494 35.178,217.373 35.326,216.198 35.408 C 215.022 35.489,213.605 35.597,213.048 35.646 C 212.492 35.695,211.249 35.803,210.288 35.885 L 208.540 36.035 205.600 33.202 C 203.880 31.546,202.551 30.432,202.398 30.519 C 202.255 30.601,202.213 30.584,202.306 30.482 C 202.533 30.232,201.802 29.444,201.510 29.624 C 201.384 29.702,201.342 29.666,201.417 29.545 C 201.597 29.253,198.794 26.483,198.545 26.709 C 198.440 26.805,198.415 26.775,198.491 26.642 C 198.668 26.331,195.877 23.552,195.621 23.784 C 195.515 23.881,195.490 23.851,195.566 23.718 C 195.641 23.586,194.855 22.634,193.819 21.603 L 191.936 19.730 190.575 19.872 C 189.826 19.950,188.661 20.209,187.985 20.446 C 187.309 20.683,186.330 20.950,185.808 21.038 C 185.287 21.126,184.496 21.357,184.050 21.552 C 183.604 21.747,183.144 21.881,183.028 21.850 C 182.911 21.819,182.152 21.999,181.340 22.249 C 179.734 22.745,178.282 23.137,175.092 23.936 C 173.951 24.221,172.879 24.570,172.709 24.711 C 172.539 24.852,172.339 24.907,172.265 24.834 C 172.191 24.760,171.492 24.901,170.711 25.147 C 169.930 25.394,168.735 25.724,168.054 25.881 C 167.373 26.039,166.513 26.292,166.142 26.445 C 165.771 26.597,165.022 26.795,164.477 26.884 C 163.933 26.974,163.123 27.207,162.678 27.401 C 162.232 27.596,161.772 27.730,161.655 27.699 C 161.539 27.668,160.780 27.848,159.968 28.099 C 159.157 28.349,157.885 28.715,157.143 28.911 C 154.262 29.673,152.563 30.131,150.506 30.698 C 141.525 33.176,141.066 33.269,141.782 32.454 C 142.421 31.727,143.535 29.549,143.364 29.360 C 143.271 29.258,143.318 29.245,143.469 29.332 C 143.643 29.432,143.871 29.218,144.092 28.749 C 144.500 27.880,145.167 26.707,145.343 26.547 C 145.410 26.485,145.763 25.928,146.127 25.309 C 146.491 24.691,146.891 24.013,147.016 23.802 C 149.597 19.474,149.974 18.731,149.959 17.998 L 149.944 17.210 148.819 17.173 C 147.840 17.140,145.687 17.527,144.657 17.921 C 144.471 17.992,143.915 18.090,143.420 18.139 C 142.925 18.188,142.167 18.344,141.736 18.485 C 141.305 18.627,140.091 18.921,139.037 19.139 C 137.983 19.357,136.715 19.649,136.220 19.787 C 135.726 19.926,135.067 20.069,134.758 20.107 C 133.848 20.217,129.567 21.171,128.346 21.535 C 127.728 21.720,127.019 21.896,126.772 21.926 C 125.093 22.130,123.773 22.424,122.385 22.902 C 122.199 22.966,121.912 22.996,121.746 22.968 C 121.580 22.941,120.922 23.074,120.283 23.264 C 119.645 23.453,118.161 23.804,116.985 24.043 C 115.810 24.281,113.937 24.691,112.823 24.954 C 111.710 25.217,110.546 25.488,110.236 25.557 C 109.927 25.627,109.522 25.737,109.336 25.804 C 109.151 25.870,108.594 25.962,108.099 26.009 C 107.604 26.056,106.997 26.192,106.749 26.311 C 106.502 26.429,105.489 26.686,104.499 26.881 C 100.065 27.757,97.887 28.246,97.731 28.403 C 97.639 28.496,97.225 28.571,96.813 28.571 C 96.400 28.571,96.063 28.679,96.063 28.810 C 96.063 28.941,95.973 28.992,95.863 28.924 C 95.753 28.856,95.221 28.896,94.682 29.012 C 93.543 29.257,90.735 29.881,87.064 30.703 C 85.641 31.022,83.616 31.474,82.565 31.709 C 81.513 31.943,80.247 32.246,79.753 32.383 C 79.258 32.520,78.453 32.678,77.964 32.735 C 76.842 32.867,76.452 33.260,76.120 34.594 C 75.352 37.682,74.949 39.111,74.738 39.507 C 74.608 39.749,74.431 40.703,74.344 41.627 C 74.256 42.551,74.041 43.471,73.866 43.672 C 73.691 43.873,73.496 44.467,73.433 44.992 C 73.369 45.518,73.184 46.366,73.021 46.877 C 72.859 47.388,72.707 48.254,72.684 48.800 C 72.662 49.346,72.409 50.308,72.123 50.937 C 71.325 52.688,70.416 56.011,70.416 57.173 C 70.416 57.595,70.222 58.646,69.985 59.510 C 69.748 60.373,69.488 61.586,69.407 62.205 C 69.326 62.823,69.176 63.532,69.072 63.780 C 68.968 64.027,68.758 64.736,68.605 65.354 C 68.320 66.506,67.600 68.046,67.098 68.576 C 66.943 68.740,66.815 69.297,66.813 69.814 C 66.811 70.331,66.652 71.361,66.460 72.103 C 66.267 72.846,65.927 74.227,65.704 75.172 C 65.481 76.118,65.236 76.993,65.159 77.117 C 65.083 77.241,64.875 77.986,64.698 78.772 C 64.520 79.559,64.013 81.611,63.570 83.333 C 63.128 85.054,62.816 86.513,62.877 86.574 C 62.938 86.635,62.904 86.796,62.802 86.931 C 61.835 88.208,61.408 92.527,62.238 92.645 C 62.504 92.683,62.770 92.899,62.829 93.126 C 62.906 93.420,63.220 93.574,63.921 93.661 C 64.462 93.728,65.816 93.998,66.929 94.261 C 69.719 94.919,70.962 95.160,72.666 95.376 C 74.537 95.613,74.754 95.670,75.027 95.991 C 75.151 96.137,75.506 96.289,75.816 96.328 C 76.486 96.415,76.513 97.329,75.886 98.720 C 75.680 99.177,75.480 99.702,75.442 99.888 C 75.404 100.073,75.281 100.681,75.169 101.237 C 74.876 102.691,74.157 105.104,73.360 107.312 C 72.981 108.363,72.715 109.347,72.771 109.498 C 72.826 109.649,72.780 109.828,72.669 109.897 C 72.558 109.966,72.398 110.500,72.313 111.085 C 72.228 111.670,72.082 112.250,71.988 112.373 C 71.836 112.574,71.522 114.050,71.439 114.965 C 71.421 115.152,71.329 115.432,71.234 115.586 C 71.066 115.859,70.267 118.855,69.632 121.597 C 69.460 122.340,69.161 123.324,68.968 123.784 C 68.774 124.244,68.616 124.863,68.616 125.161 C 68.616 125.458,68.364 126.476,68.055 127.421 C 67.746 128.367,67.515 129.215,67.541 129.306 C 67.566 129.397,67.459 129.702,67.303 129.984 C 67.147 130.266,66.987 130.851,66.948 131.285 C 66.909 131.718,66.813 132.137,66.735 132.216 C 66.656 132.294,66.592 132.541,66.592 132.763 C 66.592 132.986,66.447 133.601,66.271 134.132 C 66.095 134.662,65.893 135.602,65.823 136.220 C 65.753 136.839,65.598 137.700,65.478 138.133 C 65.359 138.566,65.099 139.578,64.900 140.382 C 64.702 141.187,64.394 142.277,64.217 142.805 C 64.040 143.333,63.912 143.839,63.933 143.930 C 63.995 144.196,63.463 146.061,63.115 146.794 C 62.940 147.165,62.692 147.925,62.564 148.481 C 62.148 150.299,61.449 153.051,60.849 155.231 C 60.055 158.113,59.834 159.019,59.878 159.222 C 59.898 159.316,59.862 159.544,59.798 159.730 C 58.024 164.870,57.991 167.117,59.695 166.598 C 59.962 166.516,60.939 166.262,61.867 166.033 C 62.795 165.804,64.415 165.397,65.467 165.130 C 71.504 163.597,75.457 162.678,75.565 162.783 C 75.656 162.870,73.959 168.013,71.413 175.366 C 70.599 177.717,69.781 180.146,69.595 180.765 C 69.044 182.598,68.368 184.561,68.138 184.995 C 68.019 185.218,66.916 188.407,65.686 192.082 C 64.456 195.756,62.450 201.699,61.228 205.287 C 55.776 221.298,55.806 219.455,61.007 219.229 C 62.901 219.147,64.604 219.002,64.790 218.907 C 65.113 218.743,67.117 218.579,72.103 218.312 C 73.341 218.245,74.505 218.128,74.691 218.050 C 75.063 217.894,80.437 217.463,84.814 217.238 C 86.361 217.159,87.880 217.000,88.189 216.886 C 88.748 216.680,90.116 216.570,95.276 216.314 C 96.760 216.240,98.228 216.091,98.538 215.982 C 99.067 215.796,100.703 215.661,105.737 215.387 C 106.912 215.324,108.127 215.183,108.436 215.075 C 108.746 214.968,110.062 214.820,111.361 214.747 C 116.428 214.463,120.718 214.153,121.147 214.039 C 121.395 213.973,123.926 213.725,126.772 213.488 C 129.618 213.251,132.908 212.959,134.083 212.839 C 135.259 212.719,137.435 212.560,138.920 212.485 C 140.405 212.410,141.924 212.257,142.295 212.145 C 142.873 211.970,147.685 211.604,152.456 211.372 C 153.219 211.335,154.484 211.191,155.268 211.053 C 156.052 210.914,158.768 210.646,161.305 210.456 C 163.841 210.267,168.144 209.909,170.866 209.662 C 173.588 209.415,176.688 209.139,177.754 209.050 L 179.693 208.886 184.616 204.121 C 187.323 201.500,191.003 197.884,192.793 196.084 C 196.421 192.435,195.738 192.799,200.450 191.996 C 203.209 191.526,207.034 190.821,208.324 190.546 C 208.881 190.428,209.843 190.276,210.461 190.210 C 211.080 190.144,211.839 189.996,212.148 189.882 C 212.458 189.768,213.875 189.511,215.298 189.311 C 216.721 189.111,218.126 188.849,218.419 188.729 C 218.713 188.609,219.422 188.463,219.994 188.404 C 221.718 188.228,222.577 188.071,223.236 187.812 C 224.103 187.471,224.194 187.674,223.680 188.796 C 223.436 189.328,222.955 190.422,222.613 191.226 C 221.803 193.125,221.004 194.937,220.479 196.063 C 219.749 197.629,217.289 203.199,217.161 203.576 C 217.094 203.774,216.337 205.506,215.480 207.424 C 213.408 212.059,213.398 212.080,212.801 213.457 C 212.019 215.261,213.172 216.096,215.186 215.184 C 215.557 215.016,217.126 214.357,218.673 213.718 C 220.219 213.080,221.789 212.420,222.160 212.251 C 223.907 211.457,227.731 209.892,228.234 209.766 C 228.543 209.689,228.796 209.529,228.796 209.411 C 228.796 209.294,228.887 209.253,228.998 209.322 C 229.110 209.391,229.917 209.093,230.792 208.661 C 231.667 208.228,232.513 207.873,232.671 207.873 C 232.829 207.872,233.262 207.670,233.633 207.424 C 234.004 207.178,234.478 206.976,234.686 206.976 C 234.894 206.975,235.197 206.848,235.361 206.693 C 235.524 206.538,235.764 206.412,235.893 206.412 C 236.098 206.412,238.068 205.600,241.057 204.285 C 241.552 204.067,242.286 203.761,242.688 203.604 C 243.091 203.448,243.420 203.253,243.420 203.171 C 243.420 203.088,243.597 203.012,243.813 203.001 C 244.173 202.983,245.153 202.608,247.582 201.559 C 248.076 201.346,249.595 200.696,250.956 200.115 C 252.317 199.535,253.761 198.918,254.164 198.745 C 254.756 198.491,255.326 198.475,257.118 198.658 C 258.340 198.784,259.630 198.885,259.985 198.884 C 260.340 198.882,262.098 199.029,263.892 199.211 C 265.686 199.392,269.280 199.742,271.879 199.989 C 274.477 200.236,277.463 200.532,278.515 200.646 C 279.567 200.761,281.490 200.921,282.790 201.002 C 284.089 201.083,285.506 201.237,285.939 201.344 C 286.372 201.451,289.156 201.708,292.126 201.914 C 295.096 202.120,297.735 202.388,297.991 202.510 C 298.247 202.632,301.335 202.806,304.853 202.896 C 308.744 202.996,311.425 203.157,311.699 203.307 C 311.946 203.442,312.857 203.627,313.723 203.716 C 314.589 203.806,315.703 204.010,316.198 204.170 C 316.693 204.329,318.262 204.528,319.685 204.611 C 321.108 204.694,322.880 204.894,323.622 205.057 C 324.364 205.219,326.085 205.415,327.447 205.492 C 328.808 205.569,331.520 205.745,333.474 205.883 L 337.028 206.134 337.598 205.598 C 338.267 204.970,340.867 199.892,340.646 199.646 C 340.563 199.554,340.601 199.538,340.731 199.612 C 340.860 199.685,341.316 199.104,341.743 198.320 C 342.413 197.091,344.152 194.009,345.936 190.889 C 346.219 190.394,346.629 189.634,346.847 189.201 C 347.066 188.768,347.302 188.363,347.372 188.301 C 347.510 188.180,349.785 184.086,350.780 182.168 C 351.685 180.425,351.685 180.427,349.823 176.490 C 349.354 175.501,348.088 172.767,347.008 170.416 C 344.079 164.038,343.466 162.775,343.264 162.692 C 343.162 162.650,343.134 162.528,343.201 162.419 C 343.340 162.195,342.005 159.432,341.703 159.317 C 341.594 159.276,341.554 159.161,341.615 159.062 C 341.708 158.913,339.573 154.109,338.773 152.665 C 338.642 152.429,338.259 151.569,337.921 150.753 C 335.954 145.999,333.803 141.971,333.359 142.209 C 332.754 142.532,332.579 142.275,333.050 141.756 C 333.419 141.347,333.410 141.271,332.861 140.187 C 332.543 139.560,332.283 138.887,332.283 138.690 C 332.283 138.493,332.051 137.907,331.766 137.389 C 330.589 135.243,330.006 133.408,330.502 133.408 C 330.743 133.408,331.399 133.165,336.333 131.247 C 340.267 129.718,340.716 129.328,340.932 127.254 C 340.972 126.865,341.062 126.395,341.131 126.209 C 341.653 124.805,341.959 123.613,341.862 123.360 C 341.798 123.195,341.833 123.060,341.938 123.060 C 342.044 123.060,342.186 122.832,342.254 122.553 C 342.400 121.956,343.379 118.210,343.974 115.973 C 344.204 115.107,344.505 114.026,344.643 113.572 C 344.781 113.117,344.875 112.662,344.851 112.560 C 344.828 112.457,344.935 112.070,345.090 111.699 C 345.244 111.327,345.607 110.112,345.897 108.999 C 346.798 105.538,347.129 104.314,347.477 103.148 C 347.663 102.528,347.860 101.718,347.916 101.348 C 347.972 100.978,348.224 100.077,348.475 99.346 C 348.726 98.616,348.936 97.856,348.941 97.659 C 348.947 97.462,349.101 96.895,349.283 96.400 C 349.466 95.906,349.760 94.893,349.937 94.151 C 350.332 92.497,351.001 89.985,351.646 87.739 C 352.133 86.042,352.905 83.155,353.541 80.652 C 353.730 79.910,353.985 78.992,354.107 78.612 C 354.451 77.549,354.386 77.244,353.634 76.387 C 352.819 75.459,350.996 73.972,351.279 74.466 C 351.439 74.746,351.419 74.754,351.158 74.511 C 350.985 74.350,350.844 74.097,350.844 73.948 C 350.844 73.800,350.633 73.586,350.375 73.472 C 350.117 73.359,349.809 73.055,349.692 72.797 C 349.574 72.539,349.369 72.349,349.236 72.374 C 348.935 72.431,347.735 71.201,347.841 70.943 C 347.884 70.839,347.708 70.661,347.450 70.548 C 347.192 70.434,346.889 70.142,346.775 69.898 C 346.662 69.654,346.510 69.494,346.438 69.542 C 346.366 69.590,345.132 68.478,343.696 67.072 L 341.085 64.516 341.583 63.698 C 341.858 63.248,342.250 62.576,342.455 62.205 C 342.831 61.524,344.933 57.797,346.045 55.839 C 346.376 55.257,346.838 54.426,347.072 53.993 C 347.306 53.560,347.937 52.447,348.474 51.519 C 349.011 50.591,349.690 49.376,349.983 48.819 C 350.277 48.262,350.809 47.302,351.167 46.685 C 351.525 46.069,351.760 45.471,351.690 45.357 C 351.619 45.243,351.664 45.213,351.788 45.290 C 352.491 45.724,352.686 42.290,352.080 40.157 C 351.875 39.435,351.703 37.628,351.515 34.196 C 351.451 33.020,351.305 31.805,351.192 31.496 C 351.079 31.187,350.866 29.213,350.719 27.109 C 350.572 25.006,350.388 23.183,350.310 23.060 C 350.232 22.936,350.063 21.452,349.933 19.763 C 349.633 15.856,349.791 16.028,346.440 15.988 C 344.955 15.970,343.516 15.871,343.242 15.767 C 342.968 15.664,340.163 15.516,337.008 15.439 C 322.961 15.094,320.877 15.019,320.135 14.828 C 319.174 14.581,311.469 14.597,310.686 14.848 M311.522 21.375 C 314.889 21.722,320.712 22.251,325.126 22.611 C 327.315 22.789,330.200 23.040,331.538 23.168 C 332.876 23.297,335.186 23.507,336.670 23.635 C 338.155 23.764,340.281 23.963,341.395 24.079 C 342.508 24.195,343.599 24.291,343.819 24.293 C 344.425 24.299,344.583 24.991,344.980 29.374 C 345.181 31.593,345.545 35.408,345.789 37.851 C 346.032 40.295,346.232 42.817,346.232 43.457 C 346.232 44.741,346.297 44.608,338.025 60.292 C 333.714 68.468,332.958 69.922,332.958 70.048 C 332.958 70.118,333.788 71.217,334.801 72.490 C 336.521 74.649,337.627 76.040,342.186 81.777 C 346.917 87.731,346.530 86.747,345.554 90.326 C 344.914 92.676,344.115 95.631,342.969 99.888 C 342.686 100.939,341.779 104.331,340.954 107.424 C 340.129 110.517,339.218 113.909,338.930 114.961 C 338.642 116.012,337.922 118.675,337.330 120.877 C 336.739 123.079,336.143 125.033,336.006 125.220 C 335.738 125.588,334.847 125.832,322.180 129.022 C 317.551 130.187,313.657 131.248,313.526 131.378 C 313.359 131.546,313.403 132.301,313.676 133.918 C 313.889 135.185,314.063 136.755,314.062 137.409 C 314.061 138.062,314.216 138.968,314.405 139.420 C 314.594 139.873,314.811 140.983,314.888 141.888 C 315.017 143.416,315.360 144.181,315.794 143.909 C 316.103 143.715,319.010 137.782,319.010 137.346 C 319.010 137.180,319.152 136.758,319.324 136.407 C 319.497 136.057,319.972 135.037,320.380 134.139 C 321.161 132.422,321.505 132.184,322.003 133.015 C 323.479 135.478,323.932 136.374,324.192 137.345 C 324.358 137.964,324.766 139.027,325.099 139.708 C 325.432 140.388,325.967 141.505,326.288 142.191 C 326.609 142.876,327.210 143.838,327.624 144.328 C 328.329 145.163,329.373 147.107,334.869 157.818 C 336.075 160.169,337.494 162.902,338.022 163.892 C 341.253 169.949,347.132 181.608,347.132 181.958 C 347.132 182.186,346.311 183.884,345.307 185.731 C 343.500 189.057,343.149 189.708,340.098 195.388 C 337.916 199.449,337.492 200.170,336.490 201.512 L 335.613 202.687 332.767 202.588 C 330.202 202.499,328.043 202.220,324.747 201.553 C 324.128 201.428,321.864 201.229,319.716 201.111 C 317.568 200.992,315.740 200.852,315.653 200.798 C 315.566 200.744,313.730 200.542,311.572 200.349 C 307.991 200.028,306.975 199.922,304.939 199.657 C 304.562 199.607,303.094 199.462,301.677 199.333 C 300.260 199.205,297.733 198.950,296.063 198.766 C 290.588 198.166,286.334 197.726,282.790 197.394 C 280.872 197.214,278.442 196.970,277.390 196.851 C 276.339 196.733,273.454 196.428,270.979 196.174 C 263.966 195.455,263.985 195.463,265.600 193.914 C 267.719 191.880,273.615 185.576,273.503 185.464 C 273.374 185.335,272.154 185.860,265.354 188.974 C 263.251 189.937,258.290 192.195,254.331 193.993 C 240.330 200.349,238.134 201.375,237.686 201.773 C 236.985 202.394,233.726 204.208,232.846 204.466 C 231.500 204.861,230.322 205.330,228.578 206.167 C 227.653 206.611,226.730 206.974,226.527 206.974 C 226.324 206.974,225.887 207.187,225.557 207.446 C 224.825 208.022,222.816 208.581,222.112 208.404 C 221.425 208.232,221.432 207.361,222.128 206.311 C 223.110 204.830,223.589 203.951,225.502 200.112 C 230.279 190.525,235.100 180.342,234.937 180.179 C 234.839 180.080,233.847 180.189,232.733 180.420 C 231.620 180.651,227.975 181.360,224.634 181.997 C 221.294 182.633,217.598 183.348,216.423 183.584 C 215.247 183.821,211.400 184.571,207.874 185.251 C 195.918 187.555,188.647 188.965,186.076 189.477 L 183.514 189.989 181.515 192.463 C 180.416 193.825,178.633 196.033,177.554 197.371 C 176.474 198.710,175.258 200.177,174.851 200.633 C 174.445 201.089,173.915 201.834,173.674 202.289 C 173.123 203.331,171.826 203.751,168.210 204.059 C 166.825 204.176,165.337 204.422,164.904 204.603 C 164.410 204.811,162.654 205.018,160.180 205.160 C 158.015 205.284,155.737 205.484,155.118 205.604 C 154.499 205.724,153.386 205.829,152.643 205.836 C 151.895 205.843,150.793 206.040,150.169 206.277 C 149.439 206.554,148.134 206.756,146.457 206.853 C 145.034 206.934,143.060 207.143,142.070 207.318 C 141.080 207.492,138.536 207.743,136.416 207.875 C 134.296 208.007,132.221 208.213,131.805 208.332 C 131.389 208.451,130.574 208.549,129.992 208.549 C 129.411 208.549,128.881 208.637,128.814 208.745 C 128.748 208.852,127.502 208.943,126.045 208.947 C 124.554 208.950,123.102 209.069,122.722 209.219 C 121.738 209.607,118.435 210.115,116.871 210.120 C 116.128 210.122,115.166 210.229,114.734 210.357 C 114.302 210.485,112.328 210.684,110.349 210.799 C 108.369 210.914,106.395 211.112,105.963 211.241 C 105.531 211.369,104.667 211.474,104.044 211.474 C 102.952 211.474,101.023 211.679,90.326 212.932 C 84.066 213.665,76.526 214.543,72.891 214.961 C 71.344 215.139,68.359 215.486,66.257 215.733 C 61.516 216.289,61.738 216.510,63.051 212.538 C 63.632 210.777,64.212 208.855,64.339 208.268 C 64.574 207.174,65.461 204.697,66.051 203.483 C 66.489 202.583,67.746 198.917,78.126 168.279 C 83.377 152.779,83.447 152.578,84.305 150.685 C 85.187 148.741,84.212 148.026,82.384 149.275 C 81.597 149.812,78.420 150.956,77.715 150.956 C 77.534 150.956,76.238 151.513,74.833 152.193 C 73.428 152.874,71.986 153.433,71.629 153.436 C 70.455 153.446,69.251 153.835,68.648 154.400 C 67.971 155.034,66.330 155.906,65.813 155.906 C 65.216 155.906,65.538 153.837,66.269 152.981 C 66.606 152.586,67.106 151.249,67.743 149.044 C 68.501 146.417,69.112 144.608,69.678 143.307 C 70.034 142.489,70.325 141.142,70.537 139.334 C 70.851 136.655,71.667 133.010,72.332 131.323 C 72.516 130.856,72.666 129.866,72.666 129.122 C 72.666 128.378,72.819 127.404,73.005 126.958 C 73.192 126.511,73.406 125.578,73.482 124.884 C 73.558 124.190,74.077 121.850,74.637 119.685 C 75.196 117.520,75.824 114.989,76.031 114.061 C 76.238 113.133,76.566 112.070,76.759 111.699 C 76.952 111.327,77.340 110.264,77.621 109.336 C 77.902 108.408,78.260 107.345,78.417 106.974 C 78.905 105.819,79.823 102.758,80.070 101.462 C 80.200 100.782,80.467 99.370,80.664 98.325 C 80.861 97.279,81.116 96.248,81.231 96.033 C 81.815 94.942,81.533 94.554,79.696 93.926 C 77.606 93.211,73.711 92.264,72.798 92.249 C 72.193 92.239,71.234 92.005,68.616 91.227 C 68.060 91.061,67.322 90.864,66.977 90.789 C 65.862 90.544,65.587 88.824,66.383 87.070 C 66.634 86.517,67.599 83.379,68.527 80.096 C 71.194 70.663,71.812 68.550,72.117 67.829 C 72.623 66.631,73.341 64.123,73.341 63.552 C 73.341 63.247,73.543 62.464,73.791 61.813 C 74.038 61.163,74.241 60.400,74.241 60.118 C 74.241 59.837,74.445 59.027,74.694 58.318 C 74.944 57.610,75.253 56.376,75.381 55.577 C 75.509 54.778,75.754 53.816,75.926 53.440 C 76.697 51.746,76.996 50.846,77.292 49.323 C 77.466 48.424,77.801 47.311,78.037 46.848 C 78.272 46.385,78.724 45.197,79.040 44.207 C 79.355 43.217,79.924 41.517,80.302 40.428 C 80.680 39.339,80.990 38.263,80.990 38.037 C 80.990 37.141,80.989 37.141,90.776 35.087 C 91.890 34.854,93.965 34.414,95.388 34.110 C 96.811 33.806,100.152 33.098,102.812 32.537 C 105.472 31.975,108.560 31.316,109.674 31.071 C 110.787 30.827,112.255 30.511,112.936 30.369 C 114.727 29.996,126.630 27.468,134.052 25.884 C 141.005 24.400,141.282 24.361,141.282 24.862 C 141.282 25.049,139.916 28.008,138.245 31.437 C 136.575 34.867,135.208 37.802,135.208 37.959 C 135.208 38.379,135.237 38.374,141.371 36.755 C 144.478 35.935,148.487 34.881,150.281 34.412 C 152.075 33.943,154.303 33.355,155.231 33.105 C 157.075 32.609,177.277 27.281,180.540 26.430 C 181.654 26.140,183.577 25.622,184.814 25.279 C 188.979 24.125,187.096 22.964,199.647 34.421 C 206.574 40.744,206.873 40.981,207.729 40.838 C 208.118 40.773,210.208 40.567,212.373 40.381 C 214.539 40.195,217.525 39.938,219.010 39.811 C 220.495 39.683,222.773 39.481,224.072 39.361 C 228.254 38.975,234.010 38.467,236.783 38.239 C 243.121 37.718,246.807 37.271,246.728 37.034 C 246.683 36.901,244.023 35.407,240.815 33.716 C 233.362 29.786,233.412 29.931,239.276 29.246 C 241.493 28.986,244.978 28.579,247.019 28.341 C 249.061 28.103,252.402 27.710,254.443 27.467 C 259.038 26.923,264.831 26.242,269.854 25.657 C 274.206 25.149,281.167 24.327,288.076 23.504 C 290.675 23.194,294.573 22.730,296.738 22.473 C 298.903 22.216,302.193 21.824,304.049 21.603 C 308.200 21.107,308.764 21.090,311.522 21.375 M69.028 39.926 C 68.835 40.351,68.842 40.563,69.061 40.826 C 69.783 41.696,71.172 40.812,70.641 39.820 C 70.292 39.168,69.345 39.231,69.028 39.926 M63.037 129.854 C 62.889 130.002,62.775 130.281,62.785 130.472 C 62.797 130.704,62.841 130.727,62.916 130.540 C 62.979 130.385,63.215 130.259,63.442 130.259 C 63.669 130.259,63.906 130.132,63.968 129.978 C 64.036 129.810,64.089 129.855,64.099 130.090 C 64.120 130.553,64.567 130.630,64.567 130.170 C 64.567 129.612,63.499 129.391,63.037 129.854 M62.782 131.548 C 62.772 131.902,62.933 132.091,63.329 132.191 C 64.049 132.372,64.567 132.171,64.567 131.712 C 64.567 131.384,64.535 131.384,64.213 131.705 C 63.721 132.197,63.328 132.146,63.042 131.552 L 62.798 131.046 62.782 131.548 " stroke="none" fill="#2c8404" fill-rule="evenodd"></path></g></svg>