<?xml version="1.0" encoding="UTF-8"?>
<svg width="400" height="161.14" version="1.1" viewBox="0, 0, 400,161.14285714285717" xmlns="http://www.w3.org/2000/svg" xmlns:cc="http://creativecommons.org/ns#" xmlns:dc="http://purl.org/dc/elements/1.1/" xmlns:rdf="http://www.w3.org/1999/02/22-rdf-syntax-ns#">
<path d="m295.11 28.308 10.033-15.655-48.878 21.781 9.3271-16.484-50.966 22.217 6.0074-15.074-37.073 17.295 5.7044-11.935-35.55 14.243 4.649-9.908-42.606 16.309 3.73-10.611-30.815 13.347-0.771-6.808-36.312 19.308-15.722 0.06434-35.883 13.533 0.051181 3.473 37.976 14.838 14.798-0.64556 35.813 17.803-1.7439-7.8037 30.291 14.143-1.835-9.906 42.89 18.719-5.2237-10.802 32.648 13.821-4.0145-12.604l38.469 14.456-5.272-13.222 49.266 20.997-8.4402-15.365 45.536 21.375-6.034-14.147 47.432 25.738-26.879-39.51 40.632-1.065 43.657-38.527-44.825-37.424-40.586-1.176 29.524-42.172" fill="#040404" fill-rule="evenodd"/>
<path d="m289.98 33.499 12.849-18.632-51.727 24.298 12.632-19.403-53.75 25.091 7.975-17.145-40.007 18.307 9.242-13.717-37.233 16.607 6.383-11.971-44.077 17.75 5.196-12.151l-31.795 14.603 1.995-7.636-35.642 19.167-16.108-3e-3 -30.645 11.336 0.077195 3.3204 32.925 12.513h14.931l33.507 16.959-1.879-7.459 30.347 14.235-4.526-12.588 44.479 20.653-8.6-13.266 37.532 16.966-5.786-15.541 39.459 17.712c-0.83659-0.27047 0 0-5.165-14.254l49.236 22.217-9.041-16.732 46.243 22.426-7.531-18.161 50.166 30.833-29.646-39.98 43.024-1.186 41.93-37.293-43.037-35.544-43.976-0.75454 31.301-41.575" fill="#043c1c" fill-rule="evenodd"/>
<path d="m262.33 60.497 17.499-25.593-53.56 26.729 12.729-20.925-49.19 23.879 10.537-18.809-51.321 23.165 11.953-15.258-43.148 17.777c2.8962-3.6648 0 0 10.242-14.295-57.038 26.77 0 0-36.16 16.931 1.1337-4.5094 5.571-8.701 6.904-13.198l-29.351 13.699c2.3723-9.4461 0.64449-2.0053 2.3315-8.066l-18.457 8.884-14.35 0.416-16.436 6.4236 15.729 6.5904 14.766-0.08683 18.748 9.2068-1.3625-7.7338 27.632 13.6-5.549-13.107 36.861 15.865-8.379-11.85 39.66 18.259-8.79-16.011 46.945 20.653-7.578-15.799 48.727 22.254-13.633-18.808 52.431 25.311-14.415-24.244 48.645 29.155c-17.952-24.55 0 0-17.952-24.55l30.271-0.211 30.865-24.911c-295.37-0.448 0 0-295.37-0.448v-7.449l295.7-0.275-31.65-23.741-29.555-0.033 18.596-25.125" fill="#a34c04" fill-rule="evenodd"/>
</svg>

