<?xml version="1.0" encoding="UTF-8"?>
<svg id="Calque_3" data-name="Calque 3" xmlns="http://www.w3.org/2000/svg" viewBox="0 0 585.65 434.9">
  <path fill="#FFFFFF" d="m155.22,434.9c-.37-.12-.72-.27-1.1-.36-3.06-.76-4.47-2.38-4.58-5.5-.08-2.17-.08-4.35,0-6.52.13-3.58,2.28-5.55,6.22-5.83.22-.02.44-.01.65-.01,15.46-.03,30.93-.06,46.39-.09.52,0,1.04,0,1.67,0v4.59c-2.99.23-5.98-.05-9.13.17,0,.51,0,.97,0,1.44,0,3.39,0,6.78,0,10.17,0,.65-.08,1.3-.12,1.95h-6.01v-13.63c-.69,0-1.2,0-1.72,0-9.5-.02-18.99-.04-28.49-.06-.52,0-1.05-.02-1.57,0-1.54.07-1.94.62-1.54,2.28h18.81v4.53c-6.36.02-12.65.03-18.92.04-.16,1.83.15,2.21,1.77,2.28.48.02.96,0,1.44.01,5.49,0,10.98,0,16.47,0,.5,0,1,.04,1.46.06v4.47h-21.7Z"/>
  <path fill="#FFFFFF" d="m105.8,434.9v-4.37c.39-.05.72-.13,1.05-.13,5.44,0,10.89,0,16.33,0,5.44,0,10.89-.02,16.33-.04.43,0,.87-.06,1.3-.14.55-.1.83-.47.82-1.01,0-.54-.3-.93-.82-1.04-.51-.1-1.04-.11-1.56-.11-4.62,0-9.23,0-13.85-.02-1.17,0-2.36-.05-3.52-.21-3.07-.43-5.17-2.67-5.14-5.47.02-2.25,1.08-3.96,3.13-4.86,1.09-.48,2.34-.79,3.53-.8,7.93-.07,15.85-.04,23.78-.05.13,0,.26.04.5.08v4.39c-.47.02-.97.06-1.48.06-6.88,0-13.76,0-20.65,0-.52,0-1.05,0-1.56.06-.79.1-1.2.52-1.18,1.13.02.6.44.97,1.27,1.04.39.04.78.02,1.18.02,4.83,0,9.67-.03,14.5.02,1.29.02,2.6.21,3.87.49,1.3.29,2.38,1.05,3.15,2.18,2.38,3.53.08,7.34-2.91,8.21-.58.17-1.15.35-1.72.53h-36.34Z"/>
</svg>