<?xml version="1.0" encoding="UTF-8"?>
<svg xmlns="http://www.w3.org/2000/svg" width="593.99" height="430.53" viewBox="0 0 593.99 430.53">
  <defs>
    <style>
      .cls-1 {
        fill: #1d1d1b;
        opacity: 0;
      }

      .cls-2 {
        fill: none;
      }

      .cls-3 {
        fill: #292c2b;
      }
    </style>
  </defs>
  <g id="Calque_4" data-name="Calque 4">
    <rect class="cls-2" width="593.99" height="430.53"/>
    <rect class="cls-2" width="593.99" height="430.53"/>
    <rect class="cls-1" width="593.99" height="430.53"/>
  </g>
  <g id="Calque_1" data-name="Calque 1">
    <path class="cls-3" d="m317.2,154.37c0-4.53-.02-8.82.04-13.1,0-.31.61-.64.98-.92.11-.08.36-.03.55-.04q5.47-.21,5.47,4.51c0,2.66-.06,5.33.03,7.99.04,1.24-.48,1.64-1.85,1.57-1.61-.08-3.23-.02-5.23-.02Z"/>
    <path class="cls-3" d="m311.79,160.03c0,4.58-.02,8.76.01,12.94,0,.93-.45,1.24-1.47,1.21-1.38-.04-2.76-.05-4.13,0-1.16.04-1.52-.41-1.52-1.36.03-3.8.03-7.61,0-11.41,0-.85.3-1.38,1.34-1.38,1.86-.01,3.71,0,5.77,0Z"/>
    <path class="cls-3" d="m274.29,154.37c-2.24,0-4.05.07-5.85-.05-.42-.03-1.12-.69-1.13-1.07-.09-3.96-.09-7.92,0-11.88,0-.35.73-.95,1.17-.99,1.49-.13,3-.14,4.49-.01.47.04,1.25.63,1.26.98.09,4.27.06,8.53.06,13.01Z"/>
    <path class="cls-3" d="m279.72,140.33c2.1,0,3.92-.08,5.71.05.49.04,1.3.71,1.31,1.1.1,3.92.05,7.84.07,11.76,0,.85-.42,1.2-1.36,1.13-.12,0-.25,0-.38,0q-5.35.11-5.35-4.51v-9.53Z"/>
    <path class="cls-3" d="m311.79,140.32c0,4.52.03,8.76-.05,13,0,.35-.65.7-1.02,1.04-.06.06-.24.01-.37.02q-5.66.3-5.66-4.58c0-2.61.05-5.23-.03-7.84-.03-1.17.36-1.71,1.8-1.65,1.68.07,3.36.02,5.33.02Z"/>
    <path class="cls-3" d="m279.72,167.23c0-1.9.06-3.8-.02-5.7-.05-1.09.44-1.38,1.63-1.41,5.47-.12,5.46-.15,5.46,4.57,0,2.66-.04,5.32.03,7.99.03,1.13-.44,1.49-1.74,1.51-5.37.1-5.36.13-5.36-4.52,0-.81,0-1.63,0-2.44Z"/>
    <path class="cls-3" d="m292.63,140.33c1.76,0,3.69-.05,5.61.05.38.02,1.01.62,1.02.97.07,4.03.07,8.06,0,12.09,0,.32-.7.87-1.11.9-1.62.1-3.26.09-4.89,0-.37-.02-1.02-.53-1.02-.82-.02-4.3.05-8.59.1-12.89,0-.04.08-.08.29-.3Z"/>
    <path class="cls-3" d="m299.26,167.03c0,1.9-.04,3.8.02,5.7.03,1-.29,1.43-1.57,1.47-5.49.15-5.49.19-5.49-4.59,0-2.71.04-5.43-.03-8.14-.03-1.07.41-1.42,1.6-1.47,5.49-.25,5.49-.27,5.49,4.43v2.61h-.02Z"/>
    <path class="cls-3" d="m292.21,186.84c0-1.9.04-3.8-.02-5.7-.03-.99.4-1.29,1.54-1.32,5.55-.15,5.55-.18,5.55,4.65,0,2.66-.05,5.32.02,7.98.03,1.06-.39,1.49-1.62,1.44-1.31-.05-2.63-.05-3.94,0-1.13.04-1.56-.35-1.53-1.34.06-1.9.02-3.8.02-5.7h-.02Z"/>
  </g>
</svg>