<?xml version="1.0" encoding="UTF-8"?>
<svg id="Calque_1" data-name="Calque 1" xmlns="http://www.w3.org/2000/svg" viewBox="0 0 535.27 368.54">
  <defs>
    <style>
      .cls-1 {
        fill: #848484;
      }
    </style>
  </defs>
  <path class="cls-1" d="m375.82,57.77c.65,4.96.25,9.82-.87,14.62-1.25,5.46-3.28,10.74-6.62,15.5-2.51,3.57-4.87,7.26-7.86,10.51-3.25,3.55-6.99,6.78-10.77,9.91-9.06,7.49-19.92,12.73-30.13,18.77-14.9,8.79-25.87,20.45-32.83,35.16-2.91,6.16-5.16,12.5-6.18,19.16-.9,5.85-.09,11.62,1.57,17.31,2.51,8.55,6.76,16.41,12.13,23.79,5.9,8.07,12.06,16,18.07,24.02,1.32,1.75,2.51,3.58,3.87,5.56h-97.04c1.09-1.48,2.01-2.72,2.95-3.94,6.36-8.42,12.98-16.69,19.02-25.29,6.11-8.72,10.82-18.08,13.01-28.31,1.64-7.56.79-14.96-1.5-22.27-3.73-11.81-10.77-21.99-19.69-31.26-8.26-8.56-18.19-15.26-28.82-21.28-8.99-5.12-18.08-10.21-25.45-17.25-8.44-8.05-15.01-17.11-17.78-27.99-1.01-3.92-1.75-8.02-1.75-12.03-.02-7.66,1.78-15.05,5.49-22.09,4.47-8.55,11.48-15.08,19.85-20.48,7.66-4.93,16.44-8,25.36-10.67,9.29-2.75,18.82-4.4,28.52-5.33,6.68-.65,13.4-1.04,20.11-1.4,4.57-.23,9.18-.37,13.77-.28,15.91.34,31.72,1.64,47.2,5.16,8.16,1.85,16.12,4.2,23.66,7.61,7.31,3.28,13.33,7.95,18.44,13.69,3.92,4.41,7.13,9.15,9.73,14.22,2.42,4.73,3.81,9.71,4.52,14.89Zm-85.27,169.19c-6.22-4.86-12.13-9.48-18.35-14.36v28.75c6.36-5,12.27-9.62,18.35-14.39Zm-27.58,14.29v-28.55c-6.18,4.87-12.03,9.5-18.05,14.25,6.04,4.79,11.88,9.41,18.05,14.3Z"/>
  <path class="cls-1" d="m272.2,212.61c6.22,4.87,12.13,9.5,18.35,14.36-6.07,4.77-11.99,9.39-18.35,14.39v-28.75Z"/>
  <path class="cls-1" d="m262.97,212.7v28.55c-6.16-4.89-12.01-9.52-18.05-14.3,6.02-4.75,11.87-9.38,18.05-14.25Z"/>
</svg>