<?xml version="1.0" encoding="UTF-8"?>
<svg xmlns="http://www.w3.org/2000/svg" width="593.99" height="430.53" viewBox="0 0 593.99 430.53">
  <defs>
    <style>
      .cls-1 {
        opacity: 0;
      }

      .cls-1, .cls-2 {
        fill: #1d1d1b;
      }

      .cls-3 {
        fill: #fff;
      }

      .cls-4 {
        fill: none;
      }
    </style>
  </defs>
  <g id="Calque_4" data-name="Calque 4">
    <rect class="cls-4" width="593.99" height="430.53"/>
    <rect class="cls-4" width="593.99" height="430.53"/>
    <rect class="cls-1" width="593.99" height="430.53"/>
  </g>
  <g id="Calque_3" data-name="Calque 3">
    <path class="cls-3" d="m212.12,378.22c-18.34,0-36.69,0-55.03,0-.21,0-.43,0-.64,0-1.22,0-1.09.11-1.09-1.02,0-5.29,0-10.58,0-15.88,0-1.16.04-1.02,1.13-1.03,1.15,0,2.3,0,3.46,0,34.39,0,68.77,0,103.16,0,1.52,0,3.04.06,4.5-.45.83-.29,1.6-.65,2.17-1.3.11-.12.25-.23.29-.37.35-1.04.66-2.09.49-3.2-.17-1.06-.71-1.95-1.66-2.55-.87-.55-1.85-.93-2.92-1.01-1.19-.08-2.39-.11-3.58-.11-18.73,0-37.46,0-56.18,0-2.22,0-4.44,0-6.65-.1-2.15-.1-4.29-.36-6.41-.75-2.12-.39-4.22-.82-6.24-1.59-3.62-1.38-6.97-3.17-9.52-5.97-1.92-2.11-3.52-4.49-4.4-7.17-1.04-3.14-1.54-6.31-1.03-9.65.41-2.72,1.31-5.23,2.69-7.6,1.5-2.57,3.58-4.67,6.13-6.43,2.69-1.85,5.65-3.09,8.79-3.96,2.48-.68,5.05-1.09,7.65-1.3,2.94-.25,5.88-.24,8.82-.24,32.38,0,64.76,0,97.14,0,1.41,0,2.82,0,4.22.02.95.02,1.02.08,1.02.97.01,2.67,0,5.33,0,8,0,2.59,0,5.17,0,7.76,0,1.08,0,1.08-1.09,1.08-9.34-.01-18.69-.03-28.03-.03-24.66,0-49.32,0-73.98,0-1.53,0-3.07.02-4.56.37-1.24.29-2.38.76-3.02,1.9-.06.1-.19.17-.25.27-1.27,2.28.48,5.92,3.14,6.37,1.03.18,2.12.09,3.18.09,19.97,0,39.93-.02,59.9.03,3.23,0,6.49.1,9.68.7,3.05.57,6.06,1.3,8.94,2.44,4.02,1.59,7.34,3.98,9.71,7.4,1.79,2.58,2.98,5.43,3.59,8.45.23,1.15.57,2.3.5,3.5-.14,2.54-.74,4.98-1.69,7.37-.62,1.56-1.43,3.01-2.37,4.42-.78,1.17-1.79,2.17-2.81,3.15-1.96,1.88-4.33,3.23-6.85,4.32-1.9.83-3.91,1.41-5.96,1.87-4.11.93-8.3,1.23-12.52,1.24-17.28,0-34.56,0-51.83,0Z"/>
    <path class="cls-2" d="m155.54,307.3v.9s-.03,0-.04,0v-.93s.03.02.04.03Z"/>
    <path class="cls-2" d="m185.24,295.35c.09.07.17.13.26.2-.19.05-.29,0-.26-.2Z"/>
  </g>
</svg>