<?xml version="1.0" encoding="UTF-8"?>
<svg xmlns="http://www.w3.org/2000/svg" width="593.99" height="430.53" viewBox="0 0 593.99 430.53">
  <defs>
    <style>
      .cls-1 {
        opacity: 0;
      }

      .cls-1, .cls-2 {
        fill: #1d1d1b;
      }

      .cls-3 {
        fill: #fff;
      }

      .cls-4 {
        fill: none;
      }
    </style>
  </defs>
  <g id="Calque_4" data-name="Calque 4">
    <rect class="cls-4" width="593.99" height="430.53"/>
    <rect class="cls-4" width="593.99" height="430.53"/>
    <rect class="cls-1" width="593.99" height="430.53"/>
  </g>
  <g id="Calque_3" data-name="Calque 3">
    <path class="cls-3" d="m417.57,354.12s.01.08.01.12c-.04,6.93.39,13.85.23,20.77,0,.24,0,.48-.01.72,0,.34-.22.5-.56.52-.3.02-.6.02-.9.02-7.47,0-14.94,0-22.41,0-.26,0-.51-.01-.77-.02-.32,0-.45-.18-.45-.45,0-.28,0-.56,0-.84,0-6.45,0-12.9.02-19.35,0-1.08-.26-2.1-.75-3.05-.88-1.72-2.59-2.25-4.45-2.47-.38-.04-.77-.01-1.15-.01-18.06,0-36.11,0-54.17,0-.09,0-.17,0-.26,0-1.19.01-1.25-.23-1.25,1.14.01,7.88,0,15.77,0,23.65,0,.24-.01.48,0,.72,0,.4-.22.58-.62.6-.3.01-.6,0-.9,0-7.39,0-14.77,0-22.16,0-1.25,0-1.26.11-1.26-1.15,0-14.65,0-29.3,0-43.96,0-1.87.18-3.75.03-5.61-.39-4.85-.1-9.71-.2-14.56-.03-1.23.02-2.47-.01-3.7-.01-.51.16-.7.73-.69,1.07.03,2.13,0,3.2,0,25.57,0,51.14,0,76.71,0,2.39,0,4.78.05,7.16.32,1.91.22,3.79.63,5.67,1.06,3.19.74,6.26,1.76,8.91,3.54,3.76,2.53,6.6,5.77,8.12,9.96.85,2.36,1.53,4.71,1.5,7.21-.03,2.09-.72,4.06-1.36,6.04-.7,2.18-1.8,4.2-3.22,6.05-.45.58-.3.79.25,1.18,1.91,1.36,2.94,3.27,3.55,5.4.62,2.15.87,4.34.75,6.56-.1.04-.21.09-.31.13.1.04.21.09.31.13Zm-57.08-29.78h0c-9,0-18,0-27.01,0-.64,0-1.28,0-1.92.04-1.06.06-1.08.11-.96,1.05.24,1.98.06,3.97.11,5.96,0,.39-.45.8-.12,1.12.34.32.9.12,1.35.16.17.01.34,0,.51,0,9.09,0,18.17,0,27.26,0,8.66,0,17.32,0,25.98,0,1.39,0,2.75-.04,4.11-.49,2.87-.94,3.96-4.35,2.04-6.54-.93-1.06-2.1-1.3-3.46-1.3-9.3.01-18.6,0-27.9,0Z"/>
    <path class="cls-2" d="m414.33,354.76c-.1-.04-.2-.08-.3-.13.1-.04.2-.08.3-.13,0,.08,0,.17,0,.25Z"/>
  </g>
</svg>