<?xml version="1.0" encoding="UTF-8"?>
<svg id="Calque_1" data-name="Calque 1" xmlns="http://www.w3.org/2000/svg" viewBox="0 0 532.59 434.96">
  <path d="m127.86,95.28c4.72-10.55,9.48-21.17,14.21-31.79,4.52-10.14,8.93-20.31,13.54-30.42,2.54-5.57,5.34-11.03,9.28-15.98,4.56-5.73,10.45-9.85,17.76-12.49,6.18-2.23,12.55-3.57,19.19-3.92,4.87-.26,9.75-.64,14.63-.65,32.34-.06,64.67-.03,97.01-.03,8.73,0,17.38.77,25.71,3.17,10.97,3.16,20.09,8.74,25.23,18.2,4.56,8.4,8.51,17.07,12.54,25.69,3.81,8.15,7.38,16.39,11.04,24.6,2.97,6.65,5.92,13.31,8.87,19.98.1.23.06.51.12,1-3.58-1.14-6.94-2.22-10.32-3.27-2.11-.65-4.27-1.19-6.36-1.9-.67-.23-1.39-.74-1.73-1.29-4.61-7.53-9.04-15.15-13.75-22.62-3.51-5.56-7.12-11.09-11.12-16.37-5.21-6.91-11.8-12.49-21.43-14.07-3.67-.6-7.46-.85-11.19-.86-31.33-.07-62.66-.03-93.99-.07-6.73,0-13.46-.47-20.17-.25-8.57.29-17.28.95-24.25,6.06-3.88,2.84-7.24,6.33-10.4,9.84-6.3,7-11.28,14.79-15.94,22.73-3.36,5.72-6.69,11.46-9.79,17.3-.53.99-1.12,1.25-2,1.56-5.55,1.94-11.1,3.89-16.7,5.85Z"/>
</svg>