<?xml version="1.0" encoding="UTF-8"?>
<svg id="Calque_1" data-name="Calque 1" xmlns="http://www.w3.org/2000/svg" width="593.99" height="430.53" viewBox="0 0 593.99 430.53">
  <path d="m159.46,100.37c1.4-3.09,2.67-5.88,3.94-8.67,4.19-9.21,8.37-18.42,12.59-27.62,4.14-9.02,8.2-18.06,12.52-27.01,2.53-5.25,5.49-10.34,9.65-14.83,4.21-4.55,9.51-7.76,15.63-10.06,7.02-2.65,14.46-3.63,21.99-4.25,2.23-.18,4.48-.27,6.72-.27,34.7-.02,69.4-.04,104.1,0,8.1,0,16.12.88,23.82,3.11,10.82,3.14,19.41,8.7,24.96,17.62,4.65,7.47,7.93,15.43,11.6,23.25,3.93,8.36,7.73,16.77,11.58,25.16,2.95,6.43,5.86,12.88,8.81,19.32.16.36.46.71.08,1.05-.4.36-.84.03-1.22-.08-5.25-1.57-10.49-3.17-15.74-4.75-.71-.21-1.11-.61-1.42-1.18-3.25-5.87-6.84-11.6-10.5-17.28-5.21-8.08-10.12-16.36-16.81-23.63-5.84-6.34-13.26-10.49-22.93-11-3.3-.18-6.61-.32-9.91-.32-31.06,0-62.12.07-93.18-.08-5.87-.03-11.77-.23-17.62-.12-8.37.15-16.78,1.05-23.78,5.72-3.98,2.66-7.28,5.94-10.3,9.43-6.07,6.99-11.16,14.51-15.94,22.21-3.36,5.41-6.57,10.87-9.45,16.48-.55,1.07-1.21,1.5-2.39,1.85-5.6,1.65-11.08,3.58-16.79,5.96Z"/>
</svg>