<?xml version="1.0" encoding="UTF-8"?>
<svg xmlns="http://www.w3.org/2000/svg" width="593.99" height="430.53" viewBox="0 0 593.99 430.53">
  <defs>
    <style>
      .cls-1 {
        fill: #1d1d1b;
        opacity: 0;
      }

      .cls-2 {
        fill: none;
      }
    </style>
  </defs>
  <g id="Calque_4" data-name="Calque 4">
    <rect class="cls-2" width="593.99" height="430.53"/>
    <rect class="cls-2" width="593.99" height="430.53"/>
    <rect class="cls-1" width="593.99" height="430.53"/>
  </g>
  <g id="Calque_1" data-name="Calque 1">
    <path d="m227.83,160.02c-.03-6.26,1.39-10.44,5.86-13.26,5.74-3.62,11.85-3.04,17.73-.28,7.07,3.33,11.81,8.63,15.53,14.68,2.65,4.31,4.58,8.82,4.91,13.75.27,4.09-.51,7.96-3.71,11.14-4.12,4.1-9.35,5.05-15.2,3.56-6.35-1.61-11.35-5-15.4-9.43-5.82-6.38-9.43-13.54-9.73-20.16Z"/>
    <path d="m320.68,175.2c1.19-12.9,7.78-22.49,20.82-28.38,4.65-2.1,9.76-2.38,14.82-.95,4.24,1.2,6.39,4.07,7.24,7.69,1.38,5.88-.11,11.47-2.66,16.88-3.12,6.61-7.67,12.31-14.63,16.34-3.45,2-7.28,3.14-11.44,3.3-6.85.26-11.56-2.74-13.13-8.53-.58-2.15-.72-4.39-1.02-6.35Z"/>
  </g>
</svg>