<?xml version="1.0" encoding="UTF-8"?>
<svg id="Calque_3" data-name="Calque 3" xmlns="http://www.w3.org/2000/svg" viewBox="0 0 585.65 394.69">
  <path fill="#FFFFFF" d="m305.64,394.43v-77.16c.51,0,.98,0,1.46,0,27.6,0,55.2-.02,82.8.01,2.74,0,5.49.23,8.21.53,3,.34,5.92,1.09,8.72,2.22,7.72,3.12,12.37,8.84,14.39,16.84,1.1,4.37.32,8.49-1.19,12.58-.83,2.25-1.92,4.36-3.36,6.27.09.17.12.32.21.39,2.95,2.19,4.29,5.29,4.56,8.79.28,3.52.23,7.06.29,10.59.09,5.83.16,11.66.23,17.49,0,.47,0,.95,0,1.38-1.08.34-24.05.44-25.95.14-.03-.31-.1-.64-.1-.98,0-7.07,0-14.14,0-21.21,0-.44.02-.88,0-1.33-.19-3.14-2.17-5.15-5.31-5.38-.4-.03-.8-.02-1.2-.02-18.74,0-37.48,0-56.22,0-.48,0-.96,0-1.61,0v28.72c-1.08.31-24.16.41-25.95.12Zm25.84-48.17c1.23,0,2.37,0,3.51,0,17.71,0,35.42,0,53.13,0,1.15,0,2.31.02,3.45-.14,3.72-.52,5.06-3.09,4.11-6.52-.42-1.5-1.51-2.35-3.07-2.54-.44-.05-.88-.05-1.33-.05-17.18,0-34.35,0-51.53,0-2.26,0-4.52,0-6.77.02-.51,0-1.02.09-1.49.14v9.09Z"/>
</svg>