<?xml version="1.0" encoding="UTF-8"?>
<svg id="Calque_1" data-name="Calque 1" xmlns="http://www.w3.org/2000/svg" viewBox="0 0 535.27 368.54">
  <path d="m243.67,108.07c-.1,5.53-2.17,10.13-7.84,12.94-3.57,1.77-7.37,1.82-11.18.77-7.55-2.08-13.15-6.44-17.5-12.18-4.94-6.52-8.14-13.58-7.7-21.62.26-4.69,2.29-8.7,6.96-11.14,5.53-2.89,11.21-2.26,16.59.36,7.15,3.48,11.97,8.98,15.73,15.3,2.9,4.87,4.91,9.97,4.94,15.58Z"/>
  <path d="m292.69,107c1.16-13.4,7.8-23.31,20.91-29.4,4.68-2.17,9.82-2.45,14.9-.98,4.27,1.24,6.41,4.22,7.26,7.96,1.37,6.01-.11,11.75-2.63,17.29-3.12,6.84-7.68,12.74-14.66,16.92-3.52,2.11-7.42,3.31-11.68,3.46-6.79.24-11.51-2.84-13.08-8.75-.59-2.22-.73-4.54-1.03-6.5Z"/>
</svg>