<?xml version="1.0" encoding="UTF-8"?>
<svg id="Calque_3" data-name="Calque 3" xmlns="http://www.w3.org/2000/svg" viewBox="0 0 585.65 335.06">
  <path fill="#FFFFFF" d="m560.49,303.96h-18.1v-18.74c.57,0,1.04,0,1.5,0,5.05,0,10.11,0,15.16,0,.48,0,.96-.03,1.44-.04v18.78Z"/>
  <path fill="#FFFFFF" d="m393.35,285.31c.29.99.36,17.06.07,18.55h-214.36v-18.55h214.29Z"/>
  <path fill="#FFFFFF" d="m434.13,303.91h-25.93c-.08-.07-.11-.1-.14-.13-.03-.03-.07-.06-.08-.1-.03-.17-.08-.34-.08-.51.03-5.82.06-11.63.1-17.45,0-.12.08-.24.14-.42h25.99v18.61Z"/>
  <path fill="#FFFFFF" d="m461.26,303.91h-13.72c-.33-1.03-.33-17.22,0-18.62h13.71v18.62Z"/>
  <path fill="#FFFFFF" d="m509.66,285.3v18.57h-13.72c-.31-1.02-.31-17.14.02-18.57h13.7Z"/>
  <path fill="#FFFFFF" d="m531.67,303.91h-11.71v-18.6h11.71v18.6Z"/>
  <path fill="#FFFFFF" d="m482.2,303.86h-11.12c-.31-.95-.32-17.24,0-18.57h11.11v18.57Z"/>
</svg>