<?xml version="1.0" encoding="UTF-8"?>
<svg id="Calque_3" data-name="Calque 3" xmlns="http://www.w3.org/2000/svg" viewBox="0 0 585.65 434.9">
  <path fill="#FFFFFF" d="m382.95,434.9c-.02-4.26-.08-8.51-.03-12.77.03-2.49,1.34-4.19,3.73-4.93.98-.3,2.05-.49,3.07-.5,9.41-.06,18.81-.07,28.22-.09.47,0,.93,0,1.57,0,0,.62,0,1.09,0,1.55,0,3.39,0,6.78,0,10.17,0,1.64.33,2.02,1.96,2.03,3.79.03,7.58.03,11.37,0,1.55-.01,1.89-.41,1.89-1.99,0-3.39-.03-6.78-.05-10.17,0-.47,0-.94,0-1.51h39.78c0,.49,0,.95,0,1.42,0,3.39-.02,6.78-.01,10.17,0,1.7.34,2.07,2.06,2.09,3.7.03,7.4.01,11.11,0,.35,0,.69-.05,1.04-.11.59-.1.92-.48.99-1.05.05-.39.05-.78.05-1.17,0-3.3,0-6.6,0-9.91,0-.42,0-.85,0-1.36h6.05c.04.32.11.65.11.98,0,3.56.01,7.13,0,10.69,0,.52-.08,1.04-.14,1.55-.3,2.33-1.64,3.75-3.86,4.43-.48.15-.96.33-1.44.49h-16.47c-.66-.21-1.31-.42-1.97-.63-2.09-.66-3.23-2.12-3.53-4.24-.09-.64-.1-1.3-.1-1.95-.01-1.82,0-3.65,0-5.47v-1.32h-11.39v13.61h-6.01c-.05-4.5-.1-9.01-.14-13.49-1.32-.32-8.99-.28-9.96.05,0,.4,0,.83,0,1.26-.01,2.21.02,4.43-.06,6.64-.1,2.72-1.42,4.3-4.05,5.07-.49.14-.98.3-1.48.45h-16.21c-.58-.18-1.15-.37-1.73-.53-2.2-.61-3.49-2.03-3.81-4.29-.09-.64-.13-1.3-.14-1.94-.02-1.95,0-3.91-.01-5.86,0-.33-.07-.66-.1-.97-.22-.04-.35-.08-.47-.08-7.31,0-14.63-.02-21.94,0-1.58,0-1.93.46-1.75,2.25h15.78v4.58c-2.69,0-5.29,0-7.89,0-2.63,0-5.27-.03-8,.05v6.8h-6.01Z"/>
  <path fill="#FFFFFF" d="m538.79,434.9c-.57-.18-1.14-.37-1.72-.54-2.28-.66-3.69-2.2-3.8-4.56-.12-2.68-.11-5.38,0-8.06.09-2.15,1.27-3.7,3.32-4.38,1.17-.39,2.45-.63,3.69-.65,6.22-.06,12.43-.03,18.65-.03.52,0,1.04-.03,1.56-.04v4.43c-.69.05-1.38.13-2.08.13-5.71.01-11.41,0-17.12.01-1.75,0-2.04.35-1.93,2.25.41,0,.84,0,1.26,0,2.96,0,5.93,0,8.89,0,3.66,0,7.32-.03,10.98-.04v4.7c-.17-.02-.34-.07-.52-.07-6.49,0-12.99,0-19.48.02-.38,0-.76.05-1.13.07-.13,1.73.2,2.13,1.79,2.21.39.02.78.01,1.18,0,5.58,0,11.16,0,16.73,0,.47,0,.95.07,1.42.1v4.43h-21.7Z"/>
  <path fill="#FFFFFF" d="m500.87,434.9c0-5.56,0-11.11.01-16.67,0-.47,0-.94,0-1.47.37-.05.62-.1.87-.1,6.88,0,13.75-.01,20.63.04,1.2.01,2.45.17,3.58.55,3.3,1.12,4.62,4.47,3.11,7.61-.13.27-.29.53-.47.86.96.89,1.12,2.07,1.1,3.32-.03,1.95-.05,3.91-.07,5.86h-6.01c0-1.74.03-3.47,0-5.21-.02-1.14-.44-1.54-1.58-1.62-.17-.01-.35,0-.52,0-4.48,0-8.96,0-13.44,0-.3,0-.6.04-1.07.08,0,.49,0,.96,0,1.42-.04,1.78-.08,3.55-.12,5.33h-6.01Zm6.22-11.51c.25.03.42.08.59.08,4.74,0,9.48,0,14.23,0,.26,0,.53,0,.78-.05.59-.11.93-.47.92-1.08,0-.54-.33-.91-.85-1.01-.47-.09-.95-.11-1.43-.11-4.44,0-8.88,0-13.31,0-.29,0-.59.05-.93.08v2.09Z"/>
</svg>