<?xml version="1.0" encoding="UTF-8"?>
<svg xmlns="http://www.w3.org/2000/svg" width="593.99" height="430.53" viewBox="0 0 593.99 430.53">
  <defs>
    <style>
      .cls-1 {
        fill: #1d1d1b;
        opacity: 0;
      }

      .cls-2 {
        fill: #fff;
      }

      .cls-3 {
        fill: none;
      }
    </style>
  </defs>
  <g id="Calque_4" data-name="Calque 4">
    <rect class="cls-3" width="593.99" height="430.53"/>
    <rect class="cls-3" width="593.99" height="430.53"/>
    <rect class="cls-1" width="593.99" height="430.53"/>
  </g>
  <g id="Calque_3" data-name="Calque 3">
    <path class="cls-2" d="m162.1,411.85c-2.56-.19-4.25-1.7-4.9-3.88-.15-.5-.02-1.07-.01-1.61.01-1.89.1-3.79.01-5.68-.09-1.98,1.93-4.08,3.63-4.42,1.05-.21,2.09-.43,3.16-.43,14.55-.02,29.1-.05,43.64-.07,1.95,0,1.95,0,1.95,1.86,0,.54-.02,1.08,0,1.62.02.49-.21.7-.74.69-1.08-.02-2.16-.02-3.23-.02-1.24,0-2.49,0-3.73.01-1.08,0-1.09.01-1.09.99,0,3.02,0,6.03,0,9.05,0,.69.08,1.39-.11,2.08h-5.72c0-3.78.01-7.57,0-11.35,0-.74-.02-.76-.96-.76-9.69-.02-19.38-.04-29.08-.06-.37,0-.76.02-1.1.13-.6.18-.93.9-.77,1.55.15.59.68.32,1.03.32,5.26.02,10.52.01,15.78.01.29,0,.58,0,.87,0,.37,0,.5.18.5.51,0,1,0,2.01,0,3.01,0,.4-.21.56-.61.56-.37,0-.75,0-1.12,0-5.14,0-10.27,0-15.41.02-.35,0-.88-.25-1.03.33-.17.65.16,1.36.75,1.56.23.08.49.1.73.12.45.02.91.02,1.37.02,5.22,0,10.44,0,15.66,0,.37,0,.75.02,1.12,0,.44-.02.72.09.69.57-.06,1.15.09,2.32-.11,3.47h-19.16c-.55-.55-1-.59-2-.21Z"/>
    <path class="cls-2" d="m115.59,412.06c0-1.16,0-2.32-.03-3.47,0-.42.21-.54.6-.54.99,0,1.99-.03,2.98-.03,9.28,0,18.56,0,27.84,0,.54,0,1.08,0,1.61-.07.67-.09,1.14-.57,1.09-1.05-.05-.5-.43-.81-1.12-.88-.45-.04-.91-.04-1.37-.04-4.52,0-9.03,0-13.55,0-1.27,0-2.55-.04-3.77-.39-2.89-.83-4.48-3.36-3.8-6.04.4-1.58,2.64-3.25,4.61-3.52,1.31-.18,2.62-.18,3.94-.18,6.59,0,13.18,0,19.76-.01.21,0,.41,0,.62,0,.38-.02.53.16.53.49,0,1,0,2.01.01,3.01,0,.39-.21.55-.62.54-.33,0-.66,0-.99,0-6.59,0-13.18,0-19.76,0-.5,0-1,.02-1.49.08-.56.07-.9.4-.91.94-.01.55.35.86.9.93.41.06.83.05,1.24.06,4.72,0,9.45,0,14.17,0,1.73,0,3.36.36,4.9,1.09,1.19.56,1.78,1.5,2.21,2.63.84,2.21-.2,3.83-1.83,5.23-.79.68-1.87.92-2.95,1.02-.7-.24-1.42-.59-2,.21h-32.84Z"/>
    <path class="cls-2" d="m148.42,412.06c.58-.8,1.29-.45,2-.21,0,.07,0,.14,0,.21h-1.99Z"/>
    <path class="cls-2" d="m162.1,411.85c1-.39,1.44-.34,2,.21h-1.99c-.05-.07-.05-.14,0-.21Z"/>
  </g>
</svg>