<?xml version="1.0" encoding="UTF-8"?>
<svg id="Calque_3" data-name="Calque 3" xmlns="http://www.w3.org/2000/svg" viewBox="0 0 585.65 434.96">
  <path fill="#FFFFFF" d="m65.43,434.96c-.44-.15-.87-.34-1.32-.46-2.46-.61-3.99-2.21-4.13-4.73-.14-2.6-.14-5.21,0-7.81.14-2.71,1.9-4.51,4.7-4.96,1.54-.24,3.12-.32,4.68-.32,10.89,0,21.77.04,32.66.06,3.75,0,7.49,0,11.24,0,.47,0,.94,0,1.5,0v4.49h-8.98c-.24,4.66-.02,9.2.18,13.73h-6.28c-.03-4.5-.05-9.01-.08-13.69-.59,0-1.06,0-1.52,0-4.57.02-9.14.04-13.72.05-5.53.01-11.06,0-16.59.03-1.5,0-1.82.43-1.65,2.18,3.5,0,7.02,0,10.53,0,3.55,0,7.11-.03,10.68.02v4.56c-3.59,0-7.1,0-10.62,0-3.55,0-7.1-.04-10.64.05-.05,1.79.27,2.17,1.76,2.26.35.02.7.01,1.04.01,5.79,0,11.58,0,17.37,0,.33,0,.67.04,1.14.06v4.47h-21.96Z"/>
  <path fill="#FFFFFF" d="m33.53,434.82c-.53-.17-1.06-.35-1.6-.5-2.36-.63-3.78-2.13-3.97-4.58-.12-1.54-.02-3.1-.02-4.72h5.95c.03.39.08.73.09,1.07.01.83-.02,1.65,0,2.48.04,1.26.37,1.59,1.64,1.7.3.03.61.02.91.02,3.92,0,7.84,0,11.76,0,.17,0,.35,0,.52,0,1.56-.07,1.92-.43,1.93-1.97.01-3.39,0-6.78,0-10.16,0-.47,0-.93,0-1.47h5.96c.03.37.09.74.09,1.12.01,3.56-.03,7.13.04,10.69.08,3.9-2.14,5.68-4.96,6.1-.2.03-.38.16-.58.25h-17.78Z"/>
</svg>