<?xml version="1.0" encoding="UTF-8"?>
<svg id="Calque_3" data-name="Calque 3" xmlns="http://www.w3.org/2000/svg" viewBox="0 0 585.65 396.86">
  <path fill="#FFFFFF" d="m306.39,317.3v19.65c-.39.04-.73.11-1.07.11-35.33,0-70.66-.02-105.99-.01-1.54,0-3.11.11-4.61.43-2.64.57-3.77,2.22-3.6,4.89.16,2.68,1.31,4.03,3.97,4.47,1,.17,2.03.19,3.04.19,20.63.01,41.26-.02,61.9.03,4.96.01,9.9.42,14.71,1.79,2.39.68,4.72,1.51,6.89,2.72,6.47,3.61,9.88,9.29,11.61,16.32,1.69,6.89-1.9,16.9-7.61,21.64-3.95,3.28-8.52,5.15-13.47,6.22-3.69.8-7.44,1.09-11.21,1.09-37.28.01-74.56,0-111.84,0h-1.29c-.28-1.02-.34-18.26-.06-19.91.57,0,1.18,0,1.78,0,31.21,0,62.43,0,93.64,0,5.71,0,11.42.01,17.13-.02,1.06,0,2.13-.08,3.16-.29,2.39-.51,3.68-2.06,3.74-4.32.07-2.64-1.04-4.23-3.48-4.95-.46-.14-.95-.25-1.43-.27-1.33-.07-2.65-.12-3.98-.12-20.01,0-40.02-.01-60.04,0-4.89,0-9.73-.35-14.45-1.68-1.74-.49-3.46-1.09-5.11-1.82-7.82-3.48-12.22-9.6-13.81-17.89-.8-4.19-.04-8.17,1.48-12.05,2.72-6.96,7.89-11.36,14.82-13.84,4.5-1.61,9.18-2.31,13.94-2.36,6.55-.08,13.1-.04,19.66-.04,29.89,0,59.77,0,89.66.01.61,0,1.22,0,1.94,0Z"/>
</svg>