<?xml version="1.0" encoding="UTF-8"?>
<svg id="Calque_1" data-name="Calque 1" xmlns="http://www.w3.org/2000/svg" viewBox="0 0 585.65 368.54">
  <path d="m124.42,52.68c-3.12,6.64-.42,12.31,3.15,18.24-14.11-.86-27.72-1.7-41.55-2.55v18.8c-2.58-.22-3.99-1.59-5.08-3.24-2.04-3.09-2.74-6.54-3.12-10.04-.19-1.72-.18-3.45-.37-5.16-.04-.34-.56-.9-.9-.92-2.8-.24-5.61-.37-8.69-.56v11.82c-3.95-.49-6.2-2.47-7.33-5.48-.57-1.51-.89-3.12-1.15-4.7-.37-2.24-.46-2.4-2.99-2.56-1.87-.12-3.74-.18-5.6-.35-1.49-.14-1.38.86-1.43,1.58-.1,1.58-.03,3.16-.03,4.75-3.76-.17-6.67-2.42-6.99-5.56-.17-1.62-1.67-1.3-2.53-1.36-6.49-.45-12.99-.7-19.49-1.1-6.77-.41-13.53-.91-20.32-1.64,1.48-.16,2.95-.35,4.43-.46,3.74-.27,7.48-.46,11.21-.76,4.52-.37,9.04-.85,13.56-1.23,3.74-.31,7.48-.58,11.22-.76,1.07-.05,1.63-.11,1.97-1.22.83-2.71,2.49-3.92,6.91-5.48.1.98.23,1.92.28,2.87.05.99.01,1.99.01,2.97,2.88-.18,5.66-.41,8.45-.49,1.28-.04,1.18-.7,1.24-1.44.29-3.74,1.81-6.9,5.5-8.97.82-.46,1.76-.73,2.98-1.22v10.73c3.18-.29,6.09-.5,8.96-.88.34-.05.77-1.06.74-1.61-.18-3.68.57-7.22,1.98-10.64,1.11-2.68,2.95-4.85,6.49-5.66v17.31c12.79-1.01,25.44-2,38.49-3.02Z"/>
  <path d="m500.4,87.51v-19.17c-13.9.87-27.63,1.73-41.22,2.58,1.02-3.01,2.43-5.94,2.93-8.99.49-2.99.04-6.1,0-9.21,12.47,1,25.25,2.02,38.28,3.07v-18.04c2.27.97,3.31,2.53,4.37,4.06,2.56,3.7,3.79,7.77,3.7,12.06-.04,1.81.47,2.7,2.49,2.81,2.47.13,4.94.3,7.64.46v-10.67c3.91,1.64,6.26,4.07,7.29,7.48.27.9.39,1.87.38,2.8,0,1.05.45,1.29,1.58,1.34,2.55.11,5.1.38,7.64.64,1.09.11,1.29-.37,1.28-1.17-.03-1.56,0-3.13,0-4.89,3.89,1.22,7.03,2.8,7.74,6.65,13.75,1.1,27.42,2.2,41.1,3.29.01.07.03.13.04.2-1.15.15-2.29.36-3.44.43-4.62.28-9.26.49-13.88.79-7.53.49-15.06,1.01-22.58,1.61-.57.05-1.38.71-1.55,1.23-1,3.03-3.84,5.42-7.46,5.95,0-1.81-.07-3.6.02-5.38.07-1.29-.68-1.56-1.86-1.45-2.29.21-4.57.54-6.87.63-1.44.06-1.7.51-1.74,1.74-.15,4.66-1.98,8.53-7.43,10.98v-12.14c-3.33.19-6.25.4-9.17.51-1.43.05-1.2.93-1.17,1.67.18,4.34-.51,8.56-2.31,12.6-1.05,2.35-2.48,4.51-5.81,5.53Z"/>
</svg>