<?xml version="1.0" encoding="UTF-8"?>
<svg id="Calque_1" data-name="Calque 1" xmlns="http://www.w3.org/2000/svg" viewBox="0 0 535.27 368.54">
  <defs>
    <style>
      .cls-1 {
        fill: #4c4c4c;
      }
    </style>
  </defs>
  <path class="cls-1" d="m239.01,78.09c0-1.97.04-3.93-.02-5.9-.03-.94.34-1.31,1.41-1.29,6.72.16,5.55-1.02,5.66,4.65.05,2.75-.03,5.5-.01,8.25,0,1.19-.51,1.6-1.92,1.59-5.11-.05-5.11,0-5.11-4.61,0-.9,0-1.8,0-2.7Z"/>
  <path class="cls-1" d="m258.58,85.35c-2.18,0-4.17.04-6.16-.04-.31-.01-.85-.56-.85-.86-.06-4.43-.04-8.85-.04-13.5,2.17,0,4.16-.04,6.14.04.32.01.86.55.87.85.06,4.42.04,8.85.04,13.51Z"/>
  <path class="cls-1" d="m283.72,70.91c0,4.66.03,9.04-.05,13.41,0,.35-.69.7-1.07,1.03-.07.06-.24.01-.37.02q-5.58.29-5.58-4.65c0-2.75.04-5.5-.02-8.25-.03-1.17.44-1.62,1.75-1.57,1.68.06,3.37.02,5.34.02Z"/>
  <path class="cls-1" d="m296.24,78.13c0,1.96-.05,3.92.02,5.88.03,1.04-.44,1.4-1.55,1.37-1.32-.04-2.64-.08-3.95.01-1.22.08-1.54-.48-1.54-1.39,0-3.92,0-7.84-.03-11.77,0-.89.38-1.27,1.43-1.34,5.63-.37,5.63-.39,5.63,4.54,0,.9,0,1.79,0,2.69Z"/>
  <path class="cls-1" d="m283.72,98.57c0,1.91-.04,3.82.02,5.73.03,1.04-.29,1.59-1.59,1.52-1.32-.07-2.65-.05-3.97,0-1.15.04-1.55-.4-1.54-1.4.03-3.93.03-7.87,0-11.8,0-.94.43-1.35,1.43-1.35.06,0,.13,0,.19,0q5.45-.41,5.45,4.45c0,.96,0,1.91,0,2.87h0Z"/>
  <path class="cls-1" d="m251.68,105.8c-.06-.87-.14-1.53-.14-2.19-.01-3.6.04-7.2-.02-10.8-.02-1.11.41-1.52,1.64-1.46,1.26.06,2.52.06,3.78,0,1.19-.06,1.69.28,1.68,1.42-.06,3.88-.04,7.76,0,11.64,0,1-.39,1.43-1.54,1.4-1.75-.05-3.5-.01-5.39-.01Z"/>
  <path class="cls-1" d="m271.14,78.21c0,1.91-.07,3.83.03,5.73.06,1.14-.41,1.5-1.63,1.44-1.32-.07-2.65-.05-3.97,0-.99.03-1.5-.2-1.49-1.22.05-3.99.04-7.98,0-11.97,0-.94.36-1.32,1.43-1.28,1.38.05,2.78.07,4.16,0,1.21-.06,1.51.44,1.48,1.41-.05,1.97-.02,3.94-.02,5.9Z"/>
  <path class="cls-1" d="m264.11,98.48c0-1.91.06-3.82-.02-5.73-.04-1.08.36-1.56,1.6-1.52,1.32.05,2.64.04,3.97,0,1.14-.03,1.53.41,1.51,1.42-.06,3.87-.07,7.75-.02,11.62.02,1.19-.48,1.51-1.77,1.53-5.26.08-5.26.12-5.26-4.64,0-.9,0-1.8,0-2.7h0Z"/>
  <path class="cls-1" d="m271.13,118.96c0,1.97-.04,3.94.02,5.9.02.95-.39,1.24-1.44,1.29-5.6.26-5.6.28-5.6-4.65,0-2.81.03-5.62-.02-8.43-.02-1.03.4-1.33,1.54-1.37,5.5-.15,5.5-.18,5.5,4.73,0,.84,0,1.69,0,2.53Z"/>
</svg>