<?xml version="1.0" encoding="UTF-8"?>
<svg xmlns="http://www.w3.org/2000/svg" width="593.99" height="430.53" viewBox="0 0 593.99 430.53">
  <defs>
    <style>
      .cls-1 {
        fill: #1d1d1b;
        opacity: 0;
      }

      .cls-2 {
        fill: none;
      }
    </style>
  </defs>
  <g id="Calque_4" data-name="Calque 4">
    <rect class="cls-2" width="593.99" height="430.53"/>
    <rect class="cls-2" width="593.99" height="430.53"/>
    <rect class="cls-1" width="593.99" height="430.53"/>
  </g>
  <g id="Calque_1" data-name="Calque 1">
    <path d="m4.65,132.57c3.72-.28,7.44-.55,11.16-.84,3.22-.24,6.43-.49,9.65-.74,3.79-.29,7.57-.56,11.36-.88,2.91-.25,5.81-.64,8.74-.6.94.01,1.03-.66,1.22-1.23.9-2.77,3.52-3.94,6.22-5.04.88-.36.94.16.97.68.06,1.19.2,2.38.14,3.56-.05.94.02,1.32,1.36,1.15,2.28-.3,4.6-.37,6.9-.44.83-.02,1.03-.24,1.14-.92.23-1.39.44-2.81.98-4.12,1.12-2.73,3.24-4.7,6.41-5.77,1.01-.34,1.36-.12,1.35.81-.03,2.5.03,5.01-.03,7.52-.03,1.11.33,1.61,1.73,1.46,2.22-.25,4.46-.38,6.69-.57,1.17-.1,1.18-.84,1.11-1.57-.33-3.64.62-7.12,1.97-10.51.84-2.1,2.4-3.81,4.74-4.85,1.68-.75,2.07-.53,2.08,1.17.03,4.3,0,8.6.01,12.91,0,2.06.08,2.07,2.41,1.9,6.64-.48,13.28-.89,19.91-1.39,4.52-.34,9.04-.8,13.56-1.18.98-.08,2.24-.32,1.62,1.25-1.76,4.46-.62,8.66,1.59,12.76.19.34.39.68.58,1.02,1.35,2.49,2.23,2.72-1.87,2.47-6.52-.39-13.05-.74-19.56-1.22-5.45-.4-10.93-.61-16.39-1.03-1.53-.12-1.86.72-1.85,1.88.03,4.47.01,8.93.01,13.4,0,.44.01.87,0,1.31-.07,1.71-.7,2-2.45,1.09-2.41-1.26-3.53-3.36-4.41-5.5-1.48-3.6-1.86-7.39-1.9-11.19-.01-1.08-.32-1.56-1.66-1.59-2.12-.05-4.23-.26-6.34-.43-1.16-.1-1.56.32-1.55,1.31.04,2.89-.04,5.77.03,8.66.03,1.27-.52,1.5-1.79,1.12-4.25-1.27-5.68-4.31-6.46-7.74-.15-.63-.22-1.28-.3-1.93-.25-2-.64-2.38-3.01-2.37-1.75,0-3.49.04-5.22-.32-1.45-.3-1.67.76-1.51,1.48.29,1.32-.09,2.59.01,3.88.06.84-.38.89-1.14.76-3.23-.56-5.7-2.67-6.1-5.44-.21-1.43-1.54-1.25-2.4-1.29-5.42-.22-10.81-.71-16.22-.98-4.66-.23-9.31-.62-13.98-.76-2.98-.09-5.95-.32-8.93-.5-.21-.01-.41-.17-.61-.26.02-.12.03-.24.05-.36Z"/>
    <path d="m588.11,132.74c-1.52.69-2.69.45-3.74.52-4.78.32-9.56.71-14.36.87-4.67.16-9.32.62-13.98.94-2.66.18-5.33.37-8,.51-.97.05-1.44.41-1.63,1.24-.68,3.03-3.43,4.38-6.24,5.63-.91.41-1.36-.02-1.33-.91.04-1.36-.03-2.72,0-4.08.03-1.18-.72-1.68-1.88-1.41-2.21.51-4.47.25-6.69.56-1.23.17-1.61.46-1.65,1.63-.13,4.03-1.63,7.54-5.74,9.87-.94.53-1.54.81-1.8-.61-.54-2.93-.21-5.87-.26-8.8-.02-1.12-.32-1.56-1.68-1.43-2.11.2-4.22.33-6.34.37-1.52.03-2.06.54-1.95,1.88.34,4.12-.55,8.1-2.26,11.94-.79,1.78-1.88,3.45-3.77,4.57-.51.3-1.07.76-1.69.53-.71-.27-.42-.95-.43-1.46-.07-4.89-.47-9.78-.03-14.68.18-1.98-.4-2.31-2.7-2.11-8.86.79-17.74,1.26-26.63,1.69-3.6.17-7.19.54-10.81.67-1.5.05-1.14-.45-.77-1.07.97-1.65,1.68-3.37,2.29-5.15,1.13-3.32,1.28-6.61.23-9.92-.43-1.36.15-1.6,1.57-1.48,4.96.42,9.92.76,14.88,1.17,5.08.42,10.16.95,15.25,1.28,1.67.11,3.34.26,5.01.38,1.06.08,1.43-.12,1.5-1.2.29-4.79.19-9.57.24-14.36,0-.51-.29-1.21.43-1.46.67-.23,1.15.35,1.55.74,3.26,3.17,5.15,6.89,5.86,11.07.26,1.49.64,2.98.34,4.52-.16.81.22,1.35,1.29,1.43,2.42.18,4.83.41,7.25.62,1.16.1,1.35-.49,1.34-1.31-.02-2.4-.03-4.79,0-7.19,0-.51-.31-1.18.4-1.48.57-.24,1.03.24,1.5.5,3.88,2.16,5.87,5.23,5.92,9.23.01.92.4,1.16,1.47,1.19,2.43.07,4.87.23,7.27.54,1.17.15,1.51-.16,1.52-1.04.01-1.2.01-2.4.02-3.59,0-.79.34-1.11,1.28-.75,2.8,1.07,5.46,2.26,6.25,5.16.16.58.53.88,1.3.94,3.97.31,7.92.75,11.89,1.02,5.27.36,10.53.87,15.8,1.23,3.79.26,7.58.66,11.38.81.29.01.58.1,1.35.24Z"/>
  </g>
</svg>