<?xml version="1.0" encoding="UTF-8"?>
<svg id="Calque_3" data-name="Calque 3" xmlns="http://www.w3.org/2000/svg" viewBox="0 0 585.65 394.87">
  <path fill="#FFFFFF" d="m421.16,394.79v-15.47h24.12c.03-.61.09-1.07.09-1.54,0-11.35.01-22.69-.01-34.04,0-3.22.45-6.36,1.45-9.41,2.12-6.43,6.64-10.54,12.82-12.99,4.08-1.62,8.36-2.38,12.72-2.68,1.77-.12,3.55-.13,5.33-.13,25.94,0,51.89,0,77.83,0,1.33,0,2.66,0,3.93,0,.33,1.07.42,17.03.13,18.96-.48.02-1,.07-1.51.07-10.75,0-21.5.01-32.25.01-15.9,0-31.81,0-47.71,0-.97,0-1.96.05-2.91.22-2.56.45-4.2,2.19-4.41,4.79-.12,1.45-.02,2.91-.02,4.52h66.55v18.97h-66.61c0,4.87,0,9.59,0,14.31,0,4.74,0,9.47,0,14.18-.96.33-17.01.37-24.78.26-8.21-.12-16.42-.03-24.76-.03Z"/>
</svg>