<?xml version="1.0" encoding="UTF-8"?>
<svg xmlns="http://www.w3.org/2000/svg" width="593.99" height="430.53" viewBox="0 0 593.99 430.53">
  <defs>
    <style>
      .cls-1 {
        fill: #1d1d1b;
        opacity: 0;
      }

      .cls-2 {
        fill: #757875;
      }

      .cls-3 {
        fill: none;
      }
    </style>
  </defs>
  <g id="Calque_4" data-name="Calque 4">
    <rect class="cls-3" width="593.99" height="430.53"/>
    <rect class="cls-3" width="593.99" height="430.53"/>
    <rect class="cls-1" width="593.99" height="430.53"/>
  </g>
  <g id="Calque_1" data-name="Calque 1">
    <path class="cls-2" d="m296.1,316.56c-15.12,0-30.24,0-45.36,0-.5,0-1,0-1.51,0-.43-.01-.96.09-1.22-.27-.35-.48.19-.8.46-1.13,3.49-4.32,7.02-8.62,10.49-12.96,7.53-9.4,14.45-19.07,19.56-29.7,7.13-14.84,5.99-29.34-1.73-43.65-5.73-10.63-13.84-19.72-23.76-27.71-7.85-6.32-16.91-11.07-25.73-16.17-7.11-4.11-14.07-8.36-19.95-13.8-9.35-8.66-16.05-18.6-18.49-30.38-1.72-8.3-.77-16.51,2.28-24.55,4.04-10.65,11.91-18.8,22.32-25.05,11.81-7.09,25.18-11.09,39.17-13.59,18.11-3.23,36.44-4.1,54.85-3.44,15.89.57,31.62,2.31,46.88,6.43,8.39,2.27,16.61,4.91,23.85,9.42,4.15,2.58,7.75,5.65,10.99,9.06,3.96,4.17,7.21,8.73,9.84,13.63,2.6,4.86,4.21,9.94,4.9,15.29,1.27,9.84-1.39,18.96-6.37,27.69-3.27,5.73-7.68,10.77-12.63,15.48-8.44,8.05-18.76,14-29.25,19.76-7.27,3.99-14.43,8.09-20.72,13.25-6.21,5.09-11.28,10.93-15.35,17.43-4.6,7.36-8.1,15.08-9.88,23.35-1.91,8.85-.23,17.32,3.29,25.64,3.73,8.81,9.4,16.7,15.4,24.43,5.08,6.54,10.44,12.92,15.21,19.65.34.48,1.12.96.7,1.55-.39.56-1.27.33-1.94.33-15.43,0-30.87,0-46.3,0Zm4.64-11.18c1-.67,1.61-1.04,2.16-1.47,4.78-3.67,9.51-7.39,14.36-11,1.24-.92,1.08-1.37-.02-2.2-4.93-3.69-9.8-7.44-14.7-11.16-.44-.34-.85-1.03-1.51-.73-.61.28-.3.99-.3,1.51-.01,6.58,0,13.16,0,19.73,0,1.62,0,3.24,0,5.31Zm-9.41-.13c.12-.46.21-.66.21-.86,0-8.21,0-16.42,0-24.63,0-.31.13-.74-.24-.9-.56-.23-.92.23-1.27.5-4.96,3.82-9.9,7.67-14.88,11.48-.98.75-1.04,1.28,0,2.06,3.37,2.51,6.68,5.09,10.01,7.65,2,1.53,4,3.05,6.17,4.71Z"/>
  </g>
</svg>