<?xml version="1.0" encoding="UTF-8"?>
<svg xmlns="http://www.w3.org/2000/svg" width="593.99" height="430.53" viewBox="0 0 593.99 430.53">
  <defs>
    <style>
      .cls-1 {
        fill: #1d1d1b;
        opacity: 0;
      }

      .cls-2 {
        fill: #fff;
      }

      .cls-3 {
        fill: none;
      }
    </style>
  </defs>
  <g id="Calque_4" data-name="Calque 4">
    <rect class="cls-3" width="593.99" height="430.53"/>
    <rect class="cls-3" width="593.99" height="430.53"/>
    <rect class="cls-1" width="593.99" height="430.53"/>
  </g>
  <g id="Calque_3" data-name="Calque 3">
    <path class="cls-2" d="m379.29,412.06c-.1-3.98-.09-7.96-.02-11.94.03-1.82,1.93-3.45,3.3-3.81,1.14-.31,2.33-.48,3.55-.48,8.74.04,17.49.05,26.23-.04,2.09-.02,1.7-.16,1.72,1.58.02,2.94,0,5.87,0,8.81,0,1.49.29,1.82,1.83,1.83,3.61.02,7.21.02,10.82,0,1.54-.01,1.83-.34,1.83-1.84-.01-3.13-.03-6.26-.04-9.39,0-.94-.19-1.02,1.08-1.01,6.51.02,13.01.04,19.52.05,5.18,0,10.36-.02,15.54-.04.29,0,.58.02.87,0,.61-.05.9.12.86.76-.06,1.08-.02,2.16-.02,3.25,0,2.2-.02,4.41,0,6.61,0,1.24.34,1.6,1.69,1.62,3.69.03,7.38.03,11.06,0,1.42-.01,1.74-.36,1.74-1.69.01-3.17,0-6.34,0-9.51,0-.96,0-.97.99-.97,1.37,0,2.74.03,4.1,0,.6-.01.79.18.78.73-.02,3.36,0,6.73-.02,10.09,0,.81-.2,1.6-.53,2.34-.53,1.17-1.4,2.02-2.76,2.39-.54.15-1.04.44-1.63.43-.63-.23-1.27-.51-1.74.24h-12.44c-.67-.76-1.45-.5-2.24-.23-.16-.02-.33-.05-.49-.06-2.1-.16-4.1-2.03-4.25-3.98-.18-2.35-.05-4.71-.09-7.06-.02-.84-.02-.84-.89-.84-3.02,0-6.05,0-9.07,0-.86,0-.88,0-.88.83,0,3.78,0,7.57,0,11.35h-5.72c-.01-.15-.04-.31-.04-.46-.02-3.63-.04-7.25-.06-10.88,0-.82-.01-.83-.89-.84-2.52-.01-5.05,0-7.57,0-1.04,0-1.04,0-1.05,1.05-.01,2.12.07,4.24-.06,6.36-.05.85-.27,1.64-.78,2.38-.95,1.36-2.36,1.91-3.99,2.15-.7-.18-1.43-.57-1.99.25h-12.19c-.65-.78-1.45-.45-2.23-.27-.45-.06-.9-.1-1.34-.2-1.57-.36-3.11-1.85-3.36-3.16-.16-.83-.24-1.68-.22-2.54.03-1.74-.02-3.48.02-5.22.01-.59-.15-.8-.82-.8-6.88.02-13.76,0-20.64.01-1.54,0-1.93.52-1.57,2,2.84,0,5.7,0,8.56,0,1.82,0,3.65,0,5.47,0,.98,0,.99.01,1,.85.01.77,0,1.55,0,2.32,0,.92-.02.92-1.04.92-4.31,0-8.62,0-12.93,0-1.36,0-1.24-.12-1.24,1.2,0,1.62,0,3.25,0,4.87h-5.72Z"/>
    <path class="cls-2" d="m527.05,411.84c-1.9-.1-3.28-.97-4.25-2.47-.25-.39-.44-.78-.47-1.25-.21-2.67-.2-5.33-.02-7.99.12-1.8,1.65-3.34,3.56-3.85,1.25-.34,2.51-.42,3.8-.42,5.93,0,11.86,0,17.78,0,.25,0,.5-.02.74-.04v3.94c-.6.19-1.23.12-1.85.12-5.47,0-10.93,0-16.4,0-1.74,0-2,.29-1.84,2h1.21c3.19,0,6.38,0,9.56,0,3.1,0,6.21-.02,9.31-.04v4.18c-.08-.02-.16-.05-.24-.05-6.37,0-12.75,0-19.12.02-.85,0-.9.09-.81.87.07.62.41,1,1.08,1.08.49.06.99.08,1.48.08,5.46,0,10.93,0,16.39,0,.41,0,.83-.09,1.22.1v3.94h-18.91c-.67-.76-1.45-.5-2.24-.22Z"/>
    <path class="cls-2" d="m491.48,412.06c0-4.95,0-9.9.01-14.85,0-.23.02-.47,0-.7-.08-.6.25-.73.81-.7.7.04,1.41.03,2.11.03,5.72,0,11.44,0,17.16,0,1.43,0,2.82.21,4.18.66,2.28.75,3.91,3.84,2.82,5.85-.22.4-.18.89-.61,1.22-.26.2-.08.51.14.71.65.57.77,1.32.79,2.09.04,1.89.08,3.79-.04,5.68h-5.72c0-1.52.01-3.05,0-4.57-.01-1.07-.41-1.44-1.56-1.5-.16,0-.33,0-.5,0-4.22,0-8.44,0-12.66,0-.21,0-.41,0-.62,0-.3,0-.45.14-.46.41,0,.27,0,.54,0,.81-.06,1.62.12,3.24-.12,4.85h-5.72Zm13.3-10.17c2.15,0,4.3,0,6.45,0,.33,0,.66,0,.99-.04.56-.08.9-.4.9-.94,0-.53-.33-.87-.89-.94-.45-.06-.91-.08-1.36-.08-2.4,0-4.8,0-7.2,0-1.86,0-3.72.02-5.58-.01-.6,0-.83.19-.77.73.02.19.03.39,0,.58-.06.54.14.73.76.72,2.23-.04,4.47-.01,6.7-.02Z"/>
    <path class="cls-2" d="m413.12,412.06c0-.09,0-.18,0-.27.78-.18,1.58-.51,2.23.27h-2.24Z"/>
    <path class="cls-2" d="m465.36,412.06c-.04-.07-.04-.15,0-.23.79-.27,1.57-.53,2.24.23h-2.24Z"/>
    <path class="cls-2" d="m527.05,411.84c.79-.28,1.57-.54,2.24.22h-2.24c-.04-.07-.04-.15,0-.22Z"/>
    <path class="cls-2" d="m429.53,411.81c-.02.06-.05.11-.06.17,0,.02.04.05.06.08h-1.99c.56-.82,1.29-.43,1.99-.25Z"/>
    <path class="cls-2" d="m480.04,412.06c.47-.75,1.11-.47,1.74-.24-.02.05-.04.11-.05.16,0,.02.03.05.05.08h-1.74Z"/>
  </g>
</svg>