<?xml version="1.0" encoding="UTF-8"?>
<svg xmlns="http://www.w3.org/2000/svg" width="593.99" height="430.53" viewBox="0 0 593.99 430.53">
  <defs>
    <style>
      .cls-1 {
        fill: #1d1d1b;
        opacity: 0;
      }

      .cls-2 {
        fill: #fff;
      }

      .cls-3 {
        fill: none;
      }
    </style>
  </defs>
  <g id="Calque_4" data-name="Calque 4">
    <rect class="cls-3" width="593.99" height="430.53"/>
    <rect class="cls-3" width="593.99" height="430.53"/>
    <rect class="cls-1" width="593.99" height="430.53"/>
  </g>
  <g id="Calque_3" data-name="Calque 3">
    <path class="cls-2" d="m76.25,411.94c-.65-.22-1.35-.1-2.02-.32-1.84-.58-3.29-2.18-3.39-4.01-.12-2.32-.13-4.64-.02-6.96.14-2.84,1.77-3.97,4.46-4.58,1.3-.29,2.63-.29,3.95-.28,10.07.02,20.15.04,30.22.06,4.19,0,8.37,0,12.56,0,1.01,0,1.01.01,1.03.94.01.73.02,1.47.02,2.2,0,.86,0,.87-.97.88-2.2.01-4.39,0-6.59,0-.21,0-.41-.01-.62-.02-.36-.01-.53.15-.52.49,0,.15,0,.31,0,.46-.07,3.75.05,7.5.24,11.24h-5.97c-.01-1.78-.03-3.55-.04-5.33,0-2.05-.02-4.1,0-6.14,0-.48-.14-.73-.69-.7-.25.01-.5,0-.75,0-4.31.02-8.62.04-12.92.04-5.34.01-10.69,0-16.03.02-1.21,0-1.57.36-1.62,1.38-.02.39.12.57.55.55.29-.01.58,0,.87,0,5.01,0,10.03,0,15.04,0,.99,0,1.99,0,2.98,0,.92,0,.92.02.93.92,0,.7,0,1.39,0,2.09,0,1.09,0,1.09-1.12,1.09-6.01,0-12.01,0-18.02,0-.29,0-.58,0-.87.02-.17.01-.29.08-.35.26-.23.73.34,1.58,1.17,1.68.53.06,1.07.07,1.61.07,5.59,0,11.19,0,16.78-.02.62,0,.8.15.78.7-.03,1.12,0,2.24,0,3.36h-19.16c-.52-.56-.79-.58-1.52-.12Z"/>
    <path class="cls-2" d="m44.94,411.8c-2.33-.11-4.46-2.1-4.58-4-.08-1.32,0-2.63-.08-3.94-.02-.38.11-.58.55-.58,1.57,0,3.15,0,4.72-.01.45,0,.57.21.56.58,0,.85-.02,1.7,0,2.55.02,1.26.32,1.58,1.69,1.61,1.7.04,3.4.01,5.1.01,2.24,0,4.47,0,6.71,0,.41,0,.83,0,1.24-.06.76-.1,1.1-.42,1.19-1.11.04-.3.02-.62.02-.93,0-3.01,0-6.03,0-9.04,0-.98-.21-1.06,1.16-1.03,1.28.02,2.57.02,3.85,0,.49,0,.76.06.76.62-.02,3.55.09,7.11-.04,10.66-.1,2.79-1.98,4.41-4.95,4.72-.96-.37-1.24-.34-1.75.21h-13.93c-.65-.77-1.45-.46-2.23-.26Z"/>
    <path class="cls-2" d="m44.94,411.8c.78-.2,1.58-.51,2.23.26h-2.24c0-.09,0-.17,0-.26Z"/>
    <path class="cls-2" d="m61.1,412.06c.51-.55.79-.58,1.75-.21,0,.07,0,.14,0,.21h-1.74Z"/>
    <path class="cls-2" d="m76.25,411.94c.74-.46,1.01-.44,1.52.12h-1.49l-.07-.05.03-.07Z"/>
  </g>
</svg>