<?xml version="1.0" encoding="UTF-8"?>
<svg id="Calque_3" data-name="Calque 3" xmlns="http://www.w3.org/2000/svg" viewBox="0 0 585.65 396.91">
  <path fill="#FFFFFF" d="m147.68,396.84c-.54.03-.97.07-1.4.07-29.95,0-59.91.01-89.86,0-5.51,0-10.94-.61-16.15-2.49-3.66-1.32-6.93-3.27-9.56-6.21-3.05-3.41-4.67-7.44-5.15-11.93-.22-2.01-.3-4.04-.32-6.07-.05-4.36-.01-8.73-.01-13.09,0-.47,0-.95,0-1.49h25.43c.02.34.07.72.07,1.09,0,4.72,0,9.43.02,14.15,0,.88,0,1.79.24,2.62.26.91.72,1.79,1.24,2.58.57.85,1.47,1.22,2.52,1.18,1.15-.04,2.3-.06,3.45-.06,19.97,0,39.94,0,59.91.04,1.41,0,2.35-.6,3.1-1.66.74-1.05.97-2.26,1.04-3.5.03-.53,0-1.06,0-1.59,0-27.81,0-55.62,0-83.43v-1.74h25.45c0,9.35,0,18.64,0,27.92,0,9.3,0,18.6,0,27.9,0,9.26.07,18.51-.02,27.77-.09,9.28.14,18.56-.02,27.94Z"/>
</svg>