<?xml version="1.0" encoding="UTF-8"?>
<svg id="Calque_3" data-name="Calque 3" xmlns="http://www.w3.org/2000/svg" viewBox="0 0 585.65 434.9">
  <path fill="#FFFFFF" d="m211.69,434.9c-.03-2.52-.08-5.04-.09-7.56-.02-3.04,0-6.08,0-9.12,0-.47,0-.94,0-1.53.46-.03.84-.08,1.21-.08,6.1,0,12.19,0,18.29,0,1.4,0,2.78.08,4.12.55,2.11.75,3.35,2.23,3.79,4.42.2.99-.08,1.89-.42,2.79-.17.44-.41.85-.64,1.33,1.57,1.54,1,3.56,1.21,5.5.36.03.69.09,1.02.09,2.92,0,5.84-.01,8.75.02.7,0,1.25-.19,1.79-.61,5.16-3.93,10.36-7.79,15.48-11.77,2.26-1.76,4.73-2.5,7.54-2.31,1.85.13,2.99,1.09,3.31,2.92.14.81.2,1.64.21,2.46.03,4.3.04,8.6.05,12.9h-6.01c-.09-2.24-.18-4.48-.28-6.69-.14-.07-.22-.14-.29-.14-2.48-.02-4.96-.04-7.45-.02-.36,0-.78.16-1.07.37-2.91,2.14-5.8,4.31-8.69,6.47h-20.66c.02-1.86.08-3.72.04-5.59-.02-.81-.43-1.14-1.23-1.24-.26-.03-.52-.03-.78-.03-4.01,0-8.01,0-12.02,0-.37,0-.74.07-1.17.11v6.75h-6.01Zm6.05-11.57c.26.06.39.12.51.12,4.35,0,8.69,0,13.04-.02.26,0,.53-.01.78-.07.51-.13.86-.42.86-.99,0-.54-.22-.94-.76-1.07-.42-.1-.86-.16-1.29-.17-4.09-.01-8.17-.01-12.26,0-.29,0-.58.09-.89.14v2.06Zm53.27-1.49c-.92.35-1.5.81-2.07,1.53h2.18c-.04-.52-.07-.96-.11-1.53Z"/>
  <path fill="#FFFFFF" d="m342.95,434.9c-.57-.17-1.15-.35-1.72-.51-2.52-.67-3.91-2.03-4.09-4.61-.19-2.68-.2-5.39-.01-8.06.18-2.59,1.73-4.17,4.29-4.76.97-.22,1.98-.34,2.97-.34,7.58-.03,15.15-.01,22.73-.02,1.41,0,2.78.17,4.09.72,1.78.75,3.02,2.06,3.12,4,.15,2.9.16,5.81.01,8.7-.11,2.23-1.57,3.59-3.65,4.28-.69.23-1.4.39-2.11.59h-25.62Zm12.79-4.65c3.66,0,7.31,0,10.97,0,1.29,0,1.63-.34,1.65-1.63.02-1.74.01-3.47,0-5.21,0-1.95-.31-2.25-2.27-2.28-.04,0-.09,0-.13,0-6.84,0-13.67,0-20.51,0-.43,0-.87.03-1.29.11-.57.11-.95.48-.96,1.08-.02,2.26-.04,4.52,0,6.77.01.73.42,1.05,1.18,1.14.3.04.61.02.91.02,3.48,0,6.97,0,10.45,0Z"/>
  <path fill="#FFFFFF" d="m283.86,434.9v-18.2c.43-.04.8-.09,1.17-.09,8.92,0,17.84-.01,26.75.01,1.04,0,2.09.1,3.1.33,2.76.61,4.31,2.37,4.45,5.2.11,2.38.11,4.78,0,7.16-.13,2.88-1.72,4.61-4.56,5.24-.46.1-.91.24-1.37.36h-29.55Zm6.14-13.71v9.06h1.37c3.48,0,6.96,0,10.44,0,3.26,0,6.52.01,9.79,0,1.19,0,1.6-.31,1.62-1.39.05-2.08.04-4.17-.01-6.25-.03-1.01-.44-1.35-1.47-1.46-.26-.03-.52-.02-.78-.02-6.57,0-13.14,0-19.7,0-.38,0-.76.04-1.25.07Z"/>
  <path fill="#FFFFFF" d="m324.39,434.9c-.01-5.38-.03-10.76-.04-16.15,0-.65,0-1.29,0-2.04h6.03c.01,6.07.02,12.13.03,18.19h-6.01Z"/>
</svg>