<?xml version="1.0" encoding="UTF-8"?>
<svg id="Calque_1" data-name="Calque 1" xmlns="http://www.w3.org/2000/svg" viewBox="0 0 535.27 368.54">
  <defs>
    <style>
      .cls-1 {
        fill: #4c4c4c;
      }
    </style>
  </defs>
  <path class="cls-1" d="m338.33,12.58c3.45.43,6.94.65,10.33,1.32,10.49,2.06,20.99,4.14,31.4,6.51,6.17,1.4,12.41,2.9,18.21,5.18,10.56,4.14,21.14,8.42,29.73,15.62,3.63,3.05,6.04,6.77,8.05,10.86,3.24,6.59,1.73,12.69-2.05,18.37-5.3,7.95-12.79,14.01-22.02,18.37-18.81,8.9-38.65,15.13-59.59,18.54-.3.05-.62,0-1.13,0,2.04-1.89,4.02-3.64,5.88-5.48,7.61-7.49,13.53-15.87,16.68-25.66,4.19-13.02,2.36-25.44-4.76-37.32-6.94-11.58-16.58-20.63-30.38-25.79-.16-.06-.29-.17-.44-.25.02-.09.04-.19.06-.28Z"/>
  <path class="cls-1" d="m195.43,13.9c-4.68,2.72-9.44,5.12-13.73,8.06-11.34,7.77-18.65,17.86-21.34,30.53-3.13,14.79.71,28.14,9.93,40.5,3.85,5.15,8.48,9.69,13.41,14.23-4.66-.85-9.35-1.59-13.99-2.56-15.07-3.14-29.6-7.62-43.14-14.42-6.56-3.29-12.66-7.16-17.83-12.06-2.1-1.99-3.76-4.34-5.76-6.41-2.98-3.08-4.47-6.78-5.33-10.63-.66-2.93-.04-5.77,1.51-8.62,5.94-10.93,16.97-16.5,28.16-22.05,6.43-3.19,13.07-5.93,20.07-7.81,12.76-3.42,25.56-6.82,38.87-8.21,3.03-.31,6.1-.38,9.17-.55Z"/>
</svg>