<?xml version="1.0" encoding="UTF-8"?>
<svg xmlns="http://www.w3.org/2000/svg" width="593.99" height="430.53" viewBox="0 0 593.99 430.53">
  <defs>
    <style>
      .cls-1 {
        opacity: 0;
      }

      .cls-1, .cls-2 {
        fill: #1d1d1b;
      }

      .cls-3 {
        fill: #fff;
      }

      .cls-4 {
        fill: none;
      }
    </style>
  </defs>
  <g id="Calque_4" data-name="Calque 4">
    <rect class="cls-4" width="593.99" height="430.53"/>
    <rect class="cls-4" width="593.99" height="430.53"/>
    <rect class="cls-1" width="593.99" height="430.53"/>
  </g>
  <g id="Calque_3" data-name="Calque 3">
    <path class="cls-3" d="m109.38,378.27c-13.54,0-27.08,0-40.63,0-3.03,0-6.06-.17-9.04-.61-4.36-.63-8.48-1.95-12.18-4.31-1.78-1.14-3.3-2.49-4.53-4.11-1.36-1.78-2.5-3.68-3.11-5.83-.49-1.74-.65-3.52-.88-5.29-.23-1.76-.05-3.53-.08-5.29-.03-1.76,0-3.53,0-5.3,0-1.8.02-3.61-.01-5.41-.01-.63.31-.68.85-.68,3.45.01,6.9,0,10.35,0,3.95,0,7.91,0,11.86,0,1.23,0,1.23,0,1.23,1.11,0,4.2,0,8.39,0,12.59,0,1.01.07,2.01.44,3,.7,1.9,1.66,2.61,3.74,2.6,20.02-.11,40.04-.06,60.06,0,1.54,0,2.25-.82,2.9-1.85.69-1.09.96-2.26.96-3.54-.02-25.03-.02-50.05-.01-75.08,0-1.63-.21-1.39,1.43-1.39,7.11,0,14.22,0,21.32,0,.34,0,.67,0,1.01,0,.31,0,.45.16.45.44,0,.27,0,.55,0,.82,0,25.58,0,51.15,0,76.73,0,.59-.05,1.17-.11,1.76-.09.9-.13,1.79,0,2.7.09.62.11,1.25.11,1.88,0,4.63,0,9.26,0,13.89,0,1.04.28,1.16-1.21,1.16-14.97,0-29.94,0-44.92,0h0Z"/>
    <path class="cls-2" d="m155.54,307.3v.9s-.03,0-.04,0v-.93s.03.02.04.03Z"/>
  </g>
</svg>