<?xml version="1.0" encoding="UTF-8"?>
<svg xmlns="http://www.w3.org/2000/svg" width="593.99" height="430.53" viewBox="0 0 593.99 430.53">
  <defs>
    <style>
      .cls-1 {
        opacity: 0;
      }

      .cls-1, .cls-2 {
        fill: #1d1d1b;
      }

      .cls-3 {
        fill: #fff;
      }

      .cls-4 {
        fill: none;
      }
    </style>
  </defs>
  <g id="Calque_4" data-name="Calque 4">
    <rect class="cls-4" width="593.99" height="430.53"/>
    <rect class="cls-4" width="593.99" height="430.53"/>
    <rect class="cls-1" width="593.99" height="430.53"/>
  </g>
  <g id="Calque_3" data-name="Calque 3">
    <path class="cls-3" d="m548.2,295.58c-4.93,0-9.86,0-14.79,0-.58,0-1.16-.03-1.74,0-.56.03-.81-.14-.81-.72.04-5.06.05-10.12.08-15.18,0-.75.03-.76.98-.76,4.97,0,9.94,0,14.91,0,.45,0,.91-.02,1.36-.04v16.71Z"/>
    <path class="cls-3" d="m185.24,295.35c-.01-5.26-.02-10.51-.05-15.77,0-.48.14-.73.7-.67.25.03.5,0,.75,0,67.07,0,134.14,0,201.21,0,1.5,0,1.55-.35,1.56,1.42,0,4.72,0,9.43,0,14.15,0,.94-.11,1.04-1.09,1.08-.21,0-.41,0-.62,0-66.9,0-133.81,0-200.71,0-.5,0-.99-.02-1.49-.02-.09-.07-.17-.13-.26-.2Z"/>
    <path class="cls-3" d="m415.53,295.57c-3.81,0-7.62,0-11.43,0-1.07,0-1.06-.02-1.06-1.03.02-4.87.04-9.74.06-14.6,0-1.01,0-1.01,1.07-1.01,7.58,0,15.16,0,22.74,0,.21,0,.41,0,.62,0,.37,0,.52.16.51.5,0,.19,0,.39,0,.58,0,4.83.02,9.66.03,14.49,0,.19,0,.39,0,.58.02.41-.21.55-.61.52-.25-.02-.5,0-.75,0-3.73,0-7.46,0-11.18,0h0Z"/>
    <path class="cls-3" d="m440.53,287.34c0-2.51,0-5.02,0-7.53,0-.88.02-.9.95-.9,3.81,0,7.61,0,11.42,0,.95,0,.96.02.96.88,0,4.94,0,9.88,0,14.82,0,.94-.02.95-1.03.95-3.77,0-7.53,0-11.3,0-1.02,0-1.03,0-1.03-.94,0-2.43,0-4.86,0-7.3,0,0,.01,0,.02,0Z"/>
    <path class="cls-3" d="m486.64,287.18c0-2.47,0-4.94,0-7.41,0-.83,0-.84.87-.84,3.81,0,7.62,0,11.43,0,.95,0,.97.02.97.89.01,4.98.02,9.96.01,14.95,0,.8-.02.81-.92.82-3.81,0-7.62,0-11.43,0-.99,0-1-.01-1-.98,0-2.47,0-4.94,0-7.42.02,0,.04,0,.06,0Z"/>
    <path class="cls-3" d="m520.89,287.23c0,2.47,0,4.95,0,7.42,0,.92,0,.93-.91.93-3.19,0-6.38,0-9.57,0-.89,0-.9-.03-.88-.84.14-4.83.04-9.66.06-14.49,0-.15,0-.31,0-.46q.01-.84.86-.86c.25,0,.5,0,.75,0,2.9,0,5.8,0,8.7,0,.94,0,.96.02.96.89.01,2.47,0,4.95,0,7.42,0,0,.02,0,.03,0Z"/>
    <path class="cls-3" d="m462.94,287.22c0-2.47,0-4.94,0-7.41,0-.88.02-.89.96-.89,3.02,0,6.04.01,9.06-.02.66,0,.84.2.84.8-.02,5.02,0,10.04.01,15.05,0,.55-.1.84-.8.83-3.1-.03-6.21-.03-9.31,0-.71,0-.8-.29-.79-.84.02-2.51.01-5.02.01-7.53h.02Z"/>
    <path class="cls-2" d="m155.54,307.3v.9s-.03,0-.04,0v-.93s.03.02.04.03Z"/>
    <path class="cls-3" d="m185.24,295.35c.09.07.17.13.26.2-.19.05-.29,0-.26-.2Z"/>
  </g>
</svg>