<?xml version="1.0" encoding="UTF-8"?>
<svg xmlns="http://www.w3.org/2000/svg" width="593.99" height="430.53" viewBox="0 0 593.99 430.53">
  <defs>
    <style>
      .cls-1 {
        fill: #1d1d1b;
        opacity: 0;
      }

      .cls-2 {
        fill: #3e423f;
      }

      .cls-3 {
        fill: none;
      }
    </style>
  </defs>
  <g id="Calque_4" data-name="Calque 4">
    <rect class="cls-3" width="593.99" height="430.53"/>
    <rect class="cls-3" width="593.99" height="430.53"/>
    <rect class="cls-1" width="593.99" height="430.53"/>
  </g>
  <g id="Calque_1" data-name="Calque 1">
    <path class="cls-2" d="m366.14,83.79c4.8.64,9.73,1.07,14.54,1.98,9.04,1.72,18.05,3.59,27,5.66,6.12,1.41,12.34,2.81,18.1,5.02,10.68,4.09,21.39,8.28,29.99,15.46,3.39,2.84,5.7,6.25,7.57,10,1.28,2.56,1.95,5.13,1.75,7.81-.4,5.22-2.98,9.7-6.56,13.86-5.77,6.7-13.18,11.55-21.68,15.3-17.96,7.93-36.8,13.62-56.64,16.74-.36.06-.73,0-1.43-.31,2.02-1.66,4.16-3.23,6.03-5.01,7.94-7.56,14-16.08,17-26.08,3.45-11.48,1.95-22.52-4.1-33.11-4.33-7.58-9.85-14.44-17.59-19.63-4.31-2.89-9.22-5.12-13.98-7.71Z"/>
    <path class="cls-2" d="m223.92,85.13c-8.39,4.02-16.05,8.64-22.32,14.82-6.5,6.4-10.63,13.85-12.52,22.23-3.24,14.44.5,27.58,9.94,39.61,1.92,2.45,4.07,4.79,6.29,7.05,2.19,2.22,4.6,4.27,7.12,6.59-2.56-.37-4.98-.66-7.37-1.08-15.57-2.75-30.66-6.78-44.89-13.02-8.26-3.62-15.98-7.95-22.41-13.79-2.14-1.95-3.83-4.27-5.86-6.32-2.95-2.98-4.44-6.54-5.31-10.27-.67-2.85-.1-5.6,1.43-8.34,6.12-10.96,17.58-16.4,29.13-21.9,6.03-2.87,12.25-5.3,18.78-7.02,12.8-3.38,25.65-6.69,39.01-8.03,2.98-.3,5.98-.36,8.98-.53Z"/>
  </g>
</svg>