<?xml version="1.0" encoding="UTF-8"?>
<svg xmlns="http://www.w3.org/2000/svg" width="593.99" height="430.53" viewBox="0 0 593.99 430.53">
  <defs>
    <style>
      .cls-1 {
        fill: #1d1d1b;
        opacity: 0;
      }

      .cls-2 {
        fill: #fff;
      }

      .cls-3 {
        fill: none;
      }
    </style>
  </defs>
  <g id="Calque_4" data-name="Calque 4">
    <rect class="cls-3" width="593.99" height="430.53"/>
    <rect class="cls-3" width="593.99" height="430.53"/>
    <rect class="cls-1" width="593.99" height="430.53"/>
  </g>
  <g id="Calque_3" data-name="Calque 3">
    <path class="cls-2" d="m216.34,412.06c-.03-.85-.08-1.7-.08-2.55,0-4.25,0-8.5,0-12.75,0-.97,0-.98.97-.98,6.01,0,12.02.01,18.02,0,1.37,0,2.66.3,3.92.73,2.34.79,4.21,3.68,2.57,6.48-.12.2-.2.42-.34.6-.15.19-.14.31.04.47.94.82.92,1.92.98,3,.03.57-.27,1.29.15,1.66.41.37,1.18.12,1.79.13,2.49.02,4.97,0,7.46.01.55,0,.97-.12,1.45-.46,2.76-1.94,5.52-3.87,8.24-5.85,2.14-1.56,4.35-3.02,6.52-4.55,1.02-.72,1.98-1.51,3.27-1.83,1.49-.36,3.01-.53,4.53-.32,1.19.16,2.13.74,2.47,1.93.26.92.45,1.84.45,2.81,0,3.82.02,7.65.03,11.47h-5.72c-.04-.19-.11-.37-.12-.56-.03-1.58-.03-3.16-.06-4.74-.01-.79-.02-.8-.9-.81-2.06,0-4.13.02-6.19-.02-.66-.01-1.2.18-1.71.53-2.65,1.86-5.3,3.73-7.95,5.59h-19.65c.17-1.61.08-3.23.06-4.84-.01-.91-.39-1.24-1.41-1.24-4.13-.03-8.27,0-12.4-.03-.56,0-.7.19-.69.68.03,1.81.02,3.62.02,5.43h-5.72Zm12.63-10.19s0,0,0-.01c1.91,0,3.81,0,5.72,0,.33,0,.67.01.99-.06.53-.12.88-.43.87-.98-.01-.48-.29-.78-.8-.9-.45-.11-.9-.12-1.36-.12-3.73,0-7.46,0-11.19,0-.21,0-.41,0-.62,0-.34,0-.55.13-.54.48,0,.27.04.54,0,.81-.08.61.19.79.83.78,2.03-.03,4.06-.01,6.09-.01Zm41.91-.01c.47,0,.94-.02,1.4,0,.5.03.66-.21.61-.62-.03-.25.02-.53-.25-.72-.85.08-1.22.75-1.76,1.34Z"/>
    <path class="cls-2" d="m340.72,411.84c-1.67-.06-3.04-.69-4.09-1.91-.66-.77-1.08-1.61-1.05-2.65.05-1.85,0-3.71-.03-5.56-.02-.78.06-1.56.24-2.3.29-1.22,1.16-2.07,2.29-2.7.96-.53,2-.81,3.1-.88.5-.03.99-.05,1.49-.05,7.17,0,14.33,0,21.5,0,1.7,0,3.27.34,4.79,1.13,1.25.65,1.75,1.67,2.1,2.81.2.66.27,1.36.24,2.07-.08,1.96.14,3.92-.19,5.88-.3,1.81-1.25,3.07-3.14,3.7-.7.23-1.48.25-2.1.68h-23.63c-.44-.41-.91-.68-1.5-.22Zm12.7-3.92c3.4,0,6.79,0,10.19,0,1.54,0,1.78-.23,1.79-1.71,0-1.39-.03-2.78,0-4.17.05-1.61.06-2.26-2.43-2.25-6.46.03-12.93.01-19.39.01-.29,0-.58-.01-.87.02-1.05.11-1.27.31-1.28,1.31-.02,1.7-.01,3.4,0,5.1,0,1.47.23,1.69,1.79,1.69,3.4,0,6.79,0,10.19,0Z"/>
    <path class="cls-2" d="m285,412.06c0-5.1-.02-10.2-.02-15.3,0-.97,0-.97,1.11-.97,7.13,0,14.25,0,21.38,0,1.45,0,2.9,0,4.35,0,1.48,0,2.92.29,4.24.85,1.12.48,1.95,1.3,2.34,2.53.38,1.17.39,2.34.39,3.52,0,1.28-.01,2.55,0,3.83.02.94-.29,1.78-.65,2.64-.73,1.71-2.35,2.2-4.02,2.65-.34.09-.75-.08-1.02.26h-28.11Zm16.44-4.14c3.27,0,6.54,0,9.82,0,1.37,0,1.69-.28,1.71-1.57.02-1.62.02-3.25,0-4.87-.02-1.17-.54-1.67-1.83-1.67-6.5-.02-13.01-.01-19.51,0-.83,0-.85.03-.85.89,0,2.12,0,4.25,0,6.37,0,.84.02.85.98.85,3.23,0,6.46,0,9.69,0Z"/>
    <path class="cls-2" d="m323.56,412.06c-.01-4.24-.03-8.49-.04-12.73,0-.96.02-1.93-.03-2.89-.02-.53.2-.66.72-.65,1.37.02,2.73,0,4.1,0,.94,0,.96.01.96.88,0,3.01,0,6.02,0,9.03,0,2.12.01,4.24.02,6.36h-5.72Z"/>
    <path class="cls-2" d="m340.72,411.84c.59-.47,1.05-.19,1.5.22h-1.49c-.05-.07-.05-.14,0-.22Z"/>
  </g>
</svg>