<?xml version="1.0" encoding="UTF-8"?>
<svg xmlns="http://www.w3.org/2000/svg" width="593.99" height="430.53" viewBox="0 0 593.99 430.53">
  <defs>
    <style>
      .cls-1 {
        opacity: 0;
      }

      .cls-1, .cls-2 {
        fill: #1d1d1b;
      }

      .cls-3 {
        fill: #fff;
      }

      .cls-4 {
        fill: none;
      }
    </style>
  </defs>
  <g id="Calque_4" data-name="Calque 4">
    <rect class="cls-4" width="593.99" height="430.53"/>
    <rect class="cls-4" width="593.99" height="430.53"/>
    <rect class="cls-1" width="593.99" height="430.53"/>
  </g>
  <g id="Calque_3" data-name="Calque 3">
    <path class="cls-3" d="m505.02,308.55c12.89,0,25.79,0,38.68,0,1.01,0,2.03.05,3.04.05.48,0,.69.23.72.64.02.24,0,.47,0,.71,0,4.77,0,9.54,0,14.31,0,1.27.11,1.21-1.31,1.21-19.95,0-39.9,0-59.86,0-5.45,0-10.91.01-16.36,0-1.06,0-2.1.08-3.13.23-2.16.33-3.93,2.23-3.99,4.28-.03,1.1,0,2.21-.05,3.31-.03.61.22.74.81.71.76-.04,1.52-.03,2.28-.03,19.61,0,39.23,0,58.84,0,1.81,0,1.52-.15,1.52,1.45-.01,4.85,0,9.7,0,14.55,0,.89-.01.88-.97.88-19.74,0-39.48,0-59.22-.02-.8,0-1.61.02-2.41-.02-.69-.04-.92.22-.85.82.03.23,0,.47,0,.71,0,7.69.01,15.38.02,23.06,0,.98,0,.99-1.02.99-15.05-.02-30.1-.04-45.14-.05-1.25,0-1.02-.04-1.02-.94,0-3.98.01-7.96,0-11.95,0-.91,0-.89.97-.89,6.81,0,13.61,0,20.42-.01.34,0,.68-.02,1.01,0,.47.02.71-.16.69-.62-.01-.28,0-.55,0-.83,0-10.13,0-20.26,0-30.4,0-2.97.37-5.89,1.53-8.69,1.71-4.13,4.52-7.37,8.73-9.5,1.13-.57,2.22-1.22,3.44-1.61,2.98-.96,6.03-1.65,9.17-2.02,2.73-.32,5.48-.36,8.23-.36,11.75,0,23.5,0,35.25,0Z"/>
    <path class="cls-2" d="m414.33,354.76c-.1-.04-.2-.08-.3-.13.1-.04.2-.08.3-.13,0,.08,0,.17,0,.25Z"/>
  </g>
</svg>