<?xml version="1.0" encoding="UTF-8"?>
<svg width="400" height="29.283" version="1.1" viewBox="0 0 400 29.28257687" xmlns="http://www.w3.org/2000/svg" xmlns:cc="http://creativecommons.org/ns#" xmlns:dc="http://purl.org/dc/elements/1.1/" xmlns:rdf="http://www.w3.org/1999/02/22-rdf-syntax-ns#">
<path d="m-0.004492 0.0021485 0.0065193 16.685 13.542 1.031-5.48 11.14 27.86-13.337l42.041 7.4178-2.3216-8.0272 32.712 2.2732-4.2464-8.7068 46.644 6.0654-6.1348 5.9546 47.332-0.08721-4.7277-4.4279 21.53-2.4101-4.1644 7.0888 35.734-8.182 56.076 14.155-7.9019-7.5685 34.211 0.16034-8.2419 6.9421 43.122-5.5838-2.5892 6.4901 26.436-12.16-2.5739-2.9664c21.257-0.83293-0.12553 0 21.131-0.83293 0.0256-11.071 0 0 0.0247-11.072" fill="#040404"/>
<path d="m-0.004492 0.0021485c0.0070644 0.70916 0.0074906 15.633 0.0094256 16.076l15.565 0.66229c-5.6785 10.615-0.85362 1.8077-5.6785 10.615 25.312-13.104 1.8579-0.75319 25.312-13.104l40.454 6.8289-1.7797-6.9467 33.289 1.8428-4.875-8.9189 51.697 7.04-7.619 5.596 43.803-0.23303-5.0519-4.111 25.107-2.4811-4.2544 6.7385 33.769-8.6234 54.508 14.685c-7.6896-7.2584 0.15577 0.14879-7.6783-7.1513l38.694 0.0058-8.2755 6.4279 42.949-5.8378c-2.5151 5.9761-2.5 5.8176-2.5151 5.9761l22.38-10.81-2.631-3.4666 22.839-0.62107c0.0251-10.201-2.6714-10.173 1e-3 -10.148" fill="#e20f47"/>
<path d="m-0.004492 0.0021485c0.015544 5.132 0.0045021 10.283 0.0045021 15.415l16.958 0.468-4.637 9.282 22.54-12.23 39.911 7.315-2.3534-8.0657 33.151 3.2127-5.9431-9.724c56.531 7.6891 0.71011-0.071011 56.531 7.6891l-7.7762 5.5239 39.434 0.126-5.0892-4.3391c9.3127-0.82251 0 0 29.14-3.0709l-4.5044 7.2811 32.233-9.2821 51.072 13.756c0-0.174-6.7346-6.0175-6.7346-6.0175l44.078 0.39835-8.2945 6.1634c38.9-5.8212 0 0 41.67-6.1762l-0.86046 4.35 16.906-8.7688-4.5314-4.0482 27.1-0.092864c-0.0169-3.923-0.0238-2.5918 0.0152-9.1234" fill="#ecc605"/>
<path d="m-0.004492 0.0021485c0.004492 9.8429 8.82e-4 -0.004129 0.004492 9.8429l22.5 0.181c-5.7844 10.798-0.37538 0.53564-5.7844 10.798l18.231-12.976 24.71 6.96 1.977-8.09 38.417 4.217c-7.009-8.328-0.0203 0.06731-7.009-8.328l71.072 7.7377-1.4473 4.8183c51.279-6.108 36.78-4.2805 51.279-6.108l-3.1704-5.346c15.726 1.8501 11.637 1.4379 15.726 1.8501l-15.835 11.47 29.301-11.854 37.695 12.224-8.6206-8.1525 37.267 0.8918-7.2047 6.317 41.396-6.1008-6.268 8.2052 33.876-4.0647-6.5318-8.0504 38.423-4.153 0.0152-2.2484" fill="#e20f47"/>
<path d="m0.018018 7.8172 25.017 1.0682-4.3331 6.8012 13.438-9.5605 24.1 7.0313l1.617-7.655 36.888 4.5707c-9.2362-10.07 0 0-9.2407-10.07-30.67-0.017983-46.498-0.012384-87.508-0.0050805l0.021628 7.8191zm166.94 0.5618-1.8718 5.0808 47.151-5.4978l-4.6958-5.7576 22.813 2.237-9.1462 7.4153 18.496-8.0484 30.471 9.9331-4.263-5.501 45.064 0.466-6.8568 6.1569 40.283-6.738-6.7296 8.5661 26.576-3.164-5.5086-7.9886 41.298-3.9254v-1.623c-104.18-0.19529-208.36 0.25233-312.53 0.0127" fill="#54940c"/>
</svg>

