<?xml version="1.0" encoding="UTF-8"?>
<svg version="1.1" viewBox="0 0 400 400" xmlns="http://www.w3.org/2000/svg" xmlns:cc="http://creativecommons.org/ns#" xmlns:dc="http://purl.org/dc/elements/1.1/" xmlns:rdf="http://www.w3.org/1999/02/22-rdf-syntax-ns#">
<metadata>
<rdf:RDF>
<cc:Work rdf:about="">
<dc:format>image/svg+xml</dc:format>
<dc:type rdf:resource="http://purl.org/dc/dcmitype/StillImage"/>
<dc:title/>
</cc:Work>
</rdf:RDF>
</metadata>
<g>
<path d="m24.352 50.991-17.349-21.022 32.499 78.963-15.184-10.48l48.091 100.84 4.228 0.58134 3.8153 5.7064c-7.3988 3.5081-11.362 17.68-11.579 20.139-10.413 3.1554-18.454 10.542-8.2988 20.454-5.5797 20.044 12.59 19.836 20.653 14.869 9.0343 9.0471 13.675 9.5361 15.277 12.699l-45.297 20.906 14.193 41.901-18.126 41.56 54.609 3.926-25.297 14.321 111.52 1.0959-23.471-9.6788-24.852-30.065 40.912-21.923-3.7291-10.499 32.701-16.55-5.362-10.325 14.463-16.425 10.932 1.736 7.2872 9.5118 9.7372-5.7233 7.3028 5.5883 10.721-3.849 36.181 18.628 4.293-12.209c5.6366-1.4362 24.531-4.7748 22.076-17.286 9.9937 2.6084 32.501 6.4442 23.733-18.951 10.861-7.591 2.1965-21.902-9.3478-24.407 3.7192-8.799-8.6126-13.597-13.568-12.618 1.3415-14.341-17.125-17.16-24.13-15.037l39.982-14.188 26.258-50.916 6.9123 34.318 15.914-23.804c0.92924-27.644 3.7215-54.254 4.3732-79.571l-6.611-29.221-27.324 40.874-28.795 10.99-14.557 27.151 0.52594-4.822-22.162 13.674 28.29-55.881-32.219 9.515-13.116 18.583-4.186 1.984 5.257-22.948-74.553 52.688 9.494 7.698-8.948 6.1832 1.0032-2.6645-16.225-2.6695-14.172 11.857 0.277-9.158-36.275-21.274-10.913 9.0512-124.26-125.04" fill="#edf0e1" fill-rule="evenodd"/>
</g>
<g>
<path d="m17.167 23.92 18.714 46.271-19.17-24.149 30.206 71.93-13.615-9.593 40.11 85.755 18.562-11.826 9.2331 9.4322-12.2-1.6674-8.0758 9.3227 5.2825 7.1775c-7.1238 2.3909-15.218 12.063-12.814 21.679-10.884-1.3206-18.483 11.175-7.1177 16.059-10.307 13.426 8.4572 21.696 17.923 9.6276 0.01712 9.7283 8.3273 14.467 16.295 12.606 0.0356 1.0421-0.17443 2.925-0.28039 3.8775l13.521-8.9035-1.96 8.61-56.781 27.022 14.208 41.169-16.875 36.55 60.364 4.9305-23.832 13.866 84.029 0.845-10.578-4.9813-26.786-32.892 41.956-22.014-3.3684-11.458 31.239-15.602-4.856-8.8795 16.638-19.314 14.209 1.0656 5.705 7.4374 10.136-4.2997 7.3297 5.6497 10.726-3.608 34.154 17.912 0.96656-3.7237-16.699-14.465 9-1.674 3.735-5.708c4.14 13.395 20.254 16.472 25.972 4.959 1.11-2.237 2.2802-7.169 2.4692-9.728 14.331 9.3103 31.977-1.8092 21.014-13.995 12.53-7.8389 4.0635-20.698-6.7971-21.037 2.289-10.326-9.8217-15.375-14.102-14.009 0.81263-14.992-14.773-14.843-22.412-12.813l-1.9703-6.8722 41.549-14.001 29.723-57.461 7.166 34.524 11.314-18.524 4.239-73.326-5.2805-22.282-22.32 34.024-29.946 11.193-11.667 22.509 27.356-7.211-12.879 18.181-25.793 8.58 2.335-15.973-25.018 15.675 29.266-57.925-22.849 5.738-13.848 18.747-9.3891 3.9106 2.335-20.298-63.701 45.62 9.597 7.968-21.632 13.656 1.838-8.841-8.3564-0.88939-18.221 14.453 0.13755-13.749-32.013-18.716-11.638 10.182-115.71-116.31" fill="#6cb444" fill-rule="evenodd"/>
</g>
<g>
<path d="m1.469 0.55 14.106 34.969-15.871-17.166 34.942 84.75-15.642-11.282 52.107 109.45l3.153-1.29 3.763 4.909c-6.1685 6.873-9.5102 9.5485-10.37 18.71-10.152 3.2321-16.952 11.859-9.237 22.707-3.1914 16.901 10.129 22.239 22.327 15.778 3.0049 4.3392 6.8437 8.935 12.905 8.941l0.6025 1.864-45.935 20.84 15.208 43.838-19.057 42.107 49.842 3.876-25.858 14.623 130.42 1.1222-34.117-14.205-21.733-26.836 40.5-21.403-4.166-10.86 33.166-16.804-5.885-9.903 12.845-15.036 8.871 1.2745 8.0035 10.688 9.613-6.08 7.8202 5.0566 10.724-3.8276 37.373 19.301 4.4827-12.108c1.348-3.899 1.161-3.699 3.189-3.412 8.2868 1.9027 21.168-5.5082 19.207-14.229 8.1532 1.8268 18.78 1.5288 23.844-3.9888 3.318-3.859 3.6134-12.51 1.0314-16.716 8.1979-3.6343 4.9553-24.023-10.393-27.188-0.24931-7.7713-5.8405-12.396-12.908-12.247-0.0833-10.308-10.546-14.745-17.168-14.891l32.142-11.059 24.358-45.425 6.408 31.488 18.245-26.324 4.846-81.455-7.947-31.9-28.915 42.109-29.396 11.212-11.203 20.538-18.678 11.465 26.917-53.384-36.706 10.783-12.895 17.524 4.973-23.335-81.223 57.837 9.9698 7.656-2.5608 1.712-19.053-2.6705-11.104 8.9535 0.18975-5.7018-38.463-22.617-10.587 9.485-131.02-132.22m131.27 135.01l10.387-9.7912 36.275 21.274-0.277 9.158 14.172-11.857 16.225 2.6695-1.0032 2.6645 8.958-6.1792-9.504-7.702 74.553-52.688-5.271 22.942 4.2-1.978 13.116-18.583 32.374-9.554-28.445 55.92 22.162-13.674-0.52594 4.822 14.557-27.151 28.795-10.99 27.324-40.874 6.611 29.221c-1.1946 24.267-3.8677 55.25-4.4042 79.64l-15.942 23.095-6.8533-33.678-26.258 50.916-39.982 14.188c15.401-2.3808 24.629 5.628 24.13 15.037 6.427-0.94339 13.757 7.575 13.568 12.618 11.414 5.0326 19.291 16.618 9.3478 24.407 6.404 17.482-6.0811 23.894-23.733 18.951-1.551 19.438-27.161 17.034-32.212 6.3335l-0.4335 2.2155-2.2638 0.13558 12.833 8.6014-4.293 12.209-36.181-18.628-10.721 3.849-7.3028-5.5883-9.7372 5.7233-7.2872-9.5118c-10.932-1.736-7.8952-1.3131-10.932-1.736l-14.463 16.425 5.362 10.325-32.799 16.707 3.827 10.342-40.832 21.835 23.587 29.644 24.627 10.272-111.49-1.1799 25.202-14.361-54.513-3.886c6.1582-13.02 12.705-27.758 18.328-40.618l-14.37-42.822 45.209-21.01 0.271-3.979c-10.303-0.0128-13.183-7.2843-14.806-10.553-11.035 7.6729-26.159 0.79958-20.882-13.021-8.7745-10.915 0.66625-18.935 8.499-20.211 0.32526-8.0966 5.8701-16.401 11.356-20.32l-4.2545-6.7655 5.888-6.1165-10.336 5.406-47.653-99.432 15.466 10.64-32.99-79.34 17.349 21.022-16.395-41.209m69.426 171.55 21.163-4.5495 12.523 22.965-17.334-2.503l19.89 41.708 10.179-5.012c0.263 0 0 0 8.223 10.198l-11.261-2.737-4.4222 26.126 11.044-5.8075-4.8329 12.304-11.716-0.875-40.806 29.956 12.342 39.703-18.674 27.79 55.525 6.7819-18.831 12.223 55.423-0.21172-28.408-28.59 4.3034 13.802-38.206-13.272 11.785-8.1109 9.3238 2.6804 45.508-17.172-13.51-5.3113 8.1777-16.574 2.1533 11.713 41.725-24.78-10.869-4.0576c19.714-16.134 0 0 28.046-23.011l16.939 1.756 8.095 6.48-2.3-10.875 15.296 9.208-4.152-10.005 48.059 26.976-29.089-23.295 20.576 0.2035 14.798-47.743-14.002-28.34 27.045-24.092 12.251-32.324-32.292 12.399 7.5786-17.237-21.093 8.2187 22.708-52.084-8.6516 1.6166-41.096 34.207c9.512-20.386 6.6012-14.148 9.512-20.386l-33.53 24.136-6.867 23.084c-6.4046-7.9286-5.7088-8.5721-6.4046-7.9286l-28.674 22.095 6.31-14.761-5.584-2.347-23.92 18.275-6.705-3.386 2.375-9.647-23.52-16.967-0.153 8.167-99.327-93m332.88 29.083-36.177 21.558 23.797-3.847-7.949 29.425-4.008-9.138-25.783 41.336 23.319-26.417 2.422 7.161-3.571 7.129-2.263-4.606-14.042 15.634 8.0825-1.8825-25.096 20.803 18.305-9.8745-15.229 12.588 13.879-4.884-29.899 17.972 38.461-16.215 36.544-62.727 7.8977 28.334 6.5193-85.892m-80.839 149.38c-2.053 0.241-3.141 0.563-3.218 0.953-0.028 0.143 1.192 4.052 2.711 8.686l2.762 8.425-9.6638 26.854c7.8953-2.877 17.79 5.2752 14.496 10.71-2.911 4.803-14.27 2.113-16.357-3.874l-2.9019 5.8103c8.7959 15.305 29.349 11.947 27.324-4.2813 10.155 9.8331 35.353 1.9624 18.61-8.7593 10.249-1.9238 6.7506-16.923-6.6126-17.503 4.8001-9.4112-3.9822-16.59-12.065-14.475 4.0943-8.2268-5.3-11.448-10.618-12.468m-224.47-0.065c-6.268 0.969-12.709 8.741-12.166 14.681 0.136 1.486 0.099 1.553-0.772 1.357-7.693-1.728-13.621 10.644-6.367 13.289 1.353 0.494 1.424 0.596 0.774 1.122-3.878 3.14-4.134 8.35-0.513 10.444 4.858 2.809 10.929 0.719 15.983-5.503 0.759-0.934 0.772-0.92 1.062 1.274 1.064 8.032 8.173 13.562 14.523 11.297l1.173-5.3865c-2.3445 3.8972-11.369-3.028-8.108-10.18 1.884-3.654 7.1572-1.7692 9.0583 2.5518l1.4148-5.6658c3.0828 0.54535 0 0 9.8608 1.6865l-22.256-30.93-3.667-0.037m1.68 7.329c2.853 1.354 2.628 4.807-0.524 8.019-4.791 4.884-11.194 2.547-8.488-3.098 1.686-3.518 6.466-6.129 9.012-4.921m226.46-0.026c3.465 1.236 1.622 4.925-2.46 4.925-4.327 0-5.432-3.802-1.455-5.003 0.723-0.218 3.224-0.168 3.915 0.078m-217.85 11.95c3.819 1.914 3.985 7.253 0.216 6.941-3.319-0.275-5.903-4.857-3.835-6.8 0.742-0.697 2.383-0.761 3.619-0.141m227.67-0.024c2.449 0.963 3.71 3.289 2.872 5.296-3.275 7.842-18.318 7.924-15.67 0.086 1.379-4.081 8.496-7.074 12.798-5.382m-251.87 0.978c7.1655-0.6175 5.794 5.731 1.793 5.976-4.896 0.3-6.331-4.482-1.793-5.976m16.02 1.88c0.892 0.267 1.231 0.696 1.231 1.558 0 2.143-4.571 3.075-5.747 1.173-1.17-1.895 1.638-3.593 4.516-2.731m-10.854 9.526c2.643 1.29 2.077 4.364-1.079 5.856-2.734 1.294-5.753 0.156-5.753-2.169 0.66009-2.9628 4.4766-4.6527 6.832-3.687m259.71 1.897c2.156 0.968 3.142 2.898 2.306 4.517-1.962 3.802-9.129 4.019-11.028 0.333-1.784-3.461 4.29-6.839 8.722-4.85m-24.374 2.878c2.54 1.315 3.317 3.308 1.848 4.743-1.5349 0.86771-1.3658 0.60866-2.375 0.57-3.258-0.127-5.362-2.011-4.869-4.361 0.302-1.439 3.399-1.986 5.396-0.952m21.324 8.852c2.775 0.974 4.219 3.128 3.376 5.035-2.41 5.448-13.938 4.42-13.102-1.168 0.473-3.162 5.752-5.262 9.726-3.867" fill="#0c5c43" fill-rule="evenodd"/>
</g>
<g display="none">
<path d="m67.482 106.74 20.809 63.925 21.861 6.006 16.687 33.861-16.319-3.2924 13.023 17.843 22.557 4.7723-13.338-49.302 24.362 8.686-2.278-13.902-87.365-68.597m162.93 52.286-14.144 35.288 22.855-7.57-5.782 15.246-24.98-0.287-9.494 23.403 41.846-14.519 15.227-42.479-21.824 11.113 4.448-13.097 33.211-10.891 13.107-30.714m-25.295 47.251-11.443 35.513 20.763-8.261c1.2139-5.427 1.1099-5.07 1.2139-5.427-6.3236 1.5475-11.982 5.6901-10.924 1.175 1.0379-2.9475 1.058-3.269 6.197-4.7781 5.688-2.024 5.626-1.2689 6.691-4.4139 1.041-3.07 1.181-3.043-4.255-0.808-5.465 2.247-5.198 2.309-4.393-1.026 0.8369-4.9707 1.5039-3.9542 11.926-7.665l10.277-16.595m-2.2654 11.729-7.962 15.802 10.314-7.27-6.149 17.613 9.626-3.353 3.409-16.492 10.649 1.992 11.113-19.352m-133.23 31.628c-7.509 19.581-7.675 19.416-7.509 19.581l9.533-4.7-6.197 18.705 13.986 1.786 3.124-26.171 10.108-3.35 10.604-29.461m-69.46 33.846 9.8558 29.795s11.303 1.6366 11.491 1.4476l2.068-9.589c-4.6181 0.49363-10.721 2.1639-10.838-0.94603-0.30441-3.2293 4.3317-3.1255 9.2188-4.592l1.559-6.181c-7.4115 2.718-13.001 6.4152-12.364 1.5202 1.1993-5.8162 0.47475-2.9968 13.261-8.6022l12.813-25.918m77.317 29.395-6.578 16.666 7.9246 38.709 18.284 3.1808 10.177-31.106-9.965-32.448m-42.474 16.229 3.956 11.073c7.717-6.233 7.426-5.728 11.333-19.633m24.033 3.4531 4.5433 20.727c-11.661 17.06-11.126 17.058-11.661 17.06-0.23 1e-3 0 0-9.1166-9.1148l-1.1154-19.402 6.412-9.725m1.568 6.331-4.109 6.149 0.478 12.839 4.894 5.115c7.621-9.445 6.686-7.828 7.621-9.445l-2.749-14.797-6.135 0.139m2.811 7.362l1.275 5.126-2.6778 3.9692-2.7052-4.5252 1.643-4.917 2.465 0.347m-68.15 1.845 9.359 10.877 2.9578 17.213-3.6208 0.36178 0.372 12.359 15.878-6.461 7.179-9.753 0.915-16.905-5.89-7.507-27.15-0.185m38.525 8.268-2.701 22.601 17.45 7.195-6.197-37.779m-67.109 6.781 2.085 8.785-7.995 24.708 13.549 10.607-0.24389-16.409 5.3996-2.3026 2.117 15.385c10.721-4.8398 0 0 10.708-5.3011l-9.144-40.129m-51.48 14.313-19.507 30.025-13.309 2.651-26.42 26.214 3.998 22.716 5.213-5.793-4.762 10.814 1.464 3.357 5.938-5.564-2.545 7.684 3.841 0.689 10.778-6.744-7.456 8.106 4.912 1.217c23.763-13.022 23.592-13.022 23.763-13.022 0.348 0 0 0-20.005 13.467l5.032 0.634 23.713-14.415 10.706-26.386-4.039-13.815 7.367-19.298 4.29 38.252 28.717-21.161-26.774-19.836 10.332-3.26 8.523-21.542-38.342-7.796m84.496 5.263-1.997 14.468-5.277 1.736c0.0661-15.172 0 0 0.088-15.172l7.186-1.032m-33.517 6.6244 0.27201 8.8136-4.4999 1.3307-2.5381-7.8954 6.7659-2.2489m-26.439 3.7901-2.326 7.844-8.5182 2.158 4.1925-11.205m-26.549 35.56 5.611 16.309-6.496 16.298-18.786 11.402-11.648-8.109 2.406-18.625 12.152-15.342 16.761-1.933m-24.679 20.957-1.044 12.445 5.91 2.766 13.596-5.749 4.972-11.716-3.624-12.537-12.07 3.823m8.503 5.691 0.173 4.381-2.398 5.631-8.296 3.492-0.278-6.499 4.946-6.524 5.853-0.481" fill="#def205" fill-rule="evenodd"/>
</g>
<g>
<path d="m66.698 106.32 20.809 63.925 21.861 6.006 16.687 33.861-16.319-3.2924 13.023 17.843 22.557 4.7723-13.338-49.302 24.362 8.686-2.278-13.902-87.365-68.597" fill="#def205" fill-rule="evenodd"/>
</g>
<g>
<path d="m145.67 201.69 9.8558 29.795s11.303 1.6366 11.491 1.4476l2.068-9.589c-4.6181 0.49363-10.721 2.1639-10.838-0.94603-0.30441-3.2293 4.3317-3.1255 9.2188-4.592l1.559-6.181c-7.4115 2.718-13.001 6.4152-12.364 1.5202 1.1993-5.8162 0.47475-2.9968 13.261-8.6022l12.813-25.918" fill="#def205" fill-rule="evenodd"/>
</g>
<g>
<path d="m182.02 191.36c-7.509 19.581-7.675 19.416-7.509 19.581l9.533-4.7-6.197 18.705 13.986 1.786 3.124-26.171 10.108-3.35 10.604-29.461" fill="#def205" fill-rule="evenodd"/>
</g>
<g>
<path d="m231.46 158.93-14.144 35.288 22.855-7.57-5.782 15.246-24.98-0.287-9.494 23.403 41.846-14.519 15.227-42.479-21.824 11.113 4.448-13.097 33.211-10.891 13.107-30.714" fill="#def205" fill-rule="evenodd"/>
</g>
<g>
<path d="m259.93 171.32-11.443 35.513 20.763-8.261c1.2139-5.427 1.1099-5.07 1.2139-5.427-6.3236 1.5475-11.982 5.6901-10.924 1.175 1.0379-2.9475 1.058-3.269 6.197-4.7781 5.688-2.024 5.626-1.2689 6.691-4.4139 1.041-3.07 1.181-3.043-4.255-0.808-5.465 2.247-5.198 2.309-4.393-1.026 0.8369-4.9707 1.5039-3.9542 11.926-7.665l10.277-16.595" fill="#def205" fill-rule="evenodd"/>
</g>
<g>
<path d="m284.81 170.39-7.962 15.802 10.314-7.27-6.149 17.613 9.626-3.353 3.409-16.492 10.649 1.992 11.113-19.352" fill="#def205" fill-rule="evenodd"/>
</g>
<g>
<path d="m149.16 247.22-19.507 30.025-13.309 2.651-26.42 26.214 3.998 22.716 5.213-5.793-4.762 10.814 1.464 3.357 5.938-5.564-2.545 7.684 3.841 0.689 10.778-6.744-7.456 8.106 4.912 1.217c23.763-13.022 23.592-13.022 23.763-13.022 0.348 0 0 0-20.005 13.467l5.032 0.634 23.713-14.415 10.706-26.386-4.039-13.815 7.367-19.298 4.29 38.252 28.717-21.161-26.774-19.836 10.332-3.26 8.523-21.542-38.342-7.796m24.54 15.678-2.326 7.844-8.5182 2.158 4.1925-11.205m-26.549 35.56 5.611 16.309-6.496 16.298-18.786 11.402-11.648-8.109 2.406-18.625 12.152-15.342 16.761-1.933" fill="#def205" fill-rule="evenodd"/>
</g>
<g>
<path d="m183.77 235.94 2.085 8.785-7.995 24.708 13.549 10.607-0.24389-16.409 5.3996-2.3026 2.117 15.385c10.721-4.8398 0 0 10.708-5.3011l-9.144-40.129m-5.073 13.394 0.27201 8.8136-4.4999 1.3307-2.5381-7.8954 6.7659-2.2489" fill="#def205" fill-rule="evenodd"/>
</g>
<g>
<path d="m203.1 229.1 9.359 10.877 2.9578 17.213-3.6208 0.36178 0.372 12.359 15.878-6.461 7.179-9.753 0.915-16.905-5.89-7.507-27.15-0.185m24.888 9.18-1.997 14.468-5.277 1.736c0.0661-15.172 0 0 0.088-15.172l7.186-1.032" fill="#def205" fill-rule="evenodd"/>
</g>
<g>
<path d="m237.43 219.84 3.956 11.073c7.717-6.233 7.426-5.728 11.333-19.633m-12.151 26.804-2.701 22.601 17.45 7.195-6.197-37.779" fill="#def205" fill-rule="evenodd"/>
</g>
<g>
<path d="m260.76 208.25-6.578 16.666 7.9246 38.709 18.284 3.1808 10.177-31.106-9.965-32.448m-3.1523 11.122 4.5433 20.727c-11.661 17.06-11.126 17.058-11.661 17.06-0.23 1e-3 0 0-9.1166-9.1148l-1.1154-19.402 6.412-9.725" fill="#def205" fill-rule="evenodd"/>
</g>
<g>
<path d="m110.86 304.37-1.044 12.445 5.91 2.766 13.596-5.749 4.972-11.716-3.624-12.537-12.07 3.823m8.503 5.691 0.173 4.381-2.398 5.631-8.296 3.492-0.278-6.499 4.946-6.524 5.853-0.481" fill="#def205" fill-rule="evenodd"/>
</g>
<g>
<path d="m268.97 218.53-4.109 6.149 0.478 12.839 4.894 5.115c7.621-9.445 6.686-7.828 7.621-9.445l-2.749-14.797-6.135 0.139m2.811 7.362 1.275 5.126-2.6778 3.9692-2.7052-4.5252 1.643-4.917 2.465 0.347" fill="#def205" fill-rule="evenodd"/>
</g>
</svg>
