<?xml version="1.0" encoding="UTF-8"?>
<svg class="bi bi-arrow-repeat" fill="currentColor" version="1.1" viewBox="0 0 16 16" xmlns="http://www.w3.org/2000/svg" xmlns:cc="http://creativecommons.org/ns#" xmlns:dc="http://purl.org/dc/elements/1.1/" xmlns:rdf="http://www.w3.org/1999/02/22-rdf-syntax-ns#">
<metadata>
<rdf:RDF>
<cc:Work rdf:about="">
<dc:format>image/svg+xml</dc:format>
<dc:type rdf:resource="http://purl.org/dc/dcmitype/StillImage"/>
<dc:title/>
</cc:Work>
</rdf:RDF>
</metadata>
<path d="M11.534 7h3.932a.25.25 0 0 1 .192.41l-1.966 2.36a.25.25 0 0 1-.384 0l-1.966-2.36a.25.25 0 0 1 .192-.41zm-11 2h3.932a.25.25 0 0 0 .192-.41L2.692 6.23a.25.25 0 0 0-.384 0L.342 8.59A.25.25 0 0 0 .534 9z"/>
<path d="M8 3c-1.552 0-2.94.707-3.857 1.818a.5.5 0 1 1-.771-.636A6.002 6.002 0 0 1 13.917 7H12.9A5.002 5.002 0 0 0 8 3zM3.1 9a5.002 5.002 0 0 0 8.757 2.182.5.5 0 1 1 .771.636A6.002 6.002 0 0 1 2.083 9H3.1z" fill-rule="evenodd"/>
<path d="m3.8678 8.0246a4.1662 4.3644 0 1 1 8.3325 0 4.1662 4.3644 0 0 1 -8.3325 0zm3.9059-3.7768c-0.34892 0.11129-0.69524 0.44735-0.98271 1.012-0.07447 0.14621-0.14374 0.30551-0.20571 0.47572 0.36715 0.08565 0.76659 0.1402 1.1884 0.15657zm-1.6931 1.3431c0.07395-0.20949 0.15832-0.40589 0.2505-0.5881a3.4892 3.6552 0 0 1 0.31091 -0.509 3.6507 3.8243 0 0 0 -1.1853 0.83032c0.18852 0.10038 0.39736 0.1904 0.6239 0.26732zm-0.38538 2.1609c0.01875-0.58373 0.09791-1.1386 0.22706-1.641a4.7516 4.9776 0 0 1 -0.81502 -0.36388 3.6267 3.7992 0 0 0 -0.7093 2.0049h1.2967zm0.72909-1.4953a6.4285 6.7342 0 0 0 -0.20831 1.4953h1.5577v-1.3142c-0.47391-0.01637-0.92855-0.0791-1.3493-0.18112zm1.8701 0.18058v1.3148h1.5571a6.4275 6.7331 0 0 0 -0.20779 -1.4953c-0.42079 0.10202-0.87543 0.16421-1.3493 0.18112zm-2.0779 1.8603c0.01823 0.53845 0.09166 1.0442 0.20779 1.4953a7.0889 7.426 0 0 1 1.3493 -0.18058v-1.3148zm2.0779 0v1.3142c0.47391 0.01637 0.92855 0.0791 1.3493 0.18112 0.11613-0.45117 0.18956-0.95689 0.20831-1.4953zm-1.7092 2.0163c0.06249 0.17021 0.13124 0.32951 0.20571 0.47572 0.28747 0.56464 0.63431 0.90015 0.98271 1.012v-1.6437c-0.42183 0.01637-0.82127 0.07092-1.1884 0.15657zm0.05729 1.2417a3.4871 3.653 0 0 1 -0.31143 -0.509 4.6105 4.8297 0 0 1 -0.2505 -0.58864 4.3641 4.5717 0 0 0 -0.6239 0.26732 3.6507 3.8243 0 0 0 1.1853 0.83032zm-0.72024-1.617a6.9576 7.2885 0 0 1 -0.22758 -1.641h-1.2967a3.6262 3.7986 0 0 0 0.7093 2.0049c0.24477-0.14075 0.51818-0.26295 0.81502-0.36388zm3.5038 1.617a3.6501 3.8237 0 0 0 1.1848 -0.82978 4.3621 4.5695 0 0 0 -0.62337 -0.26732 4.6105 4.8297 0 0 1 -0.2505 0.5881 3.483 3.6486 0 0 1 -0.31091 0.509zm-1.1317-1.3982v1.6443c0.34892-0.11129 0.69524-0.44735 0.98271-1.012 0.07447-0.14621 0.14374-0.30551 0.20571-0.47572a6.5775 6.8902 0 0 0 -1.1884 -0.15603zm1.8514-0.21876c0.29684 0.10093 0.57025 0.22313 0.81502 0.36388a3.6262 3.7986 0 0 0 0.7093 -2.0049h-1.2967a6.9576 7.2885 0 0 1 -0.22758 1.641zm1.5243-2.1865a3.6262 3.7986 0 0 0 -0.7093 -2.0049c-0.24477 0.14075-0.51818 0.26295-0.81502 0.36388 0.12915 0.5019 0.20831 1.0573 0.22758 1.641zm-1.9331-2.749c0.09218 0.18221 0.17654 0.37861 0.25102 0.5881a4.3579 4.5651 0 0 0 0.62285 -0.26732 3.6507 3.8243 0 0 0 -1.1848 -0.82923c0.11353 0.15439 0.21769 0.32569 0.31091 0.50845zm-0.25414 0.73267a4.0439 4.2362 0 0 0 -0.20571 -0.47572c-0.28747-0.56464-0.63379-0.90015-0.98271-1.012v1.6437c0.42183-0.01637 0.82127-0.07092 1.1884-0.15657z" stroke-width=".53302"/>
</svg>

