<?xml version="1.0" encoding="UTF-8" standalone="no"?>
<svg
   xmlns:dc="http://purl.org/dc/elements/1.1/"
   xmlns:cc="http://creativecommons.org/ns#"
   xmlns:rdf="http://www.w3.org/1999/02/22-rdf-syntax-ns#"
   xmlns:svg="http://www.w3.org/2000/svg"
   xmlns="http://www.w3.org/2000/svg"
   xmlns:sodipodi="http://sodipodi.sourceforge.net/DTD/sodipodi-0.dtd"
   xmlns:inkscape="http://www.inkscape.org/namespaces/inkscape"
   id="svg"
   version="1.1"
   width="400"
   height="161.14285714285717"
   viewBox="0, 0, 400,161.14285714285717"
   sodipodi:docname="volume.svg"
   inkscape:version="0.92.5 (2060ec1f9f, 2020-04-08)">
  <metadata
     id="metadata11">
    <rdf:RDF>
      <cc:Work
         rdf:about="">
        <dc:format>image/svg+xml</dc:format>
        <dc:type
           rdf:resource="http://purl.org/dc/dcmitype/StillImage" />
      </cc:Work>
    </rdf:RDF>
  </metadata>
  <defs
     id="defs9" />
  <sodipodi:namedview
     pagecolor="#ffffff"
     bordercolor="#666666"
     borderopacity="1"
     objecttolerance="10"
     gridtolerance="10"
     guidetolerance="10"
     inkscape:pageopacity="0"
     inkscape:pageshadow="2"
     inkscape:window-width="1920"
     inkscape:window-height="993"
     id="namedview7"
     showgrid="false"
     inkscape:zoom="4.9788281"
     inkscape:cx="223.71096"
     inkscape:cy="94.662852"
     inkscape:window-x="0"
     inkscape:window-y="24"
     inkscape:window-maximized="1"
     inkscape:current-layer="layer1" />
  <g
     inkscape:groupmode="layer"
     id="layer3"
     inkscape:label="black"
     sodipodi:insensitive="true">
    <path
       inkscape:connector-curvature="0"
       style="fill:#040404;fill-rule:evenodd;stroke:none"
       id="path2"
       d="M 295.109,28.308 305.14157,12.653102 256.264,34.434 265.59109,17.950091 214.625,40.167 220.63237,25.093369 183.559,42.388 189.26345,30.452659 153.713,44.696 158.362,34.788 115.756,51.097 119.486,40.486 88.671,53.833 87.9,47.025 51.588,66.333 35.865997,66.39734 -0.01729106,79.93081 0.03388987,83.403777 38.010375,98.242159 52.807894,97.596598 88.621193,115.40002 86.877278,107.59631 117.168,121.739 115.333,111.833 158.22272,130.55157 152.999,119.75 185.64747,133.57091 181.633,120.967 l 38.469,14.456 -5.272,-13.222 49.26617,20.99717 -8.44017,-15.36517 45.536,21.375 -6.034,-14.147 47.43179,25.73815 L 315.711,121.289 c 40.632,-1.065 0,0 40.632,-1.065 L 400,81.697 355.175,44.273 314.589,43.097 344.11312,0.9246263"
       sodipodi:nodetypes="ccccccccccccccccccccccccccccccccccccccccc" />
  </g>
  <g
     inkscape:groupmode="layer"
     id="layer2"
     inkscape:label="green">
    <path
       inkscape:connector-curvature="0"
       style="fill:#043c1c;fill-rule:evenodd;stroke:none"
       id="path1"
       d="m 289.984,33.499 12.849,-18.632 -51.727,24.298 12.632,-19.403 -53.75,25.091 7.975,-17.145 -40.007,18.307 9.242,-13.717 -37.233,16.607 6.383,-11.971 -44.077,17.75 5.196,-12.151 L 85.672,57.136 87.667,49.5 52.025,68.667 35.917,68.664 5.272,80 c 0.077195,3.32045 0,0 0.077195,3.32045 L 38.274,95.833003 h 14.931 l 33.507,16.958997 -1.879,-7.459 30.347,14.235 -4.526,-12.588 44.479,20.653 -8.6,-13.266 37.532,16.966 -5.786,-15.541 39.459,17.712 c -0.83659,-0.27047 0,0 -5.165,-14.254 l 49.236,22.217 -9.041,-16.732 46.243,22.426 L 291.48,129 341.646,159.83299 312,119.853 355.024,118.667 396.95372,81.373724 353.917,45.83 309.94128,45.075465 341.242,3.5"
       sodipodi:nodetypes="ccccccccccccccccccccccccccccccccccccccccc" />
  </g>
  <g
     inkscape:groupmode="layer"
     id="layer1"
     inkscape:label="orange">
    <g
       id="svgg">
      <path
         style="fill:#a34c04;fill-rule:evenodd;stroke:none"
         inkscape:connector-curvature="0"
         id="path0"
         d="m 262.334,60.497 17.499,-25.593 -53.56,26.729 12.729,-20.925 -49.19,23.879 10.537,-18.809 -51.321,23.165 11.953,-15.258 -43.148,17.777 c 2.89619,-3.664836 0,0 10.242,-14.295 -57.03842,26.769648 0,0 -36.16,16.931 1.133736,-4.509353 5.571036,-8.700999 6.904,-13.198 L 69.468468,74.598957 C 71.840722,65.152893 70.11296,72.593647 71.8,66.533 L 53.343,75.417 38.993,75.833 22.557449,82.256618 38.286,88.847 53.051811,88.76017 71.8,97.966997 70.437469,90.233187 98.069,103.833 92.52,90.726 c 36.861,15.865 0,0 36.861,15.865 -8.379,-11.85 0,0 -8.379,-11.85 39.66,18.259 0,0 39.66,18.259 -8.79,-16.011 0,0 -8.79,-16.011 46.945,20.653 0,0 46.945,20.653 -7.578,-15.799 0,0 -7.578,-15.799 48.727,22.254 0,0 48.727,22.254 -13.633,-18.808 0,0 -13.633,-18.808 52.43068,25.31149 0,0 52.43068,25.31149 -14.415,-24.244 0,0 -14.415,-24.244 48.64532,29.15451 0,0 48.64532,29.15451 -17.952,-24.55 0,0 -17.952,-24.55 30.271,-0.211 0,0 30.271,-0.211 30.865,-24.911 0,0 30.865,-24.911 -295.366,-0.448 0,0 -295.366,-0.448 V 77.942 L 356.51244,77.667 324.862,53.926 295.307,53.893 313.903,28.768"
         sodipodi:nodetypes="ccccccccccccccccccccccccccccccccccccccccccc" />
    </g>
  </g>
</svg>
