<?xml version="1.0" encoding="UTF-8"?>
<svg width="159.87" height="400.02" version="1.1" viewBox="0 0 159.87453 400.01732" xmlns="http://www.w3.org/2000/svg" xmlns:cc="http://creativecommons.org/ns#" xmlns:dc="http://purl.org/dc/elements/1.1/" xmlns:rdf="http://www.w3.org/1999/02/22-rdf-syntax-ns#">
<metadata>
<rdf:RDF>
<cc:Work rdf:about="">
<dc:format>image/svg+xml</dc:format>
<dc:type rdf:resource="http://purl.org/dc/dcmitype/StillImage"/>
<dc:title/>
</cc:Work>
</rdf:RDF>
</metadata>
<g transform="translate(-121.38 119.15)">
<path d="m148.77-14.256-15.655-10.033 21.781 48.878-16.484-9.3271 22.217 50.966-15.074-6.0074 17.295 37.073-11.935-5.7044 14.243 35.55-9.908-4.649 16.309 42.606-10.611-3.73 13.347 30.815-6.808 0.771 19.308 36.312 0.0643 15.722 13.533 35.883 3.473-0.0512 14.838-37.976-0.64557-14.798 17.803-35.813-7.8037 1.7439 14.143-30.291-9.906 1.835 18.719-42.89-10.802 5.2237 13.821-32.648-12.604 4.0145 14.456-38.469-13.222 5.272 20.997-49.266-15.365 8.4402 21.375-45.536-14.147 6.034 25.738-47.432-39.51 26.879l-1.065-40.632-38.527-43.657-37.424 44.825-1.176 40.586-42.172-29.524" fill="#040404" fill-rule="evenodd"/>
<path d="m154.27-9.2046-18.632-12.849 24.298 51.727-19.403-12.632 25.091 53.75-17.145-7.975 18.307 40.007-13.717-9.242 16.607 37.233-11.971-6.383 17.75 44.077-12.151-5.196 14.603 31.795-7.636-1.995 19.167 35.642-3e-3 16.108 11.336 30.645c3.3204-0.0772 0 0 3.3204-0.0772l12.513-32.925v-14.931l16.959-33.507-7.459 1.879 14.235-30.347-12.588 4.526 20.653-44.479-13.266 8.6 16.966-37.532-15.541 5.786 17.712-39.459c-0.27047 0.83659 0 0-14.254 5.165l22.217-49.236-16.732 9.041 22.426-46.243-18.161 7.531 30.833-50.166-39.98 29.646-1.186-43.024-37.293-41.93-35.544 43.037-0.75454 43.976-41.575-31.301" fill="#043c1c" fill-rule="evenodd"/>
<g transform="matrix(0 -1.0149 1 0 119.68 281.31)">
<path d="m262.33 60.497 17.499-25.593-53.56 26.729 12.729-20.925-49.19 23.879 10.537-18.809-51.321 23.165 11.953-15.258-43.148 17.777c2.8962-3.6648 0 0 10.242-14.295-57.038 26.77 0 0-36.16 16.931 1.1337-4.5094 5.571-8.701 6.904-13.198l-29.351 13.699c2.3723-9.4461 0.64449-2.0053 2.3315-8.066l-18.457 8.884-14.35 0.416-16.436 6.4236 15.729 6.5904 14.766-0.08683 18.748 9.2068-1.3625-7.7338 27.632 13.6-5.549-13.107 36.861 15.865-8.379-11.85 39.66 18.259-8.79-16.011 46.945 20.653-7.578-15.799 48.727 22.254-13.633-18.808 52.431 25.311-14.415-24.244 48.645 29.155c-17.952-24.55 0 0-17.952-24.55l30.271-0.211 30.865-24.911c-295.37-0.448 0 0-295.37-0.448v-7.449l295.7-0.275-31.65-23.741-29.555-0.033 18.596-25.125" fill="#a34c04" fill-rule="evenodd"/>
</g>
</g>
</svg>

