<?xml version="1.0" encoding="UTF-8" standalone="no"?>
<svg
   xmlns:dc="http://purl.org/dc/elements/1.1/"
   xmlns:cc="http://creativecommons.org/ns#"
   xmlns:rdf="http://www.w3.org/1999/02/22-rdf-syntax-ns#"
   xmlns:svg="http://www.w3.org/2000/svg"
   xmlns="http://www.w3.org/2000/svg"
   xmlns:sodipodi="http://sodipodi.sourceforge.net/DTD/sodipodi-0.dtd"
   xmlns:inkscape="http://www.inkscape.org/namespaces/inkscape"
   id="svg"
   version="1.1"
   width="400"
   height="61.20058565153733"
   viewBox="0, 0, 400,61.20058565153733"
   sodipodi:docname="bg_btm_raw.svg"
   inkscape:version="0.92.5 (2060ec1f9f, 2020-04-08)">
  <metadata
     id="metadata12">
    <rdf:RDF>
      <cc:Work
         rdf:about="">
        <dc:format>image/svg+xml</dc:format>
        <dc:type
           rdf:resource="http://purl.org/dc/dcmitype/StillImage" />
        <dc:title></dc:title>
      </cc:Work>
    </rdf:RDF>
  </metadata>
  <defs
     id="defs10" />
  <sodipodi:namedview
     pagecolor="#ffffff"
     bordercolor="#666666"
     borderopacity="1"
     objecttolerance="10"
     gridtolerance="10"
     guidetolerance="10"
     inkscape:pageopacity="0"
     inkscape:pageshadow="2"
     inkscape:window-width="1920"
     inkscape:window-height="993"
     id="namedview8"
     showgrid="false"
     inkscape:zoom="4"
     inkscape:cx="181.31403"
     inkscape:cy="80.166608"
     inkscape:window-x="0"
     inkscape:window-y="24"
     inkscape:window-maximized="1"
     inkscape:current-layer="layer3" />
  <g
     id="svgg" />
  <g
     inkscape:groupmode="layer"
     id="layer5"
     inkscape:label="black"
     sodipodi:insensitive="true">
    <path
       id="path3"
       d="m 306.841,9.994 c -2.87081,1.230096 -3.08773,1.742583 -0.378,2.565 0.618,0.216 1.572,0.446 2.122,0.511 10.09756,3.219298 21.45447,5.306934 30.784,8.502 1.90399,0.180391 2.48901,0.375643 3.506,0.818 0.467,0.056 0.926,0.178 1.021,0.272 0.318,0.319 1.903,0.206 2.271,-0.162 0.52405,-1.812778 -0.51701,-2.864617 -1.421,-4.232 -0.679,-0.943 -0.648,-1.058 0.212,-0.803 0.344,0.103 2.337,0.22 4.428,0.261 2.092,0.041 3.842,0.113 3.89,0.161 0.047,0.047 -0.971,1.144 -2.262,2.438 -1.95634,2.293054 -4.36232,4.354472 -6.121,6.105 -2.897,2.889 -3.495,3.412 -3.791,3.313 -0.443,-0.146 -2.074,-0.358 -4.852,-0.63 C 314.18571,26.492819 300.3929,23.789915 280.292,21.606 280.131,21.6 280,21.545 280,21.483 c 0,-0.355 -7.042,-1.128 -7.419,-0.815 -0.28,0.233 -0.337,1.257 -0.078,1.417 0.88016,1.093537 1.2732,2.323109 2.059,3.466 l 0.291,0.467 c -0.61375,0.03005 -1.31583,-0.09371 -1.853,-0.198 0,-0.068 -0.977,-0.177 -2.17,-0.243 -12.77106,-0.456683 -26.60569,-3.968084 -37.33,-4.916 -28.92308,-3.170245 -45.84549,-6.173417 -70.083,-9.339 -2.767,-0.417 -3.25,-0.214 -3.25,1.361 0,0.53 -0.075,1.01 -0.167,1.067 -0.096,0.059 -0.167,0.943 -0.167,2.082 0,3.15 0.279,2.921 -4.333,3.571 -13.99099,1.979608 -26.85372,5.013056 -41.667,6.535 -0.504,0.05 -0.988,0.16 -1.075,0.243 -0.087,0.084 -0.514,0.152 -0.948,0.152 -0.435,0 -0.837,0.076 -0.894,0.169 -0.12,0.193 -1.083,0.16 -1.083,-0.037 -6.70203,-1.605262 -13.81435,-2.451485 -18.844,-2.311 -3.982,0.112 -9.038,0.238 -11.237,0.281 -2.231,0.043 -4.068,0.148 -4.158,0.238 -0.088,0.088 -0.693,0.16 -1.344,0.16 -2.128,0 -2.121,1.625 0.01,2.533 0.28,0.12 0.73,0.39 1,0.601 0.743,0.581 2.747,1.866 2.91,1.866 0.079,0 0.192,0.078 0.25,0.173 0.073,0.118 -0.44145,0.300191 -1.64345,0.222191 C 74.70816,29.998137 48.05492,30.341167 45.507,29.988 c 0.094,-0.177 0.286,-0.321 0.425,-0.321 0.14,0 0.561,-0.338 0.937,-0.75 1.49468,-1.420852 4.4797,-3.35934 3.645,-4.058 -0.327,-0.611 -1.928,-0.755 -4.181,-0.377 -0.687,0.116 -1.756,0.248 -2.375,0.295 -14.27938,2.587288 -27.31728,3.531874 -40.645,5.734 -1.47986,0.23535 -3.31679,0.08334 -3.31857,1.206081 0,0.509 -0.0356,0.616969 1.27,0.138 C 1.66243,31.595081 3.99,31.268 6.583,31.065 c 13.14386,-1.703524 26.41887,-3.821947 38.834,-5.488 1.1,-0.147 2.562,-0.306 3.25,-0.353 l 1.25,-0.086 -0.417,0.473 c -1.51092,1.48731 -3.03147,2.501545 -4.661,3.806 -1.564,1.217 -1.889,1.534 -1.77,1.727 0.197,0.319 37.579,0.266 37.701,-0.053 0.175,-0.456 -0.621,-1.218 -2.012,-1.924 -0.705,-0.358 -2.583,-1.578 -3.198,-2.076 -0.287,-0.233 -0.576,-0.424 -0.64,-0.424 -0.065,0 -0.347,-0.163 -0.627,-0.363 l -0.509,-0.362 0.4,-0.161 c 0.391,-0.158 6.096,-0.388 13.399,-0.54 2.048,-0.043 3.816,-0.153 4.004,-0.25 5.74932,-0.301017 11.73416,0.98809 17.163,2.179 1.456,0.323 2.107,0.373 2.475,0.191 0.197,-0.097 0.696,-0.215 1.108,-0.261 0.413,-0.047 1.575,-0.204 2.584,-0.35 1.008,-0.147 2.245,-0.303 2.75,-0.349 13.47961,-2.110667 26.32382,-4.231001 38.916,-6.175 0.459,-0.049 0.905,-0.158 0.992,-0.241 0.087,-0.084 0.462,-0.152 0.833,-0.153 2.017,-0.002 2.131,-0.16 2.288,-3.164 0.243,-4.666 0.415,-5.155 1.591,-4.526 0.167,0.089 1.202,0.213 2.3,0.275 22.82928,3.19049 48.04238,7.05566 69.996,9.244 13.47426,2.473962 28.61417,3.949348 41.125,5.434 0.402,0.069 0.625,0.044 0.625,-0.071 0,-0.311 -0.556,-1.417 -1.017,-2.024 -0.5859,-0.823886 -1.02646,-1.790628 -1.48,-2.627 l -0.5,-0.877 0.624,0.079 c 0.343,0.043 1.247,0.121 2.008,0.173 0.762,0.052 1.812,0.215 2.334,0.361 0.521,0.147 1.398,0.334 1.948,0.417 19.16108,2.462518 39.86918,5.554905 57.75,7.703 1.146,0.135 2.496,0.295 3,0.355 l 0.917,0.108 6.566,-6.579 c 4.574,-4.584 6.536,-6.657 6.467,-6.835 -0.11,-0.287 -0.504,-0.318 -7.769,-0.605 -4.639,-0.183 -4.712,-0.178 -4.319,0.284 1.36428,2.295437 3.35854,5.349537 0.221,4.553 -12.26181,-3.858256 -24.63784,-6.016252 -36.554,-9.975 -0.806,-0.365 -0.868,-0.317 0.804,-0.633 14.02851,-3.687296 29.35503,-7.099975 43.794,-9.8859999 1.619,-0.841 3.168,-0.153 1.846,0.82 -0.194,0.143 -2.14,4.0409999 -2.14,4.2869999 0,0.226 1.696,0.169 2.334,-0.08 8.96853,-1.097585 18.7017,-3.3032664 26.901,-4.3699999 1.574,-0.211 1.544,-0.232 1.203,0.81 C 381.122,2.939 380.999,3.411 380.998,3.531 c -2.05103,6.550419 -4.28294,13.990336 -5.831,19.886 -1.006,3.551 -1.259,3.304 3.25,3.172 1.741,-0.052 6.166,-0.166 9.833,-0.254 3.667,-0.088 7.81,-0.204 9.208,-0.256 L 400,25.983 v -0.408 -0.408 h -2.633 c -1.449,0 -2.705,0.065 -2.792,0.145 -0.087,0.08 -4.406,0.19 -9.598,0.244 l -9.439,0.098 0.251,-1.035 c 1.55574,-7.623937 4.62745,-14.376293 6.211,-21.455 0.092,-0.182 0.242,-0.4799999 0.333,-0.6619999 0.59,-1.171 0.01,-2.078 -1.234,-1.929 -9.82563,1.0765072 -20.15003,4.2878729 -28.766,4.4949999 0,-0.148 1.173,-2.4539999 1.39,-2.7349999 0.44,-0.568 0.61,-1.031 0.61,-1.664 V 1.3e-7 h -1.843"
       inkscape:connector-curvature="0"
       style="fill:#040404;fill-rule:evenodd;stroke:none"
       sodipodi:nodetypes="ccccccccccscccccsccccccccscscccsccccssccscccscccccccccccccccccsccccccccccccccccccscccccccccccccccccccsccccccsccccssccccccccscc" />
  </g>
  <g
     inkscape:groupmode="layer"
     id="layer4"
     inkscape:label="red2"
     style="display:inline">
    <path
       id="path1-3"
       d="m 351.917,0.70399981 c -0.275,0.093 -0.631,0.235 -0.79,0.31599999 -0.159,0.08 -0.581,0.147 -0.938,0.147 -0.577,0 -1.218,0.187 -2.272,0.666 -0.184,0.083 -0.746,0.193 -1.25,0.244 -2.589,0.264 -4.981,0.689 -6.167,1.094 -0.623,0.212 -1.407,0.372 -3.667,0.748 -0.779,0.129 -1.791,0.318 -2.25,0.419 -8.48732,1.7415397 -15.43577,3.7582991 -23.5,5.572 -1.907,0.3950002 -2.809,0.6240002 -3,0.7620002 -0.091,0.066 -0.429,0.169 -0.75,0.23 -1.672,0.316 -1.61,0.268 -0.804,0.633 9.23189,3.155197 20.36326,6.046663 29.388,8.052 0.275,0.058 0.65,0.166 0.833,0.242 0.183,0.075 0.858,0.261 1.5,0.413 1.073,0.253 1.629,0.397 3,0.774 4.784,1.315 5.09,1.238 3.583,-0.912 -0.366,-0.524 -0.666,-1.015 -0.666,-1.091 0,-0.076 -0.114,-0.233 -0.253,-0.349 -0.14,-0.115 -0.377,-0.481 -0.528,-0.812 -0.152,-0.331 -0.387,-0.734 -0.524,-0.895 -0.393,-0.462 -0.32,-0.467 4.319,-0.284 7.265,0.287 7.659,0.318 7.769,0.605 0.069,0.178 -1.893,2.251 -6.467,6.835 L 341.917,30.692 341,30.584 c -0.504,-0.06 -1.854,-0.22 -3,-0.355 -2.508,-0.295 -4.026,-0.493 -5.583,-0.728 -0.642,-0.097 -2.067,-0.251 -3.167,-0.344 -15.50121,-2.605603 -32.70888,-4.458752 -46.917,-6.314 -0.596,-0.091 -1.533,-0.234 -2.083,-0.317 -0.55,-0.083 -1.427,-0.27 -1.948,-0.417 -0.522,-0.146 -1.572,-0.309 -2.334,-0.361 -0.761,-0.052 -1.665,-0.13 -2.008,-0.173 l -0.624,-0.079 0.5,0.877 c 0.275,0.482 0.621,1.139 0.768,1.46 0.148,0.321 0.468,0.846 0.712,1.167 0.461,0.607 1.017,1.713 1.017,2.024 0,0.115 -0.223,0.14 -0.625,0.071 -0.343,-0.06 -1.525,-0.183 -2.625,-0.274 -1.1,-0.091 -2.172,-0.238 -2.383,-0.326 -0.21,-0.089 -0.814,-0.162 -1.341,-0.162 -0.528,0 -1.03,-0.068 -1.117,-0.152 -0.087,-0.084 -0.609,-0.193 -1.159,-0.243 -31.14143,-4.024465 -60.87986,-7.695862 -91.958,-11.936 -0.665,-0.09 -2.071,-0.244 -3.125,-0.341 -1.054,-0.098 -2.147,-0.248 -2.428,-0.336 -0.282,-0.087 -0.866,-0.158 -1.299,-0.158 -0.505,0 -0.948,-0.114 -1.238,-0.319 -0.355,-0.25 -0.879,-0.342 -2.448,-0.431 -1.098,-0.062 -2.133,-0.186 -2.3,-0.275 -1.176,-0.629 -1.348,-0.14 -1.591,4.526 -0.157,3.004 -0.271,3.162 -2.288,3.164 -0.371,10e-4 -0.746,0.069 -0.833,0.153 -13.45721,2.138373 -26.92934,4.415419 -39.908,6.416 -0.505,0.046 -1.742,0.202 -2.75,0.349 -1.009,0.146 -2.171,0.303 -2.584,0.35 -0.412,0.046 -0.911,0.164 -1.108,0.261 -0.368,0.182 -1.019,0.132 -2.475,-0.191 -1.45,-0.321 -3.473,-0.689 -4.25,-0.773 -0.413,-0.045 -0.9,-0.148 -1.083,-0.229 -0.184,-0.081 -0.596,-0.186 -0.917,-0.233 -1.125,-0.165 -3.257,-0.584 -4,-0.786 -0.978,-0.265 -6.46,-0.391 -6.913,-0.158 -0.188,0.097 -1.956,0.207 -4.004,0.25 -7.303,0.152 -13.008,0.382 -13.399,0.54 l -0.4,0.161 0.509,0.362 c 0.28,0.2 0.562,0.363 0.627,0.363 0.064,0 0.353,0.191 0.64,0.424 0.615,0.498 2.493,1.718 3.198,2.076 1.391,0.706 2.187,1.468 2.012,1.924 -0.122,0.319 -37.504,0.372 -37.701,0.053 1.329992,-1.509985 3.103826,-3.028134 5.348,-4.477 0.106,0 0.436,-0.322 1.083,-1.056 l 0.417,-0.473 -1.25,0.086 c -0.688,0.047 -2.15,0.206 -3.25,0.353 -1.1,0.147 -2.525,0.337 -3.167,0.423 -0.642,0.086 -1.692,0.236 -2.333,0.333 C 28.319305,29.425932 14.537265,28.068765 1.27,31.888 1.036,32.041 0.655,32.167 0.423,32.167 0.06,32.167 0,32.241 0,32.689 c 0,0.522 0,0.522 0.708,0.401 0.39,-0.067 1.159,-0.187 1.709,-0.267 0.55,-0.081 1.487,-0.225 2.083,-0.321 11.702198,-1.571231 24.751677,-3.687614 35.583,-5.085 1.192,-0.154 2.617,-0.348 3.167,-0.431 1.638,-0.249 3.494,-0.437 3.582,-0.363 -1.374923,1.392042 -2.999919,2.481328 -4.665,3.658 -2.026,1.376 -2.582,1.87 -2.358,2.095 0.141,0.141 21.727,0.04 35.024,-0.164 9.081,-0.139 9.541,-0.186 8.889,-0.912 -0.491,-0.548 -4.595,-3.595 -5.097,-3.785 -1.01,-0.382 -0.382,-0.499 3.167,-0.587 6.601,-0.165 9.398,-0.339 10.291,-0.642 1.117,-0.378 5.142,-0.405 6.016,-0.04 0.323,0.135 2.065,0.665 3.87,1.178 1.804,0.512 4.219,1.199 5.364,1.525 3.527,1.005 3.15,0.975 6.095,0.483 1.461,-0.243 3.105,-0.523 3.655,-0.621 15.64946,-3.034046 28.22029,-4.006503 44.614,-7.608 0.284,-0.284 0.467,-1.613 0.625,-4.551 0.077,-1.429 0.192,-2.837 0.256,-3.128 l 0.116,-0.529 1.362,0.094 c 0.748,0.052 1.623,0.162 1.944,0.246 0.321,0.083 0.996,0.197 1.5,0.253 0.504,0.057 1.442,0.17 2.083,0.252 0.642,0.082 2.142,0.261 3.334,0.397 31.66518,3.879774 63.59378,9.067194 95.583,12.856 2.33,0.277 3.752,0.46 5.75,0.742 0.642,0.091 1.617,0.205 2.167,0.254 0.55,0.049 1.262,0.158 1.583,0.242 1.058,0.276 2.667,0.352 2.667,0.127 0,-0.113 -1.216,-1.421 -2.701,-2.908 -1.485,-1.488 -2.666,-2.73 -2.625,-2.762 0.144,-0.109 2.743,0.187 6.242,0.712 0.642,0.096 1.73,0.244 2.417,0.33 16.18621,2.40905 30.60865,3.994305 45.542,6.165 2.415,0.369 3.259,0.491 4.625,0.672 0.779,0.103 1.866,0.251 2.416,0.33 0.55,0.078 1.525,0.216 2.167,0.305 0.642,0.089 1.299,0.216 1.46,0.282 1.176,0.479 2.267,-0.254 6.253,-4.199 1.349,-1.336 2.866,-2.773 3.37,-3.193 0.504,-0.421 1.34,-1.142 1.856,-1.603 0.517,-0.462 1.4,-1.214 1.963,-1.672 5.725,-4.664 6.43,-5.297 6.294,-5.65 -0.099,-0.259 -0.495,-0.274 -4.819,-0.188 -14.599,0.289 -16.184,0.341 -16.246,0.529 -0.035,0.105 0.877,1.115 2.028,2.244 2.768,2.717 2.907,3.115 0.881,2.515 -0.663,-0.196 -1.957,-0.555 -2.873,-0.796 -1.97,-0.519 -2.299,-0.61 -3.834,-1.051 -8.74128,-3.654591 -17.83315,-4.272222 -25.5,-7.18 7.37054,-2.3440549 18.47744,-3.8255573 26.084,-5.6750002 0.412,-0.102 1.087,-0.252 1.5,-0.334 0.412,-0.081 1.125,-0.224 1.583,-0.317 0.742,-0.151 2.569,-0.488 4.505,-0.831 0.37,-0.066 0.905,-0.291 1.19,-0.502 0.509,-0.376 1.272,-0.506 6.597,-1.122 1.114,-0.128 1.074,-0.064 -1.641,2.659 -2.421,2.427 -2.729,2.909 -1.801,2.817 0.637,-0.063 2.547,-0.318 3.9,-0.52 7.12859,-0.8301394 15.62388,-2.0813464 22.75,-2.929 2.319,-0.276 3.78,-0.476 4.939,-0.679 0.365,-0.064 0.649,-0.034 0.716,0.073 -2.36516,8.3955842 -5.06145,14.8209232 -7.637,23.7230002 -0.151,0.819 -0.072,0.836 3.567,0.722 4.237,-0.133 15.261,-0.417 20.04,-0.517 L 400,27.822 v -0.919 -0.92 l -2.542,0.096 c -1.398,0.052 -5.541,0.168 -9.208,0.256 -3.667,0.088 -8.092,0.202 -9.833,0.254 -4.509,0.132 -4.256,0.379 -3.25,-3.172 0.104,-0.367 0.247,-0.941 0.319,-1.276 1.56247,-4.355607 2.92574,-9.126245 3.833,-13.3410002 0.151,-0.706 0.329,-1.337 0.395,-1.403 0.065,-0.065 0.119,-0.29 0.119,-0.498 0,-0.209 0.075,-0.426 0.167,-0.482 0.092,-0.057 0.169,-0.305 0.172,-0.552 0.003,-0.247 0.19,-0.823 0.415,-1.282 0.225,-0.458 0.411,-0.931 0.411,-1.052 0.001,-0.12 0.124,-0.592 0.273,-1.048 0.341,-1.042 0.371,-1.021 -1.203,-0.81 -0.725,0.097 -1.656,0.215 -2.068,0.261 -0.413,0.046 -0.9,0.151 -1.083,0.233 -0.351,0.157 -0.757,0.213 -3.584,0.498 -2.51793,0.2612737 -4.81586,0.8360904 -7.049,1.396 -3.39217,0.4549656 -6.0616,0.885072 -9.742,1.445 -0.573,0.089 -1.511,0.223 -2.084,0.3 -0.573,0.077 -1.154,0.184 -1.291,0.237 -0.638,0.249 -2.334,0.306 -2.334,0.08 0,-0.246 1.946,-4.144 2.14,-4.287 0.999,-0.735 0.226,-1.56399999 -1.056,-1.13199999"
       inkscape:connector-curvature="0"
       style="fill:#ea094a;fill-rule:evenodd;stroke:none"
       sodipodi:nodetypes="ccsccccccccccccccsccccccccccccscccccccscscssccccsccccccccccccccccccccsccccccccssccsscccccccccccccccccccccccccccccscscccccccsccccccccccccccccccccccccccccccccsccccsscscccccccccscscc" />
  </g>
  <g
     inkscape:groupmode="layer"
     id="layer2"
     inkscape:label="yellow"
     sodipodi:insensitive="true">
    <path
       id="path0"
       d="m 350.27,2.619 c -0.066,0.066 -1.287,0.245 -2.713,0.399 -2.176,0.235 -2.677,0.342 -3.112,0.6629998 -0.285,0.211 -0.82,0.436 -1.19,0.502 -1.936,0.343 -3.763,0.68 -4.505,0.831 -0.458,0.093 -1.171,0.236 -1.583,0.317 -0.413,0.082 -1.088,0.232 -1.5,0.334 -1.523,0.378 -2.813,0.642 -4.834,0.987 -0.596,0.102 -1.683,0.33 -2.416,0.506 -1.369,0.329 -1.786,0.421 -3.084,0.678 -0.412,0.082 -1.087,0.22 -1.5,0.308 -0.412,0.087 -1.2,0.247 -1.75,0.356 -1.311,0.259 -2.165,0.442 -3.083,0.66 -0.413,0.098 -1.388,0.293 -2.167,0.433 -1.66,0.299 -3.058,0.5770002 -5.416,1.0780002 -2.764,0.587 -2.639,0.775 1.166,1.752 2.098,0.539 2.491,0.646 4.334,1.179 0.825,0.239 1.8,0.498 2.166,0.576 0.367,0.078 0.929,0.223 1.25,0.322 0.321,0.1 1.446,0.413 2.5,0.697 1.054,0.283 2.554,0.69 3.334,0.904 0.779,0.213 2.016,0.54 2.75,0.726 0.733,0.187 1.82,0.483 2.416,0.658 0.596,0.176 1.421,0.405 1.834,0.509 0.412,0.104 1.275,0.341 1.916,0.526 1.535,0.441 1.864,0.532 3.834,1.051 0.916,0.241 2.21,0.6 2.873,0.796 2.026,0.6 1.887,0.202 -0.881,-2.515 -1.151,-1.129 -2.063,-2.139 -2.028,-2.244 0.062,-0.188 1.647,-0.24 16.246,-0.529 6.021,-0.12 5.902,-0.249 2.419,2.634 -1.645,1.362 -2.831,2.338 -3.894,3.204 -0.563,0.458 -1.446,1.21 -1.963,1.672 -0.516,0.461 -1.352,1.182 -1.856,1.603 -0.504,0.42 -2.021,1.857 -3.37,3.193 -3.986,3.945 -5.077,4.678 -6.253,4.199 -0.161,-0.066 -0.818,-0.193 -1.46,-0.282 -0.642,-0.089 -1.617,-0.227 -2.167,-0.305 -0.55,-0.079 -1.637,-0.227 -2.416,-0.33 -1.366,-0.181 -2.21,-0.303 -4.625,-0.672 -0.619,-0.095 -1.65,-0.239 -2.292,-0.32 -2.578,-0.327 -3.69,-0.482 -4.167,-0.581 -0.275,-0.057 -1.287,-0.181 -2.25,-0.276 -1.662,-0.163 -2.508,-0.275 -5,-0.659 -0.596,-0.092 -1.645,-0.24 -2.333,-0.33 -0.687,-0.09 -1.738,-0.232 -2.333,-0.316 -0.596,-0.084 -2.096,-0.271 -3.334,-0.416 -1.237,-0.146 -2.737,-0.343 -3.333,-0.438 -0.596,-0.096 -1.608,-0.248 -2.25,-0.338 -0.642,-0.091 -1.654,-0.237 -2.25,-0.325 -0.596,-0.089 -1.646,-0.235 -2.333,-0.325 -0.688,-0.09 -1.775,-0.242 -2.417,-0.338 -1.778,-0.267 -3.378,-0.492 -4.667,-0.657 -0.641,-0.082 -2.104,-0.271 -3.25,-0.42 -1.145,-0.149 -2.645,-0.341 -3.333,-0.426 -0.687,-0.086 -1.775,-0.234 -2.417,-0.33 -3.499,-0.525 -6.098,-0.821 -6.242,-0.712 -0.041,0.032 1.14,1.274 2.625,2.762 1.485,1.487 2.701,2.795 2.701,2.908 0,0.225 -1.609,0.149 -2.667,-0.127 -0.321,-0.084 -1.033,-0.193 -1.583,-0.242 -0.55,-0.049 -1.525,-0.163 -2.167,-0.254 -1.998,-0.282 -3.42,-0.465 -5.75,-0.742 -1.238,-0.146 -2.738,-0.34 -3.333,-0.429 -0.596,-0.09 -1.684,-0.239 -2.417,-0.332 -1.33,-0.169 -2.578,-0.346 -4.708,-0.669 -0.619,-0.094 -1.688,-0.244 -2.375,-0.334 -0.688,-0.09 -1.775,-0.24 -2.417,-0.334 -0.642,-0.093 -1.729,-0.239 -2.417,-0.323 -0.687,-0.085 -1.437,-0.196 -1.666,-0.248 -0.229,-0.051 -1.204,-0.168 -2.167,-0.26 -0.963,-0.092 -2.238,-0.242 -2.833,-0.333 -0.596,-0.091 -1.646,-0.239 -2.334,-0.329 -0.687,-0.09 -1.812,-0.241 -2.5,-0.337 -1.622,-0.224 -3.093,-0.41 -5.698,-0.717 -1.163,-0.137 -2.205,-0.305 -2.314,-0.373 -0.11,-0.067 -1.183,-0.229 -2.385,-0.358 -2.467,-0.265 -4.147,-0.473 -5.853,-0.723 -0.641,-0.094 -1.691,-0.242 -2.333,-0.329 -0.642,-0.086 -1.729,-0.236 -2.417,-0.332 -0.687,-0.096 -1.775,-0.245 -2.416,-0.332 -0.642,-0.086 -1.655,-0.231 -2.25,-0.32 -0.596,-0.09 -2.134,-0.284 -3.417,-0.432 -1.283,-0.149 -2.821,-0.343 -3.417,-0.432 -0.596,-0.089 -1.645,-0.232 -2.333,-0.317 -0.687,-0.085 -1.775,-0.234 -2.417,-0.331 -0.641,-0.097 -1.729,-0.247 -2.416,-0.332 -0.688,-0.085 -1.775,-0.236 -2.417,-0.335 -0.642,-0.099 -1.804,-0.258 -2.583,-0.354 -0.78,-0.095 -1.642,-0.204 -1.917,-0.242 -0.275,-0.038 -1.138,-0.143 -1.917,-0.233 -1.318,-0.152 -2.241,-0.279 -5,-0.687 -0.596,-0.088 -1.645,-0.234 -2.333,-0.324 -0.687,-0.09 -1.775,-0.241 -2.417,-0.335 -0.641,-0.094 -1.691,-0.237 -2.333,-0.317 -0.642,-0.081 -1.729,-0.232 -2.417,-0.336 -0.687,-0.104 -2.225,-0.3 -3.416,-0.437 -1.192,-0.136 -2.692,-0.315 -3.334,-0.397 -0.641,-0.082 -1.579,-0.195 -2.083,-0.252 -0.504,-0.056 -1.179,-0.17 -1.5,-0.253 -0.321,-0.084 -1.196,-0.194 -1.944,-0.246 l -1.362,-0.094 -0.116,0.529 c -0.064,0.291 -0.179,1.699 -0.256,3.128 -0.158,2.938 -0.341,4.267 -0.625,4.551 -0.108,0.108 -9.965,1.823 -21.905,3.813 -11.94,1.989 -22.159,3.697 -22.709,3.795 -0.55,0.098 -2.194,0.378 -3.655,0.621 -2.945,0.492 -2.568,0.522 -6.095,-0.483 -1.145,-0.326 -3.56,-1.013 -5.364,-1.525 -1.805,-0.513 -3.547,-1.043 -3.87,-1.178 -0.874,-0.365 -4.899,-0.338 -6.016,0.04 -0.893,0.303 -3.69,0.477 -10.291,0.642 -3.549,0.088 -4.177,0.205 -3.167,0.587 0.502,0.19 4.606,3.237 5.097,3.785 0.652,0.726 0.192,0.773 -8.889,0.912 -13.297,0.204 -34.883,0.305 -35.024,0.164 -0.224,-0.225 0.332,-0.719 2.358,-2.095 0.504,-0.342 1.254,-0.883 1.666,-1.201 0.413,-0.318 1.013,-0.763 1.334,-0.988 0.885,-0.622 1.758,-1.391 1.665,-1.469 -0.088,-0.074 -1.944,0.114 -3.582,0.363 -0.55,0.083 -1.975,0.277 -3.167,0.431 -2.747,0.354 -4.036,0.53 -5.5,0.75 -1.67,0.251 -3.072,0.451 -5.166,0.738 -1.009,0.138 -2.396,0.335 -3.084,0.436 -0.687,0.102 -1.7,0.253 -2.25,0.334 -0.55,0.082 -1.562,0.23 -2.25,0.33 -0.687,0.1 -1.7,0.25 -2.25,0.334 -0.55,0.083 -1.562,0.233 -2.25,0.333 -2.249,0.328 -3.588,0.526 -6.666,0.989 -0.688,0.104 -2.113,0.296 -3.167,0.428 -1.054,0.131 -2.404,0.317 -3,0.413 -0.596,0.096 -1.533,0.24 -2.083,0.321 -0.55,0.08 -1.319,0.2 -1.709,0.267 L 0,33.211 v 3.165 3.166 L 0.792,39.444 C 1.583,39.346 3.79,38.943 5.125,38.654 5.515,38.569 6.167,38.437 6.574,38.361 6.982,38.285 7.413,38.143 7.533,38.046 7.652,37.95 8.2,37.78 8.75,37.67 c 0.55,-0.11 1.6,-0.336 2.333,-0.503 1.667,-0.379 2.905,-0.63 4.084,-0.829 0.504,-0.085 1.254,-0.238 1.666,-0.34 0.413,-0.102 1.088,-0.251 1.5,-0.331 1.177,-0.229 1.656,-0.333 3.084,-0.668 0.733,-0.171 2.008,-0.433 2.833,-0.58 0.825,-0.147 2.137,-0.415 2.917,-0.596 0.779,-0.18 1.736,-0.402 2.127,-0.492 1.46,-0.338 1.843,-0.018 0.831,0.693 -0.298,0.21 -1.151,0.908 -1.895,1.553 -0.744,0.645 -1.74,1.473 -2.212,1.84 -0.473,0.366 -1.083,0.842 -1.356,1.056 -1.036,0.815 -0.623,1.194 1.505,1.379 1.808,0.159 6.494,0.62 8.333,0.822 3.592,0.394 4.631,0.492 7.75,0.736 1.833,0.143 4.008,0.334 4.833,0.424 0.825,0.091 2.303,0.222 3.284,0.291 1.045,0.073 1.87,0.211 1.992,0.333 0.271,0.272 0.583,0.266 0.691,-0.014 0.093,-0.243 -0.379,-0.747 -2.086,-2.225 -2.536,-2.196 -3.183,-2.719 -3.368,-2.719 -0.106,0 -0.524,-0.337 -0.929,-0.749 -1.009,-1.028 -0.849,-1.129 1.602,-1.007 3.02,0.15 21.344,0.689 25.148,0.739 2.249,0.03 2.085,-0.224 2.129,3.315 0.048,3.852 -0.026,3.742 2.152,3.196 0.853,-0.215 1.651,-0.464 1.772,-0.556 0.217,-0.162 0.95,-0.482 3.28,-1.429 0.642,-0.261 1.579,-0.657 2.083,-0.881 1.208,-0.538 2.33,-0.999 4.74,-1.95 2.865,-1.131 2.971,-0.749 -1.365,-4.949 -2.039,-1.975 -3.708,-3.688 -3.708,-3.806 0,-0.248 0.955,-0.314 8.871,-0.616 l 5.288,-0.202 0.629,0.503 c 0.346,0.278 2.046,1.576 3.779,2.886 l 3.15,2.381 1.267,-0.112 c 1.456,-0.128 5.918,-0.67 7.516,-0.913 0.596,-0.091 4.008,-0.697 7.583,-1.346 3.575,-0.65 7.363,-1.333 8.417,-1.518 1.054,-0.185 2.517,-0.442 3.25,-0.57 0.733,-0.129 1.746,-0.317 2.25,-0.417 0.504,-0.1 1.967,-0.361 3.25,-0.581 1.283,-0.219 2.933,-0.513 3.667,-0.652 0.733,-0.14 2.195,-0.404 3.25,-0.587 1.054,-0.182 2.929,-0.519 4.166,-0.748 1.238,-0.229 3.113,-0.567 4.167,-0.751 1.855,-0.323 10.477,-1.885 12,-2.175 0.412,-0.078 1.162,-0.22 1.667,-0.316 0.504,-0.096 1.554,-0.298 2.333,-0.449 0.779,-0.151 1.754,-0.335 2.167,-0.408 4.881,-0.864 4.883,-0.835 -0.25,-3.433 -9.019,-4.564 -9.601,-5.071 -4.667,-4.066 0.367,0.075 1.117,0.225 1.667,0.334 0.55,0.108 1.337,0.269 1.75,0.356 0.412,0.088 1.162,0.23 1.666,0.317 0.505,0.086 1.292,0.232 1.75,0.325 1.185,0.239 3.507,0.662 4.584,0.835 0.504,0.081 1.254,0.219 1.666,0.308 0.413,0.089 1.2,0.25 1.75,0.359 0.55,0.108 1.319,0.265 1.709,0.348 0.389,0.084 1.064,0.227 1.5,0.32 0.435,0.092 1.204,0.236 1.708,0.318 1.591,0.261 4.699,0.852 6.333,1.205 0.413,0.089 1.163,0.229 1.667,0.311 0.905,0.147 1.79,0.317 3.417,0.656 0.458,0.095 1.508,0.293 2.333,0.439 2.832,0.501 3.442,0.616 5.667,1.069 0.366,0.075 1.079,0.218 1.583,0.318 0.504,0.1 1.254,0.259 1.667,0.353 0.412,0.094 1.162,0.24 1.666,0.325 0.505,0.084 1.292,0.23 1.75,0.324 0.912,0.186 3.351,0.635 4.667,0.859 0.964,0.164 2.147,0.396 3.333,0.654 0.459,0.099 1.209,0.253 1.667,0.341 0.458,0.088 1.208,0.234 1.667,0.325 0.458,0.092 1.508,0.279 2.333,0.416 0.825,0.137 1.838,0.318 2.25,0.402 0.412,0.084 1.2,0.241 1.75,0.35 0.55,0.109 1.338,0.27 1.75,0.358 0.412,0.088 1.125,0.228 1.583,0.311 0.772,0.14 1.224,0.228 3.375,0.655 1.137,0.225 3.461,0.659 4.625,0.863 1.204,0.21 2.241,0.409 3.25,0.623 0.413,0.088 1.2,0.248 1.75,0.357 0.55,0.108 1.338,0.265 1.75,0.348 0.413,0.082 1.163,0.219 1.667,0.304 0.985,0.166 3.444,0.623 4.667,0.867 0.412,0.083 1.162,0.221 1.666,0.308 0.504,0.086 1.292,0.239 1.75,0.339 0.459,0.1 1.19,0.254 1.625,0.341 0.436,0.088 1.148,0.231 1.584,0.318 0.435,0.088 1.166,0.238 1.625,0.334 0.458,0.096 1.355,0.25 1.993,0.341 0.638,0.091 1.287,0.206 1.442,0.256 0.155,0.049 0.721,0.168 1.257,0.265 1.113,0.2 2.305,0.435 3.391,0.67 0.412,0.089 1.162,0.228 1.667,0.309 0.504,0.08 1.254,0.219 1.666,0.308 1.617,0.347 2.783,0.523 3.5,0.529 0.413,0.003 1.275,0.151 1.917,0.329 0.642,0.178 1.429,0.327 1.75,0.331 0.321,0.004 1.167,0.193 1.881,0.421 0.714,0.228 1.531,0.415 1.814,0.415 0.284,0 0.809,0.088 1.166,0.195 0.983,0.294 1.051,0.141 1.083,-2.412 0.015,-1.21 0.09,-3.4 0.166,-4.866 l 0.14,-2.667 0.417,0.037 c 0.229,0.02 0.866,0.116 1.416,0.214 1.177,0.208 2.201,0.373 4.584,0.737 0.962,0.146 2.087,0.342 2.5,0.434 0.412,0.093 1.237,0.248 1.833,0.345 0.596,0.097 1.496,0.248 2,0.335 0.504,0.088 1.329,0.229 1.833,0.315 0.504,0.085 1.329,0.227 1.834,0.314 0.504,0.087 1.741,0.283 2.75,0.434 1.008,0.151 2.208,0.338 2.666,0.416 0.459,0.079 1.359,0.229 2,0.336 0.642,0.106 1.542,0.259 2,0.34 0.459,0.081 1.321,0.231 1.917,0.333 0.596,0.101 1.477,0.254 1.958,0.339 1.994,0.352 2.679,0.47 3.709,0.639 0.595,0.097 1.758,0.293 2.583,0.434 0.825,0.142 1.987,0.336 2.583,0.433 0.596,0.096 1.459,0.241 1.917,0.322 0.458,0.081 1.321,0.231 1.917,0.333 0.595,0.101 1.477,0.254 1.958,0.339 1.871,0.33 2.693,0.463 4.542,0.734 1.054,0.155 2.329,0.352 2.833,0.44 0.504,0.087 1.329,0.223 1.833,0.301 0.504,0.079 1.09,0.199 1.302,0.267 0.443,0.142 1.697,-1.082 5.365,-5.241 1.146,-1.299 2.646,-2.994 3.333,-3.767 0.688,-0.772 1.775,-2.01 2.417,-2.75 1.605,-1.852 3.189,-3.665 4.583,-5.246 0.647,-0.734 1.701,-1.934 2.342,-2.667 0.642,-0.733 1.455,-1.633 1.806,-2 0.352,-0.367 0.916,-1.034 1.254,-1.482 0.339,-0.449 0.946,-1.161 1.35,-1.582 0.404,-0.422 0.678,-0.823 0.608,-0.893 -0.119,-0.119 -4.787,0.048 -10.61,0.381 -1.466,0.084 -4.091,0.23 -5.833,0.324 -1.742,0.094 -4.367,0.244 -5.833,0.333 -1.467,0.088 -3.979,0.236 -5.584,0.328 -6.023,0.345 -6.137,0.373 -4.958,1.197 0.298,0.208 0.879,0.709 1.292,1.114 l 0.75,0.735 -0.75,-0.116 c -0.413,-0.064 -0.975,-0.179 -1.25,-0.257 -1.019,-0.288 -2.866,-0.828 -3.917,-1.147 -0.596,-0.181 -1.346,-0.377 -1.667,-0.437 -0.321,-0.059 -1.071,-0.251 -1.666,-0.425 -0.596,-0.175 -1.646,-0.473 -2.334,-0.663 -0.687,-0.19 -1.596,-0.458 -2.02,-0.595 -0.423,-0.137 -1.323,-0.392 -2,-0.567 -4.997,-1.288 -5.027,-1.447 -0.396,-2.0800002 0.916,-0.126 2.004,-0.309 2.416,-0.407 0.768,-0.183 3.694,-0.742 5.334,-1.019 0.504,-0.086 1.291,-0.232 1.75,-0.324 0.458,-0.093 1.283,-0.242 1.833,-0.331 0.55,-0.09 1.375,-0.244 1.833,-0.344 0.459,-0.099 1.546,-0.295 2.417,-0.434 1.876,-0.299 2.923,-0.482 4.167,-0.726 1.703,-0.334 2.746,-0.503 3.666,-0.593 l 0.917,-0.091 -0.667,0.602 c -0.366,0.332 -0.898,0.767 -1.181,0.967 -1.503,1.066 -1.89,1.382 -1.896,1.552 -0.007,0.227 1.267,0.455 1.546,0.278 0.109,-0.07 1.436,-0.187 2.948,-0.261 1.512,-0.074 3.837,-0.206 5.167,-0.293 1.329,-0.086 3.691,-0.235 5.25,-0.33 1.558,-0.094 3.958,-0.245 5.333,-0.335 10.126,-0.663 14.283,-0.863 14.451,-0.695 0.143,0.143 -0.463,1.379 -3.53,7.1990002 -2.855,5.42 -4.979,9.468 -7.039,13.417 -1.052,2.017 -2.233,4.255 -2.624,4.974 -0.419,0.769 -0.649,1.368 -0.561,1.456 0.085,0.085 8.227,0.168 19.101,0.193 L 400,34.417 v -3.298 -3.297 l -4.125,0.086 c -4.779,0.1 -15.803,0.384 -20.04,0.517 -3.639,0.114 -3.718,0.097 -3.567,-0.722 0.062,-0.341 1.831,-5.778 3.93,-12.082 2.1,-6.3040002 3.767,-11.5420002 3.707,-11.6410002 -0.067,-0.107 -0.351,-0.137 -0.716,-0.073 -1.159,0.203 -2.62,0.403 -4.939,0.679 -3.272,0.388 -6.243,0.772 -8.333,1.076 -0.642,0.093 -1.767,0.247 -2.5,0.342 -0.734,0.094 -1.859,0.24 -2.5,0.323 -0.642,0.084 -2.179,0.272 -3.417,0.418 -2.803,0.331 -4.602,0.562 -6,0.77 -1.353,0.202 -3.263,0.457 -3.9,0.52 -0.928,0.092 -0.62,-0.39 1.801,-2.817 1.338,-1.342 2.432,-2.5019998 2.432,-2.5789998 0,-0.169 -1.396,-0.187 -1.563,-0.02"
       inkscape:connector-curvature="0"
       style="fill:#ebc704;fill-rule:evenodd;stroke:none"
       sodipodi:nodetypes="ccccccccccccccccccccccccccccccccccccscccccccccccccccccccccscscccccccccsccccccccccccscccscsccccccccccccccscscccccccccccccccccccccccccscccccccccscccccscccsccccccccccsccccccccccsccccccccscscccccccsccccccccccccccccccscccccscsssscccccccccccccsccccccssssccccccccsccccccccccccsccccccccccccccscscccccccccccccccccccccccccccscccscccsccccccccccccccccccsc" />
  </g>
  <g
     inkscape:groupmode="layer"
     id="layer3"
     inkscape:label="red1"
     style="display:inline">
    <path
       id="path1"
       d="m 343.122,5.7669999 c -0.055,0.055 -0.536,0.165 -1.069,0.244 -0.534,0.08 -1.382,0.225 -1.886,0.323 -1.26,0.246 -2.31,0.429 -4.167,0.725 -0.871,0.139 -1.958,0.335 -2.417,0.434 -0.458,0.1 -1.283,0.254 -1.833,0.344 -0.55,0.089 -1.375,0.238 -1.833,0.331 -0.459,0.092 -1.246,0.238 -1.75,0.324 -1.64,0.277 -4.566,0.836 -5.334,1.019 -0.412,0.098 -1.5,0.281 -2.416,0.407 C 315.786,10.551 315.816,10.71 320.813,11.998 c 0.677,0.175 1.577,0.43 2,0.567 0.424,0.137 1.333,0.405 2.02,0.595 0.688,0.19 1.738,0.488 2.334,0.663 0.595,0.174 1.345,0.366 1.666,0.425 0.321,0.06 1.071,0.256 1.667,0.437 1.051,0.319 2.898,0.859 3.917,1.147 0.275,0.078 0.837,0.193 1.25,0.257 l 0.75,0.116 -0.75,-0.735 c -0.413,-0.405 -0.994,-0.906 -1.292,-1.114 -1.179,-0.824 -1.065,-0.852 4.958,-1.197 1.605,-0.092 4.117,-0.24 5.584,-0.328 1.466,-0.089 4.091,-0.239 5.833,-0.333 1.742,-0.094 4.367,-0.24 5.833,-0.324 5.823,-0.333 10.491,-0.5 10.61,-0.381 0.07,0.07 -0.204,0.471 -0.608,0.893 -0.404,0.421 -1.011,1.133 -1.35,1.582 -0.338,0.448 -0.902,1.115 -1.254,1.482 -0.351,0.367 -1.164,1.267 -1.806,2 -0.641,0.733 -1.695,1.933 -2.342,2.667 -1.394,1.581 -2.978,3.394 -4.583,5.246 -0.642,0.74 -1.729,1.978 -2.417,2.75 -0.687,0.773 -2.187,2.468 -3.333,3.767 -3.668,4.159 -4.922,5.383 -5.365,5.241 -0.212,-0.068 -0.798,-0.188 -1.302,-0.267 -0.504,-0.078 -1.329,-0.214 -1.833,-0.301 -0.504,-0.088 -1.779,-0.285 -2.833,-0.44 -1.849,-0.271 -2.671,-0.404 -4.542,-0.734 -0.481,-0.085 -1.363,-0.238 -1.958,-0.339 -0.596,-0.102 -1.459,-0.252 -1.917,-0.333 -0.458,-0.081 -1.321,-0.226 -1.917,-0.322 -0.596,-0.097 -1.758,-0.291 -2.583,-0.433 -0.825,-0.141 -1.988,-0.337 -2.583,-0.434 -0.596,-0.098 -1.459,-0.244 -1.917,-0.325 -0.458,-0.081 -1.321,-0.231 -1.917,-0.333 -0.596,-0.101 -1.477,-0.254 -1.958,-0.339 -1.955,-0.345 -2.678,-0.47 -3.792,-0.654 -0.641,-0.107 -1.541,-0.257 -2,-0.336 -0.458,-0.078 -1.658,-0.265 -2.666,-0.416 -1.009,-0.151 -2.246,-0.347 -2.75,-0.434 -0.505,-0.087 -1.33,-0.229 -1.834,-0.314 -0.504,-0.086 -1.329,-0.227 -1.833,-0.315 -0.504,-0.087 -1.404,-0.238 -2,-0.335 -0.596,-0.097 -1.421,-0.252 -1.833,-0.345 -0.413,-0.092 -1.538,-0.288 -2.5,-0.434 -2.383,-0.364 -3.407,-0.529 -4.584,-0.737 -0.55,-0.098 -1.187,-0.194 -1.416,-0.214 l -0.417,-0.037 -0.14,2.667 c -0.076,1.466 -0.151,3.656 -0.166,4.866 -0.032,2.553 -0.1,2.706 -1.083,2.412 C 287.504,38.088 286.979,38 286.695,38 c -0.283,0 -1.1,-0.187 -1.814,-0.415 -0.714,-0.228 -1.56,-0.417 -1.881,-0.421 -0.321,-0.004 -1.108,-0.153 -1.75,-0.331 -0.642,-0.178 -1.504,-0.326 -1.917,-0.329 -0.717,-0.006 -1.883,-0.182 -3.5,-0.529 -0.412,-0.089 -1.162,-0.228 -1.666,-0.308 -0.505,-0.081 -1.255,-0.22 -1.667,-0.308 -0.975,-0.21 -2.543,-0.518 -3.549,-0.698 -0.44,-0.079 -0.93,-0.185 -1.09,-0.236 -0.161,-0.051 -0.813,-0.167 -1.451,-0.258 -0.638,-0.091 -1.535,-0.245 -1.993,-0.341 -0.459,-0.096 -1.209,-0.249 -1.667,-0.339 -1.228,-0.242 -2.229,-0.449 -3.167,-0.654 -0.458,-0.1 -1.246,-0.253 -1.75,-0.339 -0.504,-0.087 -1.254,-0.225 -1.666,-0.308 -1.223,-0.244 -3.682,-0.701 -4.667,-0.867 -0.504,-0.085 -1.254,-0.222 -1.667,-0.304 -0.412,-0.083 -1.2,-0.24 -1.75,-0.348 -0.55,-0.109 -1.337,-0.269 -1.75,-0.357 -1.009,-0.214 -2.046,-0.413 -3.25,-0.623 -1.164,-0.204 -3.488,-0.638 -4.625,-0.863 -2.151,-0.427 -2.603,-0.515 -3.375,-0.655 -0.458,-0.083 -1.171,-0.223 -1.583,-0.311 -0.412,-0.088 -1.2,-0.249 -1.75,-0.358 -0.55,-0.109 -1.338,-0.266 -1.75,-0.35 -0.412,-0.084 -1.425,-0.265 -2.25,-0.402 -0.825,-0.137 -1.875,-0.324 -2.333,-0.416 -0.459,-0.091 -1.209,-0.237 -1.667,-0.325 -0.458,-0.088 -1.208,-0.242 -1.667,-0.341 -1.186,-0.258 -2.369,-0.49 -3.333,-0.654 -1.316,-0.224 -3.755,-0.673 -4.667,-0.859 -0.458,-0.094 -1.245,-0.24 -1.75,-0.324 -0.504,-0.085 -1.254,-0.231 -1.666,-0.325 -0.413,-0.094 -1.163,-0.253 -1.667,-0.353 -0.504,-0.1 -1.217,-0.243 -1.583,-0.318 -2.225,-0.453 -2.835,-0.568 -5.667,-1.069 -0.825,-0.146 -1.875,-0.344 -2.333,-0.439 -1.638,-0.341 -2.514,-0.509 -3.417,-0.655 -0.504,-0.082 -1.329,-0.235 -1.833,-0.34 -2.262,-0.475 -4.58,-0.917 -6.167,-1.177 -0.504,-0.082 -1.273,-0.226 -1.708,-0.318 -0.436,-0.093 -1.111,-0.236 -1.5,-0.32 -0.39,-0.083 -1.159,-0.24 -1.709,-0.348 -0.55,-0.109 -1.337,-0.27 -1.75,-0.359 -0.412,-0.089 -1.162,-0.227 -1.666,-0.308 -1.077,-0.173 -3.399,-0.596 -4.584,-0.835 -0.458,-0.093 -1.245,-0.239 -1.75,-0.325 -0.504,-0.087 -1.254,-0.229 -1.666,-0.317 -0.413,-0.087 -1.2,-0.248 -1.75,-0.356 -0.55,-0.109 -1.3,-0.259 -1.667,-0.334 -4.934,-1.005 -4.352,-0.498 4.667,4.066 5.133,2.598 5.131,2.569 0.25,3.433 -0.413,0.073 -1.388,0.257 -2.167,0.408 -0.779,0.151 -1.829,0.353 -2.333,0.449 -0.505,0.096 -1.255,0.238 -1.667,0.316 -1.523,0.29 -10.145,1.852 -12,2.175 -1.054,0.184 -2.929,0.522 -4.167,0.751 -1.237,0.229 -3.112,0.566 -4.166,0.748 -1.055,0.183 -2.517,0.447 -3.25,0.587 -0.734,0.139 -2.384,0.433 -3.667,0.652 -1.283,0.22 -2.746,0.481 -3.25,0.581 -0.504,0.1 -1.779,0.333 -2.833,0.517 -3.215,0.561 -4.344,0.763 -11.084,1.988 -3.575,0.649 -6.987,1.255 -7.583,1.346 -1.598,0.243 -6.06,0.785 -7.516,0.913 l -1.267,0.112 -3.15,-2.381 c -1.733,-1.31 -3.433,-2.608 -3.779,-2.886 l -0.629,-0.503 -5.288,0.202 c -7.916,0.302 -8.871,0.368 -8.871,0.616 0,0.118 1.669,1.831 3.708,3.806 4.336,4.2 4.23,3.818 1.365,4.949 -2.41,0.951 -3.532,1.412 -4.74,1.95 -0.504,0.224 -1.441,0.62 -2.083,0.881 -2.33,0.947 -3.063,1.267 -3.28,1.429 -0.121,0.092 -0.919,0.341 -1.772,0.556 -2.178,0.546 -2.104,0.656 -2.152,-3.196 -0.044,-3.539 0.12,-3.285 -2.129,-3.315 -3.804,-0.05 -22.128,-0.589 -25.148,-0.739 -2.451,-0.122 -2.611,-0.021 -1.602,1.007 0.405,0.412 0.823,0.749 0.929,0.749 0.185,0 0.832,0.523 3.368,2.719 1.707,1.478 2.179,1.982 2.086,2.225 -0.108,0.28 -0.42,0.286 -0.691,0.014 -0.122,-0.122 -0.947,-0.26 -1.992,-0.333 -0.981,-0.069 -2.459,-0.2 -3.284,-0.291 -0.825,-0.09 -3,-0.281 -4.833,-0.424 -3.119,-0.244 -4.158,-0.342 -7.75,-0.736 -1.839,-0.202 -6.525,-0.663 -8.333,-0.822 -2.128,-0.185 -2.541,-0.564 -1.505,-1.379 0.273,-0.214 0.883,-0.69 1.356,-1.056 0.472,-0.367 1.468,-1.195 2.212,-1.84 0.744,-0.645 1.597,-1.343 1.895,-1.553 1.012,-0.711 0.629,-1.031 -0.831,-0.693 -0.391,0.09 -1.348,0.312 -2.127,0.492 -0.78,0.181 -2.092,0.449 -2.917,0.596 -0.825,0.147 -2.1,0.409 -2.833,0.58 -1.428,0.335 -1.907,0.439 -3.084,0.668 -0.412,0.08 -1.087,0.229 -1.5,0.331 -0.412,0.102 -1.162,0.255 -1.666,0.34 -1.179,0.199 -2.417,0.45 -4.084,0.829 C 10.35,37.334 9.3,37.56 8.75,37.67 8.2,37.78 7.652,37.95 7.533,38.046 7.413,38.143 6.982,38.285 6.574,38.361 6.167,38.437 5.515,38.569 5.125,38.654 3.79,38.943 1.583,39.346 0.792,39.444 0.017,39.54 0,39.555 0,40.126 c 0,0.664 -0.097,0.659 2.25,0.127 1.753,-0.397 2.733,-0.589 3.779,-0.742 0.52,-0.076 1.308,-0.215 1.75,-0.31 0.442,-0.094 1.254,-0.257 1.804,-0.363 0.55,-0.105 1.231,-0.262 1.512,-0.348 0.282,-0.086 0.694,-0.159 0.917,-0.162 0.222,-0.003 0.55,-0.115 0.728,-0.25 0.178,-0.135 0.608,-0.245 0.956,-0.245 0.576,0 1.112,-0.097 2.804,-0.509 0.321,-0.078 1.671,-0.338 3,-0.578 1.329,-0.239 2.647,-0.505 2.928,-0.591 1.996,-0.605 2.24,-0.015 0.539,1.303 -3.507,2.718 -3.518,2.883 -0.217,3.225 0.917,0.095 2.304,0.239 3.083,0.321 0.78,0.081 2.242,0.223 3.25,0.315 1.009,0.092 2.246,0.212 2.75,0.267 0.504,0.056 2.192,0.174 3.75,0.263 4.855,0.277 6.14,0.404 7,0.694 0.471,0.158 1.921,0.359 3.334,0.462 1.375,0.1 3.175,0.249 4,0.33 0.825,0.081 2.287,0.21 3.25,0.286 0.962,0.077 1.848,0.2 1.967,0.275 0.95,0.591 1.257,-0.391 0.324,-1.037 -0.652,-0.452 -1.809,-1.631 -4.103,-4.184 -1.341,-1.49 -1.258,-1.554 1.853,-1.434 6.977,0.269 8.252,0.35 8.483,0.542 0.153,0.128 1.197,0.232 2.899,0.288 1.463,0.049 4.01,0.133 5.659,0.187 3.888,0.127 3.584,-0.169 3.584,3.5 0,3.387 -0.267,3.075 2.639,3.075 2.144,0 4.202,-0.566 5.753,-1.582 0.2,-0.131 0.663,-0.345 1.028,-0.476 0.365,-0.131 1.395,-0.584 2.29,-1.006 C 86.437,41.346 87.234,41 87.314,41 c 0.08,0 0.232,-0.105 0.339,-0.234 0.107,-0.128 0.377,-0.279 0.6,-0.335 0.224,-0.056 0.765,-0.311 1.202,-0.566 0.914,-0.534 2.671,-1.198 3.167,-1.198 0.185,0 0.417,-0.096 0.514,-0.213 0.22,-0.266 2.286,-1.234 2.917,-1.367 0.977,-0.206 0.577,-0.586 -2.131,-2.024 -0.456,-0.241 -1.093,-0.655 -1.417,-0.918 -0.488,-0.397 -2.07,-1.553 -3.963,-2.895 -0.95,-0.673 -0.598,-0.75 3.416,-0.751 2.086,-10e-4 4.395,-0.048 5.132,-0.105 l 1.34,-0.105 1.25,1.064 c 3.231,2.75 5.54,4.931 5.838,5.515 0.403,0.79 0.04,0.81 5.491,-0.298 2.516,-0.512 5.287,-0.996 6.158,-1.077 0.87,-0.081 1.958,-0.233 2.416,-0.338 0.459,-0.105 1.696,-0.248 2.75,-0.318 1.055,-0.07 2.592,-0.25 3.417,-0.401 0.825,-0.151 1.8,-0.322 2.167,-0.381 0.366,-0.059 0.843,-0.221 1.059,-0.362 0.217,-0.14 0.967,-0.35 1.667,-0.467 1.974,-0.328 2.711,-0.491 3.535,-0.783 0.734,-0.259 1.956,-0.494 4.072,-0.78 0.55,-0.075 1.337,-0.221 1.75,-0.324 0.412,-0.104 1.125,-0.267 1.583,-0.362 0.459,-0.095 1.171,-0.245 1.584,-0.333 0.412,-0.087 1.087,-0.226 1.5,-0.308 1.225,-0.243 1.682,-0.342 3.083,-0.667 0.733,-0.17 2.046,-0.43 2.917,-0.578 0.87,-0.148 1.845,-0.336 2.166,-0.417 1.409,-0.357 2.98,-0.715 3.75,-0.855 0.459,-0.084 1.171,-0.22 1.584,-0.303 0.412,-0.083 1.237,-0.237 1.833,-0.343 0.596,-0.106 1.683,-0.331 2.417,-0.501 0.733,-0.169 1.783,-0.396 2.333,-0.503 0.55,-0.106 1.262,-0.258 1.583,-0.336 0.321,-0.078 1.034,-0.229 1.584,-0.336 0.55,-0.107 1.6,-0.331 2.333,-0.498 0.733,-0.167 2.008,-0.428 2.833,-0.581 2.147,-0.396 2.86,-0.545 4.084,-0.85 0.595,-0.149 1.438,-0.324 1.872,-0.389 1.412,-0.212 1.312,-0.487 -0.653,-1.793 -3.578,-2.377 -4.274,-3.046 -2.928,-2.815 0.344,0.059 1.038,0.168 1.542,0.243 0.504,0.075 1.486,0.26 2.181,0.412 0.696,0.152 1.784,0.351 2.417,0.441 0.634,0.091 1.527,0.244 1.985,0.34 0.459,0.096 1.171,0.243 1.584,0.326 0.412,0.084 1.125,0.231 1.583,0.328 0.458,0.096 1.246,0.246 1.75,0.333 0.504,0.086 1.254,0.229 1.667,0.316 1.048,0.222 2.506,0.495 4.166,0.778 0.779,0.133 1.792,0.318 2.25,0.412 0.459,0.093 1.246,0.242 1.75,0.329 0.505,0.088 1.311,0.237 1.792,0.332 0.481,0.095 1.269,0.25 1.75,0.345 0.481,0.094 1.287,0.244 1.792,0.331 0.504,0.088 1.291,0.233 1.75,0.323 0.458,0.09 1.508,0.279 2.333,0.42 1.564,0.268 2.812,0.505 4.083,0.776 1.195,0.254 2.352,0.479 3.25,0.633 0.459,0.078 1.284,0.232 1.834,0.342 0.55,0.11 1.337,0.267 1.75,0.35 0.412,0.083 1.425,0.263 2.25,0.4 0.825,0.138 1.875,0.326 2.333,0.419 0.458,0.094 1.246,0.241 1.75,0.327 0.504,0.087 1.254,0.229 1.667,0.316 1.452,0.309 2.759,0.561 3.583,0.693 0.458,0.073 1.471,0.254 2.25,0.401 0.779,0.147 1.867,0.342 2.417,0.432 0.925,0.151 1.361,0.237 3.291,0.649 1.263,0.27 2.69,0.548 3.542,0.691 0.458,0.077 1.171,0.212 1.583,0.3 1.494,0.319 2.778,0.56 4.167,0.781 0.779,0.125 1.829,0.308 2.333,0.407 0.505,0.099 1.329,0.253 1.834,0.34 0.504,0.088 1.273,0.236 1.708,0.328 0.435,0.093 1.148,0.244 1.583,0.336 0.436,0.092 1.242,0.237 1.792,0.323 0.55,0.085 1.637,0.281 2.417,0.434 0.779,0.154 1.791,0.338 2.25,0.409 0.818,0.128 2.139,0.382 3.541,0.682 0.39,0.083 1.065,0.227 1.5,0.319 0.436,0.093 1.204,0.24 1.709,0.327 0.504,0.087 1.329,0.233 1.833,0.325 0.504,0.091 1.554,0.279 2.333,0.416 0.779,0.138 1.867,0.338 2.417,0.445 0.918,0.178 2.07,0.343 4.118,0.589 0.431,0.052 0.871,0.2 0.978,0.329 0.107,0.129 0.468,0.234 0.802,0.234 0.334,0 1.018,0.156 1.521,0.346 1.634,0.618 1.897,0.687 3.164,0.824 0.688,0.075 1.55,0.213 1.917,0.307 3.501,0.899 3.46,0.96 3.415,-5.086 -0.034,-4.575 0.044,-4.873 1.226,-4.663 0.289,0.051 1.013,0.176 1.609,0.278 0.596,0.102 1.477,0.255 1.958,0.34 1.956,0.345 2.679,0.47 3.792,0.654 0.642,0.107 1.542,0.257 2,0.336 0.458,0.078 1.658,0.265 2.667,0.416 1.971,0.296 2.974,0.465 4.416,0.748 1.306,0.256 2.607,0.489 3.667,0.656 0.504,0.08 1.404,0.23 2,0.335 0.596,0.105 1.833,0.306 2.75,0.447 0.917,0.141 2.042,0.319 2.5,0.396 0.458,0.077 1.358,0.227 2,0.333 1.302,0.216 2.467,0.418 3.833,0.667 1.589,0.288 2.633,0.468 3.75,0.644 0.596,0.093 1.796,0.293 2.667,0.443 3.763,0.648 5.39,0.908 6.417,1.025 0.458,0.052 0.945,0.191 1.083,0.308 0.137,0.116 0.587,0.253 1,0.303 0.412,0.051 1.237,0.184 1.833,0.298 0.596,0.113 1.856,0.211 2.801,0.217 l 1.716,0.012 1.117,-1.193 c 0.614,-0.657 1.491,-1.655 1.95,-2.22 0.458,-0.564 1.47,-1.767 2.25,-2.673 0.779,-0.906 1.716,-2.035 2.083,-2.509 0.641,-0.827 1.197,-1.504 3,-3.652 0.458,-0.545 1.208,-1.45 1.667,-2.01 0.458,-0.559 1.17,-1.415 1.583,-1.901 0.412,-0.486 1.125,-1.356 1.583,-1.934 0.459,-0.579 1.396,-1.707 2.084,-2.507 0.687,-0.801 1.55,-1.841 1.916,-2.311 0.367,-0.471 0.967,-1.223 1.334,-1.672 0.366,-0.45 0.891,-1.126 1.166,-1.504 0.275,-0.378 0.728,-0.963 1.006,-1.301 0.278,-0.337 0.711,-0.891 0.961,-1.231 l 0.456,-0.6180001 -0.356,-0.19 c -0.197,-0.105 -0.587,-0.142 -0.877,-0.083 -0.288,0.059 -1.573,0.182 -2.856,0.275 -1.284,0.092 -3.271,0.237 -4.417,0.3230001 -4.995,0.373 -10.037,0.751 -13.25,0.994 -4.909,0.371 -6.7,0.494 -10.75,0.738 -6.498,0.391 -6.572,0.412 -5.439,1.572 0.565,0.579 0.771,1.02 0.481,1.026 -0.125,0.003 -0.436,-0.091 -5.459,-1.655 -1.466,-0.456 -3.409,-1.059 -4.317,-1.339 -2.553,-0.789 -2.782,-1.3420001 -0.557,-1.3420001 0.643,0 1.44,-0.075 1.772,-0.166 0.331,-0.091 1.577,-0.243 2.769,-0.337 1.192,-0.094 2.692,-0.243 3.333,-0.331 2.808,-0.386 5.688,-0.734 7.722,-0.935 1.655,-0.164 1.671,0.242 0.045,1.136 -0.969,0.533 -0.647,0.6580001 1.442,0.565 1.077,-0.048 5.933,-0.206 10.791,-0.35 17.907,-0.533 18.394,-0.556 21.709,-1.006 0.612,-0.083 0.875,-0.062 0.875,0.071 0,0.208 -2.102,4.3450001 -4.667,9.1860001 -0.898,1.696 -2.323,4.396 -3.165,6 -0.842,1.605 -2.271,4.304 -3.174,6 -2.417,4.536 -2.882,5.513 -2.708,5.687 0.092,0.091 3.408,0.118 8.225,0.065 4.44,-0.048 13.528,-0.125 20.197,-0.172 L 400,35.329 v -0.397 c 0,-0.615 0.523,-0.599 -19.254,-0.599 -12.318,0 -18.762,-0.057 -18.829,-0.167 -0.057,-0.091 0.213,-0.748 0.599,-1.458 0.387,-0.71 1.564,-2.941 2.616,-4.958 2.06,-3.949 4.184,-7.997 7.039,-13.417 3.067,-5.8200001 3.673,-7.0560001 3.53,-7.1990001 -0.165,-0.165 -5.496,0.091 -14.534,0.696 -1.33,0.089 -3.692,0.24 -5.25,0.334 -1.41028,0.095 -3.44145,0.244 -5.25,0.33 -1.33,0.087 -3.655,0.219 -5.167,0.293 -1.512,0.074 -2.839,0.191 -2.948,0.261 -0.279,0.177 -1.553,-0.051 -1.546,-0.278 0.006,-0.17 0.393,-0.486 1.896,-1.552 0.283,-0.2 0.815,-0.629 1.181,-0.952 l 0.667,-0.587 -0.764,-0.006 c -0.42,-0.004 -0.809,0.039 -0.864,0.094"
       inkscape:connector-curvature="0"
       style="fill:#ea094a;fill-rule:evenodd;stroke:none"
       sodipodi:nodetypes="cccccccccccccccccccccccscsccccccccccccccscccsccccccccsccccccccssssccccccsccccccccccccsssscscccccsccccccccccccccccccscccccccscccccccccsccccccccccsccccccccccscccscccccsccccsccccccsscccccccccccsccccccccsscscscccsccccccccccccccsccccccccccccccsccssscccccsccccccccccsccccccsccccccscccccccccccccccccccsscccccsccccccssscccccccccccccccccccccscccccccccccccscsccccccscccccccssccccscccsccccccc" />
  </g>
  <g
     inkscape:groupmode="layer"
     id="layer1"
     inkscape:label="green"
     sodipodi:insensitive="true">
    <path
       id="path2"
       d="m 337.443,8.2789995 c -0.062,0.062 -0.806,0.179 -1.653,0.26 -1.518,0.144 -2.916,0.312 -5.207,0.627 -0.641,0.088 -2.141,0.237 -3.333,0.331 -1.192,0.094 -2.438,0.246 -2.769,0.337 -0.332,0.091 -1.129,0.166 -1.772,0.166 -2.225,0 -1.996,0.5529995 0.557,1.3419995 0.908,0.28 2.851,0.883 4.317,1.339 5.023,1.564 5.334,1.658 5.459,1.655 0.29,-0.006 0.084,-0.447 -0.481,-1.026 -1.133,-1.16 -1.059,-1.181 5.439,-1.572 4.012,-0.242 5.556,-0.347 10.75,-0.737 4.706,-0.352 6.922,-0.519 8.958,-0.673 3.178,-0.241 6.102,-0.4579995 8.709,-0.6449995 1.283,-0.093 2.568,-0.216 2.856,-0.275 0.29,-0.059 0.68,-0.022 0.877,0.083 l 0.356,0.19 -0.456,0.6179995 c -0.25,0.34 -0.683,0.894 -0.961,1.231 -0.278,0.338 -0.731,0.923 -1.006,1.301 -0.275,0.378 -0.8,1.054 -1.166,1.504 -0.367,0.449 -0.967,1.201 -1.334,1.672 -0.366,0.47 -1.229,1.51 -1.916,2.311001 -0.688,0.8 -1.625,1.928 -2.084,2.507 -0.458,0.578 -1.171,1.448 -1.583,1.934 -0.413,0.486 -1.125,1.342 -1.583,1.901 -0.459,0.56 -1.209,1.465 -1.667,2.01 -1.803,2.148 -2.359,2.825 -3,3.652 -0.367,0.474 -1.304,1.603 -2.083,2.509 -0.78,0.906 -1.792,2.109 -2.25,2.673 -0.459,0.565 -1.336,1.563 -1.95,2.22 l -1.117,1.193 -1.716,-0.012 c -0.945,-0.006 -2.205,-0.104 -2.801,-0.217 -0.596,-0.114 -1.421,-0.247 -1.833,-0.298 -0.413,-0.05 -0.863,-0.187 -1,-0.303 -0.138,-0.117 -0.625,-0.256 -1.083,-0.308 -1.027,-0.117 -2.654,-0.377 -6.417,-1.025 -0.871,-0.15 -2.071,-0.35 -2.667,-0.443 -1.117,-0.176 -2.161,-0.356 -3.75,-0.644 -1.366,-0.249 -2.531,-0.451 -3.833,-0.667 -0.642,-0.106 -1.542,-0.256 -2,-0.333 -0.458,-0.077 -1.583,-0.255 -2.5,-0.396 -0.917,-0.141 -2.154,-0.342 -2.75,-0.447 -0.596,-0.105 -1.496,-0.255 -2,-0.335 -1.06,-0.167 -2.361,-0.4 -3.667,-0.656 -1.442,-0.283 -2.445,-0.452 -4.416,-0.748 -1.009,-0.151 -2.209,-0.338 -2.667,-0.416 -0.458,-0.079 -1.358,-0.229 -2,-0.336 -0.642,-0.106 -1.542,-0.259 -2,-0.34 -0.458,-0.081 -1.321,-0.231 -1.917,-0.333 -0.596,-0.101 -1.458,-0.252 -1.916,-0.334 -2.954,-0.532 -2.791,-0.793 -2.752,4.398 0.033,4.506 -0.044,5.088 -0.72,5.413 -0.467,0.225 -0.617,0.207 -2.695,-0.327 -0.367,-0.094 -1.229,-0.232 -1.917,-0.307 -1.267,-0.137 -1.53,-0.206 -3.164,-0.824 -0.503,-0.19 -1.187,-0.346 -1.521,-0.346 -0.334,0 -0.695,-0.105 -0.802,-0.234 -0.107,-0.129 -0.547,-0.277 -0.978,-0.329 -2.048,-0.246 -3.2,-0.411 -4.118,-0.589 -0.55,-0.107 -1.638,-0.307 -2.417,-0.445 -0.779,-0.137 -1.829,-0.325 -2.333,-0.416 -0.504,-0.092 -1.329,-0.238 -1.833,-0.325 -0.505,-0.087 -1.273,-0.234 -1.709,-0.327 -0.435,-0.092 -1.11,-0.236 -1.5,-0.319 -1.402,-0.3 -2.723,-0.554 -3.541,-0.682 -0.459,-0.071 -1.471,-0.255 -2.25,-0.409 -0.78,-0.153 -1.867,-0.349 -2.417,-0.434 -0.55,-0.086 -1.356,-0.231 -1.792,-0.323 -0.435,-0.092 -1.148,-0.243 -1.583,-0.336 -0.435,-0.092 -1.204,-0.24 -1.708,-0.328 -0.505,-0.087 -1.329,-0.241 -1.834,-0.34 -0.504,-0.099 -1.554,-0.282 -2.333,-0.407 -1.389,-0.221 -2.673,-0.462 -4.167,-0.781 -0.412,-0.088 -1.125,-0.223 -1.583,-0.3 -0.852,-0.143 -2.279,-0.421 -3.542,-0.691 -1.93,-0.412 -2.366,-0.498 -3.291,-0.649 -0.55,-0.09 -1.638,-0.285 -2.417,-0.432 -0.779,-0.147 -1.792,-0.328 -2.25,-0.401 -0.824,-0.132 -2.131,-0.384 -3.583,-0.693 -0.413,-0.087 -1.163,-0.229 -1.667,-0.316 -0.504,-0.086 -1.292,-0.233 -1.75,-0.327 -0.458,-0.093 -1.508,-0.281 -2.333,-0.419 -0.825,-0.137 -1.838,-0.317 -2.25,-0.4 -0.413,-0.083 -1.2,-0.24 -1.75,-0.35 -0.55,-0.11 -1.375,-0.264 -1.834,-0.342 -0.885,-0.152 -1.924,-0.353 -3.416,-0.662 -1.689,-0.35 -2.408,-0.487 -3.917,-0.746 -0.825,-0.141 -1.875,-0.331 -2.333,-0.421 -0.459,-0.09 -1.246,-0.235 -1.75,-0.323 -0.505,-0.087 -1.311,-0.237 -1.792,-0.331 -0.481,-0.095 -1.269,-0.25 -1.75,-0.345 -0.481,-0.095 -1.287,-0.244 -1.792,-0.332 -0.504,-0.087 -1.291,-0.236 -1.75,-0.329 -0.458,-0.094 -1.471,-0.279 -2.25,-0.412 -1.66,-0.283 -3.118,-0.556 -4.166,-0.778 -0.413,-0.087 -1.163,-0.23 -1.667,-0.316 -0.504,-0.087 -1.292,-0.237 -1.75,-0.333 -0.458,-0.097 -1.171,-0.244 -1.583,-0.328 -0.413,-0.083 -1.125,-0.23 -1.584,-0.326 -0.458,-0.096 -1.351,-0.249 -1.985,-0.34 -0.633,-0.09 -1.721,-0.289 -2.417,-0.441 -0.695,-0.152 -1.677,-0.337 -2.181,-0.412 -0.504,-0.075 -1.198,-0.184 -1.542,-0.243 -1.346,-0.231 -0.65,0.438 2.928,2.815 1.965,1.306 2.065,1.581 0.653,1.793 -0.434,0.065 -1.277,0.24 -1.872,0.389 -1.224,0.305 -1.937,0.454 -4.084,0.85 -0.825,0.153 -2.1,0.414 -2.833,0.581 -0.733,0.167 -1.783,0.391 -2.333,0.498 -0.55,0.107 -1.263,0.258 -1.584,0.336 -0.321,0.078 -1.033,0.23 -1.583,0.336 -0.55,0.107 -1.6,0.334 -2.333,0.503 -0.734,0.17 -1.821,0.395 -2.417,0.501 -0.596,0.106 -1.421,0.26 -1.833,0.343 -0.413,0.083 -1.125,0.219 -1.584,0.303 -0.77,0.14 -2.341,0.498 -3.75,0.855 -0.321,0.081 -1.296,0.269 -2.166,0.417 -0.871,0.148 -2.184,0.408 -2.917,0.578 -1.415,0.328 -1.885,0.43 -3.083,0.666 -1.992,0.393 -3.726,0.765 -4.667,1.003 -0.413,0.104 -1.2,0.25 -1.75,0.325 -2.116,0.286 -3.338,0.521 -4.072,0.78 -0.824,0.292 -1.561,0.455 -3.535,0.783 -0.7,0.117 -1.45,0.327 -1.667,0.467 -0.216,0.141 -0.693,0.303 -1.059,0.362 -0.367,0.059 -1.342,0.23 -2.167,0.381 -0.825,0.151 -2.362,0.331 -3.417,0.401 -1.054,0.07 -2.291,0.213 -2.75,0.318 -0.458,0.105 -1.546,0.257 -2.416,0.338 -0.871,0.081 -3.642,0.565 -6.158,1.077 -5.451,1.108 -5.088,1.088 -5.491,0.298 -0.298,-0.584 -2.607,-2.765 -5.838,-5.515 l -1.25,-1.064 -1.34,0.105 c -0.737,0.057 -3.046,0.104 -5.132,0.105 -4.014,0.001 -4.366,0.078 -3.416,0.751 1.893,1.342 3.475,2.498 3.963,2.895 0.324,0.263 0.961,0.677 1.417,0.918 2.708,1.438 3.108,1.818 2.131,2.024 -0.631,0.133 -2.697,1.101 -2.917,1.367 -0.097,0.117 -0.329,0.213 -0.514,0.213 -0.496,0 -2.253,0.664 -3.167,1.198 -0.437,0.255 -0.978,0.51 -1.202,0.566 -0.223,0.056 -0.493,0.207 -0.6,0.335 C 87.546,40.895 87.394,41 87.314,41 c -0.08,0 -0.877,0.346 -1.771,0.769 -0.895,0.422 -1.925,0.875 -2.29,1.006 -0.365,0.131 -0.828,0.345 -1.028,0.476 -1.551,1.016 -3.609,1.582 -5.753,1.582 -2.906,0 -2.639,0.312 -2.639,-3.075 0,-3.669 0.304,-3.373 -3.584,-3.5 C 68.6,38.204 66.053,38.12 64.59,38.071 62.888,38.015 61.844,37.911 61.691,37.783 61.46,37.591 60.185,37.51 53.208,37.241 c -3.111,-0.12 -3.194,-0.056 -1.853,1.434 2.294,2.553 3.451,3.732 4.103,4.184 0.933,0.646 0.626,1.628 -0.324,1.037 -0.119,-0.075 -1.005,-0.198 -1.967,-0.275 -0.963,-0.076 -2.425,-0.205 -3.25,-0.286 -0.825,-0.081 -2.625,-0.23 -4,-0.33 -1.413,-0.103 -2.863,-0.304 -3.334,-0.462 -0.86,-0.29 -2.145,-0.417 -7,-0.694 -1.558,-0.089 -3.246,-0.207 -3.75,-0.263 -0.504,-0.055 -1.741,-0.175 -2.75,-0.267 -1.008,-0.092 -2.47,-0.234 -3.25,-0.315 -0.779,-0.082 -2.166,-0.226 -3.083,-0.321 -3.301,-0.342 -3.29,-0.507 0.217,-3.225 1.701,-1.318 1.457,-1.908 -0.539,-1.303 -0.281,0.086 -1.599,0.352 -2.928,0.591 -1.329,0.24 -2.679,0.5 -3,0.578 -1.691,0.412 -2.227,0.509 -2.799,0.509 -0.345,0 -0.775,0.103 -0.956,0.229 -0.18,0.125 -0.591,0.271 -0.912,0.323 -0.321,0.052 -0.995,0.181 -1.5,0.286 -1.618,0.338 -2.224,0.452 -3.5,0.658 C 6.146,39.439 5.321,39.592 5,39.667 4.679,39.742 4.042,39.882 3.583,39.978 3.125,40.074 2.131,40.286 1.375,40.45 L 0,40.747 v 10.21 10.21 H 200 400 V 48.248 35.329 l -12.125,0.084 c -6.669,0.047 -15.757,0.124 -20.197,0.172 -4.817,0.053 -8.133,0.026 -8.225,-0.065 -0.174,-0.174 0.291,-1.151 2.708,-5.687 0.903,-1.696 2.332,-4.395 3.174,-6 0.842,-1.604 2.267,-4.304 3.165,-6.000001 2.565,-4.841 4.667,-8.9779995 4.667,-9.1859995 0,-0.133 -0.263,-0.154 -0.875,-0.071 -3.315,0.45 -3.802,0.473 -21.709,1.006 -4.858,0.144 -9.714,0.302 -10.791,0.35 -2.089,0.092999 -2.411,-0.032 -1.442,-0.565 0.828,-0.455 1.327,-0.882 1.225,-1.047 -0.108,-0.176 -1.962,-0.211 -2.132,-0.041"
       inkscape:connector-curvature="0"
       style="fill:#54940c;fill-rule:evenodd;stroke:none"
       sodipodi:nodetypes="cccscscccccccccccccscccccccccccccccccccccssscccccscccccccsscccccccccccccccccccsccccccsccccccsccccccccccscccccsssccsccccccccccccsccccccccccccccscccscscssccccccccscccccccccccscsccscccccccccccccccscccccc" />
  </g>
</svg>
