<?xml version="1.0" encoding="UTF-8" standalone="no"?>
<svg
   xmlns:dc="http://purl.org/dc/elements/1.1/"
   xmlns:cc="http://creativecommons.org/ns#"
   xmlns:rdf="http://www.w3.org/1999/02/22-rdf-syntax-ns#"
   xmlns:svg="http://www.w3.org/2000/svg"
   xmlns="http://www.w3.org/2000/svg"
   xmlns:sodipodi="http://sodipodi.sourceforge.net/DTD/sodipodi-0.dtd"
   xmlns:inkscape="http://www.inkscape.org/namespaces/inkscape"
   id="svg"
   version="1.1"
   width="400"
   height="61.20058565153733"
   viewBox="0, 0, 400,61.20058565153733"
   sodipodi:docname="bg_btm_raw.svg"
   inkscape:version="0.92.5 (2060ec1f9f, 2020-04-08)">
  <metadata
     id="metadata12">
    <rdf:RDF>
      <cc:Work
         rdf:about="">
        <dc:format>image/svg+xml</dc:format>
        <dc:type
           rdf:resource="http://purl.org/dc/dcmitype/StillImage" />
        <dc:title></dc:title>
      </cc:Work>
    </rdf:RDF>
  </metadata>
  <defs
     id="defs10" />
  <sodipodi:namedview
     pagecolor="#ffffff"
     bordercolor="#666666"
     borderopacity="1"
     objecttolerance="10"
     gridtolerance="10"
     guidetolerance="10"
     inkscape:pageopacity="0"
     inkscape:pageshadow="2"
     inkscape:window-width="1920"
     inkscape:window-height="993"
     id="namedview8"
     showgrid="false"
     inkscape:zoom="8"
     inkscape:cx="82.516159"
     inkscape:cy="38.060124"
     inkscape:window-x="0"
     inkscape:window-y="24"
     inkscape:window-maximized="1"
     inkscape:current-layer="layer3" />
  <g
     id="svgg" />
  <g
     inkscape:groupmode="layer"
     id="layer5"
     inkscape:label="black"
     sodipodi:insensitive="true">
    <path
       id="path3"
       d="m 307.05975,10.21275 c -2.87081,0.542596 -3.30648,1.523833 -0.59675,2.34625 11.60679,2.882846 28.94679,8.564376 39.704,9.941 -0.16345,-1.906528 -0.82951,-2.677117 -1.671,-4.1695 -0.679,-0.943 -0.55425,-1.15175 0.61825,-0.95925 2.92826,0.331673 5.13722,0.300797 8.16175,0.51575 -2.48051,2.965127 -5.60759,5.798269 -8.383,8.543 -2.897,2.889 -3.495,3.412 -3.791,3.313 -4.63958,0.201304 -59.68495,-8.6552 -66.86475,-9.10625 -2.2175,-0.36075 -1.6495,1.22575 -1.3905,1.38575 0.53641,1.093537 0.49195,1.010609 1.15275,2.24725 L 274.853,26.018 C 274.23925,26.04805 273.53717,25.92429 273,25.82 236.2188,21.376884 197.61486,15.84365 163.417,11.322 c -2.767,-0.417 -3.25,-0.214 -3.25,1.361 -0.15128,1.121842 -0.0998,2.156724 -0.23456,3.137951 -0.55067,3.47623 1.07018,2.432049 -4.43244,3.675799 -15.3154,3.255333 -42.0202,6.905278 -44.9265,7.193075 -0.12,0.193 -11.20925,-1.965325 -11.693625,-2.2092 -6.98328,-0.199012 -2.81435,-0.07648 -7.859625,-0.170375 -5.533113,0.01759 -11.474498,0.148003 -16.77025,0.52275 -2.128,0 -2.0585,1.359375 0.01,2.533 1.536351,0.852341 3.041217,2.005049 4.37875,2.8275 0.073,0.118 -0.6602,0.112691 -1.8622,0.03469 -2.06839,-0.230054 -29.34663,0.394226 -31.89455,0.04106 0.094,-0.177 1.286,-1.055375 1.534375,-1.321 C 47.653674,27.886693 51.134444,25.522326 50.514,24.859 50.187,24.248 48.781312,24.604 46.356437,24.778875 44.947232,25.29498 15.967813,28.460727 3.313,30.511 c -3.4407975,0.48535 -3.31679,0.08334 -3.31857,1.206081 0,0.509 -0.207475,0.796656 1.098125,0.317687 C 17.673598,30.012677 36.945863,27.014029 48.627938,25.349 l 1.054687,-0.109438 -0.26075,0.348001 c -1.51092,1.48731 -2.953345,2.524982 -4.582875,3.829437 -1.564,1.217 -1.889,1.534 -1.77,1.727 0.197,0.319 37.579,0.266 37.701,-0.053 0.928752,-1.79178 -4.469661,-3.609204 -6.782875,-5.102125 5.266653,-0.685024 9.346841,-0.656999 13.595875,-0.747875 7.502905,0.02645 14.86783,0.550444 21.167,1.929 1.456,0.323 2.107,0.373 2.475,0.191 15.13015,-2.213115 31.77473,-5.032678 45.358,-7.135 5.37108,-0.177594 3.99489,-1.388824 4.113,-3.558 0.243,-4.666 0.415,-5.155 1.591,-4.526 0.167,0.089 1.202,0.213 2.3,0.275 38.68979,5.305548 74.36805,10.346673 111.121,14.678 0.402,0.069 0.625,0.044 0.625,-0.071 0,-0.311 -0.4935,-1.57325 -0.9545,-2.18025 -0.5859,-0.823886 -1.08896,-1.634378 -1.5425,-2.47075 l -0.5,-0.877 0.624,0.079 c 23.28225,2.968485 45.45212,6.909741 67.04,9.009 l 0.917,0.108 6.566,-6.579 c 4.574,-4.584 6.536,-6.657 6.467,-6.835 -0.11,-0.287 -0.504,-0.318 -7.769,-0.605 -4.639,-0.183 -4.712,-0.178 -4.319,0.284 1.36428,2.295437 3.35854,5.349537 0.221,4.553 -12.26181,-3.858256 -24.63784,-6.016252 -36.554,-9.975 -0.806,-0.365 -0.46175,-0.2545 0.804,-0.633 14.21601,-3.437296 29.19878,-6.818725 43.63775,-9.6047499 1.619,-0.841 3.63675,0.12825 2.31475,1.10125 -0.194,0.143 -2.4525,3.4784999 -2.4525,3.7244999 0,0.226 1.696,0.169 2.334,-0.08 8.96853,-1.097585 18.7017,-3.3032664 26.901,-4.3699999 1.574,-0.211 1.544,-0.232 1.203,0.81 -2.04744,7.0979034 -4.37111,14.3777919 -6.104,20.9339999 -1.006,3.551 -1.259,3.304 3.25,3.172 1.741,-0.052 6.166,-0.166 9.833,-0.254 3.667,-0.088 7.81,-0.204 9.208,-0.256 L 400,25.983 v -0.408 -0.408 h -2.633 c -1.449,0 -2.705,0.065 -2.792,0.145 -0.087,0.08 -4.406,0.19 -9.598,0.244 l -9.439,0.098 c 2.35087,-7.828938 4.40125,-16.0457885 6.795,-23.1519999 0.59,-1.171 0.01,-2.078 -1.234,-1.929 -9.82563,1.0765072 -20.40003,4.0691229 -28.48475,4.6824999 0.58033,-1.6418026 2.10712,-3.3615625 2.28125,-4.6489999 -0.72537,-1.03550732 -1.97274,-0.46717614 -3.093,-0.35649997"
       inkscape:connector-curvature="0"
       style="fill:#040404;fill-rule:evenodd;stroke:none"
       sodipodi:nodetypes="ccccccccccccccccccccccccccccccccccccccccccccccscccccccccccccccscccccsccccssccccccc" />
  </g>
  <g
     inkscape:groupmode="layer"
     id="layer4"
     inkscape:label="red2"
     style="display:inline"
     sodipodi:insensitive="true">
    <path
       id="path1-3"
       d="M 348.38575,1.5164998 C 334.00337,4.9337702 320.84102,7.4496522 307.333,10.902 c -1.672,0.316 -1.61,0.268 -0.804,0.633 11.84445,4.094369 23.88346,6.503864 34.721,9.481 4.784,1.315 5.09,1.238 3.583,-0.912 -0.6977,-1.099932 -1.30642,-2.057015 -1.971,-3.147 -0.393,-0.462 -0.32,-0.467 4.319,-0.284 7.265,0.287 7.659,0.318 7.769,0.605 0.069,0.178 -1.893,2.251 -6.467,6.835 L 341.917,30.692 341,30.584 c -23.53864,-2.364447 -46.48091,-7.055009 -67.04,-9.009 l -0.624,-0.079 c 0.90839,1.934588 2.17905,3.521655 2.997,5.528 0,0.115 -0.223,0.14 -0.625,0.071 C 236.50857,21.287673 172.56163,13.357496 162.25575,11.98575 160.736,11.7005 160.939,12.002 160.696,16.668 c -0.157,3.004 -0.0832,2.753204 -2.288,3.164 -17.84321,2.989169 -43.52606,6.892636 -47.183,7.529 -0.69946,0.137806 -1.019,0.132 -2.475,-0.191 -3.44293,-0.730955 -6.41526,-1.529138 -10.25,-2.021 -8.274153,-0.01405 -15.204061,-0.03793 -24.316,0.632 l -0.4,0.161 c 1.706409,1.048527 3.188952,2.236443 4.974,3.225 1.391,0.706 2.187,1.468 2.012,1.924 -0.122,0.319 -37.504,0.372 -37.701,0.053 2.180224,-2.383838 4.770784,-3.654818 6.431,-5.533 l 0.417,-0.473 -12.143864,1.411826 C 24.237087,28.569433 11.092444,30.062389 0.423,32.167 -0.0884375,32.252937 0,32.241 0,32.689 c 0,0.522 0,0.522 0.708,0.401 15.886262,-1.708591 32.703314,-4.54024 46.124,-6.467 -1.374923,1.392042 -2.999919,2.481328 -4.665,3.658 -2.026,1.376 -2.582,1.87 -2.358,2.095 0.141,0.141 21.727,0.04 35.024,-0.164 9.081,-0.139 9.541,-0.186 8.889,-0.912 -0.491,-0.548 -4.595,-3.595 -5.097,-3.785 -1.01,-0.382 -0.382,-0.499 3.167,-0.587 5.081404,1.404778 11.429038,0.03358 16.52575,-0.33825 3.10101,1.005067 5.71483,1.419631 9.01525,2.35925 3.527,1.005 3.15,0.975 6.095,0.483 16.96332,-3.365131 34.71852,-5.305683 48.269,-8.229 0.76054,-2.85942 0.54328,-4.571275 0.881,-7.679 l 0.116,-0.529 1.362,0.094 c 8.14071,1.833124 78.47328,14.787393 117.0485,15.65025 0.625,-0.51925 -1.466,-1.82725 -2.951,-3.31425 -1.485,-1.488 -2.8535,-2.605 -2.8125,-2.637 20.7658,2.924438 46.54083,6.475254 64.869,8.796 1.176,0.479 2.267,-0.254 6.253,-4.199 4.69715,-4.374975 10.39412,-7.673649 13.7955,-12.243 -0.099,-0.259 -0.8075,-0.149 -5.1315,-0.063 -14.599,0.289 -16.184,0.341 -16.246,0.529 -0.035,0.105 0.877,1.115 2.028,2.244 2.768,2.717 2.907,3.115 0.881,2.515 -10.6428,-3.854954 -22.84835,-5.599311 -32.207,-9.027 13.70632,-2.7008644 26.14148,-5.7157477 39.86525,-8.0310002 1.114,-0.128 2.449,-0.939 -0.266,1.784 -2.421,2.427 -2.51025,3.034 -1.58225,2.942 0.637,-0.063 2.547,-0.1305 3.9,-0.3325 9.58846,-1.0069574 12.19647,-1.4343001 21.0015,-2.7955 0.365,-0.064 7.11775,-0.784 7.4035,-0.927 -2.36516,8.3955842 -5.06145,14.8209232 -7.637,23.7230002 -0.151,0.819 -0.072,0.836 3.567,0.722 8.05424,-0.233805 16.10919,-0.435049 24.165,-0.603 v -0.919 -0.92 c -7.49114,0.29104 -14.03124,0.383214 -21.583,0.606 -4.509,0.132 -4.256,0.379 -3.25,-3.172 2.3814,-7.026553 3.84811,-13.316236 5.831,-19.8860002 0.001,-0.12 0.124,-0.592 0.273,-1.048 0.341,-1.042 0.371,-1.021 -1.203,-0.81 -10.32615,1.097011 -19.87079,3.7868889 -29.235,4.45 1.23054,-2.2738971 5.02835,-5.88879213 1.99025,-5.32524999"
       inkscape:connector-curvature="0"
       style="fill:#ea094a;fill-rule:evenodd;stroke:none"
       sodipodi:nodetypes="ccccccccccccccccccccccccccccccscccccccccccccccccccccccccccccccccccccccccccc" />
  </g>
  <g
     inkscape:groupmode="layer"
     id="layer2"
     inkscape:label="yellow"
     sodipodi:insensitive="true">
    <path
       id="path0"
       d="m 311.417,10.671 c -2.764,0.587 -2.639,0.775 1.166,1.752 11.13065,3.076655 19.53322,5.387242 29.207,7.944 2.026,0.6 1.887,0.202 -0.881,-2.515 -1.151,-1.129 -2.063,-2.139 -2.028,-2.244 0.062,-0.188 1.647,-0.24 16.246,-0.529 6.021,-0.12 5.76942,-0.359485 2.419,2.634 -3.93615,3.222166 -7.47858,6.041231 -11.083,9.672 -3.986,3.945 -5.077,4.678 -6.253,4.199 -22.56466,-3.391668 -38.33362,-5.209497 -58.627,-8.084 -3.499,-0.525 -6.098,-0.821 -6.242,-0.712 -0.041,0.032 1.14,1.274 2.625,2.762 1.485,1.487 2.701,2.795 2.701,2.908 0,0.225 -1.609,0.149 -2.667,-0.127 C 237.19125,24.255629 200.01796,16.603631 164.056,13.089 l -1.362,-0.094 -0.116,0.529 c -0.34901,2.570677 -0.15044,5.147711 -0.881,7.679 -16.31287,2.956317 -31.75336,5.243726 -48.88772,8.096417 -2.945,0.492 -1.94928,0.654583 -5.47628,-0.350417 -3.1897,-0.924859 -5.44855,-1.586751 -8.615282,-2.614612 C 92.327435,26.157819 86.127339,26.816904 81.792,26.928 c -3.549,0.088 -4.177,0.205 -3.167,0.587 0.502,0.19 4.606,3.237 5.097,3.785 0.652,0.726 0.192,0.773 -8.889,0.912 -13.297,0.204 -34.883,0.305 -35.024,0.164 1.840096,-1.932367 4.741154,-3.368494 7.023,-5.753 -0.088,-0.074 -1.944,0.114 -3.582,0.363 C 27.732293,29.059768 12.67938,31.044044 0,33.211 v 3.165 3.166 L 6.245125,38.6315 C 16.137867,36.469271 20.356211,35.383663 29.294,33.331 c 1.46,-0.338 1.843,-0.018 0.831,0.693 -1.811587,1.470487 -3.548603,2.955081 -5.463,4.449 -1.036,0.815 -0.623,1.194 1.505,1.379 8.801524,1.472552 9.093845,1.078712 16.692,1.82475 0.271,0.272 10.083,1.04725 10.191,0.76725 -1.419067,-2.275773 -4.15661,-3.735864 -6.383,-5.693 -1.009,-1.028 -0.849,-1.129 1.602,-1.007 3.02,0.15 21.344,0.689 25.148,0.739 2.249,0.03 2.085,-0.224 2.129,3.315 0.048,3.852 -0.026,3.742 2.152,3.196 4.223561,-0.98333 8.138073,-3.335127 11.875,-4.816 2.865,-1.131 2.971,-0.749 -1.365,-4.949 -2.039,-1.975 -3.708,-3.688 -3.708,-3.806 0,-0.248 0.955,-0.314 8.871,-0.616 l 5.288,-0.202 c 2.88951,2.621967 5.40444,4.515303 8.64822,6.983825 l 1.98874,-0.176776 C 132.54287,31.928513 150.77887,26.99829 173.167,22.832 c 4.881,-0.864 4.883,-0.835 -0.25,-3.433 -9.019,-4.564 -9.601,-5.071 -4.667,-4.066 38.41444,7.441532 78.09308,15.027369 112.08104,21.562146 0.284,0 8.01265,1.546407 8.36965,1.653407 1.26382,-2.018908 0.36685,-6.82263 0.54931,-10.298553 0.63165,0.04249 3.40483,0.737806 3.95432,0.825524 16.79406,2.960754 35.45357,5.329416 51.21794,8.522253 5.53815,-5.287187 18.95071,-19.210699 22.90332,-25.893165 -8.95887,0.07299 -18.12198,0.887705 -27.99258,1.454388 -6.023,0.345 -6.137,0.373 -4.958,1.197 0.7184,0.651987 1.29782,1.213348 2.042,1.849 l -4.70538,-1.066175 c -5.11746,-1.216398 -6.424,-1.922211 -10.89862,-3.140825 -4.997,-1.288 -5.027,-1.447 -0.396,-2.0800002 8.18167,-1.2455328 16.57035,-3.4501764 24.333,-4.269 -1.17629,1.165235 -2.67067,2.1067553 -3.744,3.121 11.57327,0.9331352 24.13285,-1.6905212 34.695,-1.636 -3.48691,7.4990202 -9.16003,17.3098092 -13.193,25.5900002 -0.419,0.769 -0.74275,1.422687 -0.65475,1.510687 C 375.31949,34.493863 385.38917,34.383079 400,34.417 v -3.298 -3.297 c -8.05555,0.17423 -16.11143,0.354285 -24.165,0.603 -3.639,0.114 -3.718,0.097 -3.567,-0.722 2.51974,-8.414016 5.12931,-14.843695 7.637,-23.7230002 -11.96669,1.3299639 -21.59672,2.7815756 -32.305,4.055 -0.928,0.092 -0.62,-0.39 1.801,-2.817 1.338,-1.342 2.432,-2.5019998 2.432,-2.5789998"
       inkscape:connector-curvature="0"
       style="fill:#ebc704;fill-rule:evenodd;stroke:none"
       sodipodi:nodetypes="ccccccccccccsccccccccccccccccccccccccccccccccsccccccccccccccccccccccccccccccccc" />
  </g>
  <g
     inkscape:groupmode="layer"
     id="layer3"
     inkscape:label="red1"
     style="display:inline"
     sodipodi:insensitive="true">
    <path
       id="path1"
       d="m 343.122,5.7669999 c -7.64639,1.2302211 -15.84155,2.851477 -22.705,4.151 C 315.786,10.551 315.816,10.71 320.813,11.998 c 5.25062,1.364277 10.65043,3.724792 15.604,4.207 -0.63613,-0.665313 -1.33663,-1.26605 -2.042,-1.849 -1.179,-0.824 -1.065,-0.852 4.958,-1.197 5.81881,-0.355935 11.45949,-0.653843 17.25,-0.985 5.823,-0.333 10.491,-0.5 10.61,-0.381 0.07,0.07 -0.204,0.471 -0.608,0.893 -5.87098,6.655608 -12.02147,13.752007 -17.085,19.494 -3.668,4.159 -4.922,5.383 -5.365,5.241 -0.212,-0.068 -0.798,-0.188 -1.302,-0.267 -17.44198,-2.881668 -35.12085,-6.036335 -53.583,-8.904 -0.63368,2.142826 -0.27312,5.154389 -0.306,7.533 -0.032,2.553 -0.1,2.706 -1.083,2.412 C 287.504,38.088 286.979,38 286.695,38 246.21017,30.138323 203.78201,22.00426 168.25,15.333 c -4.934,-1.005 -4.352,-0.498 4.667,4.066 5.133,2.598 5.131,2.569 0.25,3.433 -22.21887,3.84234 -45.78208,8.893421 -65.85978,12.756825 C 104.31651,33.50525 102.19599,31.363616 99.288,29.108 l -0.629,-0.503 -5.288,0.202 c -7.916,0.302 -8.871,0.368 -8.871,0.616 0,0.118 1.669,1.831 3.708,3.806 4.336,4.2 4.23,3.818 1.365,4.949 -4.070086,1.36828 -7.82305,3.655133 -11.875,4.816 -2.178,0.546 -2.104,0.656 -2.152,-3.196 -0.044,-3.539 0.12,-3.285 -2.129,-3.315 -3.804,-0.05 -22.128,-0.589 -25.148,-0.739 -2.451,-0.122 -2.611,-0.021 -1.602,1.007 2.308067,1.918248 4.722673,3.458161 6.383,5.693 -9.195452,-0.81361 -19.250501,-1.906743 -26.883,-2.592 -2.128,-0.185 -2.541,-0.564 -1.505,-1.379 1.897583,-1.428465 3.84358,-3.157373 5.463,-4.449 1.012,-0.711 0.629,-1.031 -0.831,-0.693 C 19.664159,34.878956 9.4903101,38.026476 0.588875,39.428375 -0.186125,39.524375 0,39.542 0,40.126 0,40.79 -0.37825,41.206875 1.96875,40.674875 9.047122,39.190674 15.856386,37.618227 22.428,36.155 c 1.996,-0.605 2.24,-0.015 0.539,1.303 -3.507,2.718 -3.518,2.883 -0.217,3.225 11.467342,1.482645 22.349242,1.892254 32.384,3.213 1.48033,0.502612 1.257,-0.391 0.324,-1.037 -0.652,-0.452 -1.809,-1.631 -4.103,-4.184 -1.341,-1.49 -1.258,-1.554 1.853,-1.434 6.171,0.322629 11.239894,0.826953 17.041,1.017 3.888,0.127 3.584,-0.169 3.584,3.5 0,3.387 -0.267,3.075 2.639,3.075 8.167928,-1.593206 12.970368,-5.304023 19.978748,-7.834388 C 95.856976,35.519571 90.881263,32.909977 88.542,31.25 c -0.95,-0.673 -0.598,-0.75 3.416,-0.751 2.162018,0.0085 5.942141,0.15213 6.472,-0.21 2.30925,2.19736 5.51327,4.823961 7.39736,7.374495 25.28122,-4.544782 51.1012,-9.551536 73.21164,-14.484495 1.412,-0.212 1.312,-0.487 -0.653,-1.793 -3.578,-2.377 -4.274,-3.046 -2.928,-2.815 0.344,0.059 1.01038,0.234291 1.51438,0.309291 37.9744,7.959301 76.2699,14.681766 110.27762,20.929709 3.501,0.899 3.46,0.96 3.415,-5.086 -0.034,-4.575 -0.081,-4.498 1.101,-4.288 0.289,0.051 1.138,-0.199 1.734,-0.097 15.87294,2.83273 35.36644,8.410705 51.134,8.566 l 1.716,0.012 c 9.21793,-9.828275 16.8676,-19.304394 23.7,-28.618 l 0.456,-0.6180001 -0.28971,-0.3004854 c -0.197,-0.105 -0.65329,-0.031515 -0.94329,0.027485 -0.288,0.059 -1.573,0.182 -2.856,0.275 C 360.52251,10.110738 354.5353,10.562676 348.75,11 c -4.909,0.371 -6.7,0.494 -10.75,0.738 -6.498,0.391 -6.572,0.412 -5.439,1.572 0.565,0.579 0.771,1.02 0.481,1.026 -3.6192,-1.036688 -5.16858,-1.572519 -9.776,-2.994 -2.553,-0.789 -2.01646,-0.832947 -0.5791,-1.18732 5.41615,-0.7505447 10.11047,-1.229391 15.50761,-1.7690005 1.655,-0.164 1.29535,0.021029 -0.15387,1.0255146 -0.969,0.533 -0.33764,0.6138059 1.75136,0.5208058 1.077,-0.048 5.933,-0.206 10.791,-0.35 5.12575,0.12325 18.394,-0.556 21.709,-1.006 0.612,-0.083 0.875,-0.062 0.875,0.071 C 368.8684,17.261588 362.40036,25.678639 359.453,35.52 c 0.092,0.091 3.408,0.118 8.225,0.065 4.44,-0.048 13.528,-0.125 20.197,-0.172 L 400,35.329 l 0.0442,-0.750553 c 0.0361,-0.613937 0.60065,-0.08 -19.2982,-0.245447 -12.25703,-0.101909 -18.762,-0.057 -18.829,-0.167 -0.057,-0.091 0.213,-0.748 0.599,-1.458 3.29289,-6.215714 6.88053,-13.107289 9.655,-18.375 3.067,-5.8200001 3.76139,-7.1443884 3.61839,-7.2873884 -9.16481,0.1008025 -15.75686,0.9932265 -25.12239,1.4483883 -4.33329,0.059761 -6.67372,0.6135987 -9.661,0.276 1.09084,-1.1087817 1.89547,-1.3912917 3.077,-2.504 l 0.667,-0.587"
       inkscape:connector-curvature="0"
       style="fill:#ea094a;fill-rule:evenodd;stroke:none"
       sodipodi:nodetypes="cccccccscccccccccccccccscccccccccccccscccccccccscccccccccccccccccccccccccccccccccccccsscccccccc" />
  </g>
  <g
     inkscape:groupmode="layer"
     id="layer1"
     inkscape:label="green"
     sodipodi:insensitive="true">
    <path
       id="path2"
       d="m 335.79,8.5389995 c -4.96983,0.4515474 -8.60516,0.9462533 -13.081,1.461 -3.19727,0.2651655 -1.996,0.5529995 0.557,1.3419995 3.31198,0.995952 6.39983,2.051005 9.776,2.994 0.29,-0.006 0.084,-0.447 -0.481,-1.026 -1.133,-1.16 -1.059,-1.181 5.439,-1.572 9.6205,-0.594402 18.3264,-1.33014 28.417,-2.0549995 1.283,-0.093 2.568,-0.216 2.856,-0.275 0.51325,-0.1200587 0.80091,0.1107465 1.233,0.273 C 362.88344,19.201545 354.47507,30.114393 346.35,38.917 l -1.716,-0.012 c -17.07591,-2.801095 -33.54407,-5.467961 -51.217,-8.579 -2.954,-0.532 -2.791,-0.793 -2.752,4.398 0.033,4.506 -0.044,5.088 -0.72,5.413 -37.00805,-6.987411 -78.60688,-15.499855 -114.487,-21.566 -1.346,-0.231 -0.65,0.438 2.928,2.815 1.965,1.306 2.065,1.581 0.653,1.793 -22.94459,4.962717 -46.84491,9.245128 -68.03,13.391 -5.451,1.108 -5.088,1.088 -5.491,0.298 -2.31465,-2.959675 -4.34245,-4.241985 -7.088,-6.579 -1.678506,0.349804 -12.881234,-0.867275 -9.888,0.961 1.579661,1.497381 8.294284,5.655643 7.511,5.837 -6.621233,1.799348 -13.004221,6.530132 -19.581,7.746 -2.906,0 -2.639,0.312 -2.639,-3.075 0,-3.669 0.304,-3.373 -3.584,-3.5 -6.574354,-0.150407 -13.235846,-0.869522 -17.041,-1.017 -3.111,-0.12 -3.194,-0.056 -1.853,1.434 2.294,2.553 3.451,3.732 4.103,4.184 0.933,0.646 0.846971,1.451223 -0.324,1.037 C 43.256519,42.50111 34.55336,41.905972 22.75,40.683 19.449,40.341 19.46,40.176 22.967,37.458 24.668,36.14 24.424,35.55 22.428,36.155 14.834422,37.709967 7.5529233,39.115569 0,40.747 v 10.21 10.21 H 200 400 V 48.248 35.329 c -13.48163,-0.44959 -26.83686,0.488417 -40.547,0.191 3.13468,-7.49782 9.38362,-17.434383 13.714,-26.8730005 0,-0.133 -0.263,-0.154 -0.875,-0.071 -14.1105,1.1123772 -16.7272,0.6812166 -32.5,1.356 -2.089,0.092999 -2.411,-0.032 -1.442,-0.565 0.828,-0.455 1.63636,-1.0587767 1.53436,-1.2237767"
       inkscape:connector-curvature="0"
       style="fill:#54940c;fill-rule:evenodd;stroke:none"
       sodipodi:nodetypes="cccccccccccccccccccccccsccccccccccccccccccccc" />
  </g>
</svg>
