<?xml version="1.0" encoding="UTF-8"?>
<svg width="400" height="61.201" version="1.1" viewBox="0, 0, 400,61.20058565153733" xmlns="http://www.w3.org/2000/svg" xmlns:cc="http://creativecommons.org/ns#" xmlns:dc="http://purl.org/dc/elements/1.1/" xmlns:rdf="http://www.w3.org/1999/02/22-rdf-syntax-ns#">
<path d="m307.06 10.213c-2.8708 0.5426-3.3065 1.5238-0.59675 2.3462 11.607 2.8828 28.947 8.5644 39.704 9.941-0.16345-1.9065-0.82951-2.6771-1.671-4.1695-0.679-0.943-0.55425-1.1518 0.61825-0.95925 2.9283 0.33167 5.1372 0.3008 8.1618 0.51575-2.4805 2.9651-5.6076 5.7983-8.383 8.543-2.897 2.889-3.495 3.412-3.791 3.313-4.6396 0.2013-59.685-8.6552-66.865-9.1062-2.2175-0.36075-1.6495 1.2258-1.3905 1.3858 0.53641 1.0935 0.49195 1.0106 1.1528 2.2472l0.8535 1.7482c-0.61375 0.03005-1.3158-0.09371-1.853-0.198-36.781-4.4431-75.385-9.9764-109.58-14.498-2.767-0.417-3.25-0.214-3.25 1.361-0.15128 1.1218-0.0998 2.1567-0.23456 3.138-0.55067 3.4762 1.0702 2.432-4.4324 3.6758-15.315 3.2553-42.02 6.9053-44.926 7.1931-0.12 0.193-11.209-1.9653-11.694-2.2092-6.9833-0.19901-2.8144-0.07648-7.8596-0.17038-5.5331 0.01759-11.474 0.148-16.77 0.52275-2.128 0-2.0585 1.3594 0.01 2.533 1.5364 0.85234 3.0412 2.005 4.3788 2.8275 0.073 0.118-0.6602 0.11269-1.8622 0.03469-2.0684-0.23005-29.347 0.39423-31.895 0.04106 0.094-0.177 1.286-1.0554 1.5344-1.321 1.2373-1.0616 4.7181-3.4259 4.0976-4.0892-0.327-0.611-1.7327-0.255-4.1576-0.080125-1.4092 0.5161-30.389 3.6819-43.043 5.7321-3.4408 0.48535-3.3168 0.08334-3.3186 1.2061 0 0.509 0.025795 27.94 0.00557 29.45 85.525-0.15247 385.29-0.05922 400 0v-36c-5.2508 0.03119-10.791 0.34299-15.023 0.389l-9.439 0.098c2.3509-7.8289 4.4012-16.046 6.795-23.152 0.59-1.171 0.01-2.078-1.234-1.929-9.8256 1.0765-20.4 4.0691-28.485 4.6825 0.58033-1.6418 2.1071-3.3616 2.2812-4.649-0.72537-1.0355-1.9727-0.46718-3.093-0.3565" fill="#040404" fill-rule="evenodd"/>
<path d="m348.39 1.5165c-14.382 3.4173-27.545 5.9332-41.053 9.3855-1.672 0.316-1.61 0.268-0.804 0.633 11.844 4.0944 23.883 6.5039 34.721 9.481 4.784 1.315 5.09 1.238 3.583-0.912-0.6977-1.0999-1.3064-2.057-1.971-3.147-0.393-0.462-0.32-0.467 4.319-0.284 7.265 0.287 7.659 0.318 7.769 0.605 0.069 0.178-1.893 2.251-6.467 6.835l-6.566 6.579c-23.674-1.8095-47.611-6.9989-68.581-9.196 0.90839 1.9346 2.179 3.5217 2.997 5.528 0 0.115-0.223 0.14-0.625 0.071-39.199-5.8073-103.15-13.738-113.45-15.109-1.5198-0.28525-1.3168 0.01625-1.5598 4.6822-0.157 3.004-0.0832 2.7532-2.288 3.164-17.843 2.9892-43.526 6.8926-47.183 7.529-0.69946 0.13781-1.019 0.132-2.475-0.191-3.4429-0.73096-6.4153-1.5291-10.25-2.021-8.2742-0.01405-15.204-0.03793-24.316 0.632l-0.4 0.161c1.7064 1.0485 3.189 2.2364 4.974 3.225 1.391 0.706 2.187 1.468 2.012 1.924-0.122 0.319-37.504 0.372-37.701 0.053 2.1802-2.3838 4.7708-3.6548 6.431-5.533l0.417-0.473-12.144 1.4118c-13.536 2.0196-26.681 3.5126-37.35 5.6172-0.51144 0.085937-0.423 0.074-0.423 0.522 0 0.522 0.087495 27.715 0 28.478 43.346 0.14658 310.62-0.0679 400 0v-35.184c-7.4911 0.29104-14.031 0.38321-21.583 0.606-4.509 0.132-4.256 0.379-3.25-3.172 2.3814-7.0266 3.8481-13.316 5.831-19.886 1e-3 -0.12 0.124-0.592 0.273-1.048 0.341-1.042 0.371-1.021-1.203-0.81-10.326 1.097-19.871 3.7869-29.235 4.45 1.2305-2.2739 5.0284-5.8888 1.9902-5.3252" fill="#ea094a" fill-rule="evenodd"/>
<path d="m311.42 10.671c-2.764 0.587-2.639 0.775 1.166 1.752 11.131 3.0767 19.533 5.3872 29.207 7.944 2.026 0.6 1.887 0.202-0.881-2.515-1.151-1.129-2.063-2.139-2.028-2.244 0.062-0.188 1.647-0.24 16.246-0.529 6.021-0.12 5.7694-0.35948 2.419 2.634-3.5612 3.4097-6.0411 6.7912-9.6455 10.422-3.986 3.945-3.3895 4.6155-8.628 3.7615-22.627-3.0167-37.396-5.522-57.69-8.3965-3.499-0.525-6.098-0.821-6.242-0.712 1.7886 2.0467 3.4727 3.4741 5.326 5.67 0 0.225-1.609 0.149-2.667-0.127-40.809-4.0754-77.982-11.727-113.94-15.242l-1.362-0.094-0.116 0.529c-0.34901 2.5707-0.15044 5.1477-0.881 7.679-16.313 2.9563-31.753 5.2437-48.888 8.0964-2.945 0.492-1.9493 0.65458-5.4763-0.35042-3.1897-0.92486-5.4486-1.5868-8.6153-2.6146-6.3903-0.17657-12.59 0.48252-16.926 0.59361-3.549 0.088-4.177 0.205-3.167 0.587 0.502 0.19 4.606 3.237 5.097 3.785 0.652 0.726 0.192 0.773-8.889 0.912-13.297 0.204-34.883 0.305-35.024 0.164 1.8401-1.9324 4.7412-3.3685 7.023-5.753-0.088-0.074-1.944 0.114-3.582 0.363-15.518 2.0738-30.571 4.058-43.25 6.225v27.956c7.2905 0.39197 347.85-0.09218 400 0v-33.345c-8.0556 0.17423-16.111 0.35428-24.165 0.603-3.639 0.114-3.718 0.097-3.567-0.722 2.5197-8.414 5.1293-14.844 7.637-23.723-11.967 1.33-21.597 2.7816-32.305 4.055-0.928 0.092-0.62-0.39 1.801-2.817 1.338-1.342 2.432-2.502 2.432-2.579" fill="#ebc704" fill-rule="evenodd"/>
<path d="m343.12 5.767c-7.6464 1.2302-15.842 2.8515-22.705 4.151-4.631 0.633-4.601 0.792 0.396 2.08 5.2506 1.3643 10.65 3.7248 15.604 4.207-0.63613-0.66531-1.3366-1.266-2.042-1.849-1.179-0.824-1.065-0.852 4.958-1.197 5.8188-0.35594 11.459-0.65384 17.25-0.985 5.823-0.333 10.491-0.5 10.61-0.381-5.6827 6.8713-12.216 14.171-17.693 20.387-3.668 4.159-4.922 5.383-5.365 5.241-0.212-0.068-0.798-0.188-1.302-0.267-17.442-2.8817-35.121-6.0363-53.583-8.904-0.63368 2.1428-0.27312 5.1544-0.306 7.533-0.032 2.553-0.1 2.706-1.083 2.412-0.357-0.107-0.882-0.195-1.166-0.195-40.485-7.8617-82.913-15.996-118.44-22.667-4.934-1.005-4.352-0.498 4.667 4.066 5.133 2.598 5.131 2.569 0.25 3.433-22.219 3.8423-45.782 8.8934-65.86 12.757-2.9907-2.0836-5.1112-4.2252-8.0192-6.4808l-0.629-0.503-5.288 0.202c-7.916 0.302-8.871 0.368-8.871 0.616 0 0.118 1.669 1.831 3.708 3.806 4.336 4.2 4.23 3.818 1.365 4.949-4.0701 1.3683-7.823 3.6551-11.875 4.816-2.178 0.546-2.104 0.656-2.152-3.196-0.044-3.539 0.12-3.285-2.129-3.315-3.804-0.05-22.128-0.589-25.148-0.739-2.451-0.122-2.611-0.021-1.602 1.007 2.3081 1.9182 4.7227 3.4582 6.383 5.693-9.1955-0.81361-19.251-1.9067-26.883-2.592-2.128-0.185-2.541-0.564-1.505-1.379 1.8976-1.4285 3.8436-3.1574 5.463-4.449 1.012-0.711 0.629-1.031-0.831-0.693-9.6298 1.548-19.804 4.6955-28.705 6.0974-0.775 0.096-0.58888 0.11362-0.58888 0.69762 0 0.664 0.26046 19.275 0 21.041 50.522-0.2212 286.4 0.19563 400 0l0.0442-26.589c1e-3 -0.615 0.60065-0.08-19.298-0.24545-12.257-0.10191-18.762-0.057-18.829-0.167-0.057-0.091 0.213-0.748 0.599-1.458 3.2929-6.2157 6.8805-13.107 9.655-18.375 3.067-5.82 3.7614-7.1444 3.6184-7.2874-9.1648 0.1008-15.757 0.99323-25.122 1.4484-4.3333 0.059761-6.6737 0.6136-9.661 0.276 1.0908-1.1088 1.8955-1.3913 3.077-2.504l0.667-0.587" fill="#ea094a" fill-rule="evenodd"/>
<path d="m335.79 8.539c-4.9698 0.45155-8.6052 0.94625-13.081 1.461-3.1973 0.26517-1.996 0.553 0.557 1.342 3.312 0.99595 6.3998 2.051 9.776 2.994 0.29-6e-3 0.084-0.447-0.481-1.026-1.133-1.16-1.059-1.181 5.439-1.572 9.6205-0.5944 18.326-1.3301 28.417-2.055 1.283-0.093 2.568-0.216 2.856-0.275 0.51325-0.12006 0.80091 0.11075 1.233 0.273-7.6226 9.5205-16.031 20.433-24.156 29.236l-1.716-0.012c-17.076-2.8011-33.544-5.468-51.217-8.579-2.954-0.532-2.791-0.793-2.752 4.398 0.033 4.506-0.044 5.088-0.72 5.413-37.008-6.9874-78.607-15.5-114.49-21.566-1.346-0.231-0.65 0.438 2.928 2.815 1.965 1.306 2.065 1.581 0.653 1.793-22.945 4.9627-46.845 9.2451-68.03 13.391-5.451 1.108-5.088 1.088-5.491 0.298-2.3146-2.9597-4.3424-4.242-7.088-6.579-1.6785 0.3498-12.881-0.86728-9.888 0.961 1.5797 1.4974 8.2943 5.6556 7.511 5.837-6.6212 1.7993-13.004 6.5301-19.581 7.746-2.906 0-2.639 0.312-2.639-3.075 0-3.669 0.304-3.373-3.584-3.5-6.5744-0.30666-13.236-0.86952-17.041-1.017-3.111-0.12-3.194-0.056-1.853 1.434 2.294 2.553 3.5604 3.5758 4.103 4.184 0.683 0.78662 0.28447 1.1387-0.324 1.037-11.877-1.3949-20.581-1.99-32.384-3.213-3.301-0.342-3.29-0.507 0.217-3.225 1.701-1.318 1.457-1.908-0.539-1.303-7.5936 1.555-14.875 2.9606-22.428 4.592v20.42h400v-25.838c-13.482-0.44959-26.837 0.48842-40.547 0.191 3.1347-7.4978 9.3836-17.434 13.714-26.873 0-0.133-0.263-0.154-0.875-0.071-14.11 1.1124-16.727 0.68122-32.5 1.356-2.089 0.092999-2.411-0.032-1.442-0.565 0.828-0.455 1.6364-1.0588 1.5344-1.2238" fill="#54940c" fill-rule="evenodd"/>
</svg>
