<?xml version="1.0" encoding="UTF-8" standalone="no"?>
<svg
   xmlns:dc="http://purl.org/dc/elements/1.1/"
   xmlns:cc="http://creativecommons.org/ns#"
   xmlns:rdf="http://www.w3.org/1999/02/22-rdf-syntax-ns#"
   xmlns:svg="http://www.w3.org/2000/svg"
   xmlns="http://www.w3.org/2000/svg"
   xmlns:sodipodi="http://sodipodi.sourceforge.net/DTD/sodipodi-0.dtd"
   xmlns:inkscape="http://www.inkscape.org/namespaces/inkscape"
   width="400"
   height="29.283"
   version="1.1"
   viewBox="0 0 400 29.28257687"
   id="svg12"
   sodipodi:docname="top_overlayed_minified.svg"
   inkscape:version="0.92.5 (2060ec1f9f, 2020-04-08)">
  <metadata
     id="metadata18">
    <rdf:RDF>
      <cc:Work
         rdf:about="">
        <dc:format>image/svg+xml</dc:format>
        <dc:type
           rdf:resource="http://purl.org/dc/dcmitype/StillImage" />
      </cc:Work>
    </rdf:RDF>
  </metadata>
  <defs
     id="defs16" />
  <sodipodi:namedview
     pagecolor="#ffffff"
     bordercolor="#666666"
     borderopacity="1"
     objecttolerance="10"
     gridtolerance="10"
     guidetolerance="10"
     inkscape:pageopacity="0"
     inkscape:pageshadow="2"
     inkscape:window-width="1920"
     inkscape:window-height="993"
     id="namedview14"
     showgrid="false"
     inkscape:zoom="7.0411263"
     inkscape:cx="353.31952"
     inkscape:cy="47.512057"
     inkscape:window-x="0"
     inkscape:window-y="24"
     inkscape:window-maximized="1"
     inkscape:current-layer="svg12" />
  <path
     d="M -0.004492,0.0021485 0.0020273,16.687148 c 0,0.804 -0.19303,0.774 7.274,0.914 l 6.2679997,0.117001 c -0.69022,2.2863 -5.8806997,7.2618 -6.1829997,10.989 3.0056997,1.2453 5.1675997,-1.108 7.5169997,-2.287 6.3449,-2.6159 18.482,-10.904 23.004,-10.749 3.36181,0.634415 7.301741,1.25701 10.045,1.928 4.7699,0.87359 28.149,6.8989 29.887,4.0838 0.399,-0.746 -0.61629,-3.4937 -2.171,-6.7719 0.68012,-0.74303 26.903003,3.0752 32.561003,1.7711 0.44644,-3.6411 -3.2373,-5.8178 -4.9494,-8.6566005 4.82964,0.1055916 32.0231,3.7411465 48.50241,5.9147665 2.0776,0.48455 -2.179,2.5747 -3.2124,3.1942 -4.14137,1.803642 -4.69207,3.481348 -2.06881,3.413234 1.872,-0.11321 46.25947,-0.0015 45.123,-0.68976 0.32136,-0.695003 -2.44994,-2.638706 -4.3762,-3.8756 7.3733,-0.63728 13.57,-1.704 21.53,-2.4101 0,0.315 -1.9752,2.7124 -2.5508,3.5315 -1.0861,1.5806 -3.26239,3.771166 -1.11149,3.758166 4.79045,-0.521808 31.46024,-9.09798 35.23219,-8.382766 18.28738,4.437751 36.01347,10.078513 51.227,14.017 3.087,0.803 3.995,0.571 3.995,-1.017 -2.55807,-2.849121 -4.78343,-4.266841 -7.04826,-6.413638 6.99841,0.115893 26.13576,-0.411622 34.21076,0.160338 -4.4459,3.4372 -8.8773,6.5656 -6.384,7.2434 14.703,-2.2719 29.736,-4.2668 41.264,-5.8851 0.434,-0.08 1.235,-0.25525 0.529,0.67675 -3.122,4.125 -3.45648,6.216375 1.35072,3.804775 5.433,-2.762901 16.87566,-8.559475 21.06303,-10.552638 1.28084,-0.586639 -2.07151,-2.884954 -2.02158,-3.518741 1.10955,-0.748416 14.72182,-0.07463 21.60764,0.121113 -0.006,-4.0456694 -0.0903,-7.0261665 -0.10081,-11.0718295"
     id="path2"
     inkscape:connector-curvature="0"
     style="fill:#040404"
     sodipodi:nodetypes="ccccccccccccccccccccccccccccccccc" />
  <path
     d="m -0.004492,0.0021485 c 0.0070644,0.70916 0.0074906,15.6330005 0.0094256,16.0759995 3.1358897,0.197397 8.0449144,0.292314 11.7204004,0.353541 5.615,0.093 4.5291,-0.12216 2.9916,2.1164 -1.588201,2.716913 -3.320734,5.024523 -5.0900004,7.751999 -1.093,1.702 -0.229,1.824001 2.1230004,0.302 8.4106,-4.123899 15.946,-8.8815 23.454,-12.350999 13.731036,1.987436 29.411008,5.52484 38.697,6.879099 4.1161,1.0906 1.4428,-3.7247 0.83135,-5.3901 -1.192,-2.272 -1.175,-2.282 3.268,-1.748 9.472,0.394661 19.674,2.4406 28.222996,2.18 l 0.944,-0.195999 c 0.14298,-1.525 -0.74622,-2.8136 -1.75,-3.716 -1.1866,-1.5055 -2.606,-3.0748005 -3.4842,-4.5952005 -0.484,-0.497 -0.47875,-0.71375 0.35925,-0.60775 0.435,0.056 1.504,0.15 2.375,0.211 16.73277,1.8508504 31.43895,4.5661285 47.242,6.0760005 1.9,0.179 2.405,0.361 2.08,0.753 -1.943,2.1292 -7.8666,4.2794 -7.619,5.596 0.20151,0.35268 44.797,0.178 44.797,-0.02 -1.48343,-1.796704 -3.96691,-2.414333 -5.62,-3.898 0.069,-0.211 0.128,-0.221 5.703,-0.933 4.84559,-0.535176 10.79334,-1.310425 14.875,-1.844 4.137,-0.542 4.515,-0.448001 3.464,0.864 -0.88009,1.2203 -1.7729,2.5495 -2.608,3.661 -1.679,2.201999 -1.6492,2.6397 0.34195,2.2254 11.07003,-2.686255 21.23566,-6.361475 31.594,-8.6774 0.366,-0.07 0.738,-0.109 0.826,-0.088 0.087,0.022 0.462,0.104 0.833,0.182 18.30913,5.189455 35.19193,9.359772 51.131,14.054 0.91927,0.25971 1.6747,0.46766 2.5443,0.44934 -0.68897,-1.0563 -1.8509,-1.7884 -2.6553,-2.5013 -1.8383,-1.583 -3.6318,-2.7814 -5.023,-4.65 0.081,-0.132 5.481,-0.184 19.109,-0.184 21.8,0 20.237,-0.127 17.952,1.468 -2.412,1.8536 -6.0741,4.2102 -6.6422,5.1497 0.0832,0.36625 0.29443,0.45705 0.62119,0.419 13.7806,-2.177018 28.85814,-4.285978 41.2701,-6.3407 1.257,-0.164 1.485,0.053 0.987,0.936 -0.95993,1.6588 -2.1386,3.0729 -2.8667,4.6448 -0.276,0.529 -0.0902,0.77064 0.42262,0.47917 7.19995,-3.843011 15.08548,-6.883996 22.38,-10.81 0.98093,-0.605382 -0.53101,-1.228551 -2.63101,-3.466551 -1.353,-1.4410007 22.70501,-0.115889 22.83901,-0.621069 0.27613,-1.9128005 -2.6714,-10.1730005 10e-4,-10.1480005"
     id="path4"
     inkscape:connector-curvature="0"
     style="fill:#e20f47"
     sodipodi:nodetypes="cccccccccccccccccccccccccccccccccsccccccccccc" />
  <path
     d="M -0.004492,0.0021485 C 0.011052,5.1341485 1.01e-5,10.285148 1.01e-5,15.417149 l 3.042,0.027 c 5.683,0.051 13.7069999,0.305 13.9159999,0.441001 0.381,0.245999 0.145,0.705999 -2.624,5.115 -2.487,3.96 -2.587,4.167 -2.013,4.167 6.188032,-3.39525 15.713464,-7.831513 22.539864,-12.229955 12.045751,2.353327 27.728338,5.634264 39.911136,7.314954 0.103,-0.268 -0.341,-1.661999 -1.75,-5.488999 -0.848,-2.303001 -1.0216,-2.6761 0.88787,-2.505701 10.067,0.96902 23.886,3.1496 31.66,3.1417 0.003,-1.566641 -7.050704,-9.8184427 -5.233,-9.7949995 18.28735,2.1803357 36.72895,5.1019755 54.33,7.3340005 2.14,0.239 1.799,0.699 -2.334,3.147999 -3.829,2.269 -4.085,2.451 -3.951,2.802 0.121,0.313 38.942,0.438 39.434,0.126 0.436,-0.276 0.058,-0.603999 -1.921,-1.666 -3.213,-1.724999 -3.519,-2.051999 -2.103,-2.246999 9.31269,-0.822506 18.67168,-3.112742 28.075,-3.497 0.242,0.149999 0.142,0.344 -1.121,2.168 -3.895,5.626 -3.899,5.642999 -1.111,4.757999 9.57725,-2.803327 19.69252,-5.866621 28.114,-8.358999 2.156,-0.6370005 2.426,-0.6250005 5.424,0.232999 13.59839,4.078337 32.91565,9.903785 47.494,12.955 0,-0.174 -1.663,-1.707 -2.829,-2.608999 -4.789,-3.702 -5.083,-3.411001 3.471,-3.437001 3.726,-0.012 8.724,-0.045 11.108,-0.075 28.02,-0.35 26.298,-0.477 23.25,1.709 -1.6997,1.232701 -3.3055,2.5402 -4.957,3.82 -2.193,1.684001 -1.864,1.828 2.457,1.073001 11.91,-2.0091 24.604,-3.9382 35.449,-5.758 2.774,-0.491 3.105,-0.246 1.993,1.474 -2.454,3.794 -2.44,4.53 0.058,2.947 15.45961,-7.977926 17.99635,-6.825565 16.48,-9.763 -0.82087,-0.831971 -1.4596,-1.702201 -2.188,-2.628 -0.77,-0.9660005 -1.046,-0.9450005 12.656,-0.9450005 h 12.385 c -0.0169,-3.923 -0.0238,-2.5918 0.0152,-9.1234"
     id="path6"
     inkscape:connector-curvature="0"
     style="fill:#ecc605"
     sodipodi:nodetypes="cccccccccccccccccccccccccccccccccccscc" />
  <path
     d="M -0.004492,0.0021485 C -0.00349243,3.2831153 0,6.5640815 0,9.8450485 6.841911,9.9637637 15.980236,9.7104691 22.5,10.026049 c 0,0.194 -1.463,2.538 -3.25,5.209 -4.193,6.266999 -4.237,6.743999 -0.333,3.600999 4.399135,-3.399716 9.137359,-7.04444 13.119,-10.0439995 1.558,-1.172 1.974,-1.307 2.911,-0.944 3.549652,0.8621335 23.913697,7.7305555 25.136068,6.3209315 0.448521,-2.460333 0.491822,-5.5702421 1.550932,-7.4509315 0.85,-0.355 4.09,-0.147 6.866,0.442 10.960757,2.0250118 19.45618,2.9591625 29.721,4.6829995 2.263,0.441 2.998,0.076 1.83,-0.907999 -0.338,-0.285001 -1.536,-1.3810005 -2.662,-2.4350005 -6.719,-6.29 -6.514,-6.012 -4.347,-5.893 24.06248,2.2750354 47.35868,4.7624568 69.458,6.85 2.22,0.202 2.203,0.144 0.833,2.8759995 -1.3,2.594 -1.237,3.027 0.399,2.759 17.05268,-2.198446 34.93421,-4.067458 49.433,-5.8949995 1.407,-0.175 1.309,-0.413 -1.584,-3.864 -1.382,-1.649 -1.328,-1.716 1.183,-1.482 4.09784,0.3910645 5.81414,0.5858047 9.903,0.998 5.314,0.537 5.602,-0.059 -2.645,5.4789995 -6.568,4.411 -9.355,6.407 -9.355,6.701 0,0.245 0.33515,0.18715 2.8292,-0.80985 9.38393,-3.995169 18.52777,-7.7274267 26.472,-11.0440995 10.74845,3.6699811 21.52879,7.2469485 32.282,10.9019995 6.82,2.4265 6.909,2.234 2.004,-1.66 -5.602,-4.4469995 -6.108,-4.9489995 -5.212,-5.1699995 0.366,-0.09 7.086,-0.038 27.375,0.213 11.708,0.144 11.045,-0.009 8.472,1.9569995 -1.888,1.589658 -5.20342,3.389526 -5.7845,5.0388 11.194,-0.31039 28.705,-4.712299 41.396,-6.100799 -1.84476,2.654707 -4.39305,5.178339 -6.055,7.068999 -1.166,1.326 -0.644,1.557 2.472,1.095 9.22523,-1.080191 19.10727,-2.556776 29.056,-3.675 2.238,-0.249 2.208,-0.605999 -0.279,-3.259999 -5.036,-5.3740005 -4.973,-5.1070005 -1.277,-5.4230005 6.65023,-1.1624612 35.56183,-1.6859078 35.583,-3.869 l 0.0152,-2.2484"
     id="path8"
     inkscape:connector-curvature="0"
     style="fill:#e20f47"
     sodipodi:nodetypes="ccccccccccccccccccccccscccccccccccccccc" />
  <path
     d="m 0.105887,7.8046 c 6.3364555,1.4452738 18.692446,0.00342 24.9287,1.08078 0,0.353 -0.289,0.793 -2.425,3.688 -2.367,3.209 -1.853,3.049 3.165,-0.992 2.864411,-1.9780341 6.06019,-6.0755948 9.620182,-5.1540341 7.716,2.098 14.322818,4.9859341 22.844818,6.7300341 1.499827,-1.69984 1.220377,-4.341755 1.617,-7.655 0.192,-0.679 0.514,-0.764 2.039,-0.536 4.7046,0.87489 35.198,6.2308 34.849,5.1067 -2.309416,-4.1076238 -6.890805,-5.7659937 -9.2407,-10.0698 -30.670415,-0.01798334 -46.497883,-0.0123842 -87.508,-0.0050805 0.06820541,2.539356 -0.01833618,5.4431394 0.11,7.8064005 z M 163.45157,7.6524 c 3.991,0.34 4.108,0.53 2.154,3.496 -1.173,1.781 -1.12543,2.556425 0.40057,2.382425 3.14547,-0.623286 44.07149,-4.6160426 46.22826,-5.5687871 -1.16715,-2.0704251 -3.3397,-3.6727105 -4.69583,-5.7576379 -0.007,-0.348 0.669,-0.591 1.311,-0.47 6.4081,0.84258 13.295,1.8405 19.159,2.423 2.423,0 2.353,0.575 -0.307,2.505 -8.08,5.861 -8.213,6.117 -1.667,3.206 4.10699,-1.8348687 8.18657,-3.5855827 11.892,-5.279 1.787,-0.817 0.559,-1.127 16.42,4.141 14.789,4.912 15.652,5.185 15.826,5.011 -1.58152,-1.947589 -4.88948,-4.0028664 -4.263,-5.501 1.305,-0.236 44.812,0.214 45.064,0.466 -0.30336,2.267543 -7.3519,4.212434 -6.85685,6.156901 11.96823,-1.118891 25.03667,-4.335643 36.23485,-6.382901 5.464,-1.014 5.489,-0.852 0.654,4.193 -3.307,3.451 -3.578,3.777 -3.336,4.018 8.94984,-0.39295 17.72442,-2.071089 26.576,-3.164 2.307,-0.283 2.274,-0.358 -1.958,-4.509 -4.078,-3.999 -4.074,-3.91 -0.17,-4.212 12.8061,-1.3783453 25.88378,-1.4238408 37.917,-3.193 v -1.623 h -155.87 c -93.4,0 -156.76,-0.077107 -156.66,0.012893"
     id="path10"
     inkscape:connector-curvature="0"
     style="fill:#54940c"
     sodipodi:nodetypes="cccccccccccccccccccccccccccccccccccsc" />
</svg>
