<?xml version="1.0" encoding="UTF-8"?>
<svg width="400" height="29.283" version="1.1" viewBox="0 0 400 29.28257687" xmlns="http://www.w3.org/2000/svg" xmlns:cc="http://creativecommons.org/ns#" xmlns:dc="http://purl.org/dc/elements/1.1/" xmlns:rdf="http://www.w3.org/1999/02/22-rdf-syntax-ns#">
<path d="m-0.004492 0.0021485 0.0065193 16.685c0 0.804-0.19303 0.774 7.274 0.914l6.268 0.117c-0.69022 2.2863-5.8807 7.2618-6.183 10.989 3.0057 1.2453 5.1676-1.108 7.517-2.287 6.3449-2.6159 18.482-10.904 23.004-10.749 3.3618 0.63442 7.3017 1.257 10.045 1.928 4.7699 0.87359 28.149 6.8989 29.887 4.0838 0.399-0.746-0.61629-3.4937-2.171-6.7719 0.68012-0.74303 26.903 3.0752 32.561 1.7711 0.44644-3.6411-3.2373-5.8178-4.9494-8.6566 4.8296 0.10559 32.023 3.7411 48.502 5.9148 2.0776 0.48455-2.179 2.5747-3.2124 3.1942-4.1414 1.8036-4.6921 3.4813-2.0688 3.4132 1.872-0.11321 46.259-0.0015 45.123-0.68976 0.32136-0.695-2.4499-2.6387-4.3762-3.8756 7.3733-0.63728 13.57-1.704 21.53-2.4101 0 0.315-1.9752 2.7124-2.5508 3.5315-1.0861 1.5806-3.2624 3.7712-1.1115 3.7582 4.7904-0.52181 31.46-9.098 35.232-8.3828 18.287 4.4378 36.013 10.079 51.227 14.017 3.087 0.803 3.995 0.571 3.995-1.017-2.5581-2.8491-4.7834-4.2668-7.0483-6.4136 6.9984 0.11589 26.136-0.41162 34.211 0.16034-4.4459 3.4372-8.8773 6.5656-6.384 7.2434 14.703-2.2719 29.736-4.2668 41.264-5.8851 0.434-0.08 1.235-0.25525 0.529 0.67675-3.122 4.125-3.4565 6.2164 1.3507 3.8048 5.433-2.7629 16.876-8.5595 21.063-10.553 1.2808-0.58664-2.0715-2.885-2.0216-3.5187 1.1096-0.74842 14.722-0.07463 21.608 0.12111-6e-3 -4.0457-0.0903-7.0262-0.10081-11.072" fill="#040404"/>
<path d="m-0.004492 0.0021485c0.0070644 0.70916 0.0074906 15.633 0.0094256 16.076 3.1359 0.1974 8.0449 0.29231 11.72 0.35354 5.615 0.093 4.5291-0.12216 2.9916 2.1164-1.5882 2.7169-3.3207 5.0245-5.09 7.752-1.093 1.702-0.229 1.824 2.123 0.302 8.4106-4.1239 15.946-8.8815 23.454-12.351 13.731 1.9874 29.411 5.5248 38.697 6.8791 4.1161 1.0906 1.4428-3.7247 0.83135-5.3901-1.192-2.272-1.175-2.282 3.268-1.748 9.472 0.39466 19.674 2.4406 28.223 2.18l0.944-0.196c0.14298-1.525-0.74622-2.8136-1.75-3.716-1.1866-1.5055-2.606-3.0748-3.4842-4.5952-0.484-0.497-0.47875-0.71375 0.35925-0.60775 0.435 0.056 1.504 0.15 2.375 0.211 16.733 1.8509 31.439 4.5661 47.242 6.076 1.9 0.179 2.405 0.361 2.08 0.753-1.943 2.1292-7.8666 4.2794-7.619 5.596 0.20151 0.35268 44.797 0.178 44.797-0.02-1.4834-1.7967-3.9669-2.4143-5.62-3.898 0.069-0.211 0.128-0.221 5.703-0.933 4.8456-0.53518 10.793-1.3104 14.875-1.844 4.137-0.542 4.515-0.448 3.464 0.864-0.88009 1.2203-1.7729 2.5495-2.608 3.661-1.679 2.202-1.6492 2.6397 0.34195 2.2254 11.07-2.6863 21.236-6.3615 31.594-8.6774 0.366-0.07 0.738-0.109 0.826-0.088 0.087 0.022 0.462 0.104 0.833 0.182 18.309 5.1895 35.192 9.3598 51.131 14.054 0.91927 0.25971 1.6747 0.46766 2.5443 0.44934-0.68897-1.0563-1.8509-1.7884-2.6553-2.5013-1.8383-1.583-3.6318-2.7814-5.023-4.65 0.081-0.132 5.481-0.184 19.109-0.184 21.8 0 20.237-0.127 17.952 1.468-2.412 1.8536-6.0741 4.2102-6.6422 5.1497 0.0832 0.36625 0.29443 0.45705 0.62119 0.419 13.781-2.177 28.858-4.286 41.27-6.3407 1.257-0.164 1.485 0.053 0.987 0.936-0.95993 1.6588-2.1386 3.0729-2.8667 4.6448-0.276 0.529-0.0902 0.77064 0.42262 0.47917 7.2-3.843 15.085-6.884 22.38-10.81 0.98093-0.60538-0.53101-1.2286-2.631-3.4666-1.353-1.441 22.705-0.11589 22.839-0.62107 0.27613-1.9128-2.6714-10.173 1e-3 -10.148" fill="#e20f47"/>
<path d="m-0.004492 0.0021485c0.015544 5.132 0.0045021 10.283 0.0045021 15.415l3.042 0.027c5.683 0.051 13.707 0.305 13.916 0.441 0.381 0.246 0.145 0.706-2.624 5.115-2.487 3.96-2.587 4.167-2.013 4.167 6.188-3.3952 15.713-7.8315 22.54-12.23 12.046 2.3533 27.728 5.6343 39.911 7.315 0.103-0.268-0.341-1.662-1.75-5.489-0.848-2.303-1.0216-2.6761 0.88787-2.5057 10.067 0.96902 23.886 3.1496 31.66 3.1417 3e-3 -1.5666-7.0507-9.8184-5.233-9.795 18.287 2.1803 36.729 5.102 54.33 7.334 2.14 0.239 1.799 0.699-2.334 3.148-3.829 2.269-4.085 2.451-3.951 2.802 0.121 0.313 38.942 0.438 39.434 0.126 0.436-0.276 0.058-0.604-1.921-1.666-3.213-1.725-3.519-2.052-2.103-2.247 9.3127-0.82251 18.672-3.1127 28.075-3.497 0.242 0.15 0.142 0.344-1.121 2.168-3.895 5.626-3.899 5.643-1.111 4.758 9.5772-2.8033 19.693-5.8666 28.114-8.359 2.156-0.637 2.426-0.625 5.424 0.233 13.598 4.0783 32.916 9.9038 47.494 12.955 0-0.174-1.663-1.707-2.829-2.609-4.789-3.702-5.083-3.411 3.471-3.437 3.726-0.012 8.724-0.045 11.108-0.075 28.02-0.35 26.298-0.477 23.25 1.709-1.6997 1.2327-3.3055 2.5402-4.957 3.82-2.193 1.684-1.864 1.828 2.457 1.073 11.91-2.0091 24.604-3.9382 35.449-5.758 2.774-0.491 3.105-0.246 1.993 1.474-2.454 3.794-2.44 4.53 0.058 2.947 15.46-7.9779 17.996-6.8256 16.48-9.763-0.82087-0.83197-1.4596-1.7022-2.188-2.628-0.77-0.966-1.046-0.945 12.656-0.945h12.385c-0.0169-3.923-0.0238-2.5918 0.0152-9.1234" fill="#ecc605"/>
<path d="m-0.004492 0.0021485c9.9957e-4 3.281 0.004492 6.5619 0.004492 9.8429 6.8419 0.11872 15.98-0.13458 22.5 0.181 0 0.194-1.463 2.538-3.25 5.209-4.193 6.267-4.237 6.744-0.333 3.601 4.3991-3.3997 9.1374-7.0444 13.119-10.044 1.558-1.172 1.974-1.307 2.911-0.944 3.5497 0.86213 23.914 7.7306 25.136 6.3209 0.44852-2.4603 0.49182-5.5702 1.5509-7.4509 0.85-0.355 4.09-0.147 6.866 0.442 10.961 2.025 19.456 2.9592 29.721 4.683 2.263 0.441 2.998 0.076 1.83-0.908-0.338-0.285-1.536-1.381-2.662-2.435-6.719-6.29-6.514-6.012-4.347-5.893 24.062 2.275 47.359 4.7625 69.458 6.85 2.22 0.202 2.203 0.144 0.833 2.876-1.3 2.594-1.237 3.027 0.399 2.759 17.053-2.1984 34.934-4.0675 49.433-5.895 1.407-0.175 1.309-0.413-1.584-3.864-1.382-1.649-1.328-1.716 1.183-1.482 4.0978 0.39106 5.8141 0.5858 9.903 0.998 5.314 0.537 5.602-0.059-2.645 5.479-6.568 4.411-9.355 6.407-9.355 6.701 0 0.245 0.33515 0.18715 2.8292-0.80985 9.3839-3.9952 18.528-7.7274 26.472-11.044 10.748 3.67 21.529 7.2469 32.282 10.902 6.82 2.4265 6.909 2.234 2.004-1.66-5.602-4.447-6.108-4.949-5.212-5.17 0.366-0.09 7.086-0.038 27.375 0.213 11.708 0.144 11.045-9e-3 8.472 1.957-1.888 1.5897-5.2034 3.3895-5.7845 5.0388 11.194-0.31039 28.705-4.7123 41.396-6.1008-1.8448 2.6547-4.393 5.1783-6.055 7.069-1.166 1.326-0.644 1.557 2.472 1.095 9.2252-1.0802 19.107-2.5568 29.056-3.675 2.238-0.249 2.208-0.606-0.279-3.26-5.036-5.374-4.973-5.107-1.277-5.423 6.6502-1.1625 35.562-1.6859 35.583-3.869l0.0152-2.2484" fill="#e20f47"/>
<path d="m0.10589 7.8046c6.3365 1.4453 18.692 0.00342 24.929 1.0808 0 0.353-0.289 0.793-2.425 3.688-2.367 3.209-1.853 3.049 3.165-0.992 2.8644-1.978 6.0602-6.0756 9.6202-5.154 7.716 2.098 14.323 4.9859 22.845 6.73 1.4998-1.6998 1.2204-4.3418 1.617-7.655 0.192-0.679 0.514-0.764 2.039-0.536 4.7046 0.87489 35.198 6.2308 34.849 5.1067-2.3094-4.1076-6.8908-5.766-9.2407-10.07-30.67-0.017983-46.498-0.012384-87.508-0.0050805 0.068205 2.5394-0.018336 5.4431 0.11 7.8064zm163.35-0.1522c3.991 0.34 4.108 0.53 2.154 3.496-1.173 1.781-1.1254 2.5564 0.40057 2.3824 3.1455-0.62329 44.071-4.616 46.228-5.5688-1.1672-2.0704-3.3397-3.6727-4.6958-5.7576-7e-3 -0.348 0.669-0.591 1.311-0.47 6.4081 0.84258 13.295 1.8405 19.159 2.423 2.423 0 2.353 0.575-0.307 2.505-8.08 5.861-8.213 6.117-1.667 3.206 4.107-1.8349 8.1866-3.5856 11.892-5.279 1.787-0.817 0.559-1.127 16.42 4.141 14.789 4.912 15.652 5.185 15.826 5.011-1.5815-1.9476-4.8895-4.0029-4.263-5.501 1.305-0.236 44.812 0.214 45.064 0.466-0.30336 2.2675-7.3519 4.2124-6.8568 6.1569 11.968-1.1189 25.037-4.3356 36.235-6.3829 5.464-1.014 5.489-0.852 0.654 4.193-3.307 3.451-3.578 3.777-3.336 4.018 8.9498-0.39295 17.724-2.0711 26.576-3.164 2.307-0.283 2.274-0.358-1.958-4.509-4.078-3.999-4.074-3.91-0.17-4.212 12.806-1.3783 25.884-1.4238 37.917-3.193v-1.623h-155.87c-93.4 0-156.76-0.077107-156.66 0.012893" fill="#54940c"/>
</svg>
