<?xml version="1.0" encoding="UTF-8" standalone="no"?>
<svg
   xmlns:dc="http://purl.org/dc/elements/1.1/"
   xmlns:cc="http://creativecommons.org/ns#"
   xmlns:rdf="http://www.w3.org/1999/02/22-rdf-syntax-ns#"
   xmlns:svg="http://www.w3.org/2000/svg"
   xmlns="http://www.w3.org/2000/svg"
   xmlns:sodipodi="http://sodipodi.sourceforge.net/DTD/sodipodi-0.dtd"
   xmlns:inkscape="http://www.inkscape.org/namespaces/inkscape"
   id="svg"
   version="1.1"
   width="159.87453"
   height="400.0173"
   viewBox="0 0 159.87453 400.01732"
   sodipodi:docname="volume.svg"
   inkscape:version="0.92.5 (2060ec1f9f, 2020-04-08)">
  <metadata
     id="metadata11">
    <rdf:RDF>
      <cc:Work
         rdf:about="">
        <dc:format>image/svg+xml</dc:format>
        <dc:type
           rdf:resource="http://purl.org/dc/dcmitype/StillImage" />
        <dc:title></dc:title>
      </cc:Work>
    </rdf:RDF>
  </metadata>
  <defs
     id="defs9" />
  <sodipodi:namedview
     pagecolor="#ffffff"
     bordercolor="#666666"
     borderopacity="1"
     objecttolerance="10"
     gridtolerance="10"
     guidetolerance="10"
     inkscape:pageopacity="0"
     inkscape:pageshadow="2"
     inkscape:window-width="1920"
     inkscape:window-height="993"
     id="namedview7"
     showgrid="false"
     inkscape:zoom="3.0117317"
     inkscape:cx="85.963802"
     inkscape:cy="302.71231"
     inkscape:window-x="0"
     inkscape:window-y="24"
     inkscape:window-maximized="1"
     inkscape:current-layer="layer3"
     fit-margin-top="0"
     fit-margin-left="-0.2"
     fit-margin-right="0"
     fit-margin-bottom="0" />
  <g
     inkscape:groupmode="layer"
     id="layer3"
     inkscape:label="black"
     transform="translate(-121.38219,119.14678)">
    <path
       inkscape:connector-curvature="0"
       style="fill:#040404;fill-rule:evenodd;stroke:none"
       id="path2"
       d="m 148.76561,-14.255757 -15.6549,-10.03257 21.7809,48.87757 -16.48391,-9.32709 22.21691,50.96609 -15.07363,-6.00737 17.29463,37.07337 -11.93534,-5.70445 14.24334,35.550447 -9.908,-4.649 16.309,42.606 -10.611,-3.73 13.347,30.815 -6.808,0.771 19.308,36.312 0.0643,15.72201 13.53347,35.88328 3.47296,-0.0512 14.83839,-37.97648 -0.64557,-14.79752 17.80343,-35.8133 -7.80371,1.74391 14.14269,-30.29072 -9.906,1.835 18.71857,-42.88972 -10.80157,5.22372 13.82091,-32.648467 -12.60391,4.01447 14.456,-38.469 -13.222,5.272 20.99717,-49.26617 -15.36517,8.44017 21.375,-45.536 -14.147,6.034 25.73815,-47.43179 -39.51015,26.87879 c -1.065,-40.632 0,0 -1.065,-40.632 l -38.527,-43.657003 -37.424,44.825003 -1.176,40.586 -42.17238,-29.52412"
       sodipodi:nodetypes="ccccccccccccccccccccccccccccccccccccccccc" />
    <path
       inkscape:connector-curvature="0"
       style="fill:#043c1c;fill-rule:evenodd;stroke:none"
       id="path1"
       d="m 154.27351,-9.2046436 -18.632,-12.8490004 24.298,51.727 -19.403,-12.632 25.091,53.75 -17.145,-7.975 18.307,40.007004 -13.717,-9.242004 16.607,37.233004 -11.971,-6.383 17.75,44.077 -12.151,-5.196 14.603,31.795 -7.636,-1.995 19.167,35.642 -0.003,16.108 11.336,30.645 c 3.32045,-0.0772 0,0 3.32045,-0.0772 l 12.51255,-32.9248 v -14.931 l 16.95899,-33.507 -7.459,1.879 14.235,-30.347 -12.588,4.526 20.653,-44.479 -13.266,8.6 16.966,-37.532004 -15.541,5.786004 17.712,-39.459004 c -0.27047,0.83659 0,0 -14.254,5.165 l 22.217,-49.236 -16.732,9.041 22.426,-46.243 -18.161,7.531 30.83299,-50.166 -39.97999,29.646 -1.186,-43.024 -37.29327,-41.929716 -35.54372,43.036716 -0.75454,43.97572 -41.57546,-31.30072"
       sodipodi:nodetypes="ccccccccccccccccccccccccccccccccccccccccc" />
    <g
       transform="matrix(0,-1.0149138,1,0,119.68074,281.30784)"
       id="svgg">
      <path
         style="fill:#a34c04;fill-rule:evenodd;stroke:none"
         inkscape:connector-curvature="0"
         id="path0"
         d="m 262.334,60.497 17.499,-25.593 -53.56,26.729 12.729,-20.925 -49.19,23.879 10.537,-18.809 -51.321,23.165 11.953,-15.258 -43.148,17.777 c 2.89619,-3.664836 0,0 10.242,-14.295 -57.03842,26.769648 0,0 -36.16,16.931 1.133736,-4.509353 5.571036,-8.700999 6.904,-13.198 L 69.468468,74.598957 C 71.840722,65.152893 70.11296,72.593647 71.8,66.533 L 53.343,75.417 38.993,75.833 22.557449,82.256618 38.286,88.847 53.051811,88.76017 71.8,97.966997 70.437469,90.233187 98.069,103.833 92.52,90.726 c 36.861,15.865 0,0 36.861,15.865 -8.379,-11.85 0,0 -8.379,-11.85 39.66,18.259 0,0 39.66,18.259 -8.79,-16.011 0,0 -8.79,-16.011 46.945,20.653 0,0 46.945,20.653 -7.578,-15.799 0,0 -7.578,-15.799 48.727,22.254 0,0 48.727,22.254 -13.633,-18.808 0,0 -13.633,-18.808 52.43068,25.31149 0,0 52.43068,25.31149 -14.415,-24.244 0,0 -14.415,-24.244 48.64532,29.15451 0,0 48.64532,29.15451 -17.952,-24.55 0,0 -17.952,-24.55 30.271,-0.211 0,0 30.271,-0.211 30.865,-24.911 0,0 30.865,-24.911 -295.366,-0.448 0,0 -295.366,-0.448 V 77.942 L 356.51244,77.667 324.862,53.926 295.307,53.893 313.903,28.768"
         sodipodi:nodetypes="ccccccccccccccccccccccccccccccccccccccccccc" />
    </g>
  </g>
  <g
     inkscape:groupmode="layer"
     id="layer2"
     inkscape:label="green"
     transform="translate(-121.38219,119.14678)" />
  <g
     inkscape:groupmode="layer"
     id="layer1"
     inkscape:label="orange"
     transform="translate(-121.38219,119.14678)" />
</svg>
