<?xml version="1.0" standalone="no"?>
<!DOCTYPE svg PUBLIC "-//W3C//DTD SVG 20010904//EN"
 "http://www.w3.org/TR/2001/REC-SVG-20010904/DTD/svg10.dtd">
<svg version="1.0" xmlns="http://www.w3.org/2000/svg"
 width="25.000000pt" height="25.000000pt" viewBox="0 0 500.000000 301.000000"
 preserveAspectRatio="xMidYMid meet">

<g transform="translate(0.000000,301.000000) scale(0.100000,-0.100000)"
fill="#bbbbbb" stroke="none">
<path d="M1899 2987 c-104 -29 -199 -112 -245 -214 -44 -97 -253 -607 -250
-610 2 -2 32 7 67 21 l64 23 111 209 c118 220 141 250 234 296 l45 23 575 0
575 0 45 -23 c94 -48 116 -76 234 -296 l111 -209 50 -18 c93 -35 88 -37 64 23
-62 160 -206 502 -236 563 -43 89 -100 147 -183 188 l-65 32 -575 2 c-435 2
-586 -1 -621 -10z"/>
<path d="M2275 2359 c-193 -25 -391 -101 -507 -193 -31 -25 -76 -73 -101 -108
-175 -245 -86 -551 212 -738 40 -25 107 -67 149 -94 44 -27 118 -90 172 -145
78 -78 103 -112 137 -181 118 -240 65 -455 -197 -810 l-60 -80 420 0 420 0
-64 86 c-149 202 -238 385 -252 517 -16 153 46 312 172 446 89 95 160 150 302
234 228 135 342 301 343 498 0 132 -47 238 -151 339 -101 99 -250 170 -436
210 -114 25 -438 36 -559 19z m45 -704 l0 -76 -32 3 c-33 3 -33 3 -36 62 -4
75 -1 81 37 84 l31 2 0 -75z m110 0 l0 -75 -35 0 -35 0 0 68 c0 38 3 72 7 75
3 4 19 7 35 7 l28 0 0 -75z m105 -1 l0 -69 -32 -3 -33 -3 0 75 0 76 33 -4 32
-3 0 -69z m108 62 c3 -6 4 -38 3 -71 l-1 -60 -32 -3 -33 -3 0 74 0 73 30 0
c16 0 31 -4 33 -10z m107 -64 l0 -73 -32 3 c-33 3 -33 3 -35 63 -3 78 0 85 37
82 l30 -2 0 -73z m-652 22 c71 -29 137 -111 171 -212 27 -81 27 -130 -2 -173
-49 -72 -126 -62 -217 29 -131 132 -155 302 -50 354 43 22 51 22 98 2z m919
-4 c55 -33 70 -89 47 -175 -25 -98 -113 -209 -190 -241 -50 -21 -80 -17 -116
15 -32 28 -33 33 -33 103 0 59 5 83 28 129 51 104 145 188 212 189 11 0 34 -9
52 -20z m-587 -205 l0 -75 -35 0 -35 0 0 68 c0 38 3 72 7 75 3 4 19 7 35 7
l28 0 0 -75z m105 0 l0 -70 -32 -3 -33 -3 0 76 0 76 33 -3 32 -3 0 -70z m109
59 c3 -9 6 -35 6 -59 0 -61 -8 -75 -41 -75 l-29 0 0 75 0 75 29 0 c17 0 31 -6
35 -16z m-109 -259 l0 -70 -30 0 -30 0 -3 73 -3 73 33 -3 33 -3 0 -70z m-57
-1079 l-3 -74 -82 75 -82 75 82 70 82 71 3 -71 c2 -39 2 -105 0 -146z m150
135 c34 -29 62 -57 62 -61 0 -4 -36 -40 -80 -79 l-80 -73 0 147 c0 168 -11
160 98 66z"/>
<path d="M1685 2230 c-315 -82 -526 -195 -587 -314 -28 -53 -28 -127 0 -181
21 -42 83 -106 140 -144 47 -33 176 -94 260 -124 63 -23 219 -67 237 -67 4 0
-19 28 -50 62 -217 241 -182 511 99 756 59 51 52 52 -99 12z"/>
<path d="M3216 2218 c143 -125 220 -249 239 -384 15 -114 -41 -262 -140 -372
-31 -34 -54 -62 -50 -62 4 0 42 9 86 20 265 68 491 197 551 314 75 146 -36
293 -302 403 -118 49 -373 123 -422 123 -6 0 11 -19 38 -42z"/>
<path d="M717 2002 c-18 -29 -28 -60 -30 -91 l-2 -46 -40 0 c-40 0 -40 0 -43
42 l-3 43 -35 -28 c-21 -17 -34 -36 -34 -50 0 -21 -4 -23 -37 -20 -34 3 -38 6
-37 31 1 15 -1 27 -4 27 -13 0 -72 -53 -72 -64 0 -10 -28 -15 -103 -20 -216
-13 -268 -19 -260 -26 4 -5 76 -11 158 -15 171 -7 205 -12 205 -28 0 -14 65
-68 73 -61 3 3 3 17 1 30 -4 22 -1 24 36 24 32 0 40 -4 40 -18 0 -10 16 -33
35 -52 l35 -34 0 48 0 47 43 -3 42 -3 6 -50 c3 -27 16 -68 30 -90 l24 -40 3
80 c3 78 12 100 39 90 7 -2 72 -5 145 -5 l133 -2 -3 24 c-1 12 -5 54 -8 92
l-7 68 -66 -6 c-36 -3 -103 -8 -148 -12 l-82 -7 -3 85 -3 85 -28 -45z"/>
<path d="M4250 1959 l0 -82 -75 7 c-41 3 -108 9 -149 12 l-73 6 -6 -68 c-4
-38 -9 -82 -13 -98 -4 -17 -3 -27 2 -23 5 3 77 7 159 8 l150 3 5 -84 5 -85 28
48 c18 30 29 65 30 90 2 42 2 42 45 45 l42 3 0 -47 0 -48 35 34 c19 19 35 42
35 52 0 14 8 18 41 18 37 0 40 -2 37 -25 -2 -13 -1 -25 2 -27 10 -5 70 46 70
59 0 7 5 14 10 14 6 1 13 2 18 3 4 1 80 6 170 10 89 4 164 12 167 16 3 4 -39
11 -92 14 -277 18 -271 17 -276 35 -2 10 -18 27 -34 39 l-31 22 -6 -30 c-5
-27 -10 -30 -41 -30 -30 0 -35 3 -35 23 0 13 -14 33 -34 49 l-35 28 -3 -43
c-3 -42 -3 -42 -43 -42 l-40 0 -3 49 c-2 31 -12 62 -29 87 -14 21 -27 39 -29
39 -2 0 -4 -37 -4 -81z"/>
</g>
</svg>
